<?xml version="1.0" encoding="utf-8"?>
<!-- Generator: Adobe Illustrator 28.0.0, SVG Export Plug-In . SVG Version: 6.00 Build 0)  -->
<svg version="1.1" id="Layer_1" xmlns="http://www.w3.org/2000/svg" xmlns:xlink="http://www.w3.org/1999/xlink" x="0px" y="0px"
	 viewBox="0 0 1800 1200" style="enable-background:new 0 0 1800 1200;" xml:space="preserve">
<style type="text/css">
	.st0{fill:none;stroke:#000000;stroke-width:0.5;stroke-miterlimit:10;}
</style>
<g>
	<g>
		<path d="M1247.7,853.9c-142.6,0-258.6-116-258.6-258.6s116-258.6,258.6-258.6s258.6,116,258.6,258.6S1390.3,853.9,1247.7,853.9z
			 M1247.7,339.7c-140.9,0-255.6,114.6-255.6,255.6s114.6,255.6,255.6,255.6c140.9,0,255.6-114.6,255.6-255.6
			S1388.6,339.7,1247.7,339.7z"/>
	</g>
	<g>
		<path d="M1247.7,745.8c-83,0-150.6-67.6-150.6-150.6s67.6-150.6,150.6-150.6c83,0,150.6,67.6,150.6,150.6
			S1330.7,745.8,1247.7,745.8z M1247.7,447.7c-81.3,0-147.5,66.2-147.5,147.5s66.2,147.5,147.5,147.5c81.3,0,147.5-66.2,147.5-147.5
			S1329,447.7,1247.7,447.7z"/>
	</g>
	<g>
		<path d="M1247.7,394.6c-12.4,0-22.4-10.1-22.4-22.4c0-12.4,10-22.4,22.4-22.4c12.4,0,22.4,10.1,22.4,22.4
			C1270.1,384.6,1260,394.6,1247.7,394.6z M1247.7,352.9c-10.7,0-19.3,8.7-19.3,19.3c0,10.7,8.7,19.3,19.3,19.3
			c10.7,0,19.3-8.7,19.3-19.3C1267,361.6,1258.3,352.9,1247.7,352.9z"/>
	</g>
	<g>
		<path d="M1247.2,840.7c-12.4,0-22.4-10.1-22.4-22.4c0-12.4,10.1-22.4,22.4-22.4c12.4,0,22.4,10.1,22.4,22.4
			C1269.6,830.6,1259.5,840.7,1247.2,840.7z M1247.2,798.9c-10.7,0-19.3,8.7-19.3,19.3c0,10.7,8.7,19.3,19.3,19.3
			c10.7,0,19.3-8.7,19.3-19.3C1266.5,807.6,1257.8,798.9,1247.2,798.9z"/>
	</g>
	<g>
		<path d="M1026.2,616.5c-12.4,0-22.4-10.1-22.4-22.4c0-12.4,10.1-22.4,22.4-22.4c12.4,0,22.4,10.1,22.4,22.4
			C1048.6,606.5,1038.6,616.5,1026.2,616.5z M1026.2,574.8c-10.7,0-19.3,8.7-19.3,19.3c0,10.7,8.7,19.3,19.3,19.3
			c10.7,0,19.3-8.7,19.3-19.3C1045.5,583.5,1036.9,574.8,1026.2,574.8z"/>
	</g>
	<g>
		<path d="M1470.2,616.5c-12.4,0-22.4-10.1-22.4-22.4c0-12.4,10.1-22.4,22.4-22.4s22.4,10.1,22.4,22.4
			C1492.6,606.5,1482.6,616.5,1470.2,616.5z M1470.2,574.8c-10.7,0-19.3,8.7-19.3,19.3c0,10.7,8.7,19.3,19.3,19.3
			c10.7,0,19.3-8.7,19.3-19.3C1489.6,583.5,1480.9,574.8,1470.2,574.8z"/>
	</g>
	<g>
		<path d="M1247.7,696.4c-55.8,0-101.2-45.4-101.2-101.2s45.4-101.2,101.2-101.2c55.8,0,101.2,45.4,101.2,101.2
			S1303.5,696.4,1247.7,696.4z M1247.7,497.1c-54.1,0-98.1,44-98.1,98.1c0,54.1,44,98.1,98.1,98.1c54.1,0,98.1-44,98.1-98.1
			C1345.8,541.1,1301.8,497.1,1247.7,497.1z"/>
	</g>
	<g>
		<path d="M1240.3,687.3c0,0-0.1,0-0.1,0c-5.1-0.4-10.1-1.2-15.1-2.5c-0.8-0.2-1.3-1-1.1-1.9c0.2-0.8,1-1.3,1.9-1.1
			c4.7,1.2,9.6,2,14.5,2.4c0.8,0.1,1.5,0.8,1.4,1.7C1241.7,686.7,1241,687.3,1240.3,687.3z M1255.3,687.3c-0.8,0-1.5-0.6-1.5-1.4
			c-0.1-0.8,0.6-1.6,1.4-1.7c4.9-0.4,9.8-1.2,14.5-2.4c0.8-0.2,1.7,0.3,1.9,1.1c0.2,0.8-0.3,1.7-1.1,1.9c-4.9,1.2-10,2.1-15,2.5
			C1255.3,687.3,1255.3,687.3,1255.3,687.3z M1211.3,680.1c-0.2,0-0.4,0-0.6-0.1c-4.7-2-9.2-4.5-13.4-7.3c-0.7-0.5-0.9-1.4-0.4-2.1
			c0.5-0.7,1.4-0.9,2.1-0.4c4.1,2.7,8.5,5,13,7c0.8,0.3,1.1,1.2,0.8,2C1212.4,679.7,1211.9,680.1,1211.3,680.1z M1284.2,680
			c-0.6,0-1.2-0.3-1.4-0.9c-0.3-0.8,0-1.7,0.8-2c4.5-2,8.8-4.3,12.9-7c0.7-0.5,1.7-0.3,2.1,0.4c0.5,0.7,0.3,1.7-0.4,2.1
			c-4.2,2.8-8.8,5.2-13.4,7.3C1284.6,679.9,1284.4,680,1284.2,680z M1186.2,663.7c-0.4,0-0.7-0.1-1-0.4c-3.7-3.4-7.2-7.2-10.3-11.2
			c-0.5-0.7-0.4-1.6,0.3-2.2c0.7-0.5,1.6-0.4,2.2,0.3c3,3.9,6.4,7.5,10,10.8c0.6,0.6,0.7,1.5,0.1,2.2
			C1187,663.5,1186.6,663.7,1186.2,663.7z M1309.2,663.6c-0.4,0-0.8-0.2-1.1-0.5c-0.6-0.6-0.5-1.6,0.1-2.2c3.6-3.3,7-7,10-10.9
			c0.5-0.7,1.5-0.8,2.2-0.3c0.7,0.5,0.8,1.5,0.3,2.2c-3.1,4-6.6,7.8-10.3,11.2C1310,663.5,1309.6,663.6,1309.2,663.6z M1167.8,640.2
			c-0.5,0-1.1-0.3-1.3-0.8c-2.4-4.5-4.5-9.2-6.2-14c-0.3-0.8,0.2-1.7,1-2c0.8-0.3,1.7,0.2,2,1c1.6,4.6,3.6,9.2,5.9,13.5
			c0.4,0.7,0.1,1.7-0.6,2.1C1168.3,640.1,1168.1,640.2,1167.8,640.2z M1327.6,640c-0.2,0-0.5-0.1-0.7-0.2c-0.7-0.4-1-1.3-0.6-2.1
			c2.3-4.3,4.3-8.9,5.9-13.5c0.3-0.8,1.1-1.2,2-1c0.8,0.3,1.2,1.1,1,2c-1.6,4.8-3.7,9.5-6.1,14C1328.7,639.7,1328.1,640,1327.6,640z
			 M1158.1,611.9c-0.7,0-1.4-0.5-1.5-1.3c-0.8-5-1.3-10.1-1.3-15.2c0-0.8,0.7-1.5,1.5-1.5h0c0.8,0,1.5,0.7,1.5,1.5
			c0,4.9,0.4,9.9,1.2,14.7c0.1,0.8-0.4,1.6-1.3,1.8C1158.2,611.9,1158.1,611.9,1158.1,611.9z M1337.3,611.7c-0.1,0-0.2,0-0.3,0
			c-0.8-0.1-1.4-0.9-1.3-1.8c0.8-4.8,1.2-9.8,1.2-14.7l0-0.4c0-0.8,0.7-1.5,1.5-1.5s1.5,0.7,1.5,1.5l0,0.3c0,5.1-0.4,10.2-1.2,15.2
			C1338.7,611.2,1338,611.7,1337.3,611.7z M1158,582c-0.1,0-0.2,0-0.3,0c-0.8-0.1-1.4-0.9-1.3-1.8c0.8-5,2.1-10,3.7-14.8
			c0.3-0.8,1.1-1.2,2-1c0.8,0.3,1.2,1.1,1,2c-1.6,4.6-2.8,9.5-3.6,14.3C1159.4,581.5,1158.7,582,1158,582z M1337.2,581.5
			c-0.7,0-1.4-0.5-1.5-1.3c-0.8-4.8-2.1-9.7-3.7-14.3c-0.3-0.8,0.1-1.7,0.9-2c0.8-0.3,1.7,0.1,2,0.9c1.7,4.8,2.9,9.8,3.8,14.8
			c0.1,0.8-0.4,1.6-1.3,1.8C1337.4,581.4,1337.3,581.5,1337.2,581.5z M1167.6,553.7c-0.2,0-0.5-0.1-0.7-0.2c-0.7-0.4-1-1.3-0.6-2.1
			c2.4-4.5,5.2-8.8,8.3-12.8c0.5-0.7,1.5-0.8,2.2-0.3c0.7,0.5,0.8,1.5,0.3,2.2c-3,3.9-5.7,8-8,12.4
			C1168.7,553.4,1168.2,553.7,1167.6,553.7z M1327.4,553.2c-0.5,0-1.1-0.3-1.3-0.8c-2.4-4.3-5.1-8.4-8.1-12.3
			c-0.5-0.7-0.4-1.6,0.3-2.2c0.7-0.5,1.6-0.4,2.2,0.3c3.1,4,6,8.3,8.4,12.7c0.4,0.7,0.1,1.7-0.6,2.1
			C1327.9,553.2,1327.7,553.2,1327.4,553.2z M1186,530.1c-0.4,0-0.8-0.2-1.1-0.5c-0.6-0.6-0.5-1.6,0.1-2.2c3.7-3.5,7.8-6.6,12-9.4
			c0.7-0.5,1.7-0.3,2.1,0.4c0.5,0.7,0.3,1.7-0.4,2.1c-4.1,2.7-8,5.8-11.6,9.1C1186.7,530,1186.3,530.1,1186,530.1z M1309,529.7
			c-0.4,0-0.7-0.1-1-0.4c-3.6-3.3-7.5-6.4-11.7-9c-0.7-0.5-0.9-1.4-0.4-2.1c0.5-0.7,1.4-0.9,2.1-0.5c4.3,2.8,8.3,5.9,12.1,9.3
			c0.6,0.6,0.7,1.5,0.1,2.2C1309.8,529.5,1309.4,529.7,1309,529.7z M1210.9,513.7c-0.6,0-1.1-0.3-1.4-0.9c-0.3-0.8,0-1.7,0.8-2
			c4.6-2.1,9.5-3.7,14.4-5c0.8-0.2,1.7,0.3,1.9,1.1c0.2,0.8-0.3,1.7-1.1,1.9c-4.8,1.2-9.4,2.8-13.9,4.8
			C1211.3,513.6,1211.1,513.7,1210.9,513.7z M1283.9,513.4c-0.2,0-0.4,0-0.6-0.1c-4.5-2-9.2-3.6-14-4.7c-0.8-0.2-1.3-1-1.1-1.9
			c0.2-0.8,1-1.3,1.9-1.1c4.9,1.2,9.8,2.9,14.4,4.9c0.8,0.3,1.1,1.2,0.8,2C1285,513.1,1284.5,513.4,1283.9,513.4z M1239.9,506.2
			c-0.8,0-1.5-0.6-1.5-1.4c-0.1-0.8,0.6-1.6,1.4-1.7c2.6-0.2,5.2-0.4,7.9-0.3c2.4,0,4.9,0.1,7.3,0.3c0.8,0.1,1.5,0.8,1.4,1.6
			c-0.1,0.8-0.8,1.5-1.7,1.4c-2.4-0.2-4.9-0.3-7.2-0.3c-2.5,0-5.1,0.1-7.6,0.3C1240,506.2,1239.9,506.2,1239.9,506.2z"/>
	</g>
	<g>
		<path d="M1247.7,678.3c-45.8,0-83.1-37.3-83.1-83.1s37.3-83.1,83.1-83.1c45.8,0,83.1,37.3,83.1,83.1S1293.5,678.3,1247.7,678.3z
			 M1247.7,515.2c-44.1,0-80,35.9-80,80s35.9,80,80,80c44.1,0,80-35.9,80-80S1291.8,515.2,1247.7,515.2z"/>
	</g>
	<g>
		<path d="M1247.7,648.5c-29.4,0-53.3-23.9-53.3-53.3s23.9-53.3,53.3-53.3c29.4,0,53.3,23.9,53.3,53.3S1277,648.5,1247.7,648.5z
			 M1247.7,545c-27.7,0-50.2,22.5-50.2,50.2s22.5,50.2,50.2,50.2s50.2-22.5,50.2-50.2S1275.3,545,1247.7,545z"/>
	</g>
	<g>
		<g>
			<path d="M1233.8,374.3c-0.1-1-0.1-2-0.1-3.1c-20.8,1.3-40.8,5.4-59.7,12c0.7,0.8,0.9,2,0.7,3.1
				C1193.4,379.7,1213.2,375.6,1233.8,374.3z"/>
		</g>
		<g>
			<path d="M1320.4,382.9c-19.1-6.6-39.3-10.6-60.3-11.8c0.1,1,0.1,2.1,0,3.1c20.8,1.2,40.8,5.2,59.7,11.7
				C1319.5,384.9,1319.7,383.7,1320.4,382.9z"/>
		</g>
		<g>
			<path d="M1339.5,390.4c-4.4-2-8.9-3.9-13.5-5.6c0.1,1.1-0.3,2.1-1.2,2.8c4.8,1.8,9.6,3.8,14.2,5.9
				C1338.7,392.5,1338.9,391.3,1339.5,390.4z"/>
		</g>
		<g>
			<path d="M1394.3,428.3c0.3-0.7,0.8-1.2,1.6-1.5c-15.2-13.4-32.2-24.8-50.7-33.7c-0.2,1.1-0.8,2.1-1.9,2.5
				c18.4,8.8,35.3,20.1,50.5,33.4C1393.9,428.8,1394.1,428.5,1394.3,428.3z"/>
		</g>
		<g>
			<path d="M1415,445.9c0,0.1-0.1,0.1-0.1,0.2c-0.2,0.4-0.4,0.8-0.8,1.1c-0.3,0.4-0.7,0.7-1.1,1.1c12.8,14.4,23.8,30.5,32.5,47.8
				c0.5-0.6,1.3-0.9,2.3-0.9c0.3,0,0.5,0.1,0.8,0.2C1439.6,477.3,1428.3,460.7,1415,445.9z"/>
		</g>
		<g>
			<path d="M1457.1,514.8c0,0,0.1,0,0.1,0c-2-5.1-4.1-10.1-6.4-15c-0.4,1-1.2,1.7-2.5,1.9c2.2,4.7,4.3,9.6,6.2,14.5
				C1454.9,515.4,1455.8,514.8,1457.1,514.8z"/>
		</g>
		<g>
			<path d="M1470,579.8c0.6,0,1,0.1,1.6,0.2c-1.4-20.7-5.6-40.6-12.3-59.4c-0.5,0.5-1.3,0.9-2.2,0.9c-0.3,0-0.5-0.1-0.8-0.2
				c6.6,18.5,10.8,38.2,12.2,58.7C1469,579.9,1469.5,579.8,1470,579.8z"/>
		</g>
		<g>
			<path d="M1470,607.3c-0.5,0-0.9-0.1-1.3-0.1c-1.1,20.7-5.1,40.6-11.5,59.4c0.1,0,0.2-0.1,0.3-0.1c1.2,0,2,0.5,2.5,1.3
				c6.6-19.2,10.6-39.5,11.7-60.6C1471.2,607.2,1470.7,607.3,1470,607.3z"/>
		</g>
		<g>
			<path d="M1452.1,687.9c2.2-4.9,4.3-9.9,6.2-14.9c-0.2,0.1-0.5,0.1-0.7,0.1c-1,0-1.7-0.4-2.3-0.9c-1.7,4.7-3.7,9.3-5.7,13.9
				C1450.9,686.2,1451.7,686.9,1452.1,687.9z"/>
		</g>
		<g>
			<path d="M1415.6,744c13.7-15.4,25.3-32.7,34.4-51.5c-0.2,0-0.4,0.1-0.7,0.1c-1,0-1.8-0.4-2.3-1c-8.8,18.1-20,34.8-33.2,49.8
				C1414.4,742.2,1415.1,743.1,1415.6,744z"/>
		</g>
		<g>
			<path d="M1394.4,760.9c-14.5,12.8-30.6,23.9-48.1,32.6c0.8,0.7,1.3,1.7,1.2,2.8c17.9-8.9,34.5-20.2,49.3-33.4
				C1395.8,762.3,1395,761.7,1394.4,760.9z"/>
		</g>
		<g>
			<path d="M1327,805.2c5.2-2,10.3-4.1,15.3-6.5c-0.9-0.7-1.3-1.7-1.3-2.8c-4.9,2.3-9.8,4.4-14.8,6.3
				C1327,803,1327.2,804.2,1327,805.2z"/>
		</g>
		<g>
			<path d="M1037.9,672.9c-0.3,0-0.6-0.1-0.9-0.2c1.9,5.1,3.9,10.2,6.2,15.2c0.5-0.9,1.4-1.5,2.7-1.5c0,0,0,0,0,0
				c-2.1-4.7-4-9.5-5.8-14.3C1039.5,672.5,1038.8,672.9,1037.9,672.9z"/>
		</g>
		<g>
			<path d="M1025.1,579.8c0.6,0,1.1,0.1,1.7,0.2c1.4-20.5,5.6-40.3,12.3-59c-0.3,0.1-0.7,0.2-1.1,0.2c-0.8,0-1.5-0.3-2-0.7
				c-6.7,18.8-10.8,38.7-12.3,59.4C1024.2,579.9,1024.6,579.8,1025.1,579.8z"/>
		</g>
		<g>
			<path d="M1025.1,607.3c-0.6,0-1.1-0.1-1.6-0.2c1.1,21.1,5.1,41.5,11.7,60.6c0.5-0.9,1.4-1.5,2.7-1.5c0,0,0,0,0,0
				c-6.4-18.7-10.3-38.5-11.4-59.1C1026.1,607.2,1025.6,607.3,1025.1,607.3z"/>
		</g>
		<g>
			<path d="M1046.8,501.6c-1.1,0-2-0.5-2.5-1.2c-2.2,4.7-4.3,9.4-6.1,14.2c1.3,0.1,2.2,0.8,2.6,1.7c1.9-5,4.1-10,6.4-14.8
				C1047,501.5,1046.9,501.6,1046.8,501.6z"/>
		</g>
		<g>
			<path d="M1096,429.9c0.8,0.7,1.5,1.5,2,2.3c15.4-14.1,32.7-26.1,51.6-35.5c-0.8-0.8-1.1-1.9-1-3
				C1129.3,403.3,1111.6,415.5,1096,429.9z"/>
		</g>
		<g>
			<path d="M1081.2,444.8c-13.6,15-25.2,31.9-34.4,50.1c1.3,0,2.2,0.7,2.6,1.6c9-18.1,20.5-34.7,33.9-49.6
				C1082.5,446.4,1081.8,445.7,1081.2,444.8z"/>
		</g>
		<g>
			<path d="M1081.1,740.9c-13-14.8-24-31.3-32.7-49.1c-0.5,0.8-1.4,1.3-2.6,1.3c-0.1,0-0.2,0-0.3-0.1c8.8,18.1,20,34.8,33.1,49.8
				C1079.4,742.1,1080.2,741.4,1081.1,740.9z"/>
		</g>
		<g>
			<path d="M1099.9,759.8c-0.5,0.9-1.1,1.7-1.8,2.5c15,13.4,31.7,24.9,49.8,33.9c0-1.1,0.6-2.1,1.5-2.7
				C1131.3,784.6,1114.7,773.2,1099.9,759.8z"/>
		</g>
		<g>
			<path d="M1154.2,795.9c0.1,1.1-0.2,2.2-0.9,2.9c4.5,2.1,9.2,4.1,13.9,5.9c-0.1-1.1,0.3-2.1,1.2-2.8
				C1163.5,800.1,1158.8,798.1,1154.2,795.9z"/>
		</g>
		<g>
			<path d="M1259.9,819.4c21.6-1.2,42.4-5.4,62-12.3c-0.8-0.7-1.2-1.8-1.1-2.9c-19.2,6.8-39.7,10.9-60.9,12.1
				C1260,817.3,1260,818.4,1259.9,819.4z"/>
		</g>
		<g>
			<path d="M1233.5,819.3c-0.1-1-0.1-2.1,0-3.1c-21-1.3-41.2-5.6-60.2-12.4c0.2,1.1,0,2.2-0.7,3
				C1191.9,813.7,1212.3,817.9,1233.5,819.3z"/>
		</g>
		<g>
			<path d="M1154.9,394.2c4.8-2.2,9.7-4.2,14.7-6.1c-0.9-0.7-1.3-1.8-1.2-2.9c-5.1,1.9-10,4-14.9,6.3
				C1154.4,392.1,1154.9,393.1,1154.9,394.2z"/>
		</g>
	</g>
	<g>
		<g>
			<path d="M1249.2,361.3V260.5h-3.1v100.2C1247.2,360.8,1248.3,361,1249.2,361.3z"/>
		</g>
		<g>
			<path d="M1249.2,455.8v-69.3c-0.6,0.1-1.1,0.2-1.8,0.2c-0.5,0-0.9-0.1-1.3-0.1v69.2H1249.2z"/>
		</g>
		<g>
			<rect x="1246.1" y="463.2" width="3.1" height="15.8"/>
		</g>
		<g>
			<path d="M1246.1,486.3v95c0.2,0,0.5-0.1,0.7-0.1c0.8,0,1.6,0.1,2.4,0.3v-95.2H1246.1z"/>
		</g>
		<g>
			<rect x="1246.1" y="712" width="3.1" height="15.5"/>
		</g>
		<g>
			<path d="M1246.1,734.9v69.8c0.5,0,0.9,0.1,1.4,0.2c0.3,0,0.5-0.1,0.8-0.1c0.3,0,0.6,0.1,0.9,0.1v-70H1246.1z"/>
		</g>
		<g>
			<path d="M1249.2,704.7v-96.8c-1,0.2-2,0.3-3.1,0.2v96.6H1249.2z"/>
		</g>
		<g>
			<path d="M1246.1,832.5v48.3h3.1v-48C1248.2,832.8,1247.1,832.7,1246.1,832.5z"/>
		</g>
	</g>
	<g>
		<g>
			<rect x="1261.4" y="593.7" width="93.5" height="3.1"/>
		</g>
		<g>
			<rect x="1039.8" y="593.7" width="193.2" height="3.1"/>
		</g>
		<g>
			<rect x="963.7" y="593.7" width="47.2" height="3.1"/>
		</g>
		<g>
			<rect x="1362.3" y="593.7" width="17.3" height="3.1"/>
		</g>
		<g>
			<path d="M1455,594c0-0.1,0-0.2,0.1-0.2h-67.9c0,1-0.1,2-0.1,3.1h67.9V594z"/>
		</g>
		<g>
			<rect x="1484.3" y="593.7" width="47.3" height="3.1"/>
		</g>
	</g>
	<g>
		<rect x="1413.9" y="323.2" width="18.1" height="1.5"/>
	</g>
	<g>
		<rect x="1289.4" y="223.2" width="20.8" height="1.5"/>
	</g>
	<g>
		<g>
			<rect x="1035.7" y="594.5" transform="matrix(0.5265 -0.8502 0.8502 0.5265 84.7157 1342.5927)" width="423.9" height="1.5"/>
		</g>
		<g>
			<g>
				<polygon points="1140.4,775.2 1130.3,784.7 1134.3,771.5 				"/>
			</g>
		</g>
		<g>
			<g>
				<polygon points="1361,419 1365,405.8 1355,415.3 				"/>
			</g>
		</g>
	</g>
	<g>
		<g>
			<g>
				<polygon points="1200.5,919.1 1117.1,919.4 1117.1,922.5 1200.5,922.2 				"/>
			</g>
			<g>
				<polygon points="1276,922 1379.2,921.6 1379.2,918.5 1276,918.9 				"/>
			</g>
		</g>
		<g>
			<g>
				<g>
					<polygon points="1120.8,926.3 1100.8,921 1120.7,915.6 					"/>
				</g>
			</g>
		</g>
		<g>
			<g>
				<g>
					<polygon points="1375.6,925.4 1395.6,920 1375.6,914.7 					"/>
				</g>
			</g>
		</g>
	</g>
	<g>
		<g>
			<g>
				<rect x="1006.9" y="964.3" width="276.3" height="3.1"/>
			</g>
			<g>
				<rect x="1348.4" y="964.3" width="139.4" height="3.1"/>
			</g>
		</g>
		<g>
			<g>
				<g>
					<polygon points="1010.5,971.2 990.6,965.8 1010.5,960.4 					"/>
				</g>
			</g>
		</g>
		<g>
			<g>
				<g>
					<polygon points="1484.2,971.2 1504.2,965.8 1484.2,960.4 					"/>
				</g>
			</g>
		</g>
	</g>
	<g>
		<g>
			<path d="M1240.7,374.1v-2.5h14v2.5H1240.7z M1246.3,379.7V366h2.6v13.7H1246.3z"/>
		</g>
	</g>
	<g>
		<g>
			<path d="M1240.7,596.4v-2.5h14v2.5H1240.7z M1246.3,601.9v-13.7h2.6v13.7H1246.3z"/>
		</g>
	</g>
	<g>
		<g>
			<path d="M1463.2,596.4v-2.5h14v2.5H1463.2z M1468.9,601.9v-13.7h2.6v13.7H1468.9z"/>
		</g>
	</g>
	<g>
		<g>
			<path d="M1404.5,459.6c-5.7,0-11.3-2.1-15.7-6.4c-4.3-4.2-6.6-9.8-6.7-15.8c-0.1-6,2.2-11.6,6.4-15.9c4.2-4.3,9.8-6.6,15.8-6.7
				c6,0.1,11.6,2.2,15.9,6.4c8.8,8.7,8.9,22.9,0.3,31.7l0,0C1416.1,457.4,1410.3,459.6,1404.5,459.6z M1404.6,417.9
				c-0.1,0-0.1,0-0.2,0c-5.2,0-10,2.1-13.6,5.8c-7.5,7.6-7.4,19.9,0.2,27.3c7.6,7.5,19.9,7.4,27.3-0.2l0,0c3.6-3.7,5.6-8.6,5.5-13.7
				c0-5.2-2.1-10-5.8-13.6C1414.5,419.9,1409.7,417.9,1404.6,417.9z"/>
		</g>
		<g>
			<g>
				<path d="M1414,428.3c0.1,0.1,0.2,0.3,0.3,0.5l34.9-34l-1.1-1.1l-35,34.1C1413.4,427.9,1413.7,428.1,1414,428.3z"/>
			</g>
			<g>
				<path d="M1394.6,446.8c-0.2-0.2-0.2-0.4-0.4-0.6l-24.7,24.1l1.1,1.1l24.7-24.1C1395.1,447.1,1394.8,447,1394.6,446.8z"/>
			</g>
		</g>
		<g>
			<g>
				<path d="M1398.7,433.2l1.7-1.8l10,9.8l-1.7,1.8L1398.7,433.2z M1398.8,441.2l9.6-9.8l1.9,1.8l-9.6,9.8L1398.8,441.2z"/>
			</g>
		</g>
	</g>
	<g>
		<g>
			<path d="M1089.2,774.8c-5.9,0-11.5-2.3-15.7-6.4c-4.3-4.2-6.6-9.8-6.7-15.8c-0.1-6,2.2-11.6,6.4-15.9l0,0
				c8.7-8.8,22.9-8.9,31.7-0.3c8.8,8.7,8.9,22.9,0.3,31.7c-4.2,4.3-9.8,6.6-15.8,6.7C1089.3,774.8,1089.3,774.8,1089.2,774.8z
				 M1089.2,733.1c-0.1,0-0.1,0-0.2,0c-5.2,0-10,2.1-13.6,5.8l0,0c-3.6,3.7-5.6,8.6-5.5,13.7c0,5.2,2.1,10,5.8,13.6
				c3.7,3.6,8.5,5.6,13.7,5.5c5.2,0,10-2.1,13.6-5.8c7.5-7.6,7.4-19.9-0.2-27.3C1099.1,735.1,1094.3,733.1,1089.2,733.1z"/>
		</g>
		<g>
			<g>
				<path d="M1079.8,761.4c-0.1-0.1-0.2-0.3-0.3-0.5l-34.9,34l1.1,1.1l35-34.1C1080.3,761.7,1080,761.6,1079.8,761.4z"/>
			</g>
			<g>
				<path d="M1099.1,742.9c0.2,0.2,0.2,0.4,0.4,0.6l24.7-24.1l-1.1-1.1l-24.7,24.1C1098.6,742.6,1098.9,742.7,1099.1,742.9z"/>
			</g>
		</g>
		<g>
			<g>
				<path d="M1095.1,756.4l-1.7,1.8l-10-9.8l1.7-1.8L1095.1,756.4z M1094.9,748.5l-9.6,9.8l-1.9-1.8l9.6-9.8L1094.9,748.5z"/>
			</g>
		</g>
	</g>
	<g>
		<g>
			<path d="M1404.9,774.1c-6,0-11.6-2.3-15.8-6.5l0,0c-4.2-4.2-6.6-9.8-6.6-15.8c0-6,2.3-11.6,6.5-15.9c8.7-8.8,22.9-8.8,31.7-0.1
				c4.2,4.2,6.6,9.8,6.6,15.8c0,6-2.3,11.6-6.5,15.9C1416.5,771.7,1410.9,774,1404.9,774.1C1404.9,774.1,1404.9,774.1,1404.9,774.1z
				 M1404.9,732.3c-5,0-9.9,1.9-13.7,5.7c-7.5,7.6-7.5,19.8,0.1,27.3l0,0c3.6,3.6,8.5,5.6,13.6,5.6c0,0,0,0,0.1,0
				c5.2,0,10-2,13.7-5.7c3.6-3.7,5.6-8.5,5.6-13.7c0-5.2-2-10-5.7-13.7C1414.7,734.2,1409.8,732.3,1404.9,732.3z"/>
		</g>
		<g>
			<g>
				<path d="M1413.8,761.1c-0.1,0.1-0.3,0.2-0.5,0.3l33.8,35.1l1.1-1.1l-33.9-35.2C1414.1,760.6,1414,760.9,1413.8,761.1z"/>
			</g>
			<g>
				<path d="M1395.4,741.7c0.2-0.2,0.4-0.2,0.6-0.4l-23.9-24.8l-1.1,1.1l24,24.9C1395.1,742.2,1395.2,741.9,1395.4,741.7z"/>
			</g>
		</g>
		<g>
			<g>
				<path d="M1408.9,745.8l1.7,1.7l-9.9,9.9l-1.7-1.7L1408.9,745.8z M1400.9,745.9l9.7,9.6l-1.8,1.9l-9.7-9.6L1400.9,745.9z"/>
			</g>
		</g>
	</g>
	<g>
		<g>
			<path d="M1089.1,460.6c-6,0-11.6-2.3-15.8-6.5l0,0c-4.2-4.2-6.6-9.8-6.6-15.8s2.3-11.6,6.5-15.9c4.2-4.2,9.8-6.6,15.8-6.6
				c0,0,0,0,0.1,0c6,0,11.6,2.3,15.8,6.5c4.2,4.2,6.6,9.8,6.6,15.8c0,6-2.3,11.6-6.5,15.9C1100.7,458.3,1095.1,460.6,1089.1,460.6
				C1089.1,460.6,1089.1,460.6,1089.1,460.6z M1089.1,418.9C1089.1,418.9,1089,418.9,1089.1,418.9c-5.2,0-10.1,2-13.7,5.7
				c-3.6,3.7-5.6,8.5-5.6,13.7c0,5.2,2,10,5.7,13.7l0,0c3.6,3.6,8.5,5.6,13.6,5.6c0,0,0,0,0.1,0c5.2,0,10-2,13.7-5.7
				c3.6-3.7,5.6-8.5,5.6-13.7c0-5.2-2-10-5.7-13.7C1099.1,420.9,1094.2,418.9,1089.1,418.9z"/>
		</g>
		<g>
			<g>
				<path d="M1098,447.7c-0.1,0.1-0.3,0.2-0.5,0.3l27,26.8l1.1-1.1l-27.1-26.9C1098.3,447.1,1098.2,447.4,1098,447.7z"/>
			</g>
			<g>
				<path d="M1079.6,428.2c0.2-0.2,0.4-0.2,0.6-0.4l-72.9-72.1l-1.1,1.1l72.9,72.1C1079.3,428.7,1079.4,428.5,1079.6,428.2z"/>
			</g>
		</g>
		<g>
			<g>
				<path d="M1093.1,432.4l1.7,1.7l-9.9,9.9l-1.7-1.7L1093.1,432.4z M1085.1,432.5l9.7,9.6l-1.8,1.9l-9.7-9.6L1085.1,432.5z"/>
			</g>
		</g>
	</g>
	<g>
		<g>
			<path d="M1019.2,596.4v-2.5h14v2.5H1019.2z M1024.9,601.9v-13.7h2.6v13.7H1024.9z"/>
		</g>
	</g>
	<g>
		<g>
			<path d="M1240.7,820.6v-2.5h14v2.5H1240.7z M1246.3,826.2v-13.7h2.6v13.7H1246.3z"/>
		</g>
	</g>
	<g>
		<rect x="1097.4" y="640.5" width="2.3" height="292.7"/>
	</g>
	<g>
		<rect x="1337.1" y="366.6" transform="matrix(0.5162 -0.8565 0.8565 0.5162 356.9519 1366.6271)" width="102.1" height="1.5"/>
	</g>
	<g>
		<g>
			<rect x="1214.4" y="279.8" transform="matrix(0.2737 -0.9618 0.9618 0.2737 655.3448 1428.927)" width="118.9" height="1.5"/>
		</g>
		<g>
			<g>
				<polygon points="1254.1,333.6 1253.8,350.8 1262.7,336 				"/>
			</g>
		</g>
	</g>
	<g>
		<rect x="987.8" y="652.5" width="2.3" height="326.1"/>
	</g>
	<g>
		<rect x="1503.6" y="652.5" width="2.3" height="326.1"/>
	</g>
	<g>
		<rect x="1395.6" y="640.5" width="2.3" height="292.7"/>
	</g>
	<g>
		<g>
			<g>
				<path d="M1171.1,278.9c0.4,0.4,0.7,0.8,0.9,1.4c0.1,0.1,0.1,0.3,0.2,0.5c24.3-5.5,44.5-7.1,57.2-7.4l-0.1-2.3
					c-13,0.3-33.6,2-58.5,7.7C1171,278.8,1171.1,278.8,1171.1,278.9z"/>
			</g>
			<g>
				<path d="M1085.6,313.8c-0.1-0.1-0.3-0.3-0.4-0.4c-0.2-0.3-0.4-0.6-0.7-0.9c-18.4,10.6-37.1,23.9-55.2,40.5l1.6,1.7
					c18.1-16.6,36.8-29.9,55.2-40.4C1085.9,314.1,1085.7,314,1085.6,313.8z"/>
			</g>
		</g>
		<g>
			<g>
				<g>
					<polygon points="1036.9,355.4 1017.6,366 1029,347.2 					"/>
				</g>
			</g>
		</g>
		<g>
			<g>
				<g>
					<polygon points="1225.4,277.9 1246.7,272.5 1225.5,266.6 					"/>
				</g>
			</g>
		</g>
	</g>
	<g>
		<path d="M1496.2,340.4h-65.3v-32.9h65.3V340.4z M1433.2,338.1h60.7v-28.3h-60.7V338.1z"/>
	</g>
	<g>
		<path d="M1172.9,313.9h-90.9v-34.7h90.9V313.9z M1084.4,311.6h86.3v-30.1h-86.3V311.6z"/>
	</g>
	<g>
		<path d="M1536.8,272.2h-240.7v-33.6h240.7V272.2z M1298.4,269.9h236.1v-29h-236.1V269.9z"/>
	</g>
	<g>
		<path d="M1448.5,271.8h-110.1v-32.9h110.1V271.8z M1340.7,269.5h105.5v-28.3h-105.5V269.5z"/>
	</g>
	<g>
		<path d="M1536.8,271.8H1474v-32.9h62.8V271.8z M1476.3,269.5h58.2v-28.3h-58.2V269.5z"/>
	</g>
	<g>
		<g>
			<g>
				<path d="M636.1,987.8c-0.1,0.8-0.1,1.5-0.2,2.3h86v-2.3H636.1z"/>
			</g>
			<g>
				<rect x="529.9" y="987.8" width="52.9" height="2.3"/>
			</g>
		</g>
		<g>
			<g>
				<g>
					<polygon points="532.2,992.3 519.7,989 532.2,985.6 					"/>
				</g>
			</g>
		</g>
		<g>
			<g>
				<g>
					<polygon points="719.5,992.3 732,989 719.5,985.6 					"/>
				</g>
			</g>
		</g>
	</g>
	<g>
		<g>
			<g>
				<rect x="560.6" y="929.1" width="60.8" height="2.3"/>
			</g>
			<g>
				<rect x="659" y="929.1" width="61.4" height="2.3"/>
			</g>
		</g>
		<g>
			<g>
				<g>
					<polygon points="562.9,933.6 550.4,930.3 562.9,926.9 					"/>
				</g>
			</g>
		</g>
		<g>
			<g>
				<g>
					<polygon points="718.1,933.6 730.6,930.3 718.1,926.9 					"/>
				</g>
			</g>
		</g>
	</g>
	<g>
		<g>
			<g>
				<rect x="699.6" y="873.6" width="18.6" height="2.3"/>
			</g>
			<g>
				<rect x="611.7" y="873.6" width="33.2" height="2.3"/>
			</g>
		</g>
		<g>
			<g>
				<g>
					<polygon points="614,878.1 601.5,874.8 614,871.4 					"/>
				</g>
			</g>
		</g>
		<g>
			<g>
				<g>
					<polygon points="715.9,878.1 728.4,874.8 715.9,871.4 					"/>
				</g>
			</g>
		</g>
	</g>
	<g>
		<g>
			<g>
				<path d="M309.5,580.2c-0.1,0-0.1,0.1-0.2,0.1l-1,109.4l2.3,0l1-109.5H309.5z"/>
			</g>
			<g>
				<path d="M312.1,528.1l0.2-24.4l-2.3,0l-0.2,24.4C310.6,528.2,311.3,528.1,312.1,528.1z"/>
			</g>
		</g>
		<g>
			<g>
				<g>
					<polygon points="307.1,506.4 311.3,491.5 315.2,506.5 					"/>
				</g>
			</g>
		</g>
		<g>
			<g>
				<g>
					<polygon points="305.4,686.8 309.3,701.9 313.5,686.9 					"/>
				</g>
			</g>
		</g>
	</g>
	<g>
		<g>
			<g>
				<rect x="389.7" y="516" width="2.3" height="72.9"/>
			</g>
			<g>
				<rect x="389.7" y="646.6" width="2.3" height="29.2"/>
			</g>
		</g>
		<g>
			<g>
				<g>
					<polygon points="386.8,518.8 390.8,503.8 394.8,518.8 					"/>
				</g>
			</g>
		</g>
		<g>
			<g>
				<g>
					<polygon points="386.8,673.1 390.8,688 394.8,673.1 					"/>
				</g>
			</g>
		</g>
	</g>
	<g>
		<g>
			<g>
				<rect x="883.5" y="529.1" width="2.3" height="136.6"/>
			</g>
		</g>
		<g>
			<g>
				<g>
					<polygon points="880.7,531.8 884.7,516.8 888.7,531.8 					"/>
				</g>
			</g>
		</g>
		<g>
			<g>
				<g>
					<polygon points="880.7,662.9 884.7,677.9 888.7,662.9 					"/>
				</g>
			</g>
		</g>
	</g>
	<g>
		<g>
			<g>
				<rect x="788" y="558.4" width="2.3" height="80.8"/>
			</g>
		</g>
		<g>
			<g>
				<g>
					<polygon points="785.1,561.1 789.1,546.1 793.1,561.1 					"/>
				</g>
			</g>
		</g>
		<g>
			<g>
				<g>
					<polygon points="785.1,636.4 789.1,651.4 793.1,636.4 					"/>
				</g>
			</g>
		</g>
	</g>
	<g>
		<g>
			<g>
				<rect x="603.2" y="374.3" transform="matrix(0.4194 -0.9078 0.9078 0.4194 74.3609 867.1978)" width="223.8" height="2.3"/>
			</g>
		</g>
		<g>
			<g>
				<g>
					<polygon points="664,470.1 659.6,495.6 676.2,475.7 					"/>
				</g>
			</g>
		</g>
	</g>
	<g>
		<g>
			<rect x="518.1" y="340.3" width="2.3" height="513.8"/>
		</g>
	</g>
	<g>
		<g>
			<rect x="568.9" y="258.6" width="2.3" height="222.1"/>
		</g>
	</g>
	<g>
		<g>
			<rect x="633.5" y="302" width="2.3" height="185"/>
		</g>
	</g>
	<g>
		<g>
			<rect x="518.1" y="260.7" width="2.3" height="69.5"/>
		</g>
	</g>
	<g>
		<g>
			<rect x="882" y="680" width="2.3" height="42"/>
		</g>
	</g>
	<g>
		<g>
			<rect x="518.9" y="860.6" width="1.5" height="139.4"/>
		</g>
	</g>
	<g>
		<g>
			<rect x="310.9" y="403.4" width="1.5" height="86.8"/>
		</g>
	</g>
	<g>
		<g>
			<rect x="548" y="860.6" width="2.3" height="82"/>
		</g>
	</g>
	<g>
		<g>
			<rect x="600.5" y="756.3" width="2.3" height="129.5"/>
		</g>
	</g>
	<g>
		<g>
			<rect x="681.4" y="703" width="2.3" height="129.5"/>
		</g>
	</g>
	<g>
		<g>
			<rect x="730.9" y="691.5" width="2.3" height="308.5"/>
		</g>
	</g>
	<g>
		<g>
			<rect x="600.2" y="192.6" width="2.3" height="246.7"/>
		</g>
	</g>
	<g>
		<g>
			<rect x="788" y="423.2" width="2.3" height="139.5"/>
		</g>
	</g>
	<g>
		<g>
			<rect x="299" y="490" width="212.2" height="3.1"/>
		</g>
	</g>
	<g>
		<g>
			<g>
				<rect x="569.9" y="543.8" width="163.4" height="2.3"/>
			</g>
		</g>
		<g>
			<g>
				<rect x="741.6" y="543.8" width="58.9" height="2.3"/>
			</g>
		</g>
	</g>
	<g>
		<g>
			<g>
				<rect x="569.9" y="648.5" width="163.4" height="2.3"/>
			</g>
		</g>
		<g>
			<g>
				<rect x="741.6" y="648.5" width="58.9" height="2.3"/>
			</g>
		</g>
	</g>
	<g>
		<g>
			<rect x="740.6" y="514" width="153.7" height="3.1"/>
		</g>
	</g>
	<g>
		<g>
			<rect x="740.6" y="678.5" width="153.7" height="3.1"/>
		</g>
	</g>
	<g>
		<g>
			<g>
				<rect x="554.4" y="595.5" width="100.3" height="2.3"/>
			</g>
		</g>
		<g>
			<g>
				<rect x="492.2" y="595.5" width="42.4" height="2.3"/>
			</g>
			<g>
				<rect x="538.6" y="595.5" width="10.3" height="2.3"/>
			</g>
		</g>
		<g>
			<g>
				<rect x="660.6" y="595.5" width="9.3" height="2.3"/>
			</g>
		</g>
		<g>
			<g>
				<rect x="676" y="595.5" width="75.3" height="2.3"/>
			</g>
		</g>
	</g>
	<g>
		<g>
			<g>
				<rect x="378.2" y="688.5" width="215.2" height="3.1"/>
			</g>
		</g>
		<g>
			<g>
				<rect x="646.1" y="688.5" width="18.3" height="3.1"/>
			</g>
		</g>
		<g>
			<g>
				<rect x="672.8" y="688.5" width="12.2" height="3.1"/>
			</g>
		</g>
	</g>
	<g>
		<g>
			<g>
				<rect x="378.2" y="502.2" width="215.2" height="3.1"/>
			</g>
		</g>
		<g>
			<g>
				<rect x="646.1" y="502.2" width="18.3" height="3.1"/>
			</g>
		</g>
		<g>
			<g>
				<rect x="672.8" y="502.2" width="12.2" height="3.1"/>
			</g>
		</g>
	</g>
	<g>
		<g>
			<rect x="299" y="700.3" width="212.2" height="3.1"/>
		</g>
	</g>
	<g>
		<g>
			<rect x="518.1" y="338.5" width="30.8" height="2.3"/>
		</g>
	</g>
	<g>
		<g>
			<rect x="518.1" y="352.9" width="30.8" height="2.3"/>
		</g>
	</g>
	<g>
		<g>
			<rect x="518.1" y="394.2" width="30.8" height="2.3"/>
		</g>
	</g>
	<g>
		<g>
			<rect x="788.1" y="422" width="17.6" height="2.3"/>
		</g>
	</g>
	<g>
		<g>
			<rect x="866.6" y="720.8" width="17.6" height="2.3"/>
		</g>
	</g>
	<g>
		<g>
			<rect x="448.5" y="798.9" width="18.2" height="2.3"/>
		</g>
	</g>
	<g>
		<g>
			<rect x="487" y="916.2" width="21.3" height="2.3"/>
		</g>
	</g>
	<g>
		<g>
			<rect x="761.3" y="272.8" width="17.6" height="2.3"/>
		</g>
	</g>
	<g>
		<g>
			<rect x="882.3" y="499.5" width="42.5" height="2.3"/>
		</g>
	</g>
	<g>
		<g>
			<rect x="882.3" y="476.3" width="2.3" height="25.5"/>
		</g>
	</g>
	<g>
		<g>
			<g>
				<rect x="490" y="373.3" width="34.9" height="1.5"/>
			</g>
		</g>
		<g>
			<g>
				<path d="M539,373.3h-9.3v1.5h9.3C538.8,374.4,538.8,373.8,539,373.3z"/>
			</g>
		</g>
		<g>
			<g>
				<path d="M543.4,373.3c0.1,0.5,0.1,1,0,1.5h33.8v-1.5H543.4z"/>
			</g>
		</g>
	</g>
	<g>
		<g>
			<rect x="519.7" y="851.8" width="30.8" height="2.3"/>
		</g>
	</g>
	<g>
		<g>
			<rect x="519.7" y="837.4" width="30.8" height="2.3"/>
		</g>
	</g>
	<g>
		<g>
			<rect x="519.7" y="796.1" width="30.8" height="2.3"/>
		</g>
	</g>
	<g>
		<g>
			<g>
				<rect x="543.7" y="817.7" width="34.9" height="1.5"/>
			</g>
		</g>
		<g>
			<g>
				<path d="M529.6,819.3h9.3v-1.5h-9.3C529.7,818.2,529.7,818.8,529.6,819.3z"/>
			</g>
		</g>
		<g>
			<g>
				<path d="M525.1,819.3c-0.1-0.5-0.1-1,0-1.5h-33.8v1.5H525.1z"/>
			</g>
		</g>
	</g>
	<g>
		<g>
			<g>
				<path d="M518.1,490.3v2.5c0.4-0.1,0.7-0.2,1.2-0.2c0.4,0,0.8,0,1.2,0.1v-0.2h47.4v201.5c0,3.6-2.9,6.6-6.6,6.6h-40.8v-0.6
					c-0.2,0-0.4,0.1-0.6,0.1h-1.8v2.9h43.1c4.9,0,8.9-4,8.9-8.9V490.3H518.1z"/>
			</g>
		</g>
	</g>
	<g>
		<g>
			<path d="M688.8,513.2c-1.9,0-3.4-1.5-3.4-3.4v-1.3c0,0,0,0,0,0V504c0-5.1-4.2-9.3-9.3-9.3h-34.4c-4.6,0-8.5,3.4-9.3,7.8h-0.3v0.1
				h-26.8c-1.2,0-2.1-1-2.1-2.1v-54.1h-2.3v0.1h-48.9c-1.2,0-2.1-0.9-2.1-2.1V338.3h-2.3v106.1c0,2.4,2,4.4,4.4,4.4h48.9v51.7
				c0,2.4,2,4.4,4.4,4.4H633c0.2-0.1,0.4-0.1,0.6-0.2c0.2-0.1,0.4-0.2,0.6-0.3c0.1-0.1,0.2-0.3,0.3-0.4c0.1-0.2,0.2-0.3,0.3-0.5
				c0.3-3.6,3.4-6.5,7.1-6.5h34.4c3.8,0,7,3.1,7,7v1.5c0,0,0,0,0,0v4.4c0,3.1,2.5,5.7,5.7,5.7H732v-1.8c0-0.2,0-0.4,0.1-0.6H688.8z"
				/>
		</g>
	</g>
	<g>
		<g>
			<path d="M688.8,680.2c-1.9,0-3.4,1.5-3.4,3.4v1.3c0,0,0,0,0,0v4.6c0,5.1-4.2,9.3-9.3,9.3h-34.4c-4.6,0-8.5-3.4-9.3-7.8h-0.3v-0.1
				h-26.8c-1.2,0-2.1,1-2.1,2.1v54.1h-2.3v-0.1h-48.9c-1.2,0-2.1,0.9-2.1,2.1V855h-2.3V748.9c0-2.4,2-4.4,4.4-4.4h48.9v-51.7
				c0-2.4,2-4.4,4.4-4.4H633c0.2,0.1,0.4,0.1,0.6,0.2c0.2,0.1,0.4,0.2,0.6,0.3c0.1,0.1,0.2,0.3,0.3,0.4c0.1,0.2,0.2,0.3,0.3,0.5
				c0.3,3.6,3.4,6.5,7.1,6.5h34.4c3.8,0,7-3.1,7-7v-1.5c0,0,0,0,0,0v-4.4c0-3.1,2.5-5.7,5.7-5.7H732v1.8c0,0.2,0,0.4,0.1,0.6H688.8z
				"/>
		</g>
	</g>
	<g>
		<g>
			<rect x="730.9" y="513.2" width="2.3" height="166.8"/>
		</g>
	</g>
	<g>
		<g>
			<rect x="519" y="346.1" transform="matrix(0.7052 -0.7091 0.7091 0.7052 -89.9227 477.4235)" width="20.2" height="1.5"/>
		</g>
	</g>
	<g>
		<g>
			<polygon points="616,219.4 615,217.8 627.8,197.2 628.8,198.7 			"/>
		</g>
	</g>
	<g>
		<g>
			<polygon points="623.7,219.4 622.7,217.8 635.6,197.2 636.6,198.7 			"/>
		</g>
	</g>
	<g>
		<g>
			<rect x="516.3" y="401.7" transform="matrix(0.7042 -0.71 0.71 0.7042 -130.0701 492.8312)" width="20.2" height="1.5"/>
		</g>
	</g>
	<g>
		<g>
			<rect x="514.2" y="420.1" transform="matrix(0.745 -0.667 0.667 0.745 -144.5329 463.5238)" width="39.8" height="1.5"/>
		</g>
	</g>
	<g>
		<g>
			<rect x="513.6" y="446.3" transform="matrix(0.745 -0.667 0.667 0.745 -162.1579 469.8182)" width="39.8" height="1.5"/>
		</g>
	</g>
	<g>
		<g>
			<rect x="513.3" y="467.1" transform="matrix(0.7178 -0.6963 0.6963 0.7178 -173.1848 508.5267)" width="54.7" height="1.5"/>
		</g>
	</g>
	<g>
		<g>
			<rect x="535.8" y="468.8" transform="matrix(0.7178 -0.6963 0.6963 0.7178 -167.3436 526.345)" width="59.6" height="1.5"/>
		</g>
	</g>
	<g>
		<g>
			<polygon points="570.6,490.9 569.6,489.8 599.6,461.9 600.7,463 			"/>
		</g>
	</g>
	<g>
		<g>
			<polygon points="569.9,518.3 568.8,517.2 602,486.4 603,487.5 			"/>
		</g>
	</g>
	<g>
		<g>
			<polygon points="569.9,544.5 568.8,543.4 610.1,503.3 611.2,504.4 			"/>
		</g>
	</g>
	<g>
		<g>
			<rect x="585.7" y="520.5" transform="matrix(0.6873 -0.7264 0.7264 0.6873 -185.0684 612.6072)" width="66.6" height="1.5"/>
		</g>
	</g>
	<g>
		<g>
			<rect x="612.8" y="520.5" transform="matrix(0.6873 -0.7264 0.7264 0.6873 -176.5817 632.3214)" width="66.6" height="1.5"/>
		</g>
	</g>
	<g>
		<g>
			<rect x="641" y="526.9" transform="matrix(0.6983 -0.7158 0.7158 0.6983 -176.8123 635.8138)" width="49.7" height="1.5"/>
		</g>
	</g>
	<g>
		<g>
			<rect x="669.6" y="529.3" transform="matrix(0.6983 -0.7158 0.7158 0.6983 -170.884 654.6783)" width="43" height="1.5"/>
		</g>
	</g>
	<g>
		<g>
			<rect x="695.6" y="529.3" transform="matrix(0.6983 -0.7158 0.7158 0.6983 -163.0614 673.237)" width="43" height="1.5"/>
		</g>
	</g>
	<g>
		<g>
			<rect x="520.4" y="846.1" transform="matrix(0.6983 -0.7158 0.7158 0.6983 -446.137 635.3442)" width="20.3" height="1.5"/>
		</g>
	</g>
	<g>
		<g>
			<rect x="693.3" y="663.5" transform="matrix(0.6983 -0.7158 0.7158 0.6983 -260.0547 711.6163)" width="41.6" height="1.5"/>
		</g>
	</g>
	<g>
		<g>
			<rect x="647.6" y="672.6" transform="matrix(0.6983 -0.7158 0.7158 0.6983 -276.9038 689.7147)" width="64.2" height="1.5"/>
		</g>
	</g>
	<g>
		<g>
			<rect x="523.2" y="785.8" transform="matrix(0.7061 -0.7081 0.7081 0.7061 -398.7776 612.3193)" width="30.1" height="1.5"/>
		</g>
	</g>
	<g>
		<g>
			<rect x="575.2" y="733.3" transform="matrix(0.7061 -0.7081 0.7081 0.7061 -346.1978 633.9268)" width="30.8" height="1.5"/>
		</g>
	</g>
	<g>
		<g>
			<path class="st0" d="M601.5,723.1"/>
		</g>
	</g>
	<g>
		<g>
			<rect x="624.9" y="669.2" transform="matrix(0.7061 -0.7081 0.7081 0.7061 -282.0657 660.2814)" width="59.1" height="1.5"/>
		</g>
	</g>
	<g>
		<g>
			<rect x="502.3" y="738" transform="matrix(0.7081 -0.7061 0.7061 0.7081 -358.0611 611.343)" width="116.1" height="1.5"/>
		</g>
	</g>
	<g>
		<g>
			<rect x="601.9" y="667.6" transform="matrix(0.7081 -0.7061 0.7061 0.7081 -287.7895 640.6526)" width="58.1" height="1.5"/>
		</g>
	</g>
	<g>
		<g>
			<rect x="514" y="713.9" transform="matrix(0.7081 -0.7061 0.7061 0.7081 -349.3322 584.4005)" width="36.4" height="1.5"/>
		</g>
	</g>
	<g>
		<g>
			<rect x="563.3" y="663" transform="matrix(0.7081 -0.7061 0.7061 0.7081 -298.4422 605.6264)" width="39.9" height="1.5"/>
		</g>
	</g>
	<g>
		<g>
			<rect x="497.8" y="700.4" transform="matrix(0.7071 -0.7071 0.7071 0.7071 -328.5678 609.1105)" width="146.4" height="1.5"/>
		</g>
	</g>
	<g>
		<g>
			<g>
				<rect x="742.3" y="816.6" width="30.3" height="2.3"/>
			</g>
		</g>
		<g>
			<g>
				<g>
					<polygon points="744.6,821.1 732.1,817.7 744.6,814.4 					"/>
				</g>
			</g>
		</g>
	</g>
	<g>
		<g>
			<g>
				<rect x="809" y="765.9" transform="matrix(0.7283 -0.6853 0.6853 0.7283 -302.7343 770.6058)" width="22.7" height="2.3"/>
			</g>
		</g>
		<g>
			<g>
				<g>
					<polygon points="825.1,758 834.2,754 829.7,762.9 					"/>
				</g>
			</g>
		</g>
	</g>
	<g>
		<g>
			<g>
				<rect x="822.8" y="455.3" transform="matrix(0.7283 -0.6853 0.6853 0.7283 -86.1456 695.6407)" width="22.7" height="2.3"/>
			</g>
		</g>
		<g>
			<g>
				<g>
					<polygon points="838.8,447.4 847.9,443.4 843.4,452.3 					"/>
				</g>
			</g>
		</g>
	</g>
	<g>
		<g>
			<g>
				<rect x="644.9" y="312.3" width="25" height="2.3"/>
			</g>
		</g>
		<g>
			<g>
				<g>
					<polygon points="647.2,316.8 634.7,313.4 647.2,310.1 					"/>
				</g>
			</g>
		</g>
	</g>
	<g>
		<g>
			<g>
				<rect x="580.9" y="271.2" width="15.6" height="2.3"/>
			</g>
		</g>
		<g>
			<g>
				<g>
					<polygon points="583.2,275.7 570.7,272.3 583.2,269 					"/>
				</g>
			</g>
		</g>
	</g>
	<g>
		<g>
			<g>
				<rect x="492.3" y="271.2" width="15.6" height="2.3"/>
			</g>
		</g>
		<g>
			<g>
				<g>
					<polygon points="505.6,269 518.1,272.3 505.6,275.7 					"/>
				</g>
			</g>
		</g>
	</g>
	<g>
		<g>
			<g>
				<rect x="575.8" y="312.3" width="14.8" height="2.3"/>
			</g>
		</g>
		<g>
			<g>
				<g>
					<polygon points="588.2,310.1 600.7,313.4 588.2,316.8 					"/>
				</g>
			</g>
		</g>
	</g>
	<g>
		<g>
			<g>
				<rect x="642.9" y="816.6" width="27.8" height="2.3"/>
			</g>
		</g>
		<g>
			<g>
				<g>
					<polygon points="668.4,814.4 680.9,817.7 668.4,821.1 					"/>
				</g>
			</g>
		</g>
	</g>
	<g>
		<g>
			<g>
				<rect x="462" y="784.9" transform="matrix(0.8402 -0.5423 0.5423 0.8402 -348.3083 390.1992)" width="51.7" height="2.3"/>
			</g>
		</g>
		<g>
			<g>
				<g>
					<polygon points="505.8,770.4 518.1,766.5 509.4,776 					"/>
				</g>
			</g>
		</g>
	</g>
	<g>
		<g>
			<polygon points="519.7,906 505.6,917.3 519.7,928.7 			"/>
		</g>
	</g>
	<g>
		<g>
			<polygon points="417.7,402.4 406.3,388.3 395,402.4 			"/>
		</g>
	</g>
	<g>
		<g>
			<polygon points="894.5,466.7 883.3,480.7 872.2,466.7 			"/>
		</g>
	</g>
	<g>
		<g>
			<path d="M488.2,934.2h-34.7v-34.7h34.7V934.2z M455.8,931.9h30.1v-30.1h-30.1V931.9z"/>
		</g>
	</g>
	<g>
		<g>
			<path d="M424.3,373.2h-34.7v-34.7h34.7V373.2z M392,370.9H422v-30.1H392V370.9z"/>
		</g>
	</g>
	<g>
		<g>
			<path d="M959.5,518h-34.7v-34.7h34.7V518z M927.1,515.7h30.1v-30.1h-30.1V515.7z"/>
		</g>
	</g>
	<g>
		<g>
			<rect x="405.2" y="372" width="2.3" height="20.5"/>
		</g>
	</g>
	<g>
		<path d="M450,815.3H333.9v-32.9H450V815.3z M336.2,813h111.5v-28.3H336.2V813z"/>
	</g>
	<g>
		<path d="M385.4,815.3h-51.5v-32.9h51.5V815.3z M336.2,813h46.9v-28.3h-46.9V813z"/>
	</g>
	<g>
		<path d="M923.9,781.4H799.4v-32.9h124.5V781.4z M801.7,779.1h119.9v-28.3H801.7V779.1z"/>
	</g>
	<g>
		<path d="M497.8,435.8H310.5v-33.6h187.3V435.8z M312.8,433.5h182.7v-29H312.8V433.5z"/>
	</g>
	<g>
		<path d="M892.3,781.4h-47.6v-32.9h47.6V781.4z M847,779.1h43v-28.3h-43V779.1z"/>
	</g>
	<g>
		<path d="M467.1,435.5H359.4v-32.9h107.7V435.5z M361.7,433.1h103.1v-28.3H361.7V433.1z"/>
	</g>
	<g>
		<path d="M987.6,324.7H784v-33.6h203.7V324.7z M786.3,322.4h199.1v-29H786.3V322.4z"/>
	</g>
	<g>
		<path d="M927.1,324.4h-94.9v-32.9h94.9V324.4z M834.6,322.1h90.3v-28.3h-90.3V322.1z"/>
	</g>
	<g>
		<path d="M980.2,469h-167v-33.6h167V469z M815.5,466.7h162.4v-29H815.5V466.7z"/>
	</g>
	<g>
		<path d="M919.2,468.6h-60.6v-32.9h60.6V468.6z M860.9,466.3h56V438h-56V466.3z"/>
	</g>
	<g>
		<path d="M950.5,468.6h-33.6v-32.9h33.6V468.6z M919.2,466.3h29V438h-29V466.3z"/>
	</g>
	<g>
		<path d="M745.2,225.1H600.2v-33.6h145.1V225.1z M602.5,222.8h140.4v-29H602.5V222.8z"/>
	</g>
	<g>
		<path d="M714,224.7h-66v-32.9h66V224.7z M650.2,222.4h61.4v-28.3h-61.4V222.4z"/>
	</g>
	<g>
		<g>
			<path d="M597.3,982.7V979h-6.6v-1.8l6.9-9.6h1.6v9.8h2.2v1.6h-2.2v3.7H597.3z M597.2,977.4v-6.8l-4.8,6.8H597.2z"/>
		</g>
		<g>
			<path d="M604.1,972.1v-1.4c1.4-0.1,2.3-0.4,2.9-0.7c0.5-0.3,0.9-1,1.2-2.2h1.5v15h-2v-10.6H604.1z"/>
		</g>
		<g>
			<path d="M615.9,980.4h2.2v2.3h-2.2V980.4z"/>
		</g>
		<g>
			<path d="M621.7,981.7c-0.8-1-1.2-2.2-1.2-3.6h2c0.1,1,0.3,1.7,0.5,2.1c0.5,0.8,1.4,1.2,2.7,1.2c1,0,1.8-0.3,2.4-0.8
				c0.6-0.5,0.9-1.2,0.9-2.1c0-1-0.3-1.8-1-2.2c-0.6-0.4-1.5-0.6-2.6-0.6c-0.1,0-0.3,0-0.4,0c-0.1,0-0.3,0-0.4,0v-1.7
				c0.2,0,0.4,0,0.5,0c0.1,0,0.3,0,0.4,0c0.7,0,1.3-0.1,1.7-0.3c0.8-0.4,1.2-1.1,1.2-2.1c0-0.8-0.3-1.3-0.8-1.7
				c-0.5-0.4-1.2-0.6-1.9-0.6c-1.3,0-2.1,0.4-2.6,1.3c-0.3,0.5-0.4,1.1-0.5,2h-1.9c0-1.1,0.2-2.1,0.7-2.9c0.8-1.4,2.1-2.1,4.1-2.1
				c1.5,0,2.7,0.3,3.6,1c0.8,0.7,1.3,1.7,1.3,3c0,0.9-0.2,1.7-0.7,2.2c-0.3,0.4-0.7,0.6-1.2,0.8c0.8,0.2,1.4,0.6,1.9,1.3
				c0.4,0.6,0.7,1.4,0.7,2.3c0,1.4-0.5,2.6-1.4,3.5c-0.9,0.9-2.3,1.4-4,1.4C623.8,983.1,622.5,982.6,621.7,981.7z"/>
		</g>
		<g>
			<path d="M597.3,1008.5v-3.7h-6.6v-1.8l6.9-9.6h1.6v9.8h2.2v1.6h-2.2v3.7H597.3z M597.2,1003.2v-6.8l-4.8,6.8H597.2z"/>
		</g>
		<g>
			<path d="M604.1,997.9v-1.4c1.4-0.1,2.3-0.4,2.9-0.7c0.5-0.3,0.9-1,1.2-2.2h1.5v15h-2v-10.6H604.1z"/>
		</g>
		<g>
			<path d="M615.9,1006.2h2.2v2.3h-2.2V1006.2z"/>
		</g>
		<g>
			<path d="M622.1,997.9v-1.4c1.4-0.1,2.3-0.4,2.9-0.7s0.9-1,1.2-2.2h1.5v15h-2v-10.6H622.1z"/>
		</g>
	</g>
	<g>
		<g>
			<path d="M629.7,924c-0.8-1-1.2-2.2-1.2-3.6h2c0.1,1,0.3,1.7,0.5,2.1c0.5,0.8,1.4,1.2,2.7,1.2c1,0,1.8-0.3,2.4-0.8
				c0.6-0.5,0.9-1.2,0.9-2.1c0-1-0.3-1.8-1-2.2c-0.6-0.4-1.5-0.6-2.6-0.6c-0.1,0-0.3,0-0.4,0c-0.1,0-0.3,0-0.4,0v-1.7
				c0.2,0,0.4,0,0.5,0s0.3,0,0.4,0c0.7,0,1.3-0.1,1.7-0.3c0.8-0.4,1.2-1.1,1.2-2.1c0-0.8-0.3-1.3-0.8-1.7c-0.5-0.4-1.2-0.6-1.9-0.6
				c-1.3,0-2.1,0.4-2.6,1.3c-0.3,0.5-0.4,1.1-0.5,2h-1.9c0-1.1,0.2-2.1,0.7-2.9c0.8-1.4,2.1-2.1,4.1-2.1c1.5,0,2.7,0.3,3.6,1
				c0.8,0.7,1.3,1.7,1.3,3c0,0.9-0.2,1.7-0.7,2.2c-0.3,0.4-0.7,0.6-1.2,0.8c0.8,0.2,1.4,0.6,1.9,1.3c0.4,0.6,0.7,1.4,0.7,2.3
				c0,1.4-0.5,2.6-1.4,3.5c-0.9,0.9-2.3,1.4-4,1.4C631.8,925.5,630.5,925,629.7,924z"/>
		</g>
		<g>
			<path d="M649.7,911.3c0.7,0.9,1,1.8,1,2.7h-1.9c-0.1-0.6-0.3-1.1-0.5-1.4c-0.5-0.6-1.1-0.9-2.1-0.9c-1.1,0-1.9,0.5-2.5,1.5
				c-0.6,1-1,2.4-1,4.2c0.4-0.6,1-1.1,1.6-1.4c0.6-0.3,1.3-0.4,2-0.4c1.3,0,2.4,0.4,3.3,1.2c0.9,0.8,1.4,2,1.4,3.6
				c0,1.4-0.4,2.6-1.3,3.6c-0.9,1.1-2.2,1.6-3.8,1.6c-1.4,0-2.6-0.5-3.6-1.6c-1-1.1-1.5-2.9-1.5-5.4c0-1.9,0.2-3.5,0.7-4.8
				c0.9-2.5,2.5-3.7,4.8-3.7C647.9,910,649,910.4,649.7,911.3z M648.3,922.8c0.5-0.7,0.7-1.5,0.7-2.4c0-0.8-0.2-1.5-0.7-2.2
				c-0.4-0.7-1.2-1-2.4-1c-0.8,0-1.5,0.3-2.1,0.8c-0.6,0.5-0.9,1.3-0.9,2.4c0,1,0.3,1.8,0.8,2.4c0.6,0.6,1.3,1,2.3,1
				C647,923.8,647.8,923.5,648.3,922.8z"/>
		</g>
		<g>
			<path d="M629.7,949.9c-0.8-1-1.2-2.2-1.2-3.6h2c0.1,1,0.3,1.7,0.5,2.1c0.5,0.8,1.4,1.2,2.7,1.2c1,0,1.8-0.3,2.4-0.8
				c0.6-0.5,0.9-1.2,0.9-2.1c0-1-0.3-1.8-1-2.2c-0.6-0.4-1.5-0.6-2.6-0.6c-0.1,0-0.3,0-0.4,0c-0.1,0-0.3,0-0.4,0v-1.7
				c0.2,0,0.4,0,0.5,0c0.1,0,0.3,0,0.4,0c0.7,0,1.3-0.1,1.7-0.3c0.8-0.4,1.2-1.1,1.2-2.1c0-0.8-0.3-1.3-0.8-1.7
				c-0.5-0.4-1.2-0.6-1.9-0.6c-1.3,0-2.1,0.4-2.6,1.3c-0.3,0.5-0.4,1.1-0.5,2h-1.9c0-1.1,0.2-2.1,0.7-2.9c0.8-1.4,2.1-2.1,4.1-2.1
				c1.5,0,2.7,0.3,3.6,1c0.8,0.7,1.3,1.7,1.3,3c0,0.9-0.2,1.7-0.7,2.2c-0.3,0.4-0.7,0.6-1.2,0.8c0.8,0.2,1.4,0.6,1.9,1.3
				c0.4,0.6,0.7,1.4,0.7,2.3c0,1.4-0.5,2.6-1.4,3.5c-0.9,0.9-2.3,1.4-4,1.4C631.8,951.3,630.5,950.8,629.7,949.9z"/>
		</g>
		<g>
			<path d="M642.6,947.1c0.1,1.1,0.6,1.8,1.5,2.2c0.4,0.2,1,0.3,1.6,0.3c1.1,0,2-0.4,2.5-1.1s0.8-1.5,0.8-2.4c0-1.1-0.3-1.9-1-2.4
				c-0.6-0.6-1.4-0.9-2.3-0.9c-0.7,0-1.2,0.1-1.7,0.4c-0.5,0.3-0.9,0.6-1.2,1l-1.6-0.1l1.1-8.1h7.8v1.8h-6.4l-0.6,4.2
				c0.3-0.3,0.7-0.5,1-0.6c0.6-0.2,1.2-0.3,1.9-0.3c1.4,0,2.5,0.4,3.5,1.3c1,0.9,1.4,2,1.4,3.4c0,1.4-0.4,2.7-1.3,3.8
				c-0.9,1.1-2.3,1.6-4.2,1.6c-1.2,0-2.3-0.3-3.2-1c-0.9-0.7-1.5-1.7-1.6-3.2H642.6z"/>
		</g>
	</g>
	<g>
		<g>
			<path d="M1310,949.8v-1.4c1.4-0.1,2.3-0.4,2.9-0.7c0.5-0.3,0.9-1,1.2-2.2h1.5v15h-2v-10.6H1310z"/>
		</g>
		<g>
			<path d="M1330,947.8c0.7,1.2,1,2.9,1,5.1c0,2-0.3,3.7-0.9,5.1c-0.9,1.9-2.3,2.9-4.3,2.9c-1.8,0-3.2-0.8-4-2.4
				c-0.7-1.3-1.1-3.1-1.1-5.3c0-1.7,0.2-3.2,0.7-4.4c0.8-2.3,2.3-3.4,4.5-3.4C1327.7,945.4,1329.1,946.2,1330,947.8z M1328.1,957.8
				c0.6-0.9,0.9-2.5,0.9-4.8c0-1.7-0.2-3.1-0.6-4.2c-0.4-1.1-1.2-1.7-2.4-1.7c-1.1,0-1.9,0.5-2.4,1.6c-0.5,1-0.8,2.6-0.8,4.6
				c0,1.5,0.2,2.8,0.5,3.7c0.5,1.4,1.4,2.1,2.6,2.1C1326.7,959.1,1327.5,958.7,1328.1,957.8z"/>
		</g>
		<g>
			<path d="M1341.9,947.8c0.7,1.2,1,2.9,1,5.1c0,2-0.3,3.7-0.9,5.1c-0.9,1.9-2.3,2.9-4.3,2.9c-1.8,0-3.2-0.8-4-2.4
				c-0.7-1.3-1.1-3.1-1.1-5.3c0-1.7,0.2-3.2,0.7-4.4c0.8-2.3,2.3-3.4,4.5-3.4C1339.7,945.4,1341.1,946.2,1341.9,947.8z M1340,957.8
				c0.6-0.9,0.9-2.5,0.9-4.8c0-1.7-0.2-3.1-0.6-4.2c-0.4-1.1-1.2-1.7-2.4-1.7c-1.1,0-1.9,0.5-2.4,1.6c-0.5,1-0.8,2.6-0.8,4.6
				c0,1.5,0.2,2.8,0.5,3.7c0.5,1.4,1.4,2.1,2.6,2.1C1338.7,959.1,1339.5,958.7,1340,957.8z"/>
		</g>
		<g>
			<path d="M1322.8,982.6c0.1,1,0.5,1.8,1.2,2.2c0.4,0.2,0.8,0.3,1.3,0.3c0.9,0,1.7-0.4,2.3-1.1c0.6-0.8,1.1-2.3,1.4-4.6
				c-0.4,0.7-0.9,1.1-1.6,1.4c-0.6,0.3-1.3,0.4-2,0.4c-1.4,0-2.6-0.5-3.4-1.4c-0.8-0.9-1.3-2.1-1.3-3.5c0-1.4,0.4-2.6,1.3-3.6
				c0.8-1,2.1-1.6,3.7-1.6c2.2,0,3.7,1,4.5,3c0.5,1.1,0.7,2.4,0.7,4.1c0,1.8-0.3,3.5-0.8,4.9c-0.9,2.4-2.5,3.5-4.7,3.5
				c-1.5,0-2.6-0.4-3.4-1.2c-0.8-0.8-1.1-1.7-1.1-2.9H1322.8z M1327.7,978.8c0.6-0.5,0.9-1.4,0.9-2.6c0-1.1-0.3-1.9-0.8-2.5
				c-0.6-0.5-1.3-0.8-2.1-0.8c-0.9,0-1.7,0.3-2.2,0.9c-0.5,0.6-0.8,1.4-0.8,2.5c0,1,0.2,1.8,0.7,2.3c0.5,0.6,1.2,0.9,2.3,0.9
				C1326.4,979.5,1327.1,979.3,1327.7,978.8z"/>
		</g>
		<g>
			<path d="M1334.8,982.6c0.1,1,0.5,1.8,1.2,2.2c0.4,0.2,0.8,0.3,1.3,0.3c0.9,0,1.7-0.4,2.3-1.1c0.6-0.8,1.1-2.3,1.4-4.6
				c-0.4,0.7-0.9,1.1-1.6,1.4c-0.6,0.3-1.3,0.4-2,0.4c-1.4,0-2.6-0.5-3.4-1.4c-0.8-0.9-1.3-2.1-1.3-3.5c0-1.4,0.4-2.6,1.2-3.6
				c0.8-1,2.1-1.6,3.7-1.6c2.2,0,3.7,1,4.5,3c0.5,1.1,0.7,2.4,0.7,4.1c0,1.8-0.3,3.5-0.8,4.9c-0.9,2.4-2.5,3.5-4.7,3.5
				c-1.5,0-2.6-0.4-3.3-1.2c-0.8-0.8-1.1-1.7-1.1-2.9H1334.8z M1339.7,978.8c0.6-0.5,0.9-1.4,0.9-2.6c0-1.1-0.3-1.9-0.8-2.5
				c-0.6-0.5-1.3-0.8-2.1-0.8c-0.9,0-1.7,0.3-2.2,0.9c-0.5,0.6-0.8,1.4-0.8,2.5c0,1,0.2,1.8,0.7,2.3c0.5,0.6,1.2,0.9,2.3,0.9
				C1338.4,979.5,1339.1,979.3,1339.7,978.8z"/>
		</g>
	</g>
	<g>
		<g>
			<path d="M1228.9,912.2c0.1,1.1,0.6,1.8,1.5,2.2c0.4,0.2,1,0.3,1.6,0.3c1.1,0,1.9-0.4,2.5-1.1c0.5-0.7,0.8-1.5,0.8-2.4
				c0-1-0.3-1.9-1-2.4c-0.6-0.6-1.4-0.9-2.3-0.9c-0.7,0-1.2,0.1-1.7,0.4s-0.9,0.6-1.2,1l-1.6-0.1l1.1-8.1h7.8v1.8h-6.4l-0.6,4.2
				c0.4-0.3,0.7-0.5,1-0.6c0.6-0.2,1.2-0.3,1.9-0.3c1.4,0,2.5,0.4,3.5,1.3c1,0.9,1.4,2,1.4,3.4c0,1.4-0.4,2.7-1.3,3.8
				c-0.9,1.1-2.3,1.6-4.2,1.6c-1.2,0-2.3-0.3-3.2-1c-0.9-0.7-1.5-1.7-1.6-3.2H1228.9z"/>
		</g>
		<g>
			<path d="M1249.4,901.3v1.7c-0.5,0.5-1.1,1.3-1.9,2.4c-0.8,1.2-1.5,2.4-2.1,3.8c-0.6,1.3-1.1,2.5-1.4,3.6
				c-0.2,0.7-0.5,1.8-0.8,3.3h-2.1c0.5-2.9,1.5-5.7,3.2-8.6c1-1.7,2-3.1,3-4.3h-8.3v-1.9H1249.4z"/>
		</g>
		<g>
			<path d="M1252,913.7h2.2v2.3h-2.2V913.7z"/>
		</g>
		<g>
			<path d="M1265.9,902.2c0.7,0.9,1,1.8,1,2.7h-1.9c-0.1-0.6-0.3-1.1-0.5-1.4c-0.5-0.6-1.1-0.9-2.1-0.9c-1.1,0-1.9,0.5-2.5,1.5
				c-0.6,1-1,2.4-1,4.2c0.4-0.6,1-1.1,1.6-1.4c0.6-0.3,1.3-0.4,2-0.4c1.3,0,2.4,0.4,3.3,1.2c0.9,0.8,1.4,2,1.4,3.6
				c0,1.4-0.4,2.6-1.3,3.6c-0.9,1.1-2.2,1.6-3.8,1.6c-1.4,0-2.6-0.5-3.6-1.6c-1-1.1-1.5-2.9-1.5-5.4c0-1.9,0.2-3.5,0.7-4.8
				c0.9-2.5,2.5-3.7,4.8-3.7C1264.1,900.9,1265.2,901.4,1265.9,902.2z M1264.5,913.7c0.5-0.7,0.7-1.5,0.7-2.4c0-0.8-0.2-1.5-0.7-2.2
				c-0.4-0.7-1.2-1-2.4-1c-0.8,0-1.5,0.3-2.1,0.8c-0.6,0.5-0.9,1.3-0.9,2.4c0,1,0.3,1.8,0.8,2.4c0.6,0.6,1.3,1,2.3,1
				C1263.2,914.7,1264,914.4,1264.5,913.7z"/>
		</g>
		<g>
			<path d="M1228.9,938c0.1,1.1,0.6,1.8,1.5,2.2c0.4,0.2,1,0.3,1.6,0.3c1.1,0,1.9-0.4,2.5-1.1c0.5-0.7,0.8-1.5,0.8-2.4
				c0-1-0.3-1.9-1-2.4c-0.6-0.6-1.4-0.9-2.3-0.9c-0.7,0-1.2,0.1-1.7,0.4s-0.9,0.6-1.2,1l-1.6-0.1l1.1-8.1h7.8v1.8h-6.4l-0.6,4.2
				c0.4-0.3,0.7-0.5,1-0.6c0.6-0.2,1.2-0.3,1.9-0.3c1.4,0,2.5,0.4,3.5,1.3c1,0.9,1.4,2,1.4,3.4c0,1.4-0.4,2.7-1.3,3.8
				c-0.9,1.1-2.3,1.6-4.2,1.6c-1.2,0-2.3-0.3-3.2-1c-0.9-0.7-1.5-1.7-1.6-3.2H1228.9z"/>
		</g>
		<g>
			<path d="M1248,928.1c0.7,0.9,1,1.8,1,2.7h-1.9c-0.1-0.6-0.3-1.1-0.5-1.4c-0.5-0.6-1.1-0.9-2.1-0.9c-1.1,0-1.9,0.5-2.5,1.5
				c-0.6,1-1,2.4-1,4.2c0.4-0.6,1-1.1,1.6-1.4c0.6-0.3,1.3-0.4,2-0.4c1.3,0,2.4,0.4,3.3,1.2c0.9,0.8,1.4,2,1.4,3.6
				c0,1.4-0.4,2.6-1.3,3.6c-0.9,1.1-2.2,1.6-3.8,1.6c-1.4,0-2.6-0.5-3.6-1.6c-1-1.1-1.5-2.9-1.5-5.4c0-1.9,0.2-3.5,0.7-4.8
				c0.9-2.5,2.5-3.7,4.8-3.7C1246.1,926.7,1247.3,927.2,1248,928.1z M1246.5,939.5c0.5-0.7,0.7-1.5,0.7-2.4c0-0.8-0.2-1.5-0.7-2.2
				c-0.4-0.7-1.2-1-2.4-1c-0.8,0-1.5,0.3-2.1,0.8c-0.6,0.5-0.9,1.3-0.9,2.4c0,1,0.3,1.8,0.8,2.4c0.6,0.6,1.3,1,2.3,1
				C1245.3,940.6,1246.1,940.2,1246.5,939.5z"/>
		</g>
		<g>
			<path d="M1252,939.6h2.2v2.3h-2.2V939.6z"/>
		</g>
		<g>
			<path d="M1265.9,928.1c0.7,0.9,1,1.8,1,2.7h-1.9c-0.1-0.6-0.3-1.1-0.5-1.4c-0.5-0.6-1.1-0.9-2.1-0.9c-1.1,0-1.9,0.5-2.5,1.5
				c-0.6,1-1,2.4-1,4.2c0.4-0.6,1-1.1,1.6-1.4c0.6-0.3,1.3-0.4,2-0.4c1.3,0,2.4,0.4,3.3,1.2c0.9,0.8,1.4,2,1.4,3.6
				c0,1.4-0.4,2.6-1.3,3.6c-0.9,1.1-2.2,1.6-3.8,1.6c-1.4,0-2.6-0.5-3.6-1.6c-1-1.1-1.5-2.9-1.5-5.4c0-1.9,0.2-3.5,0.7-4.8
				c0.9-2.5,2.5-3.7,4.8-3.7C1264.1,926.7,1265.2,927.2,1265.9,928.1z M1264.5,939.5c0.5-0.7,0.7-1.5,0.7-2.4c0-0.8-0.2-1.5-0.7-2.2
				c-0.4-0.7-1.2-1-2.4-1c-0.8,0-1.5,0.3-2.1,0.8c-0.6,0.5-0.9,1.3-0.9,2.4c0,1,0.3,1.8,0.8,2.4c0.6,0.6,1.3,1,2.3,1
				C1263.2,940.6,1264,940.2,1264.5,939.5z"/>
		</g>
	</g>
	<g>
		<g>
			<path d="M1463.8,321.4c-0.6-0.6-0.8-1.3-0.8-2.2c0-1.1,0.4-2.1,1.2-2.9c0.8-0.8,2-1.2,3.5-1.2c1.4,0,2.6,0.4,3.4,1.1
				s1.2,1.6,1.2,2.7c0,0.9-0.2,1.7-0.7,2.3c-0.3,0.3-0.7,0.7-1.2,1c0.6,0.3,1.1,0.6,1.5,1c0.7,0.7,1,1.6,1,2.7
				c0,1.3-0.4,2.4-1.3,3.4c-0.9,0.9-2.1,1.4-3.8,1.4c-1.5,0-2.7-0.4-3.7-1.2c-1-0.8-1.5-1.9-1.5-3.5c0-0.9,0.2-1.7,0.7-2.3
				c0.4-0.6,1.1-1.1,1.9-1.5C1464.5,322,1464.1,321.7,1463.8,321.4z M1469.9,328.2c0.6-0.5,0.9-1.2,0.9-2.1c0-1-0.3-1.7-0.9-2.2
				c-0.6-0.5-1.4-0.8-2.3-0.8c-0.9,0-1.6,0.3-2.2,0.8c-0.6,0.5-0.9,1.2-0.9,2.1c0,0.8,0.3,1.5,0.8,2c0.5,0.6,1.3,0.9,2.4,0.9
				C1468.6,328.9,1469.3,328.7,1469.9,328.2z M1469.5,320.8c0.5-0.5,0.7-1,0.7-1.7c0-0.6-0.2-1.1-0.7-1.5c-0.4-0.5-1.1-0.7-2-0.7
				c-0.9,0-1.6,0.2-2,0.7c-0.4,0.5-0.6,1-0.6,1.6c0,0.7,0.3,1.3,0.8,1.7c0.5,0.4,1.1,0.6,1.9,0.6
				C1468.4,321.5,1469,321.3,1469.5,320.8z"/>
		</g>
		<g>
			<path d="M1483.5,316.4c0.7,0.9,1,1.8,1,2.7h-1.9c-0.1-0.6-0.3-1.1-0.5-1.4c-0.5-0.6-1.1-0.9-2.1-0.9c-1.1,0-1.9,0.5-2.5,1.5
				c-0.6,1-1,2.4-1,4.2c0.4-0.6,1-1.1,1.6-1.4c0.6-0.3,1.3-0.4,2-0.4c1.3,0,2.4,0.4,3.3,1.2c0.9,0.8,1.4,2,1.4,3.6
				c0,1.4-0.4,2.6-1.3,3.6c-0.9,1.1-2.2,1.6-3.8,1.6c-1.4,0-2.6-0.5-3.6-1.6c-1-1.1-1.5-2.9-1.5-5.4c0-1.9,0.2-3.5,0.7-4.8
				c0.9-2.5,2.5-3.7,4.8-3.7C1481.6,315.1,1482.8,315.6,1483.5,316.4z M1482.1,327.9c0.5-0.7,0.7-1.5,0.7-2.4c0-0.8-0.2-1.5-0.7-2.2
				c-0.4-0.7-1.2-1-2.4-1c-0.8,0-1.5,0.3-2.1,0.8c-0.6,0.5-0.9,1.4-0.9,2.4c0,1,0.3,1.8,0.8,2.4c0.6,0.6,1.3,1,2.3,1
				C1480.8,328.9,1481.6,328.6,1482.1,327.9z"/>
		</g>
	</g>
	<g>
		<g>
			<path d="M1097.4,296.6c-0.6-0.6-0.8-1.3-0.8-2.2c0-1.1,0.4-2.1,1.2-2.9c0.8-0.8,2-1.2,3.5-1.2c1.4,0,2.6,0.4,3.4,1.1
				c0.8,0.8,1.2,1.6,1.2,2.7c0,0.9-0.2,1.7-0.7,2.3c-0.3,0.3-0.7,0.7-1.2,1c0.6,0.3,1.1,0.6,1.5,1c0.7,0.7,1,1.6,1,2.7
				c0,1.3-0.4,2.4-1.3,3.4c-0.9,0.9-2.1,1.4-3.8,1.4c-1.5,0-2.7-0.4-3.7-1.2c-1-0.8-1.5-1.9-1.5-3.5c0-0.9,0.2-1.7,0.7-2.3
				c0.4-0.6,1.1-1.1,1.9-1.5C1098.1,297.2,1097.7,296.9,1097.4,296.6z M1103.5,303.4c0.6-0.5,0.9-1.2,0.9-2.1c0-1-0.3-1.7-0.9-2.2
				c-0.6-0.5-1.4-0.8-2.3-0.8c-0.9,0-1.6,0.3-2.2,0.8c-0.6,0.5-0.9,1.2-0.9,2.1c0,0.8,0.3,1.5,0.8,2c0.5,0.6,1.3,0.9,2.4,0.9
				C1102.2,304.1,1102.9,303.9,1103.5,303.4z M1103.2,296c0.5-0.5,0.7-1,0.7-1.7c0-0.6-0.2-1.1-0.7-1.5c-0.4-0.5-1.1-0.7-2-0.7
				c-0.9,0-1.6,0.2-2,0.7c-0.4,0.5-0.6,1-0.6,1.6c0,0.7,0.3,1.3,0.8,1.7c0.5,0.4,1.1,0.6,1.9,0.6
				C1102,296.7,1102.7,296.4,1103.2,296z"/>
		</g>
		<g>
			<path d="M1110.3,305.4h-2.5l5.5-7.9l-5.2-7.5h2.6l3.9,5.9l3.9-5.9h2.5l-5.2,7.5l5.4,7.9h-2.6l-4.2-6.3L1110.3,305.4z"/>
		</g>
		<g>
			<path d="M1134.8,305.4v-3.7h-6.6v-1.8l6.9-9.6h1.6v9.8h2.2v1.6h-2.2v3.7H1134.8z M1134.7,300.1v-6.8l-4.8,6.8H1134.7z"/>
		</g>
		<g>
			<path d="M1142.2,301.6c0.1,1.1,0.6,1.8,1.5,2.2c0.4,0.2,1,0.3,1.6,0.3c1.1,0,1.9-0.4,2.5-1.1c0.5-0.7,0.8-1.5,0.8-2.4
				c0-1-0.3-1.9-1-2.4c-0.6-0.6-1.4-0.9-2.3-0.9c-0.7,0-1.2,0.1-1.7,0.4s-0.9,0.6-1.2,1.1l-1.6-0.1l1.1-8.1h7.8v1.8h-6.4l-0.6,4.2
				c0.4-0.3,0.7-0.5,1-0.6c0.6-0.2,1.2-0.3,1.9-0.3c1.4,0,2.6,0.4,3.5,1.3c1,0.9,1.4,2,1.4,3.4c0,1.4-0.4,2.7-1.3,3.8
				c-0.9,1.1-2.3,1.6-4.2,1.6c-1.2,0-2.3-0.3-3.2-1c-0.9-0.7-1.5-1.7-1.6-3.2H1142.2z"/>
		</g>
	</g>
	<g>
		<g>
			<path d="M1319,223.2c-0.6-0.6-0.8-1.3-0.8-2.2c0-1.1,0.4-2.1,1.2-2.9c0.8-0.8,2-1.2,3.5-1.2c1.4,0,2.6,0.4,3.4,1.1
				s1.2,1.6,1.2,2.7c0,0.9-0.2,1.7-0.7,2.3c-0.3,0.3-0.7,0.7-1.2,1c0.6,0.3,1.1,0.6,1.5,1c0.7,0.7,1,1.6,1,2.7
				c0,1.3-0.4,2.4-1.3,3.4c-0.9,0.9-2.1,1.4-3.8,1.4c-1.5,0-2.7-0.4-3.7-1.2c-1-0.8-1.5-1.9-1.5-3.5c0-0.9,0.2-1.7,0.7-2.3
				c0.4-0.6,1.1-1.1,1.9-1.5C1319.7,223.7,1319.3,223.5,1319,223.2z M1325.1,230c0.6-0.5,0.9-1.2,0.9-2.1c0-1-0.3-1.7-0.9-2.2
				c-0.6-0.5-1.4-0.8-2.3-0.8c-0.9,0-1.6,0.3-2.2,0.8c-0.6,0.5-0.9,1.2-0.9,2.1c0,0.8,0.3,1.5,0.8,2c0.5,0.6,1.3,0.9,2.4,0.9
				C1323.8,230.7,1324.6,230.4,1325.1,230z M1324.8,222.5c0.5-0.5,0.7-1,0.7-1.7c0-0.6-0.2-1.1-0.7-1.5c-0.4-0.5-1.1-0.7-2-0.7
				c-0.9,0-1.6,0.2-2,0.7c-0.4,0.5-0.6,1-0.6,1.6c0,0.7,0.3,1.3,0.8,1.7c0.5,0.4,1.1,0.6,1.9,0.6
				C1323.7,223.2,1324.3,223,1324.8,222.5z"/>
		</g>
		<g>
			<path d="M1331.9,232h-2.5l5.5-7.9l-5.2-7.5h2.6l3.9,5.9l3.9-5.9h2.5l-5.2,7.5l5.4,7.9h-2.6l-4.2-6.3L1331.9,232z"/>
		</g>
	</g>
	<g>
		<g>
			<path d="M1392.2,217.2v1.7c-0.5,0.5-1.1,1.3-1.9,2.4c-0.8,1.2-1.5,2.4-2.1,3.8c-0.6,1.3-1.1,2.5-1.4,3.6
				c-0.2,0.7-0.5,1.8-0.8,3.3h-2.1c0.5-2.9,1.5-5.7,3.2-8.6c1-1.7,2-3.1,3-4.3h-8.3v-1.9H1392.2z"/>
		</g>
		<g>
			<path d="M1394.8,229.7h2.2v2.3h-2.2V229.7z"/>
		</g>
		<g>
			<path d="M1401.8,228.3c0.1,1,0.5,1.8,1.2,2.2c0.4,0.2,0.8,0.3,1.3,0.3c0.9,0,1.7-0.4,2.3-1.1c0.6-0.8,1.1-2.3,1.4-4.6
				c-0.4,0.7-0.9,1.1-1.6,1.4c-0.6,0.3-1.3,0.4-2,0.4c-1.4,0-2.6-0.5-3.4-1.4c-0.8-0.9-1.3-2.1-1.3-3.5c0-1.4,0.4-2.6,1.2-3.6
				c0.8-1,2.1-1.6,3.7-1.6c2.2,0,3.7,1,4.5,3c0.5,1.1,0.7,2.4,0.7,4.1c0,1.8-0.3,3.5-0.8,4.9c-0.9,2.4-2.5,3.5-4.7,3.5
				c-1.5,0-2.6-0.4-3.3-1.2c-0.8-0.8-1.1-1.7-1.1-2.9H1401.8z M1406.7,224.5c0.6-0.5,0.9-1.4,0.9-2.6c0-1.1-0.3-1.9-0.8-2.5
				c-0.6-0.5-1.3-0.8-2.1-0.8c-0.9,0-1.7,0.3-2.2,0.9c-0.5,0.6-0.8,1.4-0.8,2.5c0,1,0.2,1.8,0.7,2.3c0.5,0.6,1.2,0.9,2.3,0.9
				C1405.4,225.2,1406.1,225,1406.7,224.5z"/>
		</g>
		<g>
			<path d="M1417.7,225h5.3v1.9h-5.3V225z"/>
		</g>
		<g>
			<path d="M1432,223.2c-0.6-0.6-0.8-1.3-0.8-2.2c0-1.1,0.4-2.1,1.2-2.9c0.8-0.8,2-1.2,3.5-1.2c1.4,0,2.6,0.4,3.4,1.1
				c0.8,0.8,1.2,1.6,1.2,2.7c0,0.9-0.2,1.7-0.7,2.3c-0.3,0.3-0.7,0.7-1.2,1c0.6,0.3,1.1,0.6,1.5,1c0.7,0.7,1,1.6,1,2.7
				c0,1.3-0.4,2.4-1.3,3.4c-0.9,0.9-2.1,1.4-3.8,1.4c-1.5,0-2.7-0.4-3.7-1.2c-1-0.8-1.5-1.9-1.5-3.5c0-0.9,0.2-1.7,0.7-2.3
				c0.4-0.6,1.1-1.1,1.9-1.5C1432.7,223.7,1432.3,223.5,1432,223.2z M1438.1,230c0.6-0.5,0.9-1.2,0.9-2.1c0-1-0.3-1.7-0.9-2.2
				c-0.6-0.5-1.4-0.8-2.3-0.8c-0.9,0-1.6,0.3-2.2,0.8c-0.6,0.5-0.9,1.2-0.9,2.1c0,0.8,0.3,1.5,0.8,2c0.5,0.6,1.3,0.9,2.4,0.9
				C1436.8,230.7,1437.6,230.4,1438.1,230z M1437.8,222.5c0.5-0.5,0.7-1,0.7-1.7c0-0.6-0.2-1.1-0.7-1.5c-0.4-0.5-1.1-0.7-2-0.7
				c-0.9,0-1.6,0.2-2,0.7c-0.4,0.5-0.6,1-0.6,1.6c0,0.7,0.3,1.3,0.8,1.7c0.5,0.4,1.1,0.6,1.9,0.6
				C1436.7,223.2,1437.3,223,1437.8,222.5z"/>
		</g>
		<g>
			<path d="M1443.8,229.7h2.2v2.3h-2.2V229.7z"/>
		</g>
		<g>
			<path d="M1450,221.3v-1.4c1.4-0.1,2.3-0.4,2.9-0.7c0.5-0.3,0.9-1.1,1.2-2.2h1.5v15h-2v-10.6H1450z"/>
		</g>
	</g>
	<g>
		<g>
			<path d="M1155.5,287.2h4.4v4.6h-4.4V287.2z"/>
		</g>
	</g>
	<g>
		<g>
			<path d="M370.5,612.2c-0.8-1-1.2-2.2-1.2-3.6h2c0.1,1,0.3,1.7,0.5,2.1c0.5,0.8,1.4,1.2,2.7,1.2c1,0,1.8-0.3,2.4-0.8
				c0.6-0.5,0.9-1.2,0.9-2.1c0-1-0.3-1.8-1-2.2c-0.6-0.4-1.5-0.6-2.6-0.6c-0.1,0-0.3,0-0.4,0c-0.1,0-0.3,0-0.4,0v-1.7
				c0.2,0,0.4,0,0.5,0c0.1,0,0.3,0,0.4,0c0.7,0,1.3-0.1,1.7-0.3c0.8-0.4,1.2-1.1,1.2-2.1c0-0.8-0.3-1.3-0.8-1.7
				c-0.5-0.4-1.2-0.6-1.9-0.6c-1.3,0-2.1,0.4-2.6,1.3c-0.3,0.5-0.4,1.1-0.5,2h-1.9c0-1.1,0.2-2.1,0.7-2.9c0.8-1.4,2.1-2.1,4.1-2.1
				c1.5,0,2.7,0.3,3.6,1c0.8,0.7,1.3,1.7,1.3,3c0,0.9-0.2,1.7-0.7,2.2c-0.3,0.4-0.7,0.6-1.2,0.8c0.8,0.2,1.4,0.6,1.9,1.3
				c0.4,0.6,0.7,1.4,0.7,2.3c0,1.4-0.5,2.6-1.4,3.5c-0.9,0.9-2.3,1.4-4,1.4C372.5,613.7,371.3,613.2,370.5,612.2z"/>
		</g>
		<g>
			<path d="M390.5,599.5c0.7,0.9,1,1.8,1,2.7h-1.9c-0.1-0.6-0.3-1.1-0.5-1.4c-0.5-0.6-1.1-0.9-2.1-0.9c-1.1,0-1.9,0.5-2.5,1.5
				c-0.6,1-1,2.4-1,4.2c0.4-0.6,1-1.1,1.6-1.4c0.6-0.3,1.3-0.4,2-0.4c1.3,0,2.4,0.4,3.3,1.2c0.9,0.8,1.4,2,1.4,3.6
				c0,1.4-0.4,2.6-1.3,3.6c-0.9,1.1-2.2,1.6-3.8,1.6c-1.4,0-2.6-0.5-3.6-1.6c-1-1.1-1.5-2.9-1.5-5.4c0-1.9,0.2-3.5,0.7-4.8
				c0.9-2.5,2.5-3.7,4.8-3.7C388.7,598.2,389.8,598.6,390.5,599.5z M389.1,611c0.5-0.7,0.7-1.5,0.7-2.4c0-0.8-0.2-1.5-0.7-2.2
				c-0.4-0.7-1.2-1-2.4-1c-0.8,0-1.5,0.3-2.1,0.8c-0.6,0.5-0.9,1.3-0.9,2.4c0,1,0.3,1.8,0.8,2.4c0.6,0.6,1.3,1,2.3,1
				C387.8,612,388.6,611.6,389.1,611z"/>
		</g>
		<g>
			<path d="M394.5,611h2.2v2.3h-2.2V611z"/>
		</g>
		<g>
			<path d="M408.7,600.6c0.7,1.2,1,2.9,1,5.1c0,2-0.3,3.7-0.9,5.1c-0.9,1.9-2.3,2.9-4.3,2.9c-1.8,0-3.2-0.8-4-2.4
				c-0.7-1.3-1.1-3.1-1.1-5.3c0-1.7,0.2-3.2,0.7-4.4c0.8-2.3,2.3-3.4,4.5-3.4C406.4,598.2,407.8,599,408.7,600.6z M406.8,610.7
				c0.6-0.9,0.9-2.5,0.9-4.8c0-1.7-0.2-3.1-0.6-4.2c-0.4-1.1-1.2-1.7-2.4-1.7c-1.1,0-1.9,0.5-2.4,1.6c-0.5,1-0.8,2.6-0.8,4.6
				c0,1.5,0.2,2.8,0.5,3.7c0.5,1.4,1.4,2.1,2.6,2.1C405.4,612,406.2,611.5,406.8,610.7z"/>
		</g>
		<g>
			<path d="M370.5,638c-0.8-1-1.2-2.2-1.2-3.6h2c0.1,1,0.3,1.7,0.5,2.1c0.5,0.8,1.4,1.2,2.7,1.2c1,0,1.8-0.3,2.4-0.8
				c0.6-0.5,0.9-1.2,0.9-2.1c0-1-0.3-1.8-1-2.2c-0.6-0.4-1.5-0.6-2.6-0.6c-0.1,0-0.3,0-0.4,0c-0.1,0-0.3,0-0.4,0v-1.7
				c0.2,0,0.4,0,0.5,0c0.1,0,0.3,0,0.4,0c0.7,0,1.3-0.1,1.7-0.3c0.8-0.4,1.2-1.1,1.2-2.1c0-0.8-0.3-1.3-0.8-1.7
				c-0.5-0.4-1.2-0.6-1.9-0.6c-1.3,0-2.1,0.4-2.6,1.3c-0.3,0.5-0.4,1.1-0.5,2h-1.9c0-1.1,0.2-2.1,0.7-2.9c0.8-1.4,2.1-2.1,4.1-2.1
				c1.5,0,2.7,0.3,3.6,1c0.8,0.7,1.3,1.7,1.3,3c0,0.9-0.2,1.7-0.7,2.2c-0.3,0.4-0.7,0.6-1.2,0.8c0.8,0.2,1.4,0.6,1.9,1.3
				c0.4,0.6,0.7,1.4,0.7,2.3c0,1.4-0.5,2.6-1.4,3.5c-0.9,0.9-2.3,1.4-4,1.4C372.5,639.5,371.3,639,370.5,638z"/>
		</g>
		<g>
			<path d="M383.4,635.2c0.1,1.1,0.6,1.8,1.5,2.2c0.4,0.2,1,0.3,1.6,0.3c1.1,0,2-0.4,2.5-1.1c0.5-0.7,0.8-1.5,0.8-2.4
				c0-1.1-0.3-1.9-1-2.4c-0.6-0.6-1.4-0.9-2.3-0.9c-0.7,0-1.2,0.1-1.7,0.4c-0.5,0.3-0.9,0.6-1.2,1l-1.6-0.1l1.1-8.1h7.8v1.8h-6.4
				l-0.6,4.2c0.3-0.3,0.7-0.5,1-0.6c0.6-0.2,1.2-0.3,1.9-0.3c1.4,0,2.5,0.4,3.5,1.3c1,0.9,1.4,2,1.4,3.4c0,1.4-0.4,2.7-1.3,3.8
				c-0.9,1.1-2.3,1.6-4.2,1.6c-1.2,0-2.3-0.3-3.2-1c-0.9-0.7-1.5-1.7-1.6-3.2H383.4z"/>
		</g>
		<g>
			<path d="M394.5,636.8h2.2v2.3h-2.2V636.8z"/>
		</g>
		<g>
			<path d="M401.3,635.2c0.1,1.1,0.6,1.8,1.5,2.2c0.4,0.2,1,0.3,1.6,0.3c1.1,0,2-0.4,2.5-1.1c0.5-0.7,0.8-1.5,0.8-2.4
				c0-1.1-0.3-1.9-1-2.4c-0.6-0.6-1.4-0.9-2.3-0.9c-0.7,0-1.2,0.1-1.7,0.4c-0.5,0.3-0.9,0.6-1.2,1l-1.6-0.1l1.1-8.1h7.8v1.8h-6.4
				l-0.6,4.2c0.3-0.3,0.7-0.5,1-0.6c0.6-0.2,1.2-0.3,1.9-0.3c1.4,0,2.5,0.4,3.5,1.3c1,0.9,1.4,2,1.4,3.4c0,1.4-0.4,2.7-1.3,3.8
				c-0.9,1.1-2.3,1.6-4.2,1.6c-1.2,0-2.3-0.3-3.2-1c-0.9-0.7-1.5-1.7-1.6-3.2H401.3z"/>
		</g>
	</g>
	<g>
		<g>
			<path d="M292.6,549v-3.7H286v-1.8l6.9-9.6h1.6v9.8h2.2v1.6h-2.2v3.7H292.6z M292.5,543.6v-6.8l-4.8,6.8H292.5z"/>
		</g>
		<g>
			<path d="M304.5,549v-3.7h-6.6v-1.8l6.9-9.6h1.6v9.8h2.2v1.6h-2.2v3.7H304.5z M304.5,543.6v-6.8l-4.8,6.8H304.5z"/>
		</g>
		<g>
			<path d="M311.2,546.7h2.2v2.3h-2.2V546.7z"/>
		</g>
		<g>
			<path d="M325.1,535.2c0.7,0.9,1,1.8,1,2.7h-1.9c-0.1-0.6-0.3-1.1-0.5-1.4c-0.5-0.6-1.1-0.9-2.1-0.9c-1.1,0-1.9,0.5-2.5,1.5
				c-0.6,1-1,2.4-1,4.2c0.4-0.6,1-1.1,1.6-1.4c0.6-0.3,1.3-0.4,2-0.4c1.3,0,2.4,0.4,3.3,1.2c0.9,0.8,1.4,2,1.4,3.6
				c0,1.4-0.4,2.6-1.3,3.6s-2.2,1.6-3.8,1.6c-1.4,0-2.6-0.5-3.6-1.6c-1-1.1-1.5-2.9-1.5-5.4c0-1.9,0.2-3.5,0.7-4.8
				c0.9-2.5,2.5-3.7,4.8-3.7C323.3,533.9,324.5,534.3,325.1,535.2z M323.7,546.7c0.5-0.7,0.7-1.5,0.7-2.4c0-0.8-0.2-1.5-0.7-2.2
				c-0.4-0.7-1.2-1-2.4-1c-0.8,0-1.5,0.3-2.1,0.8c-0.6,0.5-0.9,1.4-0.9,2.4c0,1,0.3,1.8,0.8,2.4c0.6,0.6,1.3,1,2.3,1
				C322.5,547.7,323.2,547.3,323.7,546.7z"/>
		</g>
		<g>
			<path d="M337.3,536.3c0.7,1.2,1,2.9,1,5.1c0,2-0.3,3.7-0.9,5.1c-0.9,1.9-2.3,2.9-4.3,2.9c-1.8,0-3.1-0.8-4-2.4
				c-0.7-1.3-1.1-3.1-1.1-5.3c0-1.7,0.2-3.2,0.7-4.4c0.8-2.3,2.3-3.4,4.5-3.4C335,533.9,336.5,534.7,337.3,536.3z M335.4,546.3
				c0.6-0.9,0.9-2.5,0.9-4.8c0-1.7-0.2-3.1-0.6-4.2c-0.4-1.1-1.2-1.7-2.4-1.7c-1.1,0-1.9,0.5-2.4,1.6c-0.5,1-0.8,2.6-0.8,4.6
				c0,1.5,0.2,2.8,0.5,3.7c0.5,1.4,1.4,2.1,2.6,2.1C334.1,547.6,334.8,547.2,335.4,546.3z"/>
		</g>
		<g>
			<path d="M292.6,574.8v-3.7H286v-1.8l6.9-9.6h1.6v9.8h2.2v1.6h-2.2v3.7H292.6z M292.5,569.4v-6.8l-4.8,6.8H292.5z"/>
		</g>
		<g>
			<path d="M304.5,574.8v-3.7h-6.6v-1.8l6.9-9.6h1.6v9.8h2.2v1.6h-2.2v3.7H304.5z M304.5,569.4v-6.8l-4.8,6.8H304.5z"/>
		</g>
		<g>
			<path d="M311.2,572.5h2.2v2.3h-2.2V572.5z"/>
		</g>
		<g>
			<path d="M322.5,574.8v-3.7h-6.6v-1.8l6.9-9.6h1.6v9.8h2.2v1.6h-2.2v3.7H322.5z M322.4,569.4v-6.8l-4.8,6.8H322.4z"/>
		</g>
		<g>
			<path d="M329.9,570.9c0.1,1.1,0.6,1.8,1.5,2.2c0.4,0.2,1,0.3,1.6,0.3c1.1,0,1.9-0.4,2.5-1.1s0.8-1.5,0.8-2.4c0-1.1-0.3-1.9-1-2.4
				c-0.6-0.6-1.4-0.9-2.3-0.9c-0.7,0-1.2,0.1-1.7,0.4c-0.5,0.3-0.9,0.6-1.2,1l-1.6-0.1l1.1-8.1h7.8v1.8h-6.4l-0.6,4.2
				c0.3-0.3,0.7-0.5,1-0.6c0.6-0.2,1.2-0.3,1.9-0.3c1.4,0,2.5,0.4,3.5,1.3c1,0.9,1.4,2,1.4,3.4c0,1.4-0.4,2.7-1.3,3.8
				c-0.9,1.1-2.3,1.6-4.2,1.6c-1.2,0-2.3-0.3-3.2-1c-0.9-0.7-1.5-1.7-1.6-3.2H329.9z"/>
		</g>
	</g>
	<g>
		<g>
			<path d="M531.3,265.3c0.1,1,0.5,1.8,1.2,2.2c0.4,0.2,0.8,0.3,1.3,0.3c0.9,0,1.7-0.4,2.3-1.1c0.6-0.8,1.1-2.3,1.4-4.6
				c-0.4,0.7-0.9,1.1-1.6,1.4c-0.6,0.3-1.3,0.4-2,0.4c-1.4,0-2.6-0.5-3.4-1.4c-0.8-0.9-1.3-2.1-1.3-3.5c0-1.4,0.4-2.6,1.2-3.6
				c0.8-1,2.1-1.6,3.7-1.6c2.2,0,3.7,1,4.5,3c0.5,1.1,0.7,2.4,0.7,4.1c0,1.8-0.3,3.5-0.8,4.9c-0.9,2.4-2.5,3.5-4.7,3.5
				c-1.5,0-2.6-0.4-3.3-1.2c-0.8-0.8-1.1-1.7-1.1-2.9H531.3z M536.2,261.5c0.6-0.5,0.9-1.4,0.9-2.6c0-1.1-0.3-1.9-0.8-2.5
				c-0.6-0.5-1.3-0.8-2.1-0.8c-0.9,0-1.7,0.3-2.2,0.9c-0.5,0.6-0.8,1.4-0.8,2.5c0,1,0.2,1.8,0.7,2.3c0.5,0.6,1.2,0.9,2.3,0.9
				C534.9,262.3,535.6,262,536.2,261.5z"/>
		</g>
		<g>
			<path d="M542.3,266.7h2.2v2.3h-2.2V266.7z"/>
		</g>
		<g>
			<path d="M556.2,255.2c0.7,0.9,1,1.8,1,2.7h-1.9c-0.1-0.6-0.3-1.1-0.5-1.4c-0.5-0.6-1.1-0.9-2.1-0.9c-1.1,0-1.9,0.5-2.5,1.5
				c-0.6,1-1,2.4-1,4.2c0.4-0.6,1-1.1,1.6-1.4c0.6-0.3,1.3-0.4,2-0.4c1.3,0,2.4,0.4,3.3,1.2c0.9,0.8,1.4,2,1.4,3.6
				c0,1.4-0.4,2.6-1.3,3.6s-2.2,1.6-3.8,1.6c-1.4,0-2.6-0.5-3.6-1.6s-1.5-2.9-1.5-5.4c0-1.9,0.2-3.5,0.7-4.8
				c0.9-2.5,2.5-3.7,4.8-3.7C554.4,253.9,555.5,254.3,556.2,255.2z M554.8,266.7c0.5-0.7,0.7-1.5,0.7-2.4c0-0.8-0.2-1.5-0.7-2.2
				c-0.4-0.7-1.2-1-2.4-1c-0.8,0-1.5,0.3-2.1,0.8c-0.6,0.5-0.9,1.4-0.9,2.4c0,1,0.3,1.8,0.8,2.4c0.6,0.6,1.3,1,2.3,1
				C553.5,267.7,554.3,267.3,554.8,266.7z"/>
		</g>
		<g>
			<path d="M531.3,291.1c0.1,1,0.5,1.8,1.2,2.2c0.4,0.2,0.8,0.3,1.3,0.3c0.9,0,1.7-0.4,2.3-1.1s1.1-2.3,1.4-4.6
				c-0.4,0.7-0.9,1.1-1.6,1.4c-0.6,0.3-1.3,0.4-2,0.4c-1.4,0-2.6-0.5-3.4-1.4c-0.8-0.9-1.3-2.1-1.3-3.5c0-1.4,0.4-2.6,1.2-3.6
				c0.8-1,2.1-1.6,3.7-1.6c2.2,0,3.7,1,4.5,3c0.5,1.1,0.7,2.4,0.7,4.1c0,1.8-0.3,3.5-0.8,4.9c-0.9,2.4-2.5,3.5-4.7,3.5
				c-1.5,0-2.6-0.4-3.3-1.2c-0.8-0.8-1.1-1.7-1.1-2.9H531.3z M536.2,287.3c0.6-0.5,0.9-1.4,0.9-2.6c0-1.1-0.3-1.9-0.8-2.5
				c-0.6-0.5-1.3-0.8-2.1-0.8c-0.9,0-1.7,0.3-2.2,0.9c-0.5,0.6-0.8,1.4-0.8,2.5c0,1,0.2,1.8,0.7,2.3c0.5,0.6,1.2,0.9,2.3,0.9
				C534.9,288.1,535.6,287.8,536.2,287.3z"/>
		</g>
		<g>
			<path d="M542.3,292.5h2.2v2.3h-2.2V292.5z"/>
		</g>
		<g>
			<path d="M553.5,294.8v-3.7h-6.6v-1.8l6.9-9.6h1.6v9.8h2.2v1.6h-2.2v3.7H553.5z M553.5,289.5v-6.8l-4.8,6.8H553.5z"/>
		</g>
	</g>
	<g>
		<g>
			<path d="M688.7,296.3c0.7,0.9,1,1.8,1,2.7h-1.9c-0.1-0.6-0.3-1.1-0.5-1.4c-0.5-0.6-1.1-0.9-2.1-0.9c-1.1,0-1.9,0.5-2.5,1.5
				c-0.6,1-1,2.4-1,4.2c0.4-0.6,1-1.1,1.6-1.4c0.6-0.3,1.3-0.4,2-0.4c1.3,0,2.4,0.4,3.3,1.2c0.9,0.8,1.4,2,1.4,3.6
				c0,1.4-0.4,2.6-1.3,3.6c-0.9,1.1-2.2,1.6-3.8,1.6c-1.4,0-2.6-0.5-3.6-1.6c-1-1.1-1.5-2.9-1.5-5.4c0-1.9,0.2-3.5,0.7-4.8
				c0.9-2.5,2.5-3.7,4.8-3.7C686.9,295,688.1,295.4,688.7,296.3z M687.3,307.8c0.5-0.7,0.7-1.5,0.7-2.4c0-0.8-0.2-1.5-0.7-2.2
				c-0.4-0.7-1.2-1-2.4-1c-0.8,0-1.5,0.3-2.1,0.8c-0.6,0.5-0.9,1.4-0.9,2.4c0,1,0.3,1.8,0.8,2.4c0.6,0.6,1.3,1,2.3,1
				C686.1,308.8,686.8,308.5,687.3,307.8z"/>
		</g>
		<g>
			<path d="M692.7,307.8h2.2v2.3h-2.2V307.8z"/>
		</g>
		<g>
			<path d="M706.7,296.3c0.7,0.9,1,1.8,1,2.7h-1.9c-0.1-0.6-0.3-1.1-0.5-1.4c-0.5-0.6-1.1-0.9-2.1-0.9c-1.1,0-1.9,0.5-2.5,1.5
				c-0.6,1-1,2.4-1,4.2c0.4-0.6,1-1.1,1.6-1.4c0.6-0.3,1.3-0.4,2-0.4c1.3,0,2.4,0.4,3.3,1.2c0.9,0.8,1.4,2,1.4,3.6
				c0,1.4-0.4,2.6-1.3,3.6c-0.9,1.1-2.2,1.6-3.8,1.6c-1.4,0-2.6-0.5-3.6-1.6c-1-1.1-1.5-2.9-1.5-5.4c0-1.9,0.2-3.5,0.7-4.8
				c0.9-2.5,2.5-3.7,4.8-3.7C704.8,295,706,295.4,706.7,296.3z M705.3,307.8c0.5-0.7,0.7-1.5,0.7-2.4c0-0.8-0.2-1.5-0.7-2.2
				c-0.4-0.7-1.2-1-2.4-1c-0.8,0-1.5,0.3-2.1,0.8c-0.6,0.5-0.9,1.4-0.9,2.4c0,1,0.3,1.8,0.8,2.4c0.6,0.6,1.3,1,2.3,1
				C704,308.8,704.8,308.5,705.3,307.8z"/>
		</g>
		<g>
			<path d="M688.7,322.1c0.7,0.9,1,1.8,1,2.7h-1.9c-0.1-0.6-0.3-1.1-0.5-1.4c-0.5-0.6-1.1-0.9-2.1-0.9c-1.1,0-1.9,0.5-2.5,1.5
				c-0.6,1-1,2.4-1,4.2c0.4-0.6,1-1.1,1.6-1.4c0.6-0.3,1.3-0.4,2-0.4c1.3,0,2.4,0.4,3.3,1.2c0.9,0.8,1.4,2,1.4,3.6
				c0,1.4-0.4,2.6-1.3,3.6c-0.9,1.1-2.2,1.6-3.8,1.6c-1.4,0-2.6-0.5-3.6-1.6c-1-1.1-1.5-2.9-1.5-5.4c0-1.9,0.2-3.5,0.7-4.8
				c0.9-2.5,2.5-3.7,4.8-3.7C686.9,320.8,688.1,321.2,688.7,322.1z M687.3,333.6c0.5-0.7,0.7-1.5,0.7-2.4c0-0.8-0.2-1.5-0.7-2.2
				c-0.4-0.7-1.2-1-2.4-1c-0.8,0-1.5,0.3-2.1,0.8c-0.6,0.5-0.9,1.4-0.9,2.4c0,1,0.3,1.8,0.8,2.4c0.6,0.6,1.3,1,2.3,1
				C686.1,334.6,686.8,334.3,687.3,333.6z"/>
		</g>
		<g>
			<path d="M692.7,333.6h2.2v2.3h-2.2V333.6z"/>
		</g>
		<g>
			<path d="M698.9,325.3v-1.4c1.4-0.1,2.3-0.4,2.9-0.7s0.9-1,1.2-2.2h1.5v15h-2v-10.6H698.9z"/>
		</g>
	</g>
	<g>
		<g>
			<path d="M668.7,202.3c0.7,1.2,1,2.9,1,5.1c0,2-0.3,3.7-0.9,5.1c-0.9,1.9-2.3,2.9-4.3,2.9c-1.8,0-3.2-0.8-4-2.4
				c-0.7-1.3-1.1-3.1-1.1-5.3c0-1.7,0.2-3.2,0.7-4.4c0.8-2.3,2.3-3.4,4.5-3.4C666.4,199.9,667.8,200.7,668.7,202.3z M666.8,212.3
				c0.6-0.9,0.9-2.5,0.9-4.8c0-1.7-0.2-3.1-0.6-4.2c-0.4-1.1-1.2-1.7-2.4-1.7c-1.1,0-1.9,0.5-2.4,1.6c-0.5,1-0.8,2.6-0.8,4.6
				c0,1.5,0.2,2.8,0.5,3.7c0.5,1.4,1.4,2.1,2.6,2.1C665.4,213.6,666.2,213.2,666.8,212.3z"/>
		</g>
		<g>
			<path d="M672.4,212.6h2.2v2.3h-2.2V212.6z"/>
		</g>
		<g>
			<path d="M686.6,202.3c0.7,1.2,1,2.9,1,5.1c0,2-0.3,3.7-0.9,5.1c-0.9,1.9-2.3,2.9-4.3,2.9c-1.8,0-3.2-0.8-4-2.4
				c-0.7-1.3-1.1-3.1-1.1-5.3c0-1.7,0.2-3.2,0.7-4.4c0.8-2.3,2.3-3.4,4.5-3.4C684.3,199.9,685.7,200.7,686.6,202.3z M684.7,212.3
				c0.6-0.9,0.9-2.5,0.9-4.8c0-1.7-0.2-3.1-0.6-4.2c-0.4-1.1-1.2-1.7-2.4-1.7c-1.1,0-1.9,0.5-2.4,1.6c-0.5,1-0.8,2.6-0.8,4.6
				c0,1.5,0.2,2.8,0.5,3.7c0.5,1.4,1.4,2.1,2.6,2.1C683.3,213.6,684.1,213.2,684.7,212.3z"/>
		</g>
		<g>
			<path d="M698.3,201.1c0.7,0.9,1,1.8,1,2.7h-1.9c-0.1-0.6-0.3-1.1-0.5-1.4c-0.5-0.6-1.1-0.9-2.1-0.9c-1.1,0-1.9,0.5-2.5,1.5
				c-0.6,1-1,2.4-1,4.2c0.4-0.6,1-1.1,1.6-1.4c0.6-0.3,1.3-0.4,2-0.4c1.3,0,2.4,0.4,3.3,1.2s1.4,2,1.4,3.6c0,1.4-0.4,2.6-1.3,3.6
				c-0.9,1.1-2.2,1.6-3.8,1.6c-1.4,0-2.6-0.5-3.6-1.6c-1-1.1-1.5-2.9-1.5-5.4c0-1.9,0.2-3.5,0.7-4.8c0.9-2.5,2.5-3.7,4.8-3.7
				C696.5,199.8,697.7,200.3,698.3,201.1z M696.9,212.6c0.5-0.7,0.7-1.5,0.7-2.4c0-0.8-0.2-1.5-0.7-2.2c-0.4-0.7-1.2-1-2.4-1
				c-0.8,0-1.5,0.3-2.1,0.8c-0.6,0.5-0.9,1.4-0.9,2.4c0,1,0.3,1.8,0.8,2.4c0.6,0.6,1.3,1,2.3,1C695.7,213.6,696.4,213.3,696.9,212.6
				z"/>
		</g>
	</g>
	<g>
		<g>
			<path d="M790.2,266.1h3l4.4,13l4.4-13h3v15.4h-2v-9.1c0-0.3,0-0.8,0-1.6s0-1.5,0-2.3l-4.4,13h-2.1l-4.4-13v0.5c0,0.4,0,1,0,1.7
				c0,0.8,0,1.3,0,1.7v9.1h-2V266.1z"/>
		</g>
		<g>
			<path d="M813.7,281.5v-3.7h-6.6V276l6.9-9.6h1.6v9.8h2.2v1.6h-2.2v3.7H813.7z M813.7,276.2v-6.8l-4.8,6.8H813.7z"/>
		</g>
		<g>
			<path d="M820,278.1c0.5-1,1.4-1.8,2.7-2.6l2-1.2c0.9-0.5,1.5-1,1.9-1.3c0.6-0.6,0.9-1.2,0.9-2c0-0.9-0.3-1.6-0.8-2.1
				c-0.5-0.5-1.2-0.8-2.1-0.8c-1.3,0-2.2,0.5-2.7,1.5c-0.3,0.5-0.4,1.3-0.4,2.2h-1.9c0-1.3,0.3-2.4,0.7-3.2c0.8-1.5,2.3-2.2,4.3-2.2
				c1.7,0,3,0.5,3.8,1.4c0.8,0.9,1.2,2,1.2,3.1c0,1.2-0.4,2.2-1.3,3.1c-0.5,0.5-1.4,1.1-2.6,1.8l-1.4,0.8c-0.7,0.4-1.2,0.7-1.6,1.1
				c-0.7,0.6-1.1,1.3-1.3,2h8.2v1.8h-10.3C819.2,280.2,819.5,279.1,820,278.1z"/>
		</g>
		<g>
			<path d="M839.4,281.5h-2.5l5.5-7.9l-5.2-7.5h2.6l3.9,5.9l3.9-5.9h2.5l-5.2,7.5l5.4,7.9h-2.6l-4.2-6.3L839.4,281.5z"/>
		</g>
		<g>
			<path d="M858.8,270.9v-1.4c1.4-0.1,2.3-0.4,2.9-0.7c0.5-0.3,0.9-1.1,1.2-2.2h1.5v15h-2v-10.6H858.8z"/>
		</g>
		<g>
			<path d="M870.6,279.2h2.2v2.3h-2.2V279.2z"/>
		</g>
		<g>
			<path d="M877.3,277.7c0.1,1.1,0.6,1.8,1.5,2.2c0.4,0.2,1,0.3,1.6,0.3c1.1,0,1.9-0.4,2.5-1.1c0.5-0.7,0.8-1.5,0.8-2.4
				c0-1.1-0.3-1.9-1-2.4c-0.6-0.6-1.4-0.9-2.3-0.9c-0.7,0-1.2,0.1-1.7,0.4c-0.5,0.3-0.9,0.6-1.2,1l-1.6-0.1l1.1-8.1h7.8v1.8h-6.4
				l-0.6,4.2c0.3-0.3,0.7-0.5,1-0.6c0.6-0.2,1.2-0.3,1.9-0.3c1.4,0,2.5,0.4,3.5,1.3c1,0.9,1.4,2,1.4,3.4c0,1.4-0.4,2.7-1.3,3.8
				c-0.9,1.1-2.3,1.6-4.2,1.6c-1.2,0-2.3-0.3-3.2-1c-0.9-0.7-1.5-1.7-1.6-3.2H877.3z"/>
		</g>
		<g>
			<path d="M893.5,274.5h5.3v1.9h-5.3V274.5z"/>
		</g>
		<g>
			<path d="M915.6,267.7c0.7,0.9,1,1.8,1,2.7h-1.9c-0.1-0.6-0.3-1.1-0.5-1.4c-0.5-0.6-1.1-0.9-2.1-0.9c-1.1,0-1.9,0.5-2.5,1.5
				c-0.6,1-1,2.4-1,4.2c0.4-0.6,1-1.1,1.6-1.4c0.6-0.3,1.3-0.4,2-0.4c1.3,0,2.4,0.4,3.3,1.2c0.9,0.8,1.4,2,1.4,3.6
				c0,1.4-0.4,2.6-1.3,3.6c-0.9,1.1-2.2,1.6-3.8,1.6c-1.4,0-2.6-0.5-3.6-1.6c-1-1.1-1.5-2.9-1.5-5.4c0-1.9,0.2-3.5,0.7-4.8
				c0.9-2.5,2.5-3.7,4.8-3.7C913.7,266.4,914.9,266.8,915.6,267.7z M914.1,279.2c0.5-0.7,0.7-1.5,0.7-2.4c0-0.8-0.2-1.5-0.7-2.2
				c-0.4-0.7-1.2-1-2.4-1c-0.8,0-1.5,0.3-2.1,0.8c-0.6,0.5-0.9,1.4-0.9,2.4c0,1,0.3,1.8,0.8,2.4c0.6,0.6,1.3,1,2.3,1
				C912.9,280.2,913.6,279.9,914.1,279.2z"/>
		</g>
		<g>
			<path d="M925.4,270.7c0.4,0.2,0.7,0.6,1.1,1.1v-1.4h1.7v10.2c0,1.4-0.2,2.6-0.6,3.4c-0.8,1.5-2.3,2.3-4.4,2.3
				c-1.2,0-2.2-0.3-3.1-0.8c-0.8-0.5-1.3-1.4-1.4-2.5h1.9c0.1,0.5,0.3,0.9,0.5,1.2c0.4,0.4,1.1,0.6,2,0.6c1.4,0,2.4-0.5,2.8-1.5
				c0.3-0.6,0.4-1.7,0.4-3.2c-0.4,0.6-0.8,1-1.4,1.3c-0.5,0.3-1.2,0.4-2.1,0.4c-1.2,0-2.3-0.4-3.2-1.3c-0.9-0.9-1.4-2.3-1.4-4.3
				c0-1.9,0.5-3.4,1.4-4.4c0.9-1.1,2-1.6,3.3-1.6C924,270.1,924.7,270.3,925.4,270.7z M925.6,272.7c-0.6-0.7-1.3-1-2.2-1
				c-1.3,0-2.2,0.6-2.7,1.9c-0.3,0.7-0.4,1.5-0.4,2.6c0,1.3,0.3,2.2,0.8,2.9c0.5,0.7,1.2,1,2.1,1c1.4,0,2.3-0.6,2.9-1.8
				c0.3-0.7,0.5-1.5,0.5-2.4C926.5,274.4,926.2,273.4,925.6,272.7z"/>
		</g>
	</g>
	<g>
		<g>
			<path d="M874.8,302c0.7,1.2,1,2.9,1,5.1c0,2-0.3,3.7-0.9,5.1c-0.9,1.9-2.3,2.9-4.3,2.9c-1.8,0-3.1-0.8-4-2.4
				c-0.7-1.3-1.1-3.1-1.1-5.3c0-1.7,0.2-3.2,0.7-4.4c0.8-2.3,2.3-3.4,4.5-3.4C872.5,299.6,873.9,300.4,874.8,302z M872.9,312
				c0.6-0.9,0.9-2.5,0.9-4.8c0-1.7-0.2-3.1-0.6-4.2c-0.4-1.1-1.2-1.7-2.4-1.7c-1.1,0-1.9,0.5-2.4,1.6c-0.5,1-0.8,2.6-0.8,4.6
				c0,1.5,0.2,2.8,0.5,3.7c0.5,1.4,1.4,2.1,2.6,2.1C871.5,313.3,872.3,312.8,872.9,312z"/>
		</g>
		<g>
			<path d="M878.5,312.3h2.2v2.3h-2.2V312.3z"/>
		</g>
		<g>
			<path d="M884.7,303.9v-1.4c1.4-0.1,2.3-0.4,2.9-0.7c0.5-0.3,0.9-1.1,1.2-2.2h1.5v15h-2v-10.6H884.7z"/>
		</g>
	</g>
	<g>
		<g>
			<path d="M727.3,200.3h2.4l5.6,15.4H733l-1.6-4.6h-6.1l-1.7,4.6h-2.1L727.3,200.3z M730.7,209.4l-2.3-6.8l-2.5,6.8H730.7z"/>
		</g>
	</g>
	<g>
		<g>
			<path d="M653.3,865.9c0.5-1,1.4-1.8,2.7-2.6l2-1.2c0.9-0.5,1.5-1,1.9-1.3c0.6-0.6,0.9-1.2,0.9-2c0-0.9-0.3-1.6-0.8-2.1
				c-0.5-0.5-1.2-0.8-2.1-0.8c-1.3,0-2.2,0.5-2.7,1.5c-0.3,0.5-0.4,1.3-0.4,2.2h-1.9c0-1.3,0.3-2.4,0.7-3.2c0.8-1.5,2.3-2.2,4.3-2.2
				c1.7,0,3,0.5,3.8,1.4c0.8,0.9,1.2,2,1.2,3.1c0,1.2-0.4,2.2-1.3,3.1c-0.5,0.5-1.4,1.1-2.6,1.8l-1.4,0.8c-0.7,0.4-1.2,0.7-1.6,1.1
				c-0.7,0.6-1.1,1.3-1.3,2h8.2v1.8h-10.3C652.6,868,652.9,866.9,653.3,865.9z"/>
		</g>
		<g>
			<path d="M666.5,865.5c0.1,1.1,0.6,1.8,1.5,2.2c0.4,0.2,1,0.3,1.6,0.3c1.1,0,2-0.4,2.5-1.1c0.5-0.7,0.8-1.5,0.8-2.4
				c0-1-0.3-1.9-1-2.4c-0.6-0.6-1.4-0.9-2.3-0.9c-0.7,0-1.2,0.1-1.7,0.4c-0.5,0.3-0.9,0.6-1.2,1l-1.6-0.1l1.1-8.1h7.8v1.8h-6.4
				l-0.6,4.2c0.3-0.3,0.7-0.5,1-0.6c0.6-0.2,1.2-0.3,1.9-0.3c1.4,0,2.5,0.4,3.5,1.3c1,0.9,1.4,2,1.4,3.4c0,1.4-0.4,2.7-1.3,3.8
				c-0.9,1.1-2.3,1.6-4.2,1.6c-1.2,0-2.3-0.3-3.2-1c-0.9-0.7-1.5-1.7-1.6-3.2H666.5z"/>
		</g>
		<g>
			<path d="M677.6,867h2.2v2.3h-2.2V867z"/>
		</g>
		<g>
			<path d="M684.4,865.5c0.1,1.1,0.6,1.8,1.5,2.2c0.4,0.2,1,0.3,1.6,0.3c1.1,0,2-0.4,2.5-1.1c0.5-0.7,0.8-1.5,0.8-2.4
				c0-1-0.3-1.9-1-2.4c-0.6-0.6-1.4-0.9-2.3-0.9c-0.7,0-1.2,0.1-1.7,0.4c-0.5,0.3-0.9,0.6-1.2,1l-1.6-0.1l1.1-8.1h7.8v1.8h-6.4
				l-0.6,4.2c0.3-0.3,0.7-0.5,1-0.6c0.6-0.2,1.2-0.3,1.9-0.3c1.4,0,2.5,0.4,3.5,1.3c1,0.9,1.4,2,1.4,3.4c0,1.4-0.4,2.7-1.3,3.8
				c-0.9,1.1-2.3,1.6-4.2,1.6c-1.2,0-2.3-0.3-3.2-1c-0.9-0.7-1.5-1.7-1.6-3.2H684.4z"/>
		</g>
		<g>
			<path d="M653.3,891.7c0.5-1,1.4-1.8,2.7-2.6l2-1.2c0.9-0.5,1.5-1,1.9-1.3c0.6-0.6,0.9-1.2,0.9-2c0-0.9-0.3-1.6-0.8-2.1
				c-0.5-0.5-1.2-0.8-2.1-0.8c-1.3,0-2.2,0.5-2.7,1.5c-0.3,0.5-0.4,1.3-0.4,2.2h-1.9c0-1.3,0.3-2.4,0.7-3.2c0.8-1.5,2.3-2.2,4.3-2.2
				c1.7,0,3,0.5,3.8,1.4c0.8,0.9,1.2,2,1.2,3.1c0,1.2-0.4,2.2-1.3,3.1c-0.5,0.5-1.4,1.1-2.6,1.8l-1.4,0.8c-0.7,0.4-1.2,0.7-1.6,1.1
				c-0.7,0.6-1.1,1.3-1.3,2h8.2v1.8h-10.3C652.6,893.8,652.9,892.7,653.3,891.7z"/>
		</g>
		<g>
			<path d="M666.5,891.3c0.1,1.1,0.6,1.8,1.5,2.2c0.4,0.2,1,0.3,1.6,0.3c1.1,0,2-0.4,2.5-1.1c0.5-0.7,0.8-1.5,0.8-2.4
				c0-1-0.3-1.9-1-2.4c-0.6-0.6-1.4-0.9-2.3-0.9c-0.7,0-1.2,0.1-1.7,0.4c-0.5,0.3-0.9,0.6-1.2,1l-1.6-0.1l1.1-8.1h7.8v1.8h-6.4
				l-0.6,4.2c0.3-0.3,0.7-0.5,1-0.6c0.6-0.2,1.2-0.3,1.9-0.3c1.4,0,2.5,0.4,3.5,1.3c1,0.9,1.4,2,1.4,3.4c0,1.4-0.4,2.7-1.3,3.8
				c-0.9,1.1-2.3,1.6-4.2,1.6c-1.2,0-2.3-0.3-3.2-1c-0.9-0.7-1.5-1.7-1.6-3.2H666.5z"/>
		</g>
		<g>
			<path d="M677.6,892.8h2.2v2.3h-2.2V892.8z"/>
		</g>
		<g>
			<path d="M688.9,895.1v-3.7h-6.6v-1.8l6.9-9.6h1.6v9.8h2.2v1.6h-2.2v3.7H688.9z M688.9,889.8V883l-4.8,6.8H688.9z"/>
		</g>
	</g>
	<g>
		<g>
			<path d="M695.2,807.4c0.1,1,0.5,1.8,1.2,2.2c0.4,0.2,0.8,0.3,1.3,0.3c0.9,0,1.7-0.4,2.3-1.1s1.1-2.3,1.4-4.6
				c-0.4,0.7-0.9,1.1-1.6,1.4c-0.6,0.3-1.3,0.4-2,0.4c-1.4,0-2.6-0.5-3.4-1.4c-0.8-0.9-1.3-2.1-1.3-3.5c0-1.4,0.4-2.6,1.2-3.6
				c0.8-1,2.1-1.6,3.7-1.6c2.2,0,3.7,1,4.5,3c0.5,1.1,0.7,2.4,0.7,4.1c0,1.8-0.3,3.5-0.8,4.9c-0.9,2.4-2.5,3.5-4.7,3.5
				c-1.5,0-2.6-0.4-3.3-1.2c-0.8-0.8-1.1-1.7-1.1-2.9H695.2z M700.1,803.5c0.6-0.5,0.9-1.4,0.9-2.6c0-1.1-0.3-1.9-0.8-2.5
				c-0.6-0.5-1.3-0.8-2.1-0.8c-0.9,0-1.7,0.3-2.2,0.9c-0.5,0.6-0.8,1.4-0.8,2.5c0,1,0.2,1.8,0.7,2.3c0.5,0.6,1.2,0.9,2.3,0.9
				C698.8,804.3,699.5,804,700.1,803.5z"/>
		</g>
		<g>
			<path d="M706.1,808.7h2.2v2.3h-2.2V808.7z"/>
		</g>
		<g>
			<path d="M720.1,797.2c0.7,0.9,1,1.8,1,2.7h-1.9c-0.1-0.6-0.3-1.1-0.5-1.4c-0.5-0.6-1.1-0.9-2.1-0.9c-1.1,0-1.9,0.5-2.5,1.5
				c-0.6,1-1,2.4-1,4.2c0.4-0.6,1-1.1,1.6-1.4c0.6-0.3,1.3-0.4,2-0.4c1.3,0,2.4,0.4,3.3,1.2s1.4,2,1.4,3.6c0,1.4-0.4,2.6-1.3,3.6
				c-0.9,1.1-2.2,1.6-3.8,1.6c-1.4,0-2.6-0.5-3.6-1.6c-1-1.1-1.5-2.9-1.5-5.4c0-1.9,0.2-3.5,0.7-4.8c0.9-2.5,2.5-3.7,4.8-3.7
				C718.2,795.9,719.4,796.3,720.1,797.2z M718.7,808.7c0.5-0.7,0.7-1.5,0.7-2.4c0-0.8-0.2-1.5-0.7-2.2c-0.4-0.7-1.2-1-2.4-1
				c-0.8,0-1.5,0.3-2.1,0.8c-0.6,0.5-0.9,1.3-0.9,2.4c0,1,0.3,1.8,0.8,2.4c0.6,0.6,1.3,1,2.3,1C717.4,809.7,718.2,809.4,718.7,808.7
				z"/>
		</g>
		<g>
			<path d="M695.2,833.2c0.1,1,0.5,1.8,1.2,2.2c0.4,0.2,0.8,0.3,1.3,0.3c0.9,0,1.7-0.4,2.3-1.1s1.1-2.3,1.4-4.6
				c-0.4,0.7-0.9,1.1-1.6,1.4c-0.6,0.3-1.3,0.4-2,0.4c-1.4,0-2.6-0.5-3.4-1.4c-0.8-0.9-1.3-2.1-1.3-3.5c0-1.4,0.4-2.6,1.2-3.6
				c0.8-1,2.1-1.6,3.7-1.6c2.2,0,3.7,1,4.5,3c0.5,1.1,0.7,2.4,0.7,4.1c0,1.8-0.3,3.5-0.8,4.9c-0.9,2.4-2.5,3.5-4.7,3.5
				c-1.5,0-2.6-0.4-3.3-1.2c-0.8-0.8-1.1-1.7-1.1-2.9H695.2z M700.1,829.3c0.6-0.5,0.9-1.4,0.9-2.6c0-1.1-0.3-1.9-0.8-2.5
				c-0.6-0.5-1.3-0.8-2.1-0.8c-0.9,0-1.7,0.3-2.2,0.9c-0.5,0.6-0.8,1.4-0.8,2.5c0,1,0.2,1.8,0.7,2.3c0.5,0.6,1.2,0.9,2.3,0.9
				C698.8,830.1,699.5,829.8,700.1,829.3z"/>
		</g>
		<g>
			<path d="M706.1,834.5h2.2v2.3h-2.2V834.5z"/>
		</g>
		<g>
			<path d="M717.4,836.8v-3.7h-6.6v-1.8l6.9-9.6h1.6v9.8h2.2v1.6h-2.2v3.7H717.4z M717.4,831.5v-6.8l-4.8,6.8H717.4z"/>
		</g>
	</g>
	<g>
		<g>
			<path d="M864.4,759.7c0.7,1.2,1,2.9,1,5.1c0,2-0.3,3.7-0.9,5.1c-0.9,1.9-2.3,2.9-4.3,2.9c-1.8,0-3.2-0.8-4-2.4
				c-0.7-1.3-1.1-3.1-1.1-5.3c0-1.7,0.2-3.2,0.7-4.4c0.8-2.3,2.3-3.4,4.5-3.4C862.1,757.3,863.5,758.1,864.4,759.7z M862.5,769.7
				c0.6-0.9,0.9-2.5,0.9-4.8c0-1.7-0.2-3.1-0.6-4.2c-0.4-1.1-1.2-1.7-2.4-1.7c-1.1,0-1.9,0.5-2.4,1.6c-0.5,1-0.8,2.6-0.8,4.6
				c0,1.5,0.2,2.8,0.5,3.7c0.5,1.4,1.4,2.1,2.6,2.1C861.1,771,861.9,770.6,862.5,769.7z"/>
		</g>
		<g>
			<path d="M868.2,770h2.2v2.3h-2.2V770z"/>
		</g>
		<g>
			<path d="M874.3,761.7v-1.4c1.4-0.1,2.3-0.4,2.9-0.7c0.5-0.3,0.9-1,1.2-2.2h1.5v15h-2v-10.6H874.3z"/>
		</g>
	</g>
	<g>
		<g>
			<path d="M818.5,716.1c-0.8-1-1.2-2.2-1.2-3.6h2c0.1,1,0.3,1.7,0.5,2.1c0.5,0.8,1.4,1.2,2.7,1.2c1,0,1.8-0.3,2.4-0.8
				c0.6-0.5,0.9-1.2,0.9-2.1c0-1-0.3-1.8-1-2.2c-0.6-0.4-1.5-0.6-2.6-0.6c-0.1,0-0.3,0-0.4,0c-0.1,0-0.3,0-0.4,0v-1.7
				c0.2,0,0.4,0,0.5,0c0.1,0,0.3,0,0.4,0c0.7,0,1.3-0.1,1.7-0.3c0.8-0.4,1.2-1.1,1.2-2.1c0-0.8-0.3-1.3-0.8-1.7
				c-0.5-0.4-1.2-0.6-1.9-0.6c-1.3,0-2.1,0.4-2.6,1.3c-0.3,0.5-0.4,1.1-0.5,2h-1.9c0-1.1,0.2-2.1,0.7-2.9c0.8-1.4,2.1-2.1,4.1-2.1
				c1.5,0,2.7,0.3,3.6,1c0.8,0.7,1.3,1.7,1.3,3c0,0.9-0.2,1.7-0.7,2.2c-0.3,0.4-0.7,0.6-1.2,0.8c0.8,0.2,1.4,0.6,1.9,1.3
				c0.4,0.6,0.7,1.4,0.7,2.3c0,1.4-0.5,2.6-1.4,3.5s-2.3,1.4-4,1.4C820.6,717.5,819.3,717,818.5,716.1z"/>
		</g>
		<g>
			<path d="M830.8,706.5V705c1.4-0.1,2.3-0.4,2.9-0.7s0.9-1,1.2-2.2h1.5v15h-2v-10.6H830.8z"/>
		</g>
		<g>
			<path d="M842.5,714.8h2.2v2.3h-2.2V714.8z"/>
		</g>
		<g>
			<path d="M848.7,708.3c-0.6-0.6-0.8-1.3-0.8-2.2c0-1.1,0.4-2.1,1.2-2.9c0.8-0.8,2-1.2,3.5-1.2c1.4,0,2.6,0.4,3.4,1.1
				c0.8,0.8,1.2,1.6,1.2,2.7c0,0.9-0.2,1.7-0.7,2.3c-0.3,0.3-0.7,0.7-1.2,1c0.6,0.3,1.1,0.6,1.5,1c0.7,0.7,1,1.6,1,2.7
				c0,1.3-0.4,2.4-1.3,3.4c-0.9,0.9-2.1,1.4-3.8,1.4c-1.5,0-2.7-0.4-3.7-1.2c-1-0.8-1.5-1.9-1.5-3.5c0-0.9,0.2-1.7,0.7-2.3
				c0.4-0.6,1.1-1.1,1.9-1.5C849.4,708.9,849,708.6,848.7,708.3z M854.8,715.1c0.6-0.5,0.9-1.2,0.9-2.1c0-1-0.3-1.7-0.9-2.2
				c-0.6-0.5-1.4-0.8-2.3-0.8c-0.9,0-1.6,0.3-2.2,0.8c-0.6,0.5-0.9,1.2-0.9,2.1c0,0.8,0.3,1.5,0.8,2c0.5,0.6,1.3,0.9,2.4,0.9
				C853.5,715.8,854.2,715.6,854.8,715.1z M854.5,707.7c0.5-0.5,0.7-1,0.7-1.7c0-0.6-0.2-1.1-0.7-1.5c-0.4-0.5-1.1-0.7-2-0.7
				c-0.9,0-1.6,0.2-2,0.7s-0.6,1-0.6,1.7c0,0.7,0.3,1.3,0.8,1.7c0.5,0.4,1.1,0.6,1.9,0.6C853.4,708.4,854,708.1,854.5,707.7z"/>
		</g>
		<g>
			<path d="M818.5,741.9c-0.8-1-1.2-2.2-1.2-3.6h2c0.1,1,0.3,1.7,0.5,2.1c0.5,0.8,1.4,1.2,2.7,1.2c1,0,1.8-0.3,2.4-0.8
				c0.6-0.5,0.9-1.2,0.9-2.1c0-1-0.3-1.8-1-2.2c-0.6-0.4-1.5-0.6-2.6-0.6c-0.1,0-0.3,0-0.4,0c-0.1,0-0.3,0-0.4,0v-1.7
				c0.2,0,0.4,0,0.5,0c0.1,0,0.3,0,0.4,0c0.7,0,1.3-0.1,1.7-0.3c0.8-0.4,1.2-1.1,1.2-2.1c0-0.8-0.3-1.3-0.8-1.7
				c-0.5-0.4-1.2-0.6-1.9-0.6c-1.3,0-2.1,0.4-2.6,1.3c-0.3,0.5-0.4,1.1-0.5,2h-1.9c0-1.1,0.2-2.1,0.7-2.9c0.8-1.4,2.1-2.1,4.1-2.1
				c1.5,0,2.7,0.3,3.6,1c0.8,0.7,1.3,1.7,1.3,3c0,0.9-0.2,1.7-0.7,2.2c-0.3,0.4-0.7,0.6-1.2,0.8c0.8,0.2,1.4,0.6,1.9,1.3
				c0.4,0.6,0.7,1.4,0.7,2.3c0,1.4-0.5,2.6-1.4,3.5s-2.3,1.4-4,1.4C820.6,743.3,819.3,742.8,818.5,741.9z"/>
		</g>
		<g>
			<path d="M830.8,732.3v-1.4c1.4-0.1,2.3-0.4,2.9-0.7s0.9-1.1,1.2-2.2h1.5v15h-2v-10.6H830.8z"/>
		</g>
		<g>
			<path d="M842.5,740.6h2.2v2.3h-2.2V740.6z"/>
		</g>
		<g>
			<path d="M856.5,729.1c0.7,0.9,1,1.8,1,2.7h-1.9c-0.1-0.6-0.3-1.1-0.5-1.4c-0.5-0.6-1.1-0.9-2.1-0.9c-1.1,0-1.9,0.5-2.5,1.5
				c-0.6,1-1,2.4-1,4.2c0.4-0.6,1-1.1,1.6-1.4c0.6-0.3,1.3-0.4,2-0.4c1.3,0,2.4,0.4,3.3,1.2s1.4,2,1.4,3.6c0,1.4-0.4,2.6-1.3,3.6
				c-0.9,1.1-2.2,1.6-3.8,1.6c-1.4,0-2.6-0.5-3.6-1.6c-1-1.1-1.5-2.9-1.5-5.4c0-1.9,0.2-3.5,0.7-4.8c0.9-2.5,2.5-3.7,4.8-3.7
				C854.6,727.8,855.8,728.3,856.5,729.1z M855.1,740.6c0.5-0.7,0.7-1.5,0.7-2.4c0-0.8-0.2-1.5-0.7-2.2c-0.4-0.7-1.2-1-2.4-1
				c-0.8,0-1.5,0.3-2.1,0.8c-0.6,0.5-0.9,1.3-0.9,2.4c0,1,0.3,1.8,0.8,2.4c0.6,0.6,1.3,1,2.3,1C853.8,741.6,854.6,741.3,855.1,740.6
				z"/>
		</g>
	</g>
	<g>
		<g>
			<path d="M903.1,756.9h6.6c1.8,0,3.1,0.5,3.9,1.6c0.5,0.6,0.7,1.4,0.7,2.2c0,1-0.3,1.8-0.8,2.4c-0.3,0.3-0.7,0.6-1.2,0.9
				c0.8,0.3,1.4,0.6,1.8,1c0.7,0.7,1,1.6,1,2.8c0,1-0.3,1.9-0.9,2.7c-0.9,1.2-2.4,1.8-4.4,1.8h-6.5V756.9z M908.9,763.4
				c0.9,0,1.6-0.1,2.1-0.4c0.8-0.4,1.2-1.1,1.2-2.1c0-1-0.4-1.7-1.2-2c-0.5-0.2-1.1-0.3-2.1-0.3h-3.7v4.8H908.9z M909.6,770.5
				c1.3,0,2.2-0.4,2.7-1.1c0.3-0.5,0.5-1,0.5-1.7c0-1.1-0.5-1.9-1.5-2.3c-0.5-0.2-1.2-0.3-2.1-0.3h-4.1v5.4H909.6z"/>
		</g>
	</g>
	<g>
		<g>
			<path d="M937.8,492.2h6.6c1.8,0,3.1,0.5,3.9,1.6c0.4,0.6,0.7,1.4,0.7,2.2c0,1-0.3,1.8-0.8,2.4c-0.3,0.3-0.7,0.6-1.2,0.9
				c0.8,0.3,1.4,0.6,1.8,1c0.7,0.7,1,1.6,1,2.8c0,1-0.3,1.9-0.9,2.7c-0.9,1.2-2.4,1.8-4.4,1.8h-6.5V492.2z M943.6,498.7
				c0.9,0,1.6-0.1,2.1-0.4c0.8-0.4,1.2-1.1,1.2-2.1c0-1-0.4-1.7-1.2-2c-0.5-0.2-1.1-0.3-2.1-0.3h-3.7v4.8H943.6z M944.3,505.8
				c1.3,0,2.2-0.4,2.7-1.1c0.3-0.5,0.5-1,0.5-1.7c0-1.1-0.5-1.9-1.5-2.3c-0.5-0.2-1.2-0.3-2.1-0.3h-4.1v5.4H944.3z"/>
		</g>
	</g>
	<g>
		<g>
			<path d="M936.6,299.4h6.6c1.8,0,3.1,0.5,3.9,1.6c0.5,0.6,0.7,1.4,0.7,2.2c0,1-0.3,1.8-0.8,2.4c-0.3,0.3-0.7,0.6-1.2,0.9
				c0.8,0.3,1.4,0.6,1.8,1c0.7,0.7,1,1.6,1,2.8c0,1-0.3,1.9-0.9,2.7c-0.9,1.2-2.4,1.8-4.4,1.8h-6.5V299.4z M942.4,305.9
				c0.9,0,1.6-0.1,2.1-0.4c0.8-0.4,1.2-1.1,1.2-2.1c0-1-0.4-1.7-1.2-2c-0.5-0.2-1.1-0.3-2.1-0.3h-3.7v4.8H942.4z M943.1,313
				c1.3,0,2.2-0.4,2.7-1.1c0.3-0.5,0.5-1,0.5-1.7c0-1.1-0.5-1.9-1.5-2.3c-0.5-0.2-1.2-0.3-2.1-0.3h-4.1v5.4H943.1z"/>
		</g>
	</g>
	<g>
		<g>
			<path d="M877.8,447.1c0.7,1.2,1,2.9,1,5.1c0,2-0.3,3.7-0.9,5.1c-0.9,1.9-2.3,2.9-4.3,2.9c-1.8,0-3.2-0.8-4-2.4
				c-0.7-1.3-1.1-3.1-1.1-5.3c0-1.7,0.2-3.2,0.7-4.4c0.8-2.3,2.3-3.4,4.5-3.4C875.5,444.7,877,445.5,877.8,447.1z M875.9,457.1
				c0.6-0.9,0.9-2.5,0.9-4.8c0-1.7-0.2-3.1-0.6-4.2c-0.4-1.1-1.2-1.7-2.4-1.7c-1.1,0-1.9,0.5-2.4,1.6c-0.5,1-0.8,2.6-0.8,4.6
				c0,1.5,0.2,2.8,0.5,3.7c0.5,1.4,1.4,2.1,2.6,2.1C874.6,458.4,875.3,458,875.9,457.1z"/>
		</g>
		<g>
			<path d="M881.6,457.4h2.2v2.3h-2.2V457.4z"/>
		</g>
		<g>
			<path d="M887.8,449.1v-1.4c1.4-0.1,2.3-0.4,2.9-0.7c0.5-0.3,0.9-1,1.2-2.2h1.5v15h-2v-10.6H887.8z"/>
		</g>
		<g>
			<path d="M904.8,459.7v-3.7h-6.6v-1.8l6.9-9.6h1.6v9.8h2.2v1.6h-2.2v3.7H904.8z M904.8,454.4v-6.8l-4.8,6.8H904.8z"/>
		</g>
	</g>
	<g>
		<g>
			<path d="M1380.2,250.8c0.7,1.2,1,2.9,1,5.1c0,2-0.3,3.7-0.9,5.1c-0.9,1.9-2.3,2.9-4.3,2.9c-1.8,0-3.2-0.8-4-2.4
				c-0.7-1.3-1.1-3.1-1.1-5.3c0-1.7,0.2-3.2,0.7-4.4c0.8-2.3,2.3-3.4,4.5-3.4C1377.9,248.4,1379.3,249.2,1380.2,250.8z
				 M1378.3,260.8c0.6-0.9,0.9-2.5,0.9-4.8c0-1.7-0.2-3.1-0.6-4.2c-0.4-1.1-1.2-1.7-2.4-1.7c-1.1,0-1.9,0.5-2.4,1.6
				c-0.5,1-0.8,2.6-0.8,4.6c0,1.5,0.2,2.8,0.5,3.7c0.5,1.4,1.4,2.1,2.6,2.1C1376.9,262.1,1377.7,261.7,1378.3,260.8z"/>
		</g>
		<g>
			<path d="M1383.9,261.2h2.2v2.3h-2.2V261.2z"/>
		</g>
		<g>
			<path d="M1390.1,252.8v-1.4c1.4-0.1,2.3-0.4,2.9-0.7c0.5-0.3,0.9-1.1,1.2-2.2h1.5v15h-2v-10.6H1390.1z"/>
		</g>
		<g>
			<path d="M1407.2,263.4v-3.7h-6.6v-1.8l6.9-9.6h1.6v9.8h2.2v1.6h-2.2v3.7H1407.2z M1407.1,258.1v-6.8l-4.8,6.8H1407.1z"/>
		</g>
	</g>
	<g>
		<g>
			<path d="M399.1,412.6c0.7,1.2,1,2.9,1,5.1c0,2-0.3,3.7-0.9,5.1c-0.9,1.9-2.3,2.9-4.3,2.9c-1.8,0-3.2-0.8-4-2.4
				c-0.7-1.3-1.1-3.1-1.1-5.3c0-1.7,0.2-3.2,0.7-4.4c0.8-2.3,2.3-3.4,4.5-3.4C396.8,410.2,398.2,411,399.1,412.6z M397.2,422.6
				c0.6-0.9,0.9-2.5,0.9-4.8c0-1.7-0.2-3.1-0.6-4.2c-0.4-1.1-1.2-1.7-2.4-1.7c-1.1,0-1.9,0.5-2.4,1.6c-0.5,1-0.8,2.6-0.8,4.6
				c0,1.5,0.2,2.8,0.5,3.7c0.5,1.4,1.4,2.1,2.6,2.1C395.8,423.9,396.6,423.5,397.2,422.6z"/>
		</g>
		<g>
			<path d="M402.8,422.9h2.2v2.3h-2.2V422.9z"/>
		</g>
		<g>
			<path d="M417,412.6c0.7,1.2,1,2.9,1,5.1c0,2-0.3,3.7-0.9,5.1c-0.9,1.9-2.3,2.9-4.3,2.9c-1.8,0-3.2-0.8-4-2.4
				c-0.7-1.3-1.1-3.1-1.1-5.3c0-1.7,0.2-3.2,0.7-4.4c0.8-2.3,2.3-3.4,4.5-3.4C414.7,410.2,416.1,411,417,412.6z M415.1,422.6
				c0.6-0.9,0.9-2.5,0.9-4.8c0-1.7-0.2-3.1-0.6-4.2c-0.4-1.1-1.2-1.7-2.4-1.7c-1.1,0-1.9,0.5-2.4,1.6c-0.5,1-0.8,2.6-0.8,4.6
				c0,1.5,0.2,2.8,0.5,3.7c0.5,1.4,1.4,2.1,2.6,2.1C413.7,423.9,414.5,423.5,415.1,422.6z"/>
		</g>
		<g>
			<path d="M421,416.4c-0.6-0.6-0.8-1.3-0.8-2.2c0-1.1,0.4-2.1,1.2-2.9c0.8-0.8,2-1.2,3.5-1.2c1.4,0,2.6,0.4,3.4,1.1
				c0.8,0.8,1.2,1.6,1.2,2.7c0,0.9-0.2,1.7-0.7,2.3c-0.3,0.3-0.7,0.7-1.2,1c0.6,0.3,1.1,0.6,1.5,1c0.7,0.7,1,1.6,1,2.7
				c0,1.3-0.4,2.4-1.3,3.4c-0.9,0.9-2.1,1.4-3.8,1.4c-1.5,0-2.7-0.4-3.7-1.2c-1-0.8-1.5-1.9-1.5-3.5c0-0.9,0.2-1.7,0.7-2.3
				c0.4-0.6,1.1-1.1,1.9-1.5C421.7,417,421.3,416.7,421,416.4z M427.1,423.2c0.6-0.5,0.9-1.2,0.9-2.1c0-1-0.3-1.7-0.9-2.2
				c-0.6-0.5-1.4-0.8-2.3-0.8c-0.9,0-1.6,0.3-2.2,0.8c-0.6,0.5-0.9,1.2-0.9,2.1c0,0.8,0.3,1.5,0.8,2c0.5,0.6,1.3,0.9,2.4,0.9
				C425.8,423.9,426.5,423.7,427.1,423.2z M426.7,415.8c0.5-0.5,0.7-1,0.7-1.7c0-0.6-0.2-1.1-0.7-1.5c-0.4-0.5-1.1-0.7-2-0.7
				c-0.9,0-1.6,0.2-2,0.7c-0.4,0.5-0.6,1-0.6,1.6c0,0.7,0.3,1.3,0.8,1.7c0.5,0.4,1.1,0.6,1.9,0.6
				C425.6,416.5,426.3,416.2,426.7,415.8z"/>
		</g>
	</g>
	<g>
		<g>
			<path d="M834.8,427.4c0.5-1,1.4-1.8,2.7-2.6l2-1.2c0.9-0.5,1.5-1,1.9-1.3c0.6-0.6,0.9-1.2,0.9-2c0-0.9-0.3-1.6-0.8-2.1
				c-0.5-0.5-1.2-0.8-2.1-0.8c-1.3,0-2.2,0.5-2.7,1.5c-0.3,0.5-0.4,1.3-0.4,2.2h-1.9c0-1.3,0.3-2.4,0.7-3.2c0.8-1.5,2.3-2.2,4.3-2.2
				c1.7,0,3,0.5,3.8,1.4c0.8,0.9,1.2,2,1.2,3.1c0,1.2-0.4,2.2-1.3,3.1c-0.5,0.5-1.4,1.1-2.6,1.8l-1.4,0.8c-0.7,0.4-1.2,0.7-1.6,1.1
				c-0.7,0.6-1.1,1.3-1.3,2h8.2v1.8H834C834.1,429.5,834.4,428.4,834.8,427.4z"/>
		</g>
		<g>
			<path d="M855.3,418.2c0.7,1.2,1,2.9,1,5.1c0,2-0.3,3.7-0.9,5.1c-0.9,1.9-2.3,2.9-4.3,2.9c-1.8,0-3.1-0.8-4-2.4
				c-0.7-1.3-1.1-3.1-1.1-5.3c0-1.7,0.2-3.2,0.7-4.4c0.8-2.3,2.3-3.4,4.5-3.4C853.1,415.8,854.5,416.6,855.3,418.2z M853.4,428.2
				c0.6-0.9,0.9-2.5,0.9-4.8c0-1.7-0.2-3.1-0.6-4.2c-0.4-1.1-1.2-1.7-2.4-1.7c-1.1,0-1.9,0.5-2.4,1.6c-0.5,1-0.8,2.6-0.8,4.6
				c0,1.5,0.2,2.8,0.5,3.7c0.5,1.4,1.4,2.1,2.6,2.1C852.1,429.5,852.9,429.1,853.4,428.2z"/>
		</g>
		<g>
			<path d="M859.1,428.5h2.2v2.3h-2.2V428.5z"/>
		</g>
		<g>
			<path d="M873.3,418.2c0.7,1.2,1,2.9,1,5.1c0,2-0.3,3.7-0.9,5.1c-0.9,1.9-2.3,2.9-4.3,2.9c-1.8,0-3.2-0.8-4-2.4
				c-0.7-1.3-1.1-3.1-1.1-5.3c0-1.7,0.2-3.2,0.7-4.4c0.8-2.3,2.3-3.4,4.5-3.4C871,415.8,872.4,416.6,873.3,418.2z M871.4,428.2
				c0.6-0.9,0.9-2.5,0.9-4.8c0-1.7-0.2-3.1-0.6-4.2c-0.4-1.1-1.2-1.7-2.4-1.7c-1.1,0-1.9,0.5-2.4,1.6c-0.5,1-0.8,2.6-0.8,4.6
				c0,1.5,0.2,2.8,0.5,3.7c0.5,1.4,1.4,2.1,2.6,2.1C870,429.5,870.8,429.1,871.4,428.2z"/>
		</g>
		<g>
			<path d="M885.2,418.2c0.7,1.2,1,2.9,1,5.1c0,2-0.3,3.7-0.9,5.1c-0.9,1.9-2.3,2.9-4.3,2.9c-1.8,0-3.2-0.8-4-2.4
				c-0.7-1.3-1.1-3.1-1.1-5.3c0-1.7,0.2-3.2,0.7-4.4c0.8-2.3,2.3-3.4,4.5-3.4C883,415.8,884.4,416.6,885.2,418.2z M883.3,428.2
				c0.6-0.9,0.9-2.5,0.9-4.8c0-1.7-0.2-3.1-0.6-4.2c-0.4-1.1-1.2-1.7-2.4-1.7c-1.1,0-1.9,0.5-2.4,1.6c-0.5,1-0.8,2.6-0.8,4.6
				c0,1.5,0.2,2.8,0.5,3.7c0.5,1.4,1.4,2.1,2.6,2.1C882,429.5,882.8,429.1,883.3,428.2z"/>
		</g>
		<g>
			<path d="M894,423.8h5.3v1.9H894V423.8z"/>
		</g>
		<g>
			<path d="M907.7,427.4c0.5-1,1.4-1.8,2.7-2.6l2-1.2c0.9-0.5,1.5-1,1.9-1.3c0.6-0.6,0.9-1.2,0.9-2c0-0.9-0.3-1.6-0.8-2.1
				c-0.5-0.5-1.2-0.8-2.1-0.8c-1.3,0-2.2,0.5-2.7,1.5c-0.3,0.5-0.4,1.3-0.4,2.2h-1.9c0-1.3,0.3-2.4,0.7-3.2c0.8-1.5,2.3-2.2,4.3-2.2
				c1.7,0,3,0.5,3.8,1.4c0.8,0.9,1.2,2,1.2,3.1c0,1.2-0.4,2.2-1.3,3.1c-0.5,0.5-1.4,1.1-2.6,1.8l-1.4,0.8c-0.7,0.4-1.2,0.7-1.6,1.1
				c-0.7,0.6-1.1,1.3-1.3,2h8.2v1.8h-10.3C907,429.5,907.3,428.4,907.7,427.4z"/>
		</g>
		<g>
			<path d="M928.3,418.2c0.7,1.2,1,2.9,1,5.1c0,2-0.3,3.7-0.9,5.1c-0.9,1.9-2.3,2.9-4.3,2.9c-1.8,0-3.2-0.8-4-2.4
				c-0.7-1.3-1.1-3.1-1.1-5.3c0-1.7,0.2-3.2,0.7-4.4c0.8-2.3,2.3-3.4,4.5-3.4C926,415.8,927.4,416.6,928.3,418.2z M926.4,428.2
				c0.6-0.9,0.9-2.5,0.9-4.8c0-1.7-0.2-3.1-0.6-4.2c-0.4-1.1-1.2-1.7-2.4-1.7c-1.1,0-1.9,0.5-2.4,1.6c-0.5,1-0.8,2.6-0.8,4.6
				c0,1.5,0.2,2.8,0.5,3.7c0.5,1.4,1.4,2.1,2.6,2.1C925,429.5,925.8,429.1,926.4,428.2z"/>
		</g>
		<g>
			<path d="M932,428.5h2.2v2.3H932V428.5z"/>
		</g>
		<g>
			<path d="M938.2,420.2v-1.4c1.4-0.1,2.3-0.4,2.9-0.7c0.5-0.3,0.9-1.1,1.2-2.2h1.5v15h-2v-10.6H938.2z"/>
		</g>
		<g>
			<path d="M949.8,429.8c-0.8-1-1.2-2.2-1.2-3.6h2c0.1,1,0.3,1.7,0.5,2.1c0.5,0.8,1.4,1.2,2.7,1.2c1,0,1.8-0.3,2.4-0.8
				c0.6-0.5,0.9-1.2,0.9-2.1c0-1-0.3-1.8-1-2.2c-0.6-0.4-1.5-0.6-2.6-0.6c-0.1,0-0.3,0-0.4,0c-0.1,0-0.3,0-0.4,0v-1.7
				c0.2,0,0.4,0,0.5,0c0.1,0,0.3,0,0.4,0c0.7,0,1.3-0.1,1.7-0.3c0.8-0.4,1.2-1.1,1.2-2.1c0-0.8-0.3-1.3-0.8-1.7
				c-0.5-0.4-1.2-0.6-1.9-0.6c-1.3,0-2.1,0.4-2.6,1.3c-0.3,0.5-0.4,1.1-0.5,2H949c0-1.1,0.2-2.1,0.7-2.9c0.8-1.4,2.1-2.1,4.1-2.1
				c1.5,0,2.7,0.3,3.6,1c0.8,0.7,1.3,1.7,1.3,3c0,0.9-0.2,1.7-0.7,2.2c-0.3,0.4-0.7,0.6-1.2,0.8c0.8,0.2,1.4,0.6,1.9,1.3
				c0.4,0.6,0.7,1.4,0.7,2.3c0,1.4-0.5,2.6-1.4,3.5c-0.9,0.9-2.3,1.4-4,1.4C951.9,431.2,950.6,430.7,949.8,429.8z"/>
		</g>
	</g>
	<g>
		<g>
			<path d="M932.4,444.3h2.4l5.6,15.4h-2.3l-1.6-4.6h-6.1l-1.7,4.6h-2.1L932.4,444.3z M935.9,453.4l-2.3-6.8l-2.5,6.8H935.9z"/>
		</g>
	</g>
	<g>
		<g>
			<path d="M480.1,410.2h2.4l5.6,15.4h-2.3l-1.6-4.6h-6.1l-1.7,4.6h-2.1L480.1,410.2z M483.5,419.3l-2.3-6.8l-2.5,6.8H483.5z"/>
		</g>
	</g>
	<g>
		<g>
			<path d="M451.1,427.5l-0.3-7.8l-0.1-3.1l-0.7,2.1l-1.5,4.7H447l-1.4-4.7l-0.6-2.1l-0.1,3l-0.2,7.8h-2.2l0.7-13.7h2.9l1.2,3.9
				l0.6,2.2l0.6-2.1l1.3-4h3l0.7,13.7H451.1z"/>
		</g>
	</g>
	<g>
		<g>
			<path d="M969.8,445.4c1.1,1,1.7,2.2,1.8,3.5h-2c-0.2-1-0.7-1.8-1.4-2.4c-0.7-0.6-1.7-0.9-2.9-0.9c-1.5,0-2.7,0.5-3.7,1.6
				c-0.9,1.1-1.4,2.7-1.4,4.9c0,1.8,0.4,3.3,1.3,4.4c0.8,1.1,2.1,1.7,3.8,1.7c1.5,0,2.7-0.6,3.5-1.8c0.4-0.6,0.7-1.4,1-2.5h2
				c-0.2,1.6-0.8,3-1.8,4.1c-1.2,1.3-2.9,2-5,2c-1.8,0-3.3-0.5-4.5-1.6c-1.6-1.4-2.4-3.6-2.4-6.6c0-2.3,0.6-4.1,1.8-5.6
				c1.3-1.6,3.1-2.4,5.4-2.4C967.2,443.9,968.7,444.4,969.8,445.4z"/>
		</g>
	</g>
	<g>
		<g>
			<path d="M1459.9,247.6h2.4l5.6,15.4h-2.3l-1.6-4.6h-6.1l-1.7,4.6h-2.1L1459.9,247.6z M1463.4,256.7l-2.3-6.8l-2.5,6.8H1463.4z"/>
		</g>
	</g>
	<g>
		<g>
			<path d="M1497.3,248.7c1.1,1,1.7,2.2,1.8,3.5h-2c-0.2-1-0.7-1.8-1.4-2.4c-0.7-0.6-1.7-0.9-2.9-0.9c-1.5,0-2.7,0.5-3.7,1.6
				c-0.9,1.1-1.4,2.7-1.4,4.9c0,1.8,0.4,3.3,1.3,4.4c0.8,1.1,2.1,1.7,3.8,1.7c1.5,0,2.7-0.6,3.5-1.8c0.4-0.6,0.7-1.4,1-2.5h2
				c-0.2,1.6-0.8,3-1.8,4.1c-1.2,1.3-2.9,2-5,2c-1.8,0-3.3-0.5-4.5-1.6c-1.6-1.4-2.4-3.6-2.4-6.6c0-2.3,0.6-4.1,1.8-5.6
				c1.3-1.6,3.1-2.4,5.4-2.4C1494.7,247.2,1496.2,247.7,1497.3,248.7z"/>
		</g>
	</g>
	<g>
		<g>
			<path d="M411.9,347.4c1.1,1,1.7,2.2,1.8,3.5h-2c-0.2-1-0.7-1.8-1.4-2.4c-0.7-0.6-1.7-0.9-2.9-0.9c-1.5,0-2.7,0.5-3.7,1.6
				c-0.9,1.1-1.4,2.7-1.4,4.9c0,1.8,0.4,3.3,1.3,4.4c0.8,1.1,2.1,1.7,3.8,1.7c1.5,0,2.7-0.6,3.5-1.8c0.4-0.6,0.7-1.4,1-2.5h2
				c-0.2,1.6-0.8,3-1.8,4.1c-1.2,1.3-2.9,2-5,2c-1.8,0-3.3-0.5-4.5-1.6c-1.6-1.4-2.4-3.6-2.4-6.6c0-2.3,0.6-4.1,1.8-5.6
				c1.3-1.6,3.1-2.4,5.4-2.4C409.3,345.8,410.8,346.3,411.9,347.4z"/>
		</g>
	</g>
	<g>
		<g>
			<path d="M403.8,795.2c0.7,1.2,1,2.9,1,5.1c0,2-0.3,3.7-0.9,5.1c-0.9,1.9-2.3,2.9-4.3,2.9c-1.8,0-3.1-0.8-4-2.4
				c-0.7-1.3-1.1-3.1-1.1-5.3c0-1.7,0.2-3.2,0.7-4.4c0.8-2.3,2.3-3.4,4.5-3.4C401.6,792.8,403,793.6,403.8,795.2z M401.9,805.2
				c0.6-0.9,0.9-2.5,0.9-4.8c0-1.7-0.2-3.1-0.6-4.2c-0.4-1.1-1.2-1.7-2.4-1.7c-1.1,0-1.9,0.5-2.4,1.6c-0.5,1-0.8,2.6-0.8,4.6
				c0,1.5,0.2,2.8,0.5,3.7c0.5,1.4,1.4,2.1,2.6,2.1C400.6,806.5,401.4,806.1,401.9,805.2z"/>
		</g>
		<g>
			<path d="M407.6,805.5h2.2v2.3h-2.2V805.5z"/>
		</g>
		<g>
			<path d="M421.8,795.2c0.7,1.2,1,2.9,1,5.1c0,2-0.3,3.7-0.9,5.1c-0.9,1.9-2.3,2.9-4.3,2.9c-1.8,0-3.1-0.8-4-2.4
				c-0.7-1.3-1.1-3.1-1.1-5.3c0-1.7,0.2-3.2,0.7-4.4c0.8-2.3,2.3-3.4,4.5-3.4C419.5,792.8,420.9,793.6,421.8,795.2z M419.9,805.2
				c0.6-0.9,0.9-2.5,0.9-4.8c0-1.7-0.2-3.1-0.6-4.2c-0.4-1.1-1.2-1.7-2.4-1.7c-1.1,0-1.9,0.5-2.4,1.6c-0.5,1-0.8,2.6-0.8,4.6
				c0,1.5,0.2,2.8,0.5,3.7c0.5,1.4,1.4,2.1,2.6,2.1C418.5,806.5,419.3,806.1,419.9,805.2z"/>
		</g>
		<g>
			<path d="M425.2,804.4c0.5-1,1.4-1.8,2.7-2.6l2-1.2c0.9-0.5,1.5-1,1.9-1.3c0.6-0.6,0.9-1.2,0.9-2c0-0.9-0.3-1.6-0.8-2.1
				c-0.5-0.5-1.2-0.8-2.1-0.8c-1.3,0-2.2,0.5-2.7,1.5c-0.3,0.5-0.4,1.3-0.4,2.2h-1.9c0-1.3,0.3-2.4,0.7-3.2c0.8-1.5,2.3-2.2,4.3-2.2
				c1.7,0,3,0.5,3.8,1.4c0.8,0.9,1.2,2,1.2,3.1c0,1.2-0.4,2.2-1.3,3.1c-0.5,0.5-1.4,1.1-2.6,1.8l-1.4,0.8c-0.7,0.4-1.2,0.7-1.6,1.1
				c-0.7,0.6-1.1,1.3-1.3,2h8.2v1.8h-10.3C424.4,806.5,424.7,805.4,425.2,804.4z"/>
		</g>
	</g>
	<g>
		<g>
			<path d="M470.4,909.7h2.4l5.6,15.4H476l-1.6-4.6h-6.1l-1.7,4.6h-2.1L470.4,909.7z M473.8,918.8l-2.3-6.8l-2.5,6.8H473.8z"/>
		</g>
	</g>
	<g>
		<path d="M367.8,807.4h-25.5l8.1-17.1h26.8L367.8,807.4z M345.9,805.1h20.5l6.9-12.5h-21.5L345.9,805.1z"/>
	</g>
	<g>
		<rect x="335.6" y="408.2" width="1.5" height="20.4"/>
	</g>
	<g>
		<rect x="319.4" y="428.5" width="34" height="1.5"/>
	</g>
	<g>
		<path d="M448,430.4c-6.3,0-11.3-5.1-11.3-11.3s5.1-11.3,11.3-11.3s11.3,5.1,11.3,11.3S454.2,430.4,448,430.4z M448,409.2
			c-5.4,0-9.8,4.4-9.8,9.8s4.4,9.8,9.8,9.8c5.4,0,9.8-4.4,9.8-9.8S453.4,409.2,448,409.2z"/>
	</g>
	<g>
		<g>
			<g>
				<path d="M911.9,316l-0.3-7.8l-0.1-3.1l-0.7,2.1l-1.5,4.7h-1.6l-1.4-4.7l-0.6-2.1l-0.1,3l-0.2,7.8h-2.2l0.7-13.7h2.9l1.2,3.9
					l0.6,2.2l0.6-2.1l1.3-4h3l0.7,13.7H911.9z"/>
			</g>
		</g>
		<g>
			<path d="M908.7,318.9c-6.3,0-11.3-5.1-11.3-11.3s5.1-11.3,11.3-11.3c6.2,0,11.3,5.1,11.3,11.3S914.9,318.9,908.7,318.9z
				 M908.7,297.8c-5.4,0-9.8,4.4-9.8,9.8c0,5.4,4.4,9.8,9.8,9.8c5.4,0,9.8-4.4,9.8-9.8C918.5,302.2,914.1,297.8,908.7,297.8z"/>
		</g>
	</g>
	<g>
		<path d="M1428.3,243.6c-6.3,0-11.3,5.1-11.3,11.3c0,6.3,5.1,11.3,11.3,11.3c6.2,0,11.3-5.1,11.3-11.3
			C1439.7,248.6,1434.6,243.6,1428.3,243.6z M1423.5,263.4h1.6l0.2-7.8l0.1-3l0.6,2.1l1.4,4.7h1.6l1.5-4.7l0.7-2.1l0.1,3.1l0.3,7.8
			h1.7c-1.4,0.8-3.1,1.3-4.8,1.3C1426.6,264.7,1424.9,264.2,1423.5,263.4z M1433.8,263l-0.7-13.4h-3l-1.3,4l-0.6,2.1l-0.6-2.2
			l-1.2-3.9h-2.9l-0.7,13.4c-2.6-1.8-4.4-4.8-4.4-8.2c0-5.4,4.4-9.8,9.8-9.8c5.4,0,9.8,4.4,9.8,9.8
			C1438.1,258.3,1436.4,261.3,1433.8,263z"/>
	</g>
	<g>
		<path d="M1519,243.6c-6.3,0-11.3,5.1-11.3,11.3c0,6.3,5.1,11.3,11.3,11.3c6.2,0,11.3-5.1,11.3-11.3
			C1530.4,248.6,1525.3,243.6,1519,243.6z M1514.2,263.4h1.6l0.2-7.8l0.1-3l0.6,2.1l1.4,4.7h1.6l1.5-4.7l0.7-2.1l0.1,3.1l0.3,7.8
			h1.7c-1.4,0.8-3.1,1.3-4.8,1.3C1517.3,264.7,1515.6,264.2,1514.2,263.4z M1524.5,263l-0.7-13.4h-3l-1.3,4l-0.6,2.1l-0.6-2.2
			l-1.2-3.9h-2.9l-0.7,13.4c-2.6-1.8-4.4-4.8-4.4-8.2c0-5.4,4.4-9.8,9.8-9.8c5.4,0,9.8,4.4,9.8,9.8
			C1528.8,258.3,1527.1,261.3,1524.5,263z"/>
	</g>
	<g>
		<g>
			<path d="M970.7,316l-0.3-7.8l-0.1-3.1l-0.7,2.1l-1.5,4.7h-1.6l-1.4-4.7l-0.6-2.1l-0.1,3l-0.2,7.8h-2.2l0.7-13.7h2.9l1.2,3.9
				l0.6,2.2l0.6-2.1l1.3-4h3L973,316H970.7z"/>
		</g>
	</g>
	<g>
		<path d="M967.5,318.9c-6.3,0-11.3-5.1-11.3-11.3s5.1-11.3,11.3-11.3c6.3,0,11.3,5.1,11.3,11.3S973.8,318.9,967.5,318.9z
			 M967.5,297.8c-5.4,0-9.8,4.4-9.8,9.8c0,5.4,4.4,9.8,9.8,9.8s9.8-4.4,9.8-9.8C977.3,302.2,972.9,297.8,967.5,297.8z"/>
	</g>
	<g>
		<path d="M821.9,307.5h-3.7c-0.4-3.5-3.2-6.3-6.7-6.7v-4h-1.5v4c-3.5,0.4-6.3,3.2-6.7,6.7h-3.7v1.5h3.7c0.4,3.5,3.2,6.3,6.7,6.7
			v3.4h1.5v-3.4c3.5-0.4,6.3-3.2,6.7-6.7h3.7V307.5z M816.6,307.5h-5.2v-5.2C814.2,302.6,816.3,304.8,816.6,307.5z M809.9,302.3v5.2
			h-5.2C805.1,304.8,807.2,302.6,809.9,302.3z M804.8,309h5.2v5.2C807.2,313.8,805.1,311.7,804.8,309z M811.5,314.2V309h5.2
			C816.3,311.7,814.2,313.8,811.5,314.2z"/>
	</g>
	<g>
		<path d="M1330.8,254.9h-3.7c-0.4-3.5-3.2-6.3-6.7-6.7v-4h-1.5v4c-3.5,0.4-6.3,3.2-6.7,6.7h-3.7v1.5h3.7c0.4,3.5,3.2,6.3,6.7,6.7
			v3.4h1.5v-3.4c3.5-0.4,6.3-3.2,6.7-6.7h3.7V254.9z M1325.5,254.9h-5.2v-5.2C1323.1,250.1,1325.2,252.2,1325.5,254.9z
			 M1318.8,249.7v5.2h-5.2C1314,252.2,1316.2,250.1,1318.8,249.7z M1313.7,256.4h5.2v5.2C1316.2,261.2,1314,259.1,1313.7,256.4z
			 M1320.4,261.6v-5.2h5.2C1325.2,259.1,1323.1,261.2,1320.4,261.6z"/>
	</g>
	<g>
		<path d="M853.5,303.2l2.4-3.8l-1-1.6l-2.8,4.5c-1-0.5-2-0.7-3.1-0.7c-4,0-7.3,3.3-7.3,7.3c0,2.3,1.1,4.4,2.8,5.7l-2.4,3.8l1,1.6
			l2.8-4.5c1,0.5,2,0.7,3.1,0.7c4,0,7.3-3.3,7.3-7.3C856.3,306.6,855.2,304.5,853.5,303.2z M842.7,308.9c0-3.4,2.8-6.2,6.2-6.2
			c0.9,0,1.8,0.2,2.6,0.6l-6.5,10.5C843.6,312.5,842.7,310.8,842.7,308.9z M849,315.1c-0.9,0-1.8-0.2-2.6-0.6l6.5-10.5
			c1.4,1.1,2.3,2.9,2.3,4.8C855.2,312.3,852.4,315.1,849,315.1z"/>
	</g>
	<g>
		<path d="M379.4,412.7l2.4-3.8l-1-1.6l-2.8,4.5c-1-0.5-2-0.7-3.1-0.7c-4,0-7.3,3.3-7.3,7.3c0,2.3,1.1,4.4,2.8,5.7l-2.4,3.8l1,1.6
			l2.8-4.5c1,0.5,2,0.7,3.1,0.7c4,0,7.3-3.3,7.3-7.3C382.2,416.1,381.1,414,379.4,412.7z M368.7,418.4c0-3.4,2.8-6.2,6.2-6.2
			c0.9,0,1.8,0.2,2.6,0.6l-6.5,10.5C369.6,422,368.7,420.3,368.7,418.4z M374.9,424.6c-0.9,0-1.8-0.2-2.6-0.6l6.5-10.5
			c1.4,1.1,2.3,2.9,2.3,4.8C381.1,421.8,378.3,424.6,374.9,424.6z"/>
	</g>
	<g>
		<path d="M826.2,416.3l2.4-3.8l-1-1.6l-2.8,4.5c-1-0.5-2-0.7-3.1-0.7c-4,0-7.3,3.3-7.3,7.3c0,2.3,1.1,4.4,2.8,5.7l-2.4,3.8l1,1.6
			l2.8-4.5c1,0.5,2,0.7,3.1,0.7c4,0,7.3-3.3,7.3-7.3C829,419.7,827.9,417.7,826.2,416.3z M815.4,422c0-3.4,2.8-6.2,6.2-6.2
			c0.9,0,1.8,0.2,2.6,0.6l-6.5,10.5C816.4,425.7,815.4,424,815.4,422z M821.7,428.3c-0.9,0-1.8-0.2-2.6-0.6l6.5-10.5
			c1.4,1.1,2.3,2.9,2.3,4.8C827.9,425.5,825.1,428.3,821.7,428.3z"/>
	</g>
	<g>
		<path d="M275.1,547.9l2.4-3.8l-1-1.6l-2.8,4.5c-1-0.5-2-0.7-3.1-0.7c-4,0-7.3,3.3-7.3,7.3c0,2.3,1.1,4.4,2.8,5.7l-2.4,3.8l1,1.6
			l2.8-4.5c1,0.5,2,0.7,3.1,0.7c4,0,7.3-3.3,7.3-7.3C277.9,551.3,276.8,549.3,275.1,547.9z M264.3,553.6c0-3.4,2.8-6.2,6.2-6.2
			c0.9,0,1.8,0.2,2.6,0.6l-6.5,10.5C265.2,557.3,264.3,555.6,264.3,553.6z M270.6,559.9c-0.9,0-1.8-0.2-2.6-0.6l6.5-10.5
			c1.4,1.1,2.3,2.9,2.3,4.8C276.8,557.1,274,559.9,270.6,559.9z"/>
	</g>
	<g>
		<path d="M360,613.2l2.4-3.8l-1-1.6l-2.8,4.5c-1-0.5-2-0.7-3.1-0.7c-4,0-7.3,3.3-7.3,7.3c0,2.3,1.1,4.4,2.8,5.7l-2.4,3.8l1,1.6
			l2.8-4.5c1,0.5,2,0.7,3.1,0.7c4,0,7.3-3.3,7.3-7.3C362.8,616.6,361.7,614.6,360,613.2z M349.3,618.9c0-3.4,2.8-6.2,6.2-6.2
			c0.9,0,1.8,0.2,2.6,0.6l-6.5,10.5C350.2,622.6,349.3,620.9,349.3,618.9z M355.5,625.2c-0.9,0-1.8-0.2-2.6-0.6l6.5-10.5
			c1.4,1.1,2.3,2.9,2.3,4.8C361.7,622.4,358.9,625.2,355.5,625.2z"/>
	</g>
	<g>
		<path d="M809.8,716.5l2.4-3.8l-1-1.6l-2.8,4.5c-1-0.5-2-0.7-3.1-0.7c-4,0-7.3,3.3-7.3,7.3c0,2.3,1.1,4.4,2.8,5.7l-2.4,3.8l1,1.6
			l2.8-4.5c1,0.5,2,0.7,3.1,0.7c4,0,7.3-3.3,7.3-7.3C812.6,719.9,811.5,717.8,809.8,716.5z M799,722.2c0-3.4,2.8-6.2,6.2-6.2
			c0.9,0,1.8,0.2,2.6,0.6l-6.5,10.5C799.9,725.8,799,724.1,799,722.2z M805.3,728.4c-0.9,0-1.8-0.2-2.6-0.6l6.5-10.5
			c1.4,1.1,2.3,2.9,2.3,4.8C811.5,725.6,808.7,728.4,805.3,728.4z"/>
	</g>
	<g>
		<path d="M1302.7,958.6l2.4-3.8l-1-1.6l-2.8,4.5c-1-0.5-2-0.7-3.1-0.7c-4,0-7.3,3.3-7.3,7.3c0,2.3,1.1,4.4,2.8,5.7l-2.4,3.8l1,1.6
			l2.8-4.5c1,0.5,2,0.7,3.1,0.7c4,0,7.3-3.3,7.3-7.3C1305.5,961.9,1304.4,959.9,1302.7,958.6z M1291.9,964.3c0-3.4,2.8-6.2,6.2-6.2
			c0.9,0,1.8,0.2,2.6,0.6l-6.5,10.5C1292.8,967.9,1291.9,966.2,1291.9,964.3z M1298.2,970.5c-0.9,0-1.8-0.2-2.6-0.6l6.5-10.5
			c1.4,1.1,2.3,2.9,2.3,4.8C1304.4,967.7,1301.6,970.5,1298.2,970.5z"/>
	</g>
	<g>
		<path d="M1218.6,915.1l2.4-3.8l-1-1.6l-2.8,4.5c-1-0.5-2-0.7-3.1-0.7c-4,0-7.3,3.3-7.3,7.3c0,2.3,1.1,4.4,2.8,5.7l-2.4,3.8l1,1.6
			l2.8-4.5c1,0.5,2,0.7,3.1,0.7c4,0,7.3-3.3,7.3-7.3C1221.4,918.5,1220.3,916.5,1218.6,915.1z M1207.8,920.8c0-3.4,2.8-6.2,6.2-6.2
			c0.9,0,1.8,0.2,2.6,0.6l-6.5,10.5C1208.7,924.5,1207.8,922.8,1207.8,920.8z M1214.1,927.1c-0.9,0-1.8-0.2-2.6-0.6l6.5-10.5
			c1.4,1.1,2.3,2.9,2.3,4.8C1220.3,924.3,1217.5,927.1,1214.1,927.1z"/>
	</g>
	<g>
		<path d="M1452.8,318.3l2.4-3.8l-1-1.6l-2.8,4.5c-1-0.5-2-0.7-3.1-0.7c-4,0-7.3,3.3-7.3,7.3c0,2.3,1.1,4.4,2.8,5.7l-2.4,3.8l1,1.6
			l2.8-4.5c1,0.5,2,0.7,3.1,0.7c4,0,7.3-3.3,7.3-7.3C1455.6,321.7,1454.5,319.6,1452.8,318.3z M1442,324c0-3.4,2.8-6.2,6.2-6.2
			c0.9,0,1.8,0.2,2.6,0.6l-6.5,10.5C1442.9,327.6,1442,325.9,1442,324z M1448.3,330.2c-0.9,0-1.8-0.2-2.6-0.6l6.5-10.5
			c1.4,1.1,2.3,2.9,2.3,4.8C1454.5,327.4,1451.7,330.2,1448.3,330.2z"/>
	</g>
	<g>
		<path d="M1360,249.2l2.4-3.8l-1-1.6l-2.8,4.5c-1-0.5-2-0.7-3.1-0.7c-4,0-7.3,3.3-7.3,7.3c0,2.3,1.1,4.4,2.8,5.7l-2.4,3.8l1,1.6
			l2.8-4.5c1,0.5,2,0.7,3.1,0.7c4,0,7.3-3.3,7.3-7.3C1362.7,252.6,1361.6,250.5,1360,249.2z M1349.2,254.9c0-3.4,2.8-6.2,6.2-6.2
			c0.9,0,1.8,0.2,2.6,0.6l-6.5,10.5C1350.1,258.5,1349.2,256.8,1349.2,254.9z M1355.4,261.1c-0.9,0-1.8-0.2-2.6-0.6l6.5-10.5
			c1.4,1.1,2.3,2.9,2.3,4.8C1361.7,258.3,1358.9,261.1,1355.4,261.1z"/>
	</g>
	<g>
		<path d="M1373.5,218.2l2.4-3.8l-1-1.6l-2.8,4.5c-1-0.5-2-0.7-3.1-0.7c-4,0-7.3,3.3-7.3,7.3c0,2.3,1.1,4.4,2.8,5.7l-2.4,3.8l1,1.6
			l2.8-4.5c1,0.5,2,0.7,3.1,0.7c4,0,7.3-3.3,7.3-7.3C1376.3,221.6,1375.2,219.6,1373.5,218.2z M1362.7,223.9c0-3.4,2.8-6.2,6.2-6.2
			c0.9,0,1.8,0.2,2.6,0.6l-6.5,10.5C1363.6,227.6,1362.7,225.9,1362.7,223.9z M1369,230.2c-0.9,0-1.8-0.2-2.6-0.6l6.5-10.5
			c1.4,1.1,2.3,2.9,2.3,4.8C1375.2,227.4,1372.4,230.2,1369,230.2z"/>
	</g>
</g>
</svg>
