<?xml version="1.0" encoding="utf-8"?>
<!-- Generator: Adobe Illustrator 27.3.1, SVG Export Plug-In . SVG Version: 6.00 Build 0)  -->
<svg version="1.1" id="Layer_1" xmlns="http://www.w3.org/2000/svg" xmlns:xlink="http://www.w3.org/1999/xlink" x="0px" y="0px"
	 viewBox="0 0 2271.34 1170.83" style="enable-background:new 0 0 2271.34 1170.83;" xml:space="preserve">
<style type="text/css">
	.st0{fill:#A5A0A2;}
	.st1{fill:#9B9597;}
	.st2{fill:#ADADAD;}
	.st3{fill:#FFFFFF;}
	.st4{fill:none;stroke:#000000;stroke-miterlimit:10;}
	.st5{fill:none;stroke:#A5A0A2;stroke-width:1.8978;stroke-miterlimit:10;stroke-dasharray:9.5996,9.5996;}
</style>

<g>
	<g>
		<rect x="379.32" y="899.18" width="171.43" height="1"/>
	</g>
	<g>
		<path class="st0" d="M1774.76,713.45h-1.3v-15.63h1.3V713.45z M1774.76,682.18h-1.3v-15.63h1.3V682.18z M1774.76,650.92h-1.3
			v-15.63h1.3V650.92z M1774.76,619.65h-1.3v-15.63h1.3V619.65z M1774.76,588.39h-1.3v-15.63h1.3V588.39z M1774.76,557.13h-1.3
			v-15.63h1.3V557.13z M1774.76,525.86h-1.3v-15.63h1.3V525.86z M1774.76,494.6h-1.3v-15.63h1.3V494.6z M1774.76,463.33h-1.3V447.7
			h1.3V463.33z"/>
	</g>
	<g>
		<g>
			<g>
				<g>
					<g>
						<path class="st1" d="M1903.11,752.98l-1.32,0l0.01-6.68l1.32,0L1903.11,752.98z M1903.13,739.62l-1.32,0l0.01-6.68l1.32,0
							L1903.13,739.62z M1903.14,726.26l-1.32,0l0.01-6.68l1.32,0L1903.14,726.26z M1903.16,712.89l-1.32,0l0.01-6.68l1.32,0
							L1903.16,712.89z M1903.17,699.53l-1.32,0l0.01-6.68l1.32,0L1903.17,699.53z M1903.19,686.17l-1.32,0l0.01-6.68l1.32,0
							L1903.19,686.17z M1903.2,672.81l-1.32,0l0.01-6.68l1.32,0L1903.2,672.81z"/>
					</g>
				</g>
				<g>
					<g>
						<path class="st1" d="M1855.1,752.98l-1.32,0l0.01-6.68l1.32,0L1855.1,752.98z M1855.11,739.62l-1.32,0l0.01-6.68l1.32,0
							L1855.11,739.62z M1855.13,726.26l-1.32,0l0.01-6.68l1.32,0L1855.13,726.26z M1855.14,712.89l-1.32,0l0.01-6.68l1.32,0
							L1855.14,712.89z M1855.16,699.53l-1.32,0l0.01-6.68l1.32,0L1855.16,699.53z M1855.17,686.17l-1.32,0l0.01-6.68l1.32,0
							L1855.17,686.17z M1855.19,672.81l-1.32,0l0.01-6.68l1.32,0L1855.19,672.81z"/>
					</g>
				</g>
				<g>
					<path class="st1" d="M634.13,382.26h-13.18v-2.61h13.18V382.26z M607.77,382.26h-13.18v-2.61h13.18V382.26z M581.41,382.26
						h-13.18v-2.61h13.18V382.26z M555.05,382.26h-13.18v-2.61h13.18V382.26z M528.7,382.26h-13.18v-2.61h13.18V382.26z
						 M502.34,382.26h-13.18v-2.61h13.18V382.26z M475.98,382.26H462.8v-2.61h13.18V382.26z M449.62,382.26h-13.18v-2.61h13.18
						V382.26z M423.26,382.26h-13.18v-2.61h13.18V382.26z M396.9,382.26h-13.18v-2.61h13.18V382.26z M370.54,382.26h-13.18v-2.61
						h13.18V382.26z M344.18,382.26h-13.18v-2.61h13.18V382.26z M317.83,382.26h-13.18v-2.61h13.18V382.26z M291.47,382.26h-13.18
						v-2.61h13.18V382.26z"/>
				</g>
				<g>
					<path class="st0" d="M1570.58,382.1h-2.19v-1.36h2.19V382.1z M1561.5,382.1h-6.9v-1.36h6.9V382.1z M1547.7,382.1h-6.9v-1.36
						h6.9V382.1z M1533.91,382.1h-6.9v-1.36h6.9V382.1z M1520.11,382.1h-6.9v-1.36h6.9V382.1z M1506.32,382.1h-6.9v-1.36h6.9V382.1z
						 M1492.52,382.1h-6.9v-1.36h6.9V382.1z M1478.73,382.1h-6.9v-1.36h6.9V382.1z"/>
				</g>
				<g>
					<path class="st0" d="M1795.06,383.11h-2.19v-1.36h2.19V383.11z M1785.98,383.11h-6.9v-1.36h6.9V383.11z M1772.18,383.11h-6.9
						v-1.36h6.9V383.11z M1758.39,383.11h-6.9v-1.36h6.9V383.11z M1744.59,383.11h-6.9v-1.36h6.9V383.11z M1730.8,383.11h-6.9v-1.36
						h6.9V383.11z M1717,383.11h-6.9v-1.36h6.9V383.11z M1703.21,383.11h-6.9v-1.36h6.9V383.11z"/>
				</g>
				<g>
					<path class="st0" d="M1928.88,382.69h-2.87v-1.37h2.87V382.69z M1919.07,382.69h-6.94v-1.37h6.94V382.69z M1905.18,382.69
						h-6.94v-1.37h6.94V382.69z M1891.3,382.69h-6.94v-1.37h6.94V382.69z M1877.41,382.69h-6.94v-1.37h6.94V382.69z M1863.52,382.69
						h-6.94v-1.37h6.94V382.69z M1849.64,382.69h-6.94v-1.37h6.94V382.69z M1835.75,382.69h-6.94v-1.37h6.94V382.69z"/>
				</g>
				<g>
					<g>
						<path class="st0" d="M1750.02,739.71l-1.47,0l0.01-7.42l1.47,0L1750.02,739.71z M1750.04,724.87l-1.47,0l0.01-7.42l1.47,0
							L1750.04,724.87z M1750.06,710.04l-1.47,0l0.01-7.42l1.47,0L1750.06,710.04z M1750.07,695.2l-1.47,0l0.01-7.42l1.47,0
							L1750.07,695.2z M1750.09,680.37l-1.47,0l0.01-7.42l1.47,0L1750.09,680.37z M1750.11,665.53l-1.47,0l0.01-7.42l1.47,0
							L1750.11,665.53z M1750.12,650.69l-1.47,0l0.01-7.42l1.47,0L1750.12,650.69z M1750.14,635.86l-1.47,0l0.01-7.42l1.47,0
							L1750.14,635.86z"/>
					</g>
				</g>
				<g>
					<g>
						<path class="st0" d="M1715.98,735.84l-1.32,0l0.01-6.68l1.32,0L1715.98,735.84z M1715.99,722.48l-1.32,0l0.01-6.68l1.32,0
							L1715.99,722.48z M1716.01,709.11l-1.32,0l0.01-6.68l1.32,0L1716.01,709.11z M1716.02,695.75l-1.32,0l0.01-6.68l1.32,0
							L1716.02,695.75z M1716.03,682.39l-1.32,0l0.01-6.68l1.32,0L1716.03,682.39z M1716.05,669.03l-1.32,0l0.01-6.68l1.32,0
							L1716.05,669.03z M1716.06,655.66l-1.32,0l0.01-6.68l1.32,0L1716.06,655.66z"/>
					</g>
				</g>
				<g>
					<path class="st0" d="M1546.56,754.97L1546.56,754.97c-0.96,0-1.73-0.78-1.73-1.73l0.44-396.47c0-0.96,0.78-1.73,1.73-1.73l0,0
						c0.96,0,1.73,0.78,1.73,1.73l-0.44,396.47C1548.29,754.2,1547.52,754.97,1546.56,754.97z"/>
					<path class="st0" d="M1494.02,756.08L1494.02,756.08c-0.96,0-1.73-0.78-1.73-1.73l0.44-396.47c0-0.96,0.78-1.73,1.73-1.73l0,0
						c0.96,0,1.73,0.78,1.73,1.73l-0.44,396.47C1495.75,755.31,1494.97,756.08,1494.02,756.08z"/>
				</g>
				<g>
					<g>
						<path class="st0" d="M334.64,753.31L334.64,753.31c-0.96-0.04-1.7-0.85-1.66-1.8l16.35-396.13c0.04-0.96,0.85-1.7,1.8-1.66
							l0,0c0.96,0.04,1.7,0.85,1.66,1.8l-16.35,396.13C336.4,752.6,335.59,753.35,334.64,753.31z"/>
						<path class="st0" d="M306.95,753.31L306.95,753.31c-0.96-0.04-1.7-0.85-1.66-1.8l16.35-396.13c0.04-0.96,0.85-1.7,1.8-1.66h0
							c0.96,0.04,1.7,0.85,1.66,1.8l-16.35,396.13C308.71,752.6,307.9,753.35,306.95,753.31z"/>
					</g>
					<g>
						<path class="st0" d="M459.7,743.72L459.7,743.72c-0.89-0.36-1.32-1.36-0.96-2.25l151.87-378.55c0.36-0.89,1.36-1.32,2.25-0.96
							l0,0c0.89,0.36,1.32,1.36,0.96,2.25L461.95,742.76C461.6,743.65,460.59,744.08,459.7,743.72z"/>
						<path class="st0" d="M433.6,734.48L433.6,734.48c-0.89-0.36-1.32-1.36-0.96-2.25l149.35-372.28c0.36-0.89,1.36-1.32,2.25-0.96
							l0,0c0.89,0.36,1.32,1.36,0.96,2.25L435.85,733.52C435.5,734.4,434.49,734.83,433.6,734.48z"/>
					</g>
				</g>
				<g>
					<path class="st0" d="M829.7,754.87L829.7,754.87c-0.92-0.27-1.44-1.23-1.17-2.15l112.23-380.25c0.27-0.92,1.23-1.44,2.15-1.17
						l0,0c0.92,0.27,1.44,1.23,1.17,2.15L831.85,753.7C831.58,754.61,830.61,755.14,829.7,754.87z"/>
					<path class="st0" d="M802.84,748.13L802.84,748.13c-0.92-0.27-1.44-1.23-1.17-2.15L913.9,365.73c0.27-0.92,1.23-1.44,2.15-1.17
						l0,0c0.92,0.27,1.44,1.23,1.17,2.15L804.99,746.96C804.72,747.88,803.76,748.4,802.84,748.13z"/>
				</g>
				<g>
					<path class="st0" d="M1011.68,746.78L1011.68,746.78c-0.92-0.27-1.44-1.23-1.17-2.15l112.23-380.25
						c0.27-0.92,1.23-1.44,2.15-1.17l0,0c0.92,0.27,1.44,1.23,1.17,2.15l-112.23,380.25
						C1013.56,746.53,1012.6,747.05,1011.68,746.78z"/>
					<path class="st0" d="M984.83,740.04L984.83,740.04c-0.92-0.27-1.44-1.23-1.17-2.15l112.23-380.25
						c0.27-0.92,1.23-1.44,2.15-1.17l0,0c0.92,0.27,1.44,1.23,1.17,2.15L986.98,738.87C986.71,739.79,985.74,740.31,984.83,740.04z"
						/>
				</g>
				<g>
					<g>
						<path class="st0" d="M216.34,389.86L216.34,389.86c0-0.96,0.77-1.73,1.73-1.73l1754.21-0.57c0.96,0,1.73,0.77,1.73,1.73l0,0
							c0,0.96-0.77,1.73-1.73,1.73l-1754.21,0.57C217.12,391.6,216.34,390.82,216.34,389.86z"/>
					</g>
					<g>
						<path class="st0" d="M216.34,718.17L216.34,718.17c0-0.96,0.77-1.73,1.73-1.73l1754.21-0.57c0.96,0,1.73,0.77,1.73,1.73l0,0
							c0,0.96-0.77,1.73-1.73,1.73L218.07,719.9C217.12,719.9,216.34,719.12,216.34,718.17z"/>
					</g>
				</g>
				<g>
					<path class="st1" d="M1747.52,378.51c-0.08,0-0.16,0-0.24-0.01c-0.97-0.12-1.69-0.92-1.72-1.87l-6.15-52.89l-3.68,4.74
						c-0.66,0.85-1.89,1.01-2.74,0.34c-0.5-0.39-0.75-0.96-0.75-1.54c0-0.42,0.13-0.84,0.41-1.2l6.62-8.52c0,0,0,0,0,0
						c0.29-0.38,0.7-0.62,1.13-0.71c0.12-0.03,0.24-0.04,0.37-0.04h0c0,0,0,0,0,0c0.4-0.01,0.71,0.08,1.02,0.27
						c0.05,0.03,0.1,0.06,0.14,0.09l9.65,6.72c0.89,0.62,1.1,1.83,0.49,2.72c-0.62,0.89-1.83,1.1-2.72,0.49l-6.1-4.25l6.22,53.48
						c0.02,0.15,0.02,0.31,0,0.46C1749.34,377.77,1748.5,378.51,1747.52,378.51z"/>
				</g>
				<g>
					<path class="st1" d="M1504.97,379.43c-0.05,0-0.1,0-0.16-0.01c-1.08-0.09-1.88-1.03-1.79-2.1c0.45-5.63,0.87-14.5,1.3-23.89
						c0.41-8.76,0.83-17.76,1.3-24.5l-4.42,3.96c-0.81,0.72-2.04,0.65-2.76-0.15c-0.72-0.8-0.65-2.04,0.15-2.76l7.23-6.46
						c0.25-0.3,0.59-0.6,1.02-0.9c0.11-0.08,0.23-0.14,0.35-0.19c0.28-0.12,0.58-0.17,0.87-0.16c0.05,0,0.11,0.01,0.16,0.02l0,0
						c0,0,0,0,0,0c0.2,0.03,0.4,0.09,0.58,0.17c0.18,0.09,0.34,0.2,0.49,0.34c0.64,0.58,0.99,1.13,1.18,1.63
						c1.67,2.41,3.45,4.79,5.77,6.35c0.89,0.6,1.13,1.82,0.53,2.71c-0.6,0.9-1.82,1.13-2.71,0.53c0,0,0,0,0,0l0,0c0,0,0,0,0,0
						c-1.81-1.22-3.27-2.72-4.58-4.34c-0.46,6.64-0.86,15.4-1.26,23.93c-0.44,9.42-0.86,18.32-1.31,24.02
						C1506.84,378.65,1505.98,379.43,1504.97,379.43z"/>
				</g>
				<g>
					<path class="st1" d="M1894.57,379.88h-0.29c-0.74,0-1.39-0.41-1.72-1.02l-41.31-58.26l-1.05,4.14
						c-0.27,1.05-1.33,1.68-2.37,1.41c-0.88-0.22-1.47-1.02-1.47-1.89c0-0.16,0.02-0.32,0.06-0.48l2.09-8.24c0,0,0,0,0,0
						c0,0,0,0,0,0v0c0,0,0,0,0,0c0,0,0,0,0,0c0,0,0,0,0,0c0,0,0,0,0,0c0,0,0,0,0,0c0,0,0,0,0,0c0.08-0.31,0.24-0.58,0.45-0.81
						c0,0,0,0,0,0c0,0,0,0,0,0c0,0,0,0,0,0c0,0,0,0,0,0c0.07-0.07,0.14-0.14,0.22-0.2v0c0,0,0,0,0,0c0.24-0.19,0.54-0.33,0.85-0.39
						c0.29-0.06,0.58-0.04,0.86,0.03l9.45,2.45c1.04,0.27,1.67,1.34,1.4,2.38c-0.27,1.04-1.33,1.67-2.38,1.4l-4.29-1.11l40.37,56.93
						c0.63,0.32,1.07,0.98,1.07,1.74C1896.52,379,1895.65,379.88,1894.57,379.88z"/>
				</g>
				<g>
					<g>
						<path class="st0" d="M381.25,375.3c-1.08,0-1.95-0.88-1.95-1.95V278.6c0-1.08,0.88-1.95,1.95-1.95s1.95,0.88,1.95,1.95v94.75
							C383.2,374.43,382.33,375.3,381.25,375.3z"/>
					</g>
					<g>
						<path class="st0" d="M552.68,375.3c-1.08,0-1.95-0.88-1.95-1.95V278.6c0-1.08,0.88-1.95,1.95-1.95s1.95,0.88,1.95,1.95v94.75
							C554.64,374.43,553.76,375.3,552.68,375.3z"/>
					</g>
					<g>
						<g>
							<rect x="571.6" y="298.68" class="st0" width="32.1" height="1.3"/>
						</g>
						<g>
							<path class="st0" d="M563.74,299.33c3.7-1.37,8.29-3.71,11.13-6.2l-2.24,6.2l2.24,6.19
								C572.03,303.05,567.44,300.7,563.74,299.33z"/>
						</g>
					</g>
					<g>
						<g>
							<rect x="330.23" y="298.68" class="st0" width="32.1" height="1.3"/>
						</g>
						<g>
							<path class="st0" d="M370.19,299.33c-3.7,1.37-8.29,3.71-11.13,6.2l2.24-6.2l-2.24-6.19
								C361.91,295.62,366.5,297.96,370.19,299.33z"/>
						</g>
					</g>
				</g>
				<g>
					<g>
						<path class="st0" d="M550.76,894.27C550.75,894.27,550.75,894.27,550.76,894.27c-1.08,0-1.96-0.88-1.95-1.96l0.33-163.73
							c0-1.08,0.88-1.95,1.95-1.95c0,0,0,0,0,0c1.08,0,1.95,0.88,1.95,1.96l-0.33,163.73C552.71,893.39,551.83,894.27,550.76,894.27
							z"/>
					</g>
					<g>
						<path class="st0" d="M379.32,893.87C379.32,893.87,379.32,893.87,379.32,893.87c-1.08,0-1.96-0.88-1.95-1.96l0.33-163.73
							c0-1.08,0.88-1.95,1.95-1.95c0,0,0,0,0,0c1.08,0,1.95,0.88,1.95,1.96l-0.33,163.73C381.27,892.99,380.4,893.87,379.32,893.87z
							"/>
					</g>
					<g>
						<g>
							<g>
								
									<rect x="343.74" y="855.33" transform="matrix(2.342520e-03 -1 1 2.342520e-03 -527.7924 1213.7272)" class="st0" width="1.3" height="32.1"/>
							</g>
							<g>
								<path class="st0" d="M368.3,871.43c-3.7,1.36-8.3,3.7-11.15,6.17l2.26-6.19l-2.23-6.2
									C360.02,867.7,364.61,870.05,368.3,871.43z"/>
							</g>
						</g>
						<g>
							<g>
								
									<rect x="585.11" y="855.89" transform="matrix(2.342520e-03 -1 1 2.342520e-03 -287.5546 1455.6553)" class="st0" width="1.3" height="32.1"/>
							</g>
							<g>
								<path class="st0" d="M561.85,871.89c3.7-1.36,8.3-3.7,11.15-6.17l-2.26,6.19l2.23,6.2
									C570.13,875.62,565.54,873.27,561.85,871.89z"/>
							</g>
						</g>
					</g>
				</g>
				<g>
					<path class="st0" d="M762.13,828.29c-0.22,0-0.44-0.04-0.66-0.12c0,0,0,0,0,0c-0.06-0.02-0.12-0.04-0.17-0.07l-9.77-4.54
						c-0.98-0.46-1.4-1.62-0.95-2.6c0.45-0.98,1.62-1.4,2.6-0.95l5.56,2.58L640.77,490.06c-0.36-1.02,0.17-2.13,1.19-2.49
						c1.02-0.36,2.13,0.17,2.49,1.19l118.03,332.74l2.74-5.2c0.5-0.95,1.69-1.32,2.64-0.82c0.66,0.35,1.04,1.03,1.04,1.73
						c0,0.31-0.07,0.62-0.23,0.91l-4.82,9.14c0,0,0,0,0,0.01c-0.22,0.41-0.56,0.71-0.96,0.88h0c0,0-0.01,0-0.01,0c0,0,0,0,0,0
						c-0.12,0.05-0.26,0.09-0.39,0.12C762.37,828.28,762.25,828.29,762.13,828.29z"/>
				</g>
				<g>
					<path class="st0" d="M645.99,646.83l-0.58-12.39l1.3-0.06l0.58,12.39L645.99,646.83z M644.69,618.82l-0.73-15.62l1.3-0.06
						l0.73,15.62L644.69,618.82z M643.23,587.59l-0.73-15.62l1.3-0.06l0.73,15.62L643.23,587.59z M641.77,556.36l-0.73-15.62
						l1.3-0.06l0.73,15.62L641.77,556.36z M640.32,525.13l-0.73-15.62l1.3-0.06l0.73,15.62L640.32,525.13z M638.86,493.9
						l-0.73-15.62l1.3-0.06l0.73,15.62L638.86,493.9z M637.41,462.67l-0.73-15.62l1.3-0.06l0.73,15.62L637.41,462.67z"/>
				</g>
				<g>
					<path class="st0" d="M354.89,758.64c4.34-3.33,8.44-7.03,12.2-11l-1.55-1.47c-3.68,3.88-7.7,7.51-11.95,10.77L354.89,758.64z"
						/>
					<path class="st0" d="M340,765.77c-4.69,2.55-9.6,4.75-14.58,6.53l0.72,2.01c5.09-1.82,10.1-4.06,14.89-6.67l0.09-0.05
						l-1.02-1.88L340,765.77z"/>
					<path class="st0" d="M293.89,778.21l0.06,2.14c5.47-0.15,10.97-0.73,16.34-1.74l-0.39-2.1
						C304.63,777.49,299.25,778.06,293.89,778.21z"/>
					<path class="st0" d="M262.07,774.05l-0.6,2.05c5.25,1.54,10.65,2.69,16.07,3.39l0.28-2.12
						C272.51,776.69,267.21,775.57,262.07,774.05z"/>
					<path class="st0" d="M209.78,738.28l-1.69,1.3c3.33,4.34,7.04,8.44,11.01,12.19l1.47-1.55
						C216.67,746.55,213.04,742.53,209.78,738.28z"/>
					<path class="st0" d="M233.08,760.32l-1.21,1.77c4.51,3.08,9.3,5.83,14.24,8.17l0.91-1.93
						C242.19,766.03,237.5,763.34,233.08,760.32z"/>
					<path class="st0" d="M570.75,761.93c4.34,3.33,8.44,7.03,12.2,11l-1.55,1.47c-3.68-3.88-7.7-7.51-11.95-10.77L570.75,761.93z"
						/>
					<path class="st0" d="M555.87,754.8c-4.69-2.55-9.6-4.75-14.58-6.53l0.72-2.01c5.09,1.82,10.1,4.06,14.89,6.67l0.09,0.05
						l-1.02,1.88L555.87,754.8z"/>
					<path class="st0" d="M509.75,742.36l0.06-2.14c5.47,0.15,10.97,0.73,16.34,1.74l-0.39,2.1
						C520.49,743.08,515.11,742.51,509.75,742.36z"/>
					<path class="st0" d="M477.93,746.51l-0.6-2.05c5.25-1.54,10.65-2.69,16.07-3.39l0.28,2.12
						C488.37,743.88,483.07,745,477.93,746.51z"/>
					<path class="st0" d="M425.64,782.28l-1.69-1.3c3.33-4.34,7.04-8.44,11.01-12.19l1.47,1.55
						C432.53,774.02,428.9,778.04,425.64,782.28z"/>
					<path class="st0" d="M448.95,760.25l-1.21-1.77c4.51-3.08,9.3-5.83,14.24-8.17l0.91,1.93
						C458.05,754.54,453.36,757.23,448.95,760.25z"/>
				</g>
				<g>
					<g>
						<path class="st1" d="M930.07,354.69c2.91,2.23,5.66,4.71,8.17,7.37l-1.04,0.99c-2.46-2.6-5.16-5.03-8.01-7.22L930.07,354.69z"
							/>
						<path class="st0" d="M937.18,363.75l-0.34-0.36c-2.44-2.58-5.12-4.99-7.95-7.17l-0.4-0.3l1.48-1.93l0.4,0.3
							c2.93,2.25,5.7,4.75,8.23,7.42l0.34,0.36L937.18,363.75z M929.89,355.74c2.59,2.02,5.05,4.24,7.33,6.61l0.31-0.3
							c-2.29-2.38-4.77-4.62-7.38-6.65L929.89,355.74z"/>
					</g>
					<g>
						<path class="st1" d="M920.09,349.91c-3.14-1.71-6.43-3.18-9.77-4.38l0.48-1.35c3.41,1.22,6.77,2.72,9.98,4.47l0.06,0.03
							l-0.68,1.26L920.09,349.91z"/>
						<path class="st0" d="M920.35,350.63l-0.44-0.24l0.17-0.47l-0.24,0.44c-3.12-1.7-6.39-3.16-9.7-4.34l-0.47-0.17l0.82-2.29
							l0.47,0.17c3.44,1.23,6.82,2.74,10.05,4.5l0.44,0.24l-0.18,0.47L920.35,350.63z M910.95,345.23c3.07,1.12,6.1,2.48,9,4.04
							l0.21-0.38c-2.96-1.58-5.99-2.94-9.06-4.06L910.95,345.23z"/>
					</g>
					<g>
						<path class="st1" d="M889.18,341.58l0.04-1.43c3.67,0.1,7.35,0.49,10.95,1.17l-0.26,1.41
							C896.38,342.06,892.77,341.67,889.18,341.58z"/>
						<path class="st0" d="M900.3,343.3l-0.49-0.09c-3.5-0.66-7.08-1.04-10.65-1.13l-0.5-0.01l0.07-2.43l0.5,0.01
							c3.69,0.1,7.41,0.5,11.03,1.18l0.49,0.09L900.3,343.3z M889.69,341.09c3.29,0.11,6.58,0.46,9.81,1.05l0.08-0.43
							c-3.25-0.58-6.57-0.94-9.88-1.05L889.69,341.09z"/>
					</g>
					<g>
						<path class="st1" d="M867.85,344.36l-0.4-1.37c3.52-1.03,7.14-1.8,10.77-2.27l0.19,1.42
							C874.85,342.59,871.3,343.34,867.85,344.36z"/>
						<path class="st0" d="M867.51,344.98l-0.69-2.33l0.48-0.14c3.54-1.04,7.19-1.81,10.85-2.29l0.5-0.06l0.31,2.41l-0.5,0.06
							c-3.53,0.46-7.06,1.21-10.48,2.21L867.51,344.98z M868.07,343.32l0.12,0.41c3.16-0.9,6.4-1.59,9.65-2.04l-0.06-0.43
							C874.51,341.72,871.25,342.41,868.07,343.32z"/>
					</g>
					<g>
						<path class="st1" d="M832.8,368.33l-1.14-0.87c2.23-2.91,4.72-5.66,7.38-8.17l0.98,1.04
							C837.42,362.79,834.99,365.49,832.8,368.33z"/>
						<path class="st0" d="M832.9,369.03l-1.93-1.48l0.3-0.4c2.25-2.93,4.75-5.7,7.43-8.23l0.36-0.34l1.67,1.77l-0.36,0.34
							c-2.59,2.45-5,5.12-7.17,7.94L832.9,369.03z M832.37,367.37l0.34,0.26c2.02-2.59,4.24-5.05,6.61-7.32l-0.3-0.31
							C836.64,362.28,834.41,364.76,832.37,367.37z"/>
					</g>
					<g>
						<path class="st1" d="M848.43,353.56l-0.81-1.18c3.02-2.06,6.23-3.91,9.55-5.48l0.61,1.29
							C854.53,349.74,851.38,351.54,848.43,353.56z"/>
						<path class="st0" d="M848.29,354.26l-1.37-2.01l0.41-0.28c3.04-2.08,6.28-3.93,9.61-5.51l0.45-0.21l1.04,2.2l-0.45,0.21
							c-3.22,1.53-6.35,3.32-9.28,5.32L848.29,354.26z M848.31,352.51l0.24,0.36c2.72-1.83,5.59-3.48,8.55-4.91l-0.19-0.39
							C853.95,349.01,851.05,350.67,848.31,352.51z"/>
					</g>
				</g>
				<g>
					<path class="st0" d="M987.83,750.18c4.59-4.19,8.89-8.77,12.75-13.62l-1.9-1.52c-3.79,4.75-7.99,9.24-12.49,13.34
						L987.83,750.18z"/>
					<path class="st0" d="M971.66,759.68c-5.07,3.34-10.41,6.29-15.88,8.79l1.01,2.21c5.59-2.55,11.04-5.57,16.22-8.98l0.1-0.07
						l-1.34-2.03L971.66,759.68z"/>
					<path class="st0" d="M920.64,778.18l0.27,2.41c6.18-0.69,12.35-1.88,18.33-3.54l-0.65-2.34
						C932.74,776.34,926.69,777.51,920.64,778.18z"/>
					<path class="st0" d="M884.22,776.53l-0.49,2.38c6.09,1.25,12.32,2.02,18.52,2.3l0.11-2.43
						C896.29,778.51,890.18,777.75,884.22,776.53z"/>
					<path class="st0" d="M821.58,741.05l-1.79,1.64c4.19,4.59,8.78,8.88,13.63,12.75l1.51-1.9
						C830.18,749.75,825.69,745.55,821.58,741.05z"/>
					<path class="st0" d="M850.08,763.76l-1.2,2.11c5.4,3.05,11.09,5.71,16.91,7.88l0.85-2.27
						C860.94,769.35,855.37,766.75,850.08,763.76z"/>
				</g>
				<g>
					<path class="st0" d="M1411.44,611.19c4.59-4.19,8.89-8.77,12.75-13.62l-1.9-1.52c-3.79,4.75-7.99,9.24-12.49,13.34
						L1411.44,611.19z"/>
					<path class="st0" d="M1395.27,620.69c-5.07,3.34-10.41,6.29-15.88,8.79l1.01,2.21c5.59-2.55,11.04-5.57,16.22-8.98l0.1-0.07
						l-1.34-2.03L1395.27,620.69z"/>
					<path class="st0" d="M1344.25,639.19l0.27,2.41c6.18-0.69,12.35-1.88,18.33-3.54l-0.65-2.34
						C1356.34,637.35,1350.3,638.51,1344.25,639.19z"/>
					<path class="st0" d="M1307.82,637.54l-0.49,2.38c6.09,1.25,12.32,2.02,18.52,2.3l0.11-2.43
						C1319.89,639.52,1313.79,638.76,1307.82,637.54z"/>
					<path class="st0" d="M1245.19,602.06l-1.79,1.64c4.19,4.59,8.78,8.88,13.63,12.75l1.51-1.9
						C1253.78,610.76,1249.29,606.56,1245.19,602.06z"/>
					<path class="st0" d="M1273.69,624.77l-1.2,2.11c5.4,3.05,11.09,5.71,16.91,7.88l0.85-2.27
						C1284.55,630.36,1278.98,627.76,1273.69,624.77z"/>
				</g>
				<g>
					<path class="st0" d="M1313.21,343.32c4.59,4.19,8.89,8.77,12.75,13.62l-1.9,1.52c-3.79-4.75-7.99-9.24-12.49-13.34
						L1313.21,343.32z"/>
					<path class="st0" d="M1297.04,333.82c-5.07-3.34-10.41-6.29-15.88-8.79l1.01-2.21c5.59,2.55,11.04,5.57,16.22,8.98l0.1,0.07
						l-1.34,2.03L1297.04,333.82z"/>
					<path class="st0" d="M1246.02,315.31l0.27-2.41c6.18,0.69,12.35,1.88,18.33,3.54l-0.65,2.34
						C1258.12,317.16,1252.08,315.99,1246.02,315.31z"/>
					<path class="st0" d="M1209.6,316.96l-0.49-2.38c6.09-1.25,12.32-2.02,18.52-2.3l0.11,2.43
						C1221.67,314.98,1215.56,315.74,1209.6,316.96z"/>
					<path class="st0" d="M1146.96,352.45l-1.79-1.64c4.19-4.59,8.78-8.88,13.63-12.75l1.51,1.9
						C1155.56,343.75,1151.07,347.95,1146.96,352.45z"/>
					<path class="st0" d="M1175.46,329.73l-1.2-2.11c5.4-3.05,11.09-5.71,16.91-7.88l0.85,2.27
						C1186.32,324.14,1180.75,326.74,1175.46,329.73z"/>
				</g>
				<g>
					<path class="st0" d="M1786.82,747.33c4.59-4.19,8.89-8.77,12.75-13.62l-1.9-1.52c-3.79,4.75-7.99,9.24-12.49,13.34
						L1786.82,747.33z"/>
					<path class="st0" d="M1770.65,756.83c-5.07,3.34-10.41,6.29-15.89,8.79l1.01,2.21c5.59-2.55,11.04-5.57,16.22-8.98l0.1-0.07
						l-1.34-2.03L1770.65,756.83z"/>
					<path class="st0" d="M1719.63,775.34l0.27,2.41c6.18-0.69,12.35-1.88,18.33-3.54l-0.65-2.34
						C1731.73,773.49,1725.68,774.66,1719.63,775.34z"/>
					<path class="st0" d="M1683.21,773.69l-0.49,2.38c6.09,1.25,12.32,2.02,18.52,2.3l0.11-2.43
						C1695.28,775.67,1689.17,774.91,1683.21,773.69z"/>
					<path class="st0" d="M1620.57,738.2l-1.79,1.64c4.19,4.59,8.78,8.88,13.63,12.75l1.51-1.9
						C1629.17,746.9,1624.67,742.7,1620.57,738.2z"/>
					<path class="st0" d="M1649.07,760.92l-1.2,2.11c5.4,3.05,11.09,5.71,16.91,7.88l0.85-2.27
						C1659.93,766.51,1654.36,763.91,1649.07,760.92z"/>
				</g>
				<g>
					<path class="st0" d="M1944.01,631.71c-4.19,4.59-8.77,8.89-13.62,12.75l-1.52-1.9c4.75-3.79,9.24-7.99,13.34-12.49
						L1944.01,631.71z"/>
					<path class="st0" d="M1953.51,615.53c3.34-5.07,6.29-10.41,8.79-15.88l2.21,1.01c-2.55,5.59-5.57,11.04-8.98,16.22l-0.07,0.1
						l-2.03-1.34L1953.51,615.53z"/>
					<path class="st0" d="M1972.01,564.51l2.41,0.27c-0.69,6.18-1.88,12.35-3.54,18.33l-2.34-0.65
						C1970.16,576.61,1971.33,570.57,1972.01,564.51z"/>
					<path class="st0" d="M1970.36,528.09l2.38-0.49c1.25,6.09,2.02,12.32,2.3,18.52l-2.43,0.11
						C1972.34,540.16,1971.58,534.05,1970.36,528.09z"/>
					<path class="st0" d="M1934.88,465.45l1.64-1.79c4.59,4.19,8.88,8.78,12.75,13.63l-1.9,1.51
						C1943.57,474.05,1939.37,469.56,1934.88,465.45z"/>
					<path class="st0" d="M1957.59,493.96l2.11-1.2c3.05,5.4,5.71,11.09,7.88,16.91l-2.27,0.85
						C1963.18,504.82,1960.58,499.24,1957.59,493.96z"/>
				</g>
				<g>
					<path class="st0" d="M833.77,611.52c-0.82,0-1.56-0.52-1.84-1.3l-99.74-279.74l-2.3,7.7c-0.31,1.03-1.4,1.62-2.43,1.31
						c-0.85-0.25-1.4-1.03-1.39-1.87c0-0.18,0.03-0.37,0.08-0.56l4.01-13.42c0,0,0,0,0-0.01c0,0,0,0,0,0c0,0,0-0.01,0-0.01h0
						c0.12-0.37,0.34-0.69,0.63-0.93c0,0,0,0,0,0c0,0,0,0,0.01,0c0,0,0,0,0,0l0,0c0.06-0.05,0.12-0.09,0.18-0.13c0,0,0,0,0,0
						c0,0,0,0,0.01,0c0,0,0,0,0.01,0c0,0,0,0,0.01,0l0,0c0.25-0.15,0.53-0.25,0.83-0.28c0,0,0,0,0,0c0.09-0.01,0.18-0.01,0.26-0.01
						c0,0,0,0,0,0c0,0,0,0,0,0c0.28,0.01,0.54,0.08,0.78,0.2c0,0,0,0,0,0c0.11,0.05,0.22,0.12,0.32,0.2l0,0c0,0,0,0,0,0l12.27,9.31
						c0.86,0.65,1.03,1.88,0.37,2.74c-0.65,0.86-1.88,1.03-2.74,0.37l-7.04-5.35l97.44,273.27l43.01-160.13
						c0.28-1.04,1.35-1.66,2.39-1.38c1.04,0.28,1.66,1.35,1.38,2.39l-44.63,166.18c-0.22,0.83-0.95,1.41-1.81,1.45
						C833.82,611.52,833.8,611.52,833.77,611.52z"/>
				</g>
				<g>
					<path class="st0" d="M1009.68,611.52c-0.03,0-0.06,0-0.1,0c-0.85-0.04-1.57-0.62-1.79-1.45l-44.63-166.18
						c-0.28-1.04,0.34-2.11,1.38-2.39c1.05-0.28,2.11,0.34,2.39,1.38l43.06,160.31l103.11-274.48l-7.12,4.2
						c-0.93,0.55-2.13,0.24-2.68-0.69c-0.55-0.93-0.24-2.13,0.69-2.68l11.88-7.01c0.03-0.02,0.06-0.03,0.09-0.05
						c0.36-0.19,0.76-0.26,1.14-0.21c0.13,0.02,0.26,0.05,0.39,0.09c0,0,0,0,0.01,0c0.41,0.14,0.78,0.42,1.03,0.81l0,0
						c0,0,0,0,0,0.01c0,0,0,0,0,0.01l6.66,10.78c0.2,0.32,0.29,0.67,0.29,1.02c0,0.66-0.33,1.3-0.93,1.67
						c-0.92,0.57-2.12,0.28-2.69-0.64l-4.56-7.39l-105.8,281.63C1011.22,611.02,1010.49,611.52,1009.68,611.52z"/>
				</g>
				<g>
					<g>
						<path class="st0" d="M1325.97,672.51c-63.03,0-114.31-56.71-114.31-126.41c0-69.7,51.28-126.41,114.31-126.41
							c11.41,0,22.68,1.85,33.49,5.51c1.02,0.35,1.57,1.46,1.22,2.48c-0.34,1.02-1.45,1.57-2.48,1.23
							c-10.4-3.52-21.25-5.3-32.23-5.3c-60.88,0-110.4,54.95-110.4,122.5c0,67.55,49.53,122.5,110.4,122.5
							c28.75,0,67.62-5.91,89.49-34.07c0.66-0.85,1.89-1.01,2.74-0.34c0.85,0.66,1.01,1.89,0.34,2.74
							C1395.7,666.34,1355.59,672.51,1325.97,672.51z"/>
					</g>
					<g>
						<path class="st0" d="M1431.87,838.42c-0.22,0-0.45-0.04-0.66-0.12c-0.06-0.02-0.11-0.04-0.16-0.07l-16.21-7.4
							c-0.98-0.45-1.42-1.61-0.97-2.59c0.45-0.98,1.61-1.41,2.59-0.97l12.55,5.72l-42.85-172.56c-0.26-1.05,0.38-2.11,1.43-2.37
							c1.05-0.26,2.11,0.38,2.37,1.43l42.82,172.43l7.95-10.91c0.64-0.87,1.86-1.06,2.73-0.43c0.52,0.38,0.8,0.98,0.8,1.58
							c0,0.4-0.12,0.8-0.38,1.15l-10.42,14.29c0,0,0,0,0,0.01c0,0,0,0,0,0c0,0,0,0,0,0.01c0,0,0,0,0,0s0,0,0,0.01s0,0,0,0
							c-0.26,0.34-0.62,0.58-1.01,0.7c0,0,0,0-0.01,0c0,0,0,0-0.01,0l0,0c-0.1,0.03-0.2,0.05-0.3,0.06c0,0,0,0-0.01,0
							C1432.03,838.41,1431.95,838.42,1431.87,838.42z"/>
					</g>
				</g>
				<g>
					<path class="st1" d="M1264.63,383.37c-0.58,0-1.16-0.26-1.54-0.75c-0.66-0.85-0.51-2.08,0.34-2.74l73.2-56.95l-14.27,0.66
						c-1.06,0.04-1.99-0.78-2.04-1.86c0-0.03,0-0.06,0-0.09c0-1.04,0.82-1.9,1.86-1.95l20.41-0.94c0.41-0.01,0.8,0.09,1.12,0.29
						c0,0,0,0,0,0l0,0c0,0,0,0,0,0c0,0,0,0,0,0c0.06,0.04,0.11,0.08,0.17,0.12l0,0c0,0,0,0,0,0c0,0,0,0,0,0c0,0,0,0,0,0
						c0.24,0.19,0.44,0.44,0.57,0.73c0,0,0,0,0,0c0.03,0.07,0.06,0.14,0.08,0.21c0.09,0.3,0.11,0.61,0.07,0.9c0,0,0,0,0,0
						c0,0,0,0,0,0l0,0c-0.02,0.09-0.04,0.19-0.07,0.28l-5.9,18.3c-0.33,1.03-1.43,1.59-2.46,1.26c-1.03-0.33-1.59-1.43-1.26-2.46
						l3.95-12.27l-73.05,56.83C1265.47,383.23,1265.05,383.37,1264.63,383.37z"/>
				</g>
				<g>
					<path class="st0" d="M1317.01,848.34c-0.05,0-0.1,0-0.15-0.01c0,0,0,0,0,0c0,0,0,0-0.01,0c0,0,0,0-0.01,0l0,0
						c-0.12-0.01-0.25-0.03-0.37-0.07c0,0,0,0-0.01,0c0,0,0,0,0,0c0,0,0,0,0,0c-0.28-0.08-0.54-0.22-0.76-0.42c0,0,0,0,0,0
						c-0.04-0.03-0.08-0.07-0.11-0.11c0,0,0,0,0,0c0,0,0,0-0.01-0.01h0c0,0,0,0,0,0h0c-0.16-0.17-0.29-0.37-0.38-0.58l-6.69-15.62
						c-0.42-0.99,0.03-2.14,1.03-2.57c0.99-0.42,2.14,0.03,2.57,1.03l4.85,11.31l119.33-295.62c0.4-1,1.54-1.49,2.54-1.08
						c1,0.4,1.48,1.54,1.08,2.54l-119.3,295.54l12.71-5.54c0.99-0.43,2.14,0.02,2.57,1.01c0.11,0.25,0.16,0.52,0.16,0.78
						c0,0.75-0.44,1.47-1.17,1.79l-17.09,7.46c0,0-0.01,0-0.01,0l0,0c0,0,0,0-0.01,0c0,0,0,0,0,0
						C1317.53,848.29,1317.27,848.34,1317.01,848.34z"/>
				</g>
				<g>
					<path class="st0" d="M1442.72,716.03h-1.3v-6.97h1.3V716.03z M1442.72,693.43h-1.3V677.8h1.3V693.43z M1442.72,662.17h-1.3
						v-15.63h1.3V662.17z M1442.72,630.9h-1.3v-15.63h1.3V630.9z M1442.72,599.64h-1.3v-15.63h1.3V599.64z M1442.72,568.37h-1.3
						v-15.63h1.3V568.37z M1442.72,537.11h-1.3v-15.63h1.3V537.11z M1442.72,505.84h-1.3v-15.63h1.3V505.84z M1442.72,474.58h-1.3
						v-15.63h1.3V474.58z M1442.72,443.32h-1.3v-15.63h1.3V443.32z M1442.72,412.05h-1.3v-15.63h1.3V412.05z"/>
				</g>
				<g>
					<path class="st0" d="M1789.97,830.08c-0.02,0-0.06,0-0.07,0c0,0,0,0,0,0c-0.13,0-0.26-0.02-0.39-0.05
						c-0.35-0.08-0.68-0.27-0.95-0.54c0,0,0,0,0,0c-0.04-0.04-0.08-0.08-0.11-0.13l-7.3-8.92c-0.68-0.83-0.56-2.07,0.28-2.75
						c0.83-0.68,2.06-0.56,2.75,0.28l4.41,5.39l17.11-139.87l-29.62-134.19c-0.23-1.05,0.43-2.1,1.49-2.33
						c1.05-0.23,2.1,0.43,2.33,1.49l29.69,134.52c0.05,0.22,0.06,0.44,0.03,0.66l-17.12,139.96l5.51-4.44
						c0.84-0.67,2.07-0.54,2.75,0.3c0.29,0.36,0.43,0.79,0.43,1.22c0,0.57-0.25,1.14-0.73,1.52l-9.26,7.46c0,0,0,0-0.01,0
						c0,0,0,0,0,0C1790.83,829.94,1790.4,830.08,1789.97,830.08z"/>
				</g>
				<g>
					<path class="st0" d="M1522.18,832.1c-0.18,0-0.36-0.02-0.53-0.07l-10.42-2.95c-0.86-0.24-1.42-1.03-1.42-1.88
						c0-0.18,0.02-0.36,0.07-0.53c0.29-1.04,1.37-1.65,2.41-1.35l6.08,1.72l-73.69-142.68c-0.2-0.39-0.26-0.83-0.18-1.26
						l25.64-134.51c0.2-1.06,1.22-1.76,2.29-1.55c1.06,0.2,1.75,1.23,1.55,2.29l-25.51,133.84l73.59,142.48l2.71-6.05
						c0.44-0.98,1.59-1.43,2.58-0.98c0.98,0.44,1.43,1.6,0.98,2.58l-4.36,9.73c-0.03,0.07-0.06,0.13-0.1,0.19
						c-0.15,0.26-0.35,0.47-0.58,0.63c-0.12,0.09-0.26,0.16-0.4,0.22c0,0,0,0-0.01,0C1522.67,832.05,1522.43,832.1,1522.18,832.1z"
						/>
				</g>
				<g>
					<path class="st0" d="M1108.04,832.06c-0.35,0-0.7-0.09-1.01-0.28c-0.04-0.03-0.08-0.05-0.12-0.08l-13.96-9.81
						c-0.88-0.62-1.1-1.84-0.48-2.72c0.62-0.88,1.84-1.09,2.72-0.47l10.11,7.11l-36.71-210.12c-0.19-1.06,0.53-2.08,1.59-2.26
						c1.06-0.18,2.08,0.53,2.26,1.59l36.72,210.18l7.31-10.2c0.63-0.88,1.85-1.08,2.73-0.45c0.53,0.38,0.82,0.98,0.82,1.59
						c0,0.39-0.12,0.79-0.37,1.14l-10.02,13.99c0,0,0,0,0,0.01c-0.29,0.4-0.7,0.66-1.15,0.76c0,0,0,0,0,0
						c-0.11,0.02-0.22,0.04-0.34,0.05c0,0,0,0-0.01,0C1108.11,832.06,1108.07,832.06,1108.04,832.06z"/>
				</g>
				<g>
					<path class="st0" d="M1736.23,877.77c0.67,0.07,1.45,0,2.51-0.11c1.8-0.25,3.5-0.99,4.81-2.23c1.52-1.38,2.62-3.4,3.04-6.12
						h-0.11c-1.27,1.56-3.11,2.48-5.41,2.48c-4.14,0-6.79-3.11-6.79-7.04c0-4.35,3.15-8.17,7.85-8.17c4.7,0,7.6,3.82,7.6,9.69
						c0,5.06-1.7,8.59-3.96,10.79c-1.77,1.73-4.21,2.79-6.68,3.08c-1.13,0.18-2.12,0.21-2.87,0.18V877.77z M1737.36,864.54
						c0,2.86,1.73,4.88,4.42,4.88c2.09,0,3.71-1.03,4.53-2.41c0.18-0.28,0.28-0.64,0.28-1.13c0-3.93-1.45-6.93-4.7-6.93
						C1739.24,858.95,1737.36,861.28,1737.36,864.54z"/>
					<path class="st0" d="M1762.19,879.96v-6.26h-10.68v-2.05l10.26-14.68h3.36v14.29h3.22v2.44h-3.22v6.26H1762.19z
						 M1762.19,871.26v-7.67c0-1.2,0.04-2.41,0.11-3.61h-0.11c-0.71,1.34-1.27,2.33-1.91,3.4l-5.62,7.82v0.07H1762.19z"/>
					<path class="st0" d="M1770.97,878.12c0-1.31,0.88-2.23,2.12-2.23c1.24,0,2.09,0.92,2.09,2.23c0,1.27-0.81,2.23-2.12,2.23
						C1771.81,880.35,1770.97,879.39,1770.97,878.12z"/>
					<path class="st0" d="M1791.16,859.16c-0.64-0.04-1.45,0-2.33,0.14c-4.88,0.81-7.46,4.39-7.99,8.17h0.11
						c1.1-1.45,3.01-2.65,5.55-2.65c4.07,0,6.93,2.94,6.93,7.43c0,4.21-2.87,8.1-7.64,8.1c-4.92,0-8.14-3.82-8.14-9.8
						c0-4.53,1.63-8.1,3.89-10.36c1.91-1.88,4.46-3.04,7.36-3.4c0.92-0.14,1.7-0.18,2.26-0.18V859.16z M1790.28,872.43
						c0-3.29-1.88-5.27-4.74-5.27c-1.87,0-3.61,1.17-4.46,2.83c-0.21,0.35-0.35,0.81-0.35,1.38c0.07,3.78,1.8,6.58,5.06,6.58
						C1788.47,877.94,1790.28,875.72,1790.28,872.43z"/>
					<path class="st0" d="M1804.67,867.47c0-1.77-0.04-3.22-0.14-4.63h2.72l0.14,2.76h0.11c0.96-1.63,2.55-3.15,5.38-3.15
						c2.33,0,4.1,1.41,4.85,3.43h0.07c0.53-0.96,1.2-1.7,1.91-2.23c1.03-0.78,2.16-1.2,3.78-1.2c2.26,0,5.62,1.49,5.62,7.43v10.08
						h-3.04v-9.69c0-3.29-1.2-5.27-3.71-5.27c-1.77,0-3.15,1.31-3.68,2.83c-0.14,0.42-0.25,0.99-0.25,1.56v10.58h-3.04V869.7
						c0-2.72-1.2-4.71-3.57-4.71c-1.95,0-3.36,1.56-3.86,3.11c-0.18,0.46-0.25,0.99-0.25,1.52v10.33h-3.04V867.47z"/>
					<path class="st0" d="M1834.17,867.47c0-1.77-0.04-3.22-0.14-4.63h2.72l0.14,2.76h0.11c0.96-1.63,2.55-3.15,5.38-3.15
						c2.33,0,4.1,1.41,4.85,3.43h0.07c0.53-0.96,1.2-1.7,1.91-2.23c1.03-0.78,2.16-1.2,3.78-1.2c2.26,0,5.62,1.49,5.62,7.43v10.08
						h-3.04v-9.69c0-3.29-1.2-5.27-3.71-5.27c-1.77,0-3.15,1.31-3.68,2.83c-0.14,0.42-0.25,0.99-0.25,1.56v10.58h-3.04V869.7
						c0-2.72-1.2-4.71-3.57-4.71c-1.95,0-3.36,1.56-3.86,3.11c-0.18,0.46-0.25,0.99-0.25,1.52v10.33h-3.04V867.47z"/>
				</g>
				<g>
					<path class="st0" d="M1497.64,877.77c0.67,0.07,1.45,0,2.51-0.11c1.8-0.25,3.5-0.99,4.81-2.23c1.52-1.38,2.62-3.4,3.04-6.12
						h-0.11c-1.27,1.56-3.11,2.48-5.41,2.48c-4.14,0-6.79-3.11-6.79-7.04c0-4.35,3.15-8.17,7.85-8.17c4.7,0,7.6,3.82,7.6,9.69
						c0,5.06-1.7,8.59-3.96,10.79c-1.77,1.73-4.21,2.79-6.68,3.08c-1.13,0.18-2.12,0.21-2.87,0.18V877.77z M1498.77,864.54
						c0,2.86,1.73,4.88,4.42,4.88c2.09,0,3.71-1.03,4.53-2.41c0.18-0.28,0.28-0.64,0.28-1.13c0-3.93-1.45-6.93-4.7-6.93
						C1500.64,858.95,1498.77,861.28,1498.77,864.54z"/>
					<path class="st0" d="M1513.69,874.12c0-2.9,1.73-4.95,4.56-6.15l-0.04-0.11c-2.55-1.2-3.64-3.18-3.64-5.16
						c0-3.64,3.08-6.12,7.11-6.12c4.46,0,6.68,2.79,6.68,5.66c0,1.95-0.96,4.03-3.79,5.38v0.11c2.87,1.13,4.63,3.15,4.63,5.94
						c0,4-3.43,6.68-7.82,6.68C1516.59,880.35,1513.69,877.48,1513.69,874.12z M1526.07,873.98c0-2.79-1.95-4.14-5.06-5.02
						c-2.69,0.78-4.14,2.55-4.14,4.74c-0.11,2.33,1.66,4.39,4.6,4.39C1524.27,878.08,1526.07,876.35,1526.07,873.98z
						 M1517.51,862.49c0,2.3,1.73,3.54,4.39,4.24c1.98-0.67,3.5-2.09,3.5-4.17c0-1.84-1.1-3.75-3.89-3.75
						C1518.93,858.81,1517.51,860.51,1517.51,862.49z"/>
					<path class="st0" d="M1532.37,878.12c0-1.31,0.88-2.23,2.12-2.23c1.24,0,2.09,0.92,2.09,2.23c0,1.27-0.81,2.23-2.12,2.23
						C1533.22,880.35,1532.37,879.39,1532.37,878.12z"/>
					<path class="st0" d="M1539.44,879.96v-1.91l2.44-2.37c5.87-5.59,8.52-8.56,8.56-12.03c0-2.33-1.13-4.49-4.56-4.49
						c-2.09,0-3.82,1.06-4.88,1.95l-0.99-2.19c1.59-1.34,3.86-2.33,6.51-2.33c4.95,0,7.04,3.4,7.04,6.69
						c0,4.24-3.08,7.67-7.92,12.34l-1.84,1.7v0.07h10.33v2.58H1539.44z"/>
					<path class="st0" d="M1566.08,867.47c0-1.77-0.04-3.22-0.14-4.63h2.72l0.14,2.76h0.11c0.96-1.63,2.55-3.15,5.38-3.15
						c2.33,0,4.1,1.41,4.85,3.43h0.07c0.53-0.96,1.2-1.7,1.91-2.23c1.03-0.78,2.16-1.2,3.78-1.2c2.26,0,5.62,1.49,5.62,7.43v10.08
						h-3.04v-9.69c0-3.29-1.2-5.27-3.71-5.27c-1.77,0-3.15,1.31-3.68,2.83c-0.14,0.42-0.25,0.99-0.25,1.56v10.58h-3.04V869.7
						c0-2.72-1.2-4.71-3.57-4.71c-1.95,0-3.36,1.56-3.86,3.11c-0.18,0.46-0.25,0.99-0.25,1.52v10.33h-3.04V867.47z"/>
					<path class="st0" d="M1595.58,867.47c0-1.77-0.04-3.22-0.14-4.63h2.72l0.14,2.76h0.11c0.96-1.63,2.55-3.15,5.38-3.15
						c2.33,0,4.1,1.41,4.85,3.43h0.07c0.53-0.96,1.2-1.7,1.91-2.23c1.03-0.78,2.16-1.2,3.78-1.2c2.26,0,5.62,1.49,5.62,7.43v10.08
						h-3.04v-9.69c0-3.29-1.2-5.27-3.71-5.27c-1.77,0-3.15,1.31-3.68,2.83c-0.14,0.42-0.25,0.99-0.25,1.56v10.58h-3.04V869.7
						c0-2.72-1.2-4.71-3.57-4.71c-1.95,0-3.36,1.56-3.86,3.11c-0.18,0.46-0.25,0.99-0.25,1.52v10.33h-3.04V867.47z"/>
				</g>
				<g>
					<path class="st0" d="M1222.9,877.32c0.64,0.07,1.37,0,2.37-0.1c1.71-0.23,3.31-0.94,4.55-2.11c1.44-1.3,2.47-3.21,2.88-5.78
						h-0.1c-1.2,1.47-2.94,2.34-5.11,2.34c-3.91,0-6.42-2.94-6.42-6.65c0-4.11,2.97-7.72,7.42-7.72c4.45,0,7.19,3.61,7.19,9.16
						c0,4.78-1.6,8.12-3.74,10.2c-1.67,1.64-3.98,2.64-6.32,2.91c-1.07,0.17-2.01,0.2-2.71,0.17V877.32z M1223.97,864.81
						c0,2.71,1.64,4.61,4.18,4.61c1.97,0,3.51-0.97,4.28-2.27c0.17-0.27,0.27-0.6,0.27-1.07c0-3.71-1.37-6.55-4.45-6.55
						C1225.74,859.53,1223.97,861.74,1223.97,864.81z"/>
					<path class="st0" d="M1238.08,873.87c0-2.74,1.64-4.68,4.31-5.82l-0.03-0.1c-2.41-1.14-3.44-3.01-3.44-4.88
						c0-3.44,2.91-5.78,6.72-5.78c4.21,0,6.32,2.64,6.32,5.35c0,1.84-0.9,3.81-3.58,5.08v0.1c2.71,1.07,4.38,2.98,4.38,5.62
						c0,3.78-3.24,6.32-7.39,6.32C1240.82,879.76,1238.08,877.05,1238.08,873.87z M1249.78,873.74c0-2.64-1.84-3.91-4.78-4.75
						c-2.54,0.74-3.91,2.41-3.91,4.48c-0.1,2.21,1.57,4.15,4.35,4.15C1248.08,877.62,1249.78,875.98,1249.78,873.74z
						 M1241.69,862.88c0,2.17,1.64,3.34,4.15,4.01c1.87-0.63,3.31-1.97,3.31-3.94c0-1.74-1.04-3.54-3.68-3.54
						C1243.03,859.4,1241.69,861,1241.69,862.88z"/>
					<path class="st0" d="M1255.73,877.65c0-1.24,0.84-2.11,2.01-2.11s1.97,0.87,1.97,2.11c0,1.2-0.77,2.11-2.01,2.11
						C1256.54,879.76,1255.73,878.86,1255.73,877.65z"/>
					<path class="st0" d="M1262.42,879.39v-1.81l2.31-2.24c5.55-5.28,8.06-8.09,8.09-11.37c0-2.21-1.07-4.25-4.31-4.25
						c-1.97,0-3.61,1-4.61,1.84l-0.94-2.07c1.5-1.27,3.64-2.21,6.15-2.21c4.68,0,6.65,3.21,6.65,6.32c0,4.01-2.91,7.25-7.49,11.67
						l-1.74,1.6v0.07h9.76v2.44H1262.42z"/>
					<path class="st0" d="M1287.6,867.59c0-1.67-0.03-3.04-0.13-4.38h2.57l0.13,2.61h0.1c0.9-1.54,2.41-2.98,5.08-2.98
						c2.21,0,3.88,1.34,4.58,3.24h0.07c0.5-0.9,1.14-1.61,1.81-2.11c0.97-0.74,2.04-1.14,3.58-1.14c2.14,0,5.32,1.4,5.32,7.02v9.53
						h-2.88v-9.16c0-3.11-1.14-4.98-3.51-4.98c-1.67,0-2.98,1.24-3.48,2.67c-0.13,0.4-0.23,0.94-0.23,1.47v10h-2.88v-9.7
						c0-2.57-1.14-4.45-3.38-4.45c-1.84,0-3.18,1.47-3.64,2.94c-0.17,0.44-0.23,0.94-0.23,1.44v9.76h-2.88V867.59z"/>
					<path class="st0" d="M1315.48,867.59c0-1.67-0.03-3.04-0.13-4.38h2.57l0.13,2.61h0.1c0.9-1.54,2.41-2.98,5.08-2.98
						c2.21,0,3.88,1.34,4.58,3.24h0.07c0.5-0.9,1.14-1.61,1.81-2.11c0.97-0.74,2.04-1.14,3.58-1.14c2.14,0,5.32,1.4,5.32,7.02v9.53
						h-2.88v-9.16c0-3.11-1.14-4.98-3.51-4.98c-1.67,0-2.98,1.24-3.48,2.67c-0.13,0.4-0.23,0.94-0.23,1.47v10h-2.88v-9.7
						c0-2.57-1.14-4.45-3.38-4.45c-1.84,0-3.18,1.47-3.64,2.94c-0.17,0.44-0.23,0.94-0.23,1.44v9.76h-2.88V867.59z"/>
				</g>
				<g>
					<path class="st0" d="M1059.64,877.77c0.67,0.07,1.45,0,2.51-0.11c1.8-0.25,3.5-0.99,4.81-2.23c1.52-1.38,2.62-3.4,3.04-6.12
						h-0.11c-1.27,1.56-3.11,2.48-5.41,2.48c-4.14,0-6.79-3.11-6.79-7.04c0-4.35,3.15-8.17,7.85-8.17c4.7,0,7.6,3.82,7.6,9.69
						c0,5.06-1.7,8.59-3.96,10.79c-1.77,1.73-4.21,2.79-6.68,3.08c-1.13,0.18-2.12,0.21-2.87,0.18V877.77z M1060.77,864.54
						c0,2.86,1.73,4.88,4.42,4.88c2.09,0,3.71-1.03,4.53-2.41c0.18-0.28,0.28-0.64,0.28-1.13c0-3.93-1.45-6.93-4.7-6.93
						C1062.65,858.95,1060.77,861.28,1060.77,864.54z"/>
					<path class="st0" d="M1075.7,874.12c0-2.9,1.73-4.95,4.56-6.15l-0.04-0.11c-2.55-1.2-3.64-3.18-3.64-5.16
						c0-3.64,3.08-6.12,7.11-6.12c4.46,0,6.68,2.79,6.68,5.66c0,1.95-0.96,4.03-3.79,5.38v0.11c2.87,1.13,4.63,3.15,4.63,5.94
						c0,4-3.43,6.68-7.82,6.68C1078.6,880.35,1075.7,877.48,1075.7,874.12z M1088.08,873.98c0-2.79-1.95-4.14-5.06-5.02
						c-2.69,0.78-4.14,2.55-4.14,4.74c-0.11,2.33,1.66,4.39,4.6,4.39C1086.27,878.08,1088.08,876.35,1088.08,873.98z
						 M1079.52,862.49c0,2.3,1.73,3.54,4.39,4.24c1.98-0.67,3.5-2.09,3.5-4.17c0-1.84-1.1-3.75-3.89-3.75
						C1080.93,858.81,1079.52,860.51,1079.52,862.49z"/>
					<path class="st0" d="M1094.37,878.12c0-1.31,0.88-2.23,2.12-2.23c1.24,0,2.09,0.92,2.09,2.23c0,1.27-0.81,2.23-2.12,2.23
						C1095.22,880.35,1094.37,879.39,1094.37,878.12z"/>
					<path class="st0" d="M1101.17,874.12c0-2.9,1.73-4.95,4.56-6.15l-0.04-0.11c-2.55-1.2-3.64-3.18-3.64-5.16
						c0-3.64,3.08-6.12,7.11-6.12c4.46,0,6.68,2.79,6.68,5.66c0,1.95-0.96,4.03-3.79,5.38v0.11c2.87,1.13,4.63,3.15,4.63,5.94
						c0,4-3.43,6.68-7.82,6.68C1104.07,880.35,1101.17,877.48,1101.17,874.12z M1113.55,873.98c0-2.79-1.95-4.14-5.06-5.02
						c-2.69,0.78-4.14,2.55-4.14,4.74c-0.11,2.33,1.66,4.39,4.6,4.39C1111.74,878.08,1113.55,876.35,1113.55,873.98z
						 M1104.99,862.49c0,2.3,1.73,3.54,4.39,4.24c1.98-0.67,3.5-2.09,3.5-4.17c0-1.84-1.1-3.75-3.89-3.75
						C1106.4,858.81,1104.99,860.51,1104.99,862.49z"/>
					<path class="st0" d="M1128.08,867.47c0-1.77-0.04-3.22-0.14-4.63h2.72l0.14,2.76h0.11c0.96-1.63,2.55-3.15,5.38-3.15
						c2.33,0,4.1,1.41,4.85,3.43h0.07c0.53-0.96,1.2-1.7,1.91-2.23c1.03-0.78,2.16-1.2,3.78-1.2c2.26,0,5.62,1.49,5.62,7.43v10.08
						h-3.04v-9.69c0-3.29-1.2-5.27-3.71-5.27c-1.77,0-3.15,1.31-3.68,2.83c-0.14,0.42-0.25,0.99-0.25,1.56v10.58h-3.04V869.7
						c0-2.72-1.2-4.71-3.57-4.71c-1.95,0-3.36,1.56-3.86,3.11c-0.18,0.46-0.25,0.99-0.25,1.52v10.33h-3.04V867.47z"/>
					<path class="st0" d="M1157.58,867.47c0-1.77-0.04-3.22-0.14-4.63h2.72l0.14,2.76h0.11c0.96-1.63,2.55-3.15,5.38-3.15
						c2.33,0,4.1,1.41,4.85,3.43h0.07c0.53-0.96,1.2-1.7,1.91-2.23c1.03-0.78,2.16-1.2,3.78-1.2c2.26,0,5.62,1.49,5.62,7.43v10.08
						h-3.04v-9.69c0-3.29-1.2-5.27-3.71-5.27c-1.77,0-3.15,1.31-3.68,2.83c-0.14,0.42-0.25,0.99-0.25,1.56v10.58h-3.04V869.7
						c0-2.72-1.2-4.71-3.57-4.71c-1.95,0-3.36,1.56-3.86,3.11c-0.18,0.46-0.25,0.99-0.25,1.52v10.33h-3.04V867.47z"/>
				</g>
				<g>
					<path class="st0" d="M733.5,856.97v2.05l-10.01,20.94h-3.22l9.97-20.34v-0.07H719v-2.58H733.5z"/>
					<path class="st0" d="M752,868.22c0,7.82-2.9,12.13-7.99,12.13c-4.49,0-7.53-4.21-7.6-11.81c0-7.71,3.32-11.96,7.99-11.96
						C749.24,856.58,752,860.89,752,868.22z M739.51,868.57c0,5.98,1.84,9.37,4.67,9.37c3.18,0,4.7-3.71,4.7-9.59
						c0-5.66-1.45-9.37-4.67-9.37C741.49,858.98,739.51,862.31,739.51,868.57z"/>
					<path class="st0" d="M755.11,878.12c0-1.31,0.88-2.23,2.12-2.23s2.09,0.92,2.09,2.23c0,1.27-0.81,2.23-2.12,2.23
						C755.96,880.35,755.11,879.39,755.11,878.12z"/>
					<path class="st0" d="M775.91,859.59h-8.77l-0.88,5.91c0.53-0.07,1.03-0.14,1.87-0.14c1.77,0,3.54,0.39,4.95,1.24
						c1.8,1.03,3.29,3.01,3.29,5.91c0,4.49-3.57,7.85-8.56,7.85c-2.51,0-4.63-0.71-5.73-1.41l0.78-2.37
						c0.96,0.57,2.83,1.27,4.92,1.27c2.94,0,5.45-1.91,5.45-4.99c-0.04-2.97-2.02-5.09-6.61-5.09c-1.31,0-2.33,0.14-3.18,0.25
						l1.49-11.04h11V859.59z"/>
					<path class="st0" d="M788.82,867.47c0-1.77-0.04-3.22-0.14-4.63h2.72l0.14,2.76h0.11c0.96-1.63,2.55-3.15,5.38-3.15
						c2.33,0,4.1,1.41,4.85,3.43h0.07c0.53-0.96,1.2-1.7,1.91-2.23c1.03-0.78,2.16-1.2,3.78-1.2c2.26,0,5.62,1.49,5.62,7.43v10.08
						h-3.04v-9.69c0-3.29-1.2-5.27-3.71-5.27c-1.77,0-3.15,1.31-3.68,2.83c-0.14,0.42-0.25,0.99-0.25,1.56v10.58h-3.04V869.7
						c0-2.72-1.2-4.71-3.57-4.71c-1.95,0-3.36,1.56-3.85,3.11c-0.18,0.46-0.25,0.99-0.25,1.52v10.33h-3.04V867.47z"/>
					<path class="st0" d="M818.32,867.47c0-1.77-0.04-3.22-0.14-4.63h2.72l0.14,2.76h0.11c0.96-1.63,2.55-3.15,5.38-3.15
						c2.33,0,4.1,1.41,4.85,3.43h0.07c0.53-0.96,1.2-1.7,1.91-2.23c1.03-0.78,2.16-1.2,3.78-1.2c2.26,0,5.62,1.49,5.62,7.43v10.08
						h-3.04v-9.69c0-3.29-1.2-5.27-3.71-5.27c-1.77,0-3.15,1.31-3.68,2.83c-0.14,0.42-0.25,0.99-0.25,1.56v10.58h-3.04V869.7
						c0-2.72-1.2-4.71-3.57-4.71c-1.95,0-3.36,1.56-3.85,3.11c-0.18,0.46-0.25,0.99-0.25,1.52v10.33h-3.04V867.47z"/>
				</g>
				<g>
					<path class="st0" d="M420.12,861.19c-0.62-0.03-1.42,0-2.29,0.14c-4.78,0.8-7.31,4.29-7.83,8h0.1c1.07-1.42,2.94-2.6,5.44-2.6
						c3.98,0,6.79,2.88,6.79,7.27c0,4.12-2.81,7.93-7.48,7.93c-4.81,0-7.97-3.74-7.97-9.59c0-4.43,1.59-7.93,3.81-10.15
						c1.87-1.84,4.36-2.98,7.2-3.33c0.9-0.14,1.66-0.17,2.22-0.17V861.19z M419.25,874.18c0-3.22-1.84-5.16-4.64-5.16
						c-1.84,0-3.53,1.14-4.36,2.77c-0.21,0.35-0.35,0.8-0.35,1.35c0.07,3.71,1.77,6.44,4.95,6.44
						C417.48,879.58,419.25,877.4,419.25,874.18z"/>
					<path class="st0" d="M440,870.05c0,7.66-2.84,11.88-7.83,11.88c-4.4,0-7.38-4.12-7.45-11.57c0-7.55,3.26-11.71,7.83-11.71
						C437.3,858.66,440,862.88,440,870.05z M427.77,870.4c0,5.85,1.8,9.18,4.57,9.18c3.12,0,4.61-3.64,4.61-9.39
						c0-5.54-1.42-9.18-4.57-9.18C429.71,861.01,427.77,864.27,427.77,870.4z"/>
					<path class="st0" d="M443.05,879.75c0-1.28,0.87-2.18,2.08-2.18s2.04,0.9,2.04,2.18c0,1.25-0.8,2.18-2.08,2.18
						C443.88,881.93,443.05,881,443.05,879.75z"/>
					<path class="st0" d="M463.42,861.6h-8.59l-0.87,5.78c0.52-0.07,1-0.14,1.84-0.14c1.73,0,3.46,0.38,4.85,1.21
						c1.77,1,3.22,2.94,3.22,5.78c0,4.4-3.5,7.69-8.38,7.69c-2.46,0-4.54-0.69-5.61-1.39l0.76-2.32c0.94,0.55,2.77,1.25,4.81,1.25
						c2.88,0,5.33-1.87,5.33-4.88c-0.03-2.91-1.97-4.99-6.48-4.99c-1.28,0-2.29,0.14-3.12,0.24l1.45-10.81h10.77V861.6z"/>
					<path class="st0" d="M476.07,869.33c0-1.73-0.03-3.15-0.14-4.54h2.67l0.14,2.7h0.1c0.94-1.59,2.49-3.08,5.27-3.08
						c2.29,0,4.02,1.39,4.75,3.36h0.07c0.52-0.93,1.18-1.66,1.87-2.18c1-0.76,2.11-1.18,3.71-1.18c2.22,0,5.51,1.46,5.51,7.27v9.87
						h-2.98v-9.49c0-3.22-1.18-5.16-3.64-5.16c-1.73,0-3.08,1.28-3.6,2.77c-0.14,0.42-0.24,0.97-0.24,1.52v10.36h-2.98v-10.04
						c0-2.67-1.18-4.61-3.5-4.61c-1.91,0-3.29,1.52-3.78,3.05c-0.17,0.45-0.24,0.97-0.24,1.49v10.11h-2.98V869.33z"/>
					<path class="st0" d="M504.96,869.33c0-1.73-0.03-3.15-0.14-4.54h2.67l0.14,2.7h0.1c0.94-1.59,2.49-3.08,5.27-3.08
						c2.29,0,4.02,1.39,4.75,3.36h0.07c0.52-0.93,1.18-1.66,1.87-2.18c1-0.76,2.11-1.18,3.71-1.18c2.22,0,5.51,1.46,5.51,7.27v9.87
						h-2.98v-9.49c0-3.22-1.18-5.16-3.64-5.16c-1.73,0-3.08,1.28-3.6,2.77c-0.14,0.42-0.24,0.97-0.24,1.52v10.36h-2.98v-10.04
						c0-2.67-1.18-4.61-3.5-4.61c-1.91,0-3.29,1.52-3.78,3.05c-0.17,0.45-0.24,0.97-0.24,1.49v10.11h-2.98V869.33z"/>
				</g>
				<g>
					<g>
						<path class="st0" d="M685.54,305.93c0.67,0.07,1.45,0,2.51-0.11c1.8-0.25,3.5-0.99,4.81-2.23c1.52-1.38,2.62-3.4,3.04-6.12
							h-0.11c-1.27,1.56-3.11,2.48-5.41,2.48c-4.14,0-6.79-3.11-6.79-7.04c0-4.35,3.15-8.17,7.85-8.17s7.6,3.82,7.6,9.69
							c0,5.06-1.7,8.59-3.96,10.79c-1.77,1.73-4.21,2.79-6.69,3.08c-1.13,0.18-2.12,0.21-2.86,0.18V305.93z M686.67,292.7
							c0,2.87,1.73,4.88,4.42,4.88c2.09,0,3.71-1.03,4.53-2.41c0.18-0.28,0.28-0.64,0.28-1.13c0-3.93-1.45-6.93-4.7-6.93
							C688.55,287.12,686.67,289.45,686.67,292.7z"/>
						<path class="st0" d="M701.6,302.29c0-2.9,1.73-4.95,4.56-6.15l-0.04-0.11c-2.55-1.2-3.64-3.18-3.64-5.16
							c0-3.64,3.08-6.12,7.11-6.12c4.46,0,6.69,2.79,6.69,5.66c0,1.95-0.96,4.03-3.78,5.38v0.11c2.86,1.13,4.63,3.15,4.63,5.94
							c0,4-3.43,6.69-7.82,6.69C704.5,308.51,701.6,305.65,701.6,302.29z M713.98,302.15c0-2.79-1.95-4.14-5.06-5.02
							c-2.69,0.78-4.14,2.55-4.14,4.74c-0.11,2.33,1.66,4.39,4.6,4.39C712.18,306.25,713.98,304.52,713.98,302.15z M705.42,290.65
							c0,2.3,1.73,3.54,4.39,4.24c1.98-0.67,3.5-2.09,3.5-4.17c0-1.84-1.1-3.75-3.89-3.75
							C706.84,286.97,705.42,288.67,705.42,290.65z"/>
						<path class="st0" d="M720.28,306.29c0-1.31,0.88-2.23,2.12-2.23s2.09,0.92,2.09,2.23c0,1.27-0.81,2.23-2.12,2.23
							C721.13,308.51,720.28,307.56,720.28,306.29z"/>
						<path class="st0" d="M727.35,308.13v-1.91l2.44-2.37c5.87-5.59,8.52-8.56,8.56-12.03c0-2.33-1.13-4.49-4.56-4.49
							c-2.09,0-3.82,1.06-4.88,1.95l-0.99-2.19c1.59-1.34,3.85-2.33,6.51-2.33c4.95,0,7.04,3.4,7.04,6.69
							c0,4.24-3.08,7.67-7.92,12.34l-1.84,1.7v0.07h10.33v2.58H727.35z"/>
						<path class="st0" d="M753.98,295.64c0-1.77-0.04-3.22-0.14-4.63h2.72l0.14,2.76h0.11c0.96-1.63,2.55-3.15,5.38-3.15
							c2.33,0,4.1,1.42,4.85,3.43h0.07c0.53-0.96,1.2-1.7,1.91-2.23c1.03-0.78,2.16-1.2,3.78-1.2c2.26,0,5.62,1.49,5.62,7.43v10.08
							h-3.04v-9.69c0-3.29-1.2-5.27-3.71-5.27c-1.77,0-3.15,1.31-3.68,2.83c-0.14,0.42-0.25,0.99-0.25,1.56v10.58h-3.04v-10.26
							c0-2.72-1.2-4.7-3.57-4.7c-1.95,0-3.36,1.56-3.85,3.11c-0.18,0.46-0.25,0.99-0.25,1.52v10.33h-3.04V295.64z"/>
						<path class="st0" d="M783.48,295.64c0-1.77-0.04-3.22-0.14-4.63h2.72l0.14,2.76h0.11c0.96-1.63,2.55-3.15,5.38-3.15
							c2.33,0,4.1,1.42,4.85,3.43h0.07c0.53-0.96,1.2-1.7,1.91-2.23c1.03-0.78,2.16-1.2,3.78-1.2c2.26,0,5.62,1.49,5.62,7.43v10.08
							h-3.04v-9.69c0-3.29-1.2-5.27-3.71-5.27c-1.77,0-3.15,1.31-3.68,2.83c-0.14,0.42-0.25,0.99-0.25,1.56v10.58h-3.04v-10.26
							c0-2.72-1.2-4.7-3.57-4.7c-1.95,0-3.36,1.56-3.85,3.11c-0.18,0.46-0.25,0.99-0.25,1.52v10.33h-3.04V295.64z"/>
					</g>
					<g>
						<path class="st0" d="M1065.23,305.93c0.67,0.07,1.45,0,2.51-0.11c1.8-0.25,3.5-0.99,4.81-2.23c1.52-1.38,2.62-3.4,3.04-6.12
							h-0.11c-1.27,1.56-3.11,2.48-5.41,2.48c-4.14,0-6.79-3.11-6.79-7.04c0-4.35,3.15-8.17,7.85-8.17c4.7,0,7.6,3.82,7.6,9.69
							c0,5.06-1.7,8.59-3.96,10.79c-1.77,1.73-4.21,2.79-6.68,3.08c-1.13,0.18-2.12,0.21-2.87,0.18V305.93z M1066.36,292.7
							c0,2.87,1.73,4.88,4.42,4.88c2.09,0,3.71-1.03,4.53-2.41c0.18-0.28,0.28-0.64,0.28-1.13c0-3.93-1.45-6.93-4.7-6.93
							C1068.23,287.12,1066.36,289.45,1066.36,292.7z"/>
						<path class="st0" d="M1081.29,302.29c0-2.9,1.73-4.95,4.56-6.15l-0.04-0.11c-2.55-1.2-3.64-3.18-3.64-5.16
							c0-3.64,3.08-6.12,7.11-6.12c4.46,0,6.68,2.79,6.68,5.66c0,1.95-0.96,4.03-3.79,5.38v0.11c2.87,1.13,4.63,3.15,4.63,5.94
							c0,4-3.43,6.69-7.82,6.69C1084.19,308.51,1081.29,305.65,1081.29,302.29z M1093.67,302.15c0-2.79-1.95-4.14-5.06-5.02
							c-2.69,0.78-4.14,2.55-4.14,4.74c-0.11,2.33,1.66,4.39,4.6,4.39C1091.86,306.25,1093.67,304.52,1093.67,302.15z
							 M1085.11,290.65c0,2.3,1.73,3.54,4.39,4.24c1.98-0.67,3.5-2.09,3.5-4.17c0-1.84-1.1-3.75-3.89-3.75
							C1086.52,286.97,1085.11,288.67,1085.11,290.65z"/>
						<path class="st0" d="M1099.96,306.29c0-1.31,0.88-2.23,2.12-2.23c1.24,0,2.09,0.92,2.09,2.23c0,1.27-0.81,2.23-2.12,2.23
							C1100.81,308.51,1099.96,307.56,1099.96,306.29z"/>
						<path class="st0" d="M1107.04,308.13v-1.91l2.44-2.37c5.87-5.59,8.52-8.56,8.56-12.03c0-2.33-1.13-4.49-4.56-4.49
							c-2.09,0-3.82,1.06-4.88,1.95l-0.99-2.19c1.59-1.34,3.86-2.33,6.51-2.33c4.95,0,7.04,3.4,7.04,6.68
							c0,4.24-3.08,7.68-7.92,12.34l-1.84,1.7v0.07h10.33v2.58H1107.04z"/>
						<path class="st0" d="M1133.67,295.64c0-1.77-0.04-3.22-0.14-4.63h2.72l0.14,2.76h0.11c0.96-1.63,2.55-3.15,5.38-3.15
							c2.33,0,4.1,1.42,4.85,3.43h0.07c0.53-0.96,1.2-1.7,1.91-2.23c1.03-0.78,2.16-1.2,3.78-1.2c2.26,0,5.62,1.49,5.62,7.43v10.08
							h-3.04v-9.69c0-3.29-1.2-5.27-3.71-5.27c-1.77,0-3.15,1.31-3.68,2.83c-0.14,0.42-0.25,0.99-0.25,1.56v10.58h-3.04v-10.26
							c0-2.72-1.2-4.7-3.57-4.7c-1.95,0-3.36,1.56-3.86,3.11c-0.18,0.46-0.25,0.99-0.25,1.52v10.33h-3.04V295.64z"/>
						<path class="st0" d="M1163.17,295.64c0-1.77-0.04-3.22-0.14-4.63h2.72l0.14,2.76h0.11c0.96-1.63,2.55-3.15,5.38-3.15
							c2.33,0,4.1,1.42,4.85,3.43h0.07c0.53-0.96,1.2-1.7,1.91-2.23c1.03-0.78,2.16-1.2,3.78-1.2c2.26,0,5.62,1.49,5.62,7.43v10.08
							h-3.04v-9.69c0-3.29-1.2-5.27-3.71-5.27c-1.77,0-3.15,1.31-3.68,2.83c-0.14,0.42-0.25,0.99-0.25,1.56v10.58h-3.04v-10.26
							c0-2.72-1.2-4.7-3.57-4.7c-1.95,0-3.36,1.56-3.86,3.11c-0.18,0.46-0.25,0.99-0.25,1.52v10.33h-3.04V295.64z"/>
					</g>
					<g>
						<path class="st0" d="M1291.59,287.33c-0.64-0.04-1.45,0-2.33,0.14c-4.88,0.81-7.46,4.39-7.99,8.17h0.11
							c1.1-1.45,3.01-2.65,5.55-2.65c4.07,0,6.93,2.94,6.93,7.43c0,4.21-2.87,8.1-7.64,8.1c-4.92,0-8.14-3.82-8.14-9.8
							c0-4.53,1.63-8.1,3.89-10.36c1.91-1.87,4.46-3.04,7.36-3.4c0.92-0.14,1.7-0.18,2.26-0.18V287.33z M1290.71,300.59
							c0-3.29-1.88-5.27-4.74-5.27c-1.87,0-3.61,1.17-4.46,2.83c-0.21,0.35-0.35,0.81-0.35,1.38c0.07,3.78,1.8,6.58,5.06,6.58
							C1288.9,306.11,1290.71,303.88,1290.71,300.59z"/>
						<path class="st0" d="M1306.24,308.13v-6.26h-10.68v-2.05l10.26-14.68h3.36v14.29h3.22v2.44h-3.22v6.26H1306.24z
							 M1306.24,299.42v-7.68c0-1.2,0.04-2.4,0.11-3.61h-0.11c-0.71,1.34-1.27,2.33-1.91,3.4l-5.62,7.82v0.07H1306.24z"/>
						<path class="st0" d="M1315.01,306.29c0-1.31,0.88-2.23,2.12-2.23c1.24,0,2.09,0.92,2.09,2.23c0,1.27-0.81,2.23-2.12,2.23
							C1315.86,308.51,1315.01,307.56,1315.01,306.29z"/>
						<path class="st0" d="M1337.01,285.14v2.05L1327,308.13h-3.22l9.97-20.34v-0.07h-11.25v-2.58H1337.01z"/>
						<path class="st0" d="M1348.72,295.64c0-1.77-0.04-3.22-0.14-4.63h2.72l0.14,2.76h0.11c0.96-1.63,2.55-3.15,5.38-3.15
							c2.33,0,4.1,1.42,4.85,3.43h0.07c0.53-0.96,1.2-1.7,1.91-2.23c1.03-0.78,2.16-1.2,3.78-1.2c2.26,0,5.62,1.49,5.62,7.43v10.08
							h-3.04v-9.69c0-3.29-1.2-5.27-3.71-5.27c-1.77,0-3.15,1.31-3.68,2.83c-0.14,0.42-0.25,0.99-0.25,1.56v10.58h-3.04v-10.26
							c0-2.72-1.2-4.7-3.57-4.7c-1.95,0-3.36,1.56-3.86,3.11c-0.18,0.46-0.25,0.99-0.25,1.52v10.33h-3.04V295.64z"/>
						<path class="st0" d="M1378.22,295.64c0-1.77-0.04-3.22-0.14-4.63h2.72l0.14,2.76h0.11c0.96-1.63,2.55-3.15,5.38-3.15
							c2.33,0,4.1,1.42,4.85,3.43h0.07c0.53-0.96,1.2-1.7,1.91-2.23c1.03-0.78,2.16-1.2,3.78-1.2c2.26,0,5.62,1.49,5.62,7.43v10.08
							h-3.04v-9.69c0-3.29-1.2-5.27-3.71-5.27c-1.77,0-3.15,1.31-3.68,2.83c-0.14,0.42-0.25,0.99-0.25,1.56v10.58h-3.04v-10.26
							c0-2.72-1.2-4.7-3.57-4.7c-1.95,0-3.36,1.56-3.86,3.11c-0.18,0.46-0.25,0.99-0.25,1.52v10.33h-3.04V295.64z"/>
					</g>
					<g>
						<path class="st0" d="M1469.53,304.55c0.88,0.57,2.94,1.45,5.09,1.45c4,0,5.23-2.55,5.2-4.46c-0.04-3.22-2.94-4.6-5.94-4.6
							h-1.73v-2.33h1.73c2.26,0,5.13-1.17,5.13-3.89c0-1.84-1.17-3.47-4.03-3.47c-1.84,0-3.61,0.81-4.6,1.52l-0.81-2.26
							c1.2-0.88,3.54-1.77,6.01-1.77c4.53,0,6.58,2.69,6.58,5.48c0,2.37-1.42,4.39-4.25,5.41v0.07c2.83,0.57,5.13,2.69,5.13,5.91
							c0,3.68-2.87,6.9-8.38,6.9c-2.58,0-4.85-0.81-5.98-1.56L1469.53,304.55z"/>
						<path class="st0" d="M1496.56,308.13v-6.26h-10.68v-2.05l10.26-14.68h3.36v14.29h3.22v2.44h-3.22v6.26H1496.56z
							 M1496.56,299.43v-7.68c0-1.2,0.04-2.4,0.11-3.61h-0.11c-0.71,1.34-1.27,2.33-1.91,3.4l-5.62,7.82v0.07H1496.56z"/>
						<path class="st0" d="M1505.33,306.29c0-1.31,0.88-2.23,2.12-2.23c1.24,0,2.09,0.92,2.09,2.23c0,1.27-0.81,2.23-2.12,2.23
							C1506.18,308.52,1505.33,307.56,1505.33,306.29z"/>
						<path class="st0" d="M1512.12,302.29c0-2.9,1.73-4.95,4.56-6.15l-0.04-0.11c-2.55-1.2-3.64-3.18-3.64-5.16
							c0-3.64,3.08-6.12,7.11-6.12c4.46,0,6.68,2.79,6.68,5.66c0,1.95-0.96,4.03-3.79,5.38v0.11c2.87,1.13,4.63,3.15,4.63,5.94
							c0,4-3.43,6.69-7.82,6.69C1515.02,308.52,1512.12,305.65,1512.12,302.29z M1524.5,302.15c0-2.79-1.95-4.14-5.06-5.02
							c-2.69,0.78-4.14,2.55-4.14,4.74c-0.11,2.33,1.66,4.39,4.6,4.39C1522.7,306.25,1524.5,304.52,1524.5,302.15z M1515.94,290.65
							c0,2.3,1.73,3.54,4.39,4.24c1.98-0.67,3.5-2.09,3.5-4.17c0-1.84-1.1-3.75-3.89-3.75
							C1517.35,286.97,1515.94,288.67,1515.94,290.65z"/>
						<path class="st0" d="M1539.04,295.64c0-1.77-0.04-3.22-0.14-4.63h2.72l0.14,2.76h0.11c0.96-1.63,2.55-3.15,5.38-3.15
							c2.33,0,4.1,1.42,4.85,3.43h0.07c0.53-0.96,1.2-1.7,1.91-2.23c1.03-0.78,2.16-1.2,3.78-1.2c2.26,0,5.62,1.49,5.62,7.43v10.08
							h-3.04v-9.69c0-3.29-1.2-5.27-3.71-5.27c-1.77,0-3.15,1.31-3.68,2.83c-0.14,0.42-0.25,0.99-0.25,1.56v10.58h-3.04v-10.26
							c0-2.72-1.2-4.7-3.57-4.7c-1.95,0-3.36,1.56-3.86,3.11c-0.18,0.46-0.25,0.99-0.25,1.52v10.33h-3.04V295.64z"/>
						<path class="st0" d="M1568.54,295.64c0-1.77-0.04-3.22-0.14-4.63h2.72l0.14,2.76h0.11c0.96-1.63,2.55-3.15,5.38-3.15
							c2.33,0,4.1,1.42,4.85,3.43h0.07c0.53-0.96,1.2-1.7,1.91-2.23c1.03-0.78,2.16-1.2,3.78-1.2c2.26,0,5.62,1.49,5.62,7.43v10.08
							h-3.04v-9.69c0-3.29-1.2-5.27-3.71-5.27c-1.77,0-3.15,1.31-3.68,2.83c-0.14,0.42-0.25,0.99-0.25,1.56v10.58h-3.04v-10.26
							c0-2.72-1.2-4.7-3.57-4.7c-1.95,0-3.36,1.56-3.86,3.11c-0.18,0.46-0.25,0.99-0.25,1.52v10.33h-3.04V295.64z"/>
					</g>
					<g>
						<path class="st0" d="M1662.86,304.55c0.88,0.57,2.94,1.45,5.09,1.45c4,0,5.23-2.55,5.2-4.46c-0.04-3.22-2.94-4.6-5.94-4.6
							h-1.73v-2.33h1.73c2.26,0,5.13-1.17,5.13-3.89c0-1.84-1.17-3.47-4.03-3.47c-1.84,0-3.61,0.81-4.6,1.52l-0.81-2.26
							c1.2-0.88,3.54-1.77,6.01-1.77c4.53,0,6.58,2.69,6.58,5.48c0,2.37-1.42,4.39-4.25,5.41v0.07c2.83,0.57,5.13,2.69,5.13,5.91
							c0,3.68-2.87,6.9-8.38,6.9c-2.58,0-4.85-0.81-5.98-1.56L1662.86,304.55z"/>
						<path class="st0" d="M1689.88,308.13v-6.26h-10.68v-2.05l10.26-14.68h3.36v14.29h3.22v2.44h-3.22v6.26H1689.88z
							 M1689.88,299.43v-7.68c0-1.2,0.04-2.4,0.11-3.61h-0.11c-0.71,1.34-1.27,2.33-1.91,3.4l-5.62,7.82v0.07H1689.88z"/>
						<path class="st0" d="M1698.65,306.29c0-1.31,0.88-2.23,2.12-2.23c1.24,0,2.09,0.92,2.09,2.23c0,1.27-0.81,2.23-2.12,2.23
							C1699.5,308.52,1698.65,307.56,1698.65,306.29z"/>
						<path class="st0" d="M1705.45,302.29c0-2.9,1.73-4.95,4.56-6.15l-0.04-0.11c-2.55-1.2-3.64-3.18-3.64-5.16
							c0-3.64,3.08-6.12,7.11-6.12c4.46,0,6.68,2.79,6.68,5.66c0,1.95-0.96,4.03-3.79,5.38v0.11c2.87,1.13,4.63,3.15,4.63,5.94
							c0,4-3.43,6.69-7.82,6.69C1708.35,308.52,1705.45,305.65,1705.45,302.29z M1717.83,302.15c0-2.79-1.95-4.14-5.06-5.02
							c-2.69,0.78-4.14,2.55-4.14,4.74c-0.11,2.33,1.66,4.39,4.6,4.39C1716.02,306.25,1717.83,304.52,1717.83,302.15z
							 M1709.27,290.65c0,2.3,1.73,3.54,4.39,4.24c1.98-0.67,3.5-2.09,3.5-4.17c0-1.84-1.1-3.75-3.89-3.75
							C1710.68,286.98,1709.27,288.67,1709.27,290.65z"/>
						<path class="st0" d="M1732.36,295.64c0-1.77-0.04-3.22-0.14-4.63h2.72l0.14,2.76h0.11c0.96-1.63,2.55-3.15,5.38-3.15
							c2.33,0,4.1,1.42,4.85,3.43h0.07c0.53-0.96,1.2-1.7,1.91-2.23c1.03-0.78,2.16-1.2,3.78-1.2c2.26,0,5.62,1.49,5.62,7.43v10.08
							h-3.04v-9.69c0-3.29-1.2-5.27-3.71-5.27c-1.77,0-3.15,1.31-3.68,2.83c-0.14,0.42-0.25,0.99-0.25,1.56v10.58h-3.04v-10.26
							c0-2.72-1.2-4.7-3.57-4.7c-1.95,0-3.36,1.56-3.86,3.11c-0.18,0.46-0.25,0.99-0.25,1.52v10.33h-3.04V295.64z"/>
						<path class="st0" d="M1761.86,295.64c0-1.77-0.04-3.22-0.14-4.63h2.72l0.14,2.76h0.11c0.96-1.63,2.55-3.15,5.38-3.15
							c2.33,0,4.1,1.42,4.85,3.43h0.07c0.53-0.96,1.2-1.7,1.91-2.23c1.03-0.78,2.16-1.2,3.78-1.2c2.26,0,5.62,1.49,5.62,7.43v10.08
							h-3.04v-9.69c0-3.29-1.2-5.27-3.71-5.27c-1.77,0-3.15,1.31-3.68,2.83c-0.14,0.42-0.25,0.99-0.25,1.56v10.58h-3.04v-10.26
							c0-2.72-1.2-4.7-3.57-4.7c-1.95,0-3.36,1.56-3.86,3.11c-0.18,0.46-0.25,0.99-0.25,1.52v10.33h-3.04V295.64z"/>
					</g>
					<g>
						<path class="st0" d="M427.49,295.67c-0.64-0.04-1.45,0-2.33,0.14c-4.88,0.81-7.46,4.39-7.99,8.17h0.11
							c1.1-1.45,3.01-2.65,5.55-2.65c4.07,0,6.93,2.94,6.93,7.43c0,4.21-2.86,8.1-7.64,8.1c-4.92,0-8.14-3.82-8.14-9.8
							c0-4.53,1.63-8.1,3.89-10.36c1.91-1.87,4.46-3.04,7.36-3.4c0.92-0.14,1.7-0.18,2.26-0.18V295.67z M426.6,308.93
							c0-3.29-1.87-5.27-4.74-5.27c-1.87,0-3.61,1.17-4.46,2.83c-0.21,0.35-0.35,0.81-0.35,1.38c0.07,3.78,1.8,6.58,5.06,6.58
							C424.8,314.45,426.6,312.22,426.6,308.93z"/>
						<path class="st0" d="M447.79,304.72c0,7.82-2.9,12.13-7.99,12.13c-4.49,0-7.53-4.21-7.6-11.81c0-7.71,3.32-11.96,7.99-11.96
							C445.03,293.09,447.79,297.4,447.79,304.72z M435.3,305.08c0,5.98,1.84,9.37,4.67,9.37c3.18,0,4.7-3.71,4.7-9.58
							c0-5.66-1.45-9.37-4.67-9.37C437.28,295.49,435.3,298.82,435.3,305.08z"/>
						<path class="st0" d="M450.9,314.63c0-1.31,0.88-2.23,2.12-2.23s2.09,0.92,2.09,2.23c0,1.27-0.81,2.23-2.12,2.23
							C451.75,316.85,450.9,315.9,450.9,314.63z"/>
						<path class="st0" d="M471.7,296.09h-8.77l-0.88,5.91c0.53-0.07,1.03-0.14,1.87-0.14c1.77,0,3.54,0.39,4.95,1.24
							c1.8,1.03,3.29,3.01,3.29,5.91c0,4.49-3.57,7.85-8.56,7.85c-2.51,0-4.63-0.71-5.73-1.42l0.78-2.37
							c0.96,0.57,2.83,1.27,4.92,1.27c2.94,0,5.45-1.91,5.45-4.99c-0.04-2.97-2.02-5.09-6.61-5.09c-1.31,0-2.33,0.14-3.18,0.25
							l1.49-11.04h11V296.09z"/>
						<path class="st0" d="M484.61,303.98c0-1.77-0.04-3.22-0.14-4.63h2.72l0.14,2.76h0.11c0.96-1.63,2.55-3.15,5.38-3.15
							c2.33,0,4.1,1.42,4.85,3.43h0.07c0.53-0.96,1.2-1.7,1.91-2.23c1.03-0.78,2.16-1.2,3.78-1.2c2.26,0,5.62,1.49,5.62,7.43v10.08
							h-3.04v-9.69c0-3.29-1.2-5.27-3.71-5.27c-1.77,0-3.15,1.31-3.68,2.83c-0.14,0.42-0.25,0.99-0.25,1.56v10.58h-3.04v-10.26
							c0-2.72-1.2-4.7-3.57-4.7c-1.95,0-3.36,1.56-3.85,3.11c-0.18,0.46-0.25,0.99-0.25,1.52v10.33h-3.04V303.98z"/>
						<path class="st0" d="M514.11,303.98c0-1.77-0.04-3.22-0.14-4.63h2.72l0.14,2.76h0.11c0.96-1.63,2.55-3.15,5.38-3.15
							c2.33,0,4.1,1.42,4.85,3.43h0.07c0.53-0.96,1.2-1.7,1.91-2.23c1.03-0.78,2.16-1.2,3.78-1.2c2.26,0,5.62,1.49,5.62,7.43v10.08
							h-3.04v-9.69c0-3.29-1.2-5.27-3.71-5.27c-1.77,0-3.15,1.31-3.68,2.83c-0.14,0.42-0.25,0.99-0.25,1.56v10.58h-3.04v-10.26
							c0-2.72-1.2-4.7-3.57-4.7c-1.95,0-3.36,1.56-3.85,3.11c-0.18,0.46-0.25,0.99-0.25,1.52v10.33h-3.04V303.98z"/>
					</g>
					<g>
						<path class="st0" d="M1820.49,304.55c0.88,0.57,2.94,1.45,5.09,1.45c4,0,5.23-2.55,5.2-4.46c-0.04-3.22-2.94-4.6-5.94-4.6
							h-1.73v-2.33h1.73c2.26,0,5.13-1.17,5.13-3.89c0-1.84-1.17-3.47-4.03-3.47c-1.84,0-3.61,0.81-4.6,1.52l-0.81-2.26
							c1.2-0.88,3.54-1.77,6.01-1.77c4.53,0,6.58,2.69,6.58,5.48c0,2.37-1.42,4.39-4.25,5.41v0.07c2.83,0.57,5.13,2.69,5.13,5.91
							c0,3.68-2.87,6.9-8.38,6.9c-2.58,0-4.85-0.81-5.98-1.56L1820.49,304.55z"/>
						<path class="st0" d="M1847.51,308.13v-6.26h-10.68v-2.05l10.26-14.68h3.36v14.29h3.22v2.44h-3.22v6.26H1847.51z
							 M1847.51,299.43v-7.68c0-1.2,0.04-2.4,0.11-3.61h-0.11c-0.71,1.34-1.27,2.33-1.91,3.4l-5.62,7.82v0.07H1847.51z"/>
						<path class="st0" d="M1856.28,306.29c0-1.31,0.88-2.23,2.12-2.23c1.24,0,2.09,0.92,2.09,2.23c0,1.27-0.81,2.23-2.12,2.23
							C1857.13,308.52,1856.28,307.56,1856.28,306.29z"/>
						<path class="st0" d="M1863.07,302.29c0-2.9,1.73-4.95,4.56-6.15l-0.04-0.11c-2.55-1.2-3.64-3.18-3.64-5.16
							c0-3.64,3.08-6.12,7.11-6.12c4.46,0,6.68,2.79,6.68,5.66c0,1.95-0.96,4.03-3.79,5.38v0.11c2.87,1.13,4.63,3.15,4.63,5.94
							c0,4-3.43,6.69-7.82,6.69C1865.97,308.52,1863.07,305.65,1863.07,302.29z M1875.45,302.15c0-2.79-1.95-4.14-5.06-5.02
							c-2.69,0.78-4.14,2.55-4.14,4.74c-0.11,2.33,1.66,4.39,4.6,4.39C1873.65,306.25,1875.45,304.52,1875.45,302.15z
							 M1866.89,290.65c0,2.3,1.73,3.54,4.39,4.24c1.98-0.67,3.5-2.09,3.5-4.17c0-1.84-1.1-3.75-3.89-3.75
							C1868.31,286.97,1866.89,288.67,1866.89,290.65z"/>
						<path class="st0" d="M1889.99,295.64c0-1.77-0.04-3.22-0.14-4.63h2.72l0.14,2.76h0.11c0.96-1.63,2.55-3.15,5.38-3.15
							c2.33,0,4.1,1.42,4.85,3.43h0.07c0.53-0.96,1.2-1.7,1.91-2.23c1.03-0.78,2.16-1.2,3.78-1.2c2.26,0,5.62,1.49,5.62,7.43v10.08
							h-3.04v-9.69c0-3.29-1.2-5.27-3.71-5.27c-1.77,0-3.15,1.31-3.68,2.83c-0.14,0.42-0.25,0.99-0.25,1.56v10.58h-3.04v-10.26
							c0-2.72-1.2-4.7-3.57-4.7c-1.95,0-3.36,1.56-3.86,3.11c-0.18,0.46-0.25,0.99-0.25,1.52v10.33h-3.04V295.64z"/>
						<path class="st0" d="M1919.49,295.64c0-1.77-0.04-3.22-0.14-4.63h2.72l0.14,2.76h0.11c0.96-1.63,2.55-3.15,5.38-3.15
							c2.33,0,4.1,1.42,4.85,3.43h0.07c0.53-0.96,1.2-1.7,1.91-2.23c1.03-0.78,2.16-1.2,3.78-1.2c2.26,0,5.62,1.49,5.62,7.43v10.08
							h-3.04v-9.69c0-3.29-1.2-5.27-3.71-5.27c-1.77,0-3.15,1.31-3.68,2.83c-0.14,0.42-0.25,0.99-0.25,1.56v10.58h-3.04v-10.26
							c0-2.72-1.2-4.7-3.57-4.7c-1.95,0-3.36,1.56-3.86,3.11c-0.18,0.46-0.25,0.99-0.25,1.52v10.33h-3.04V295.64z"/>
					</g>
				</g>
				<g>
					<g>
						<path class="st0" d="M1396.99,876.39c0.88,0.57,2.94,1.45,5.09,1.45c4,0,5.23-2.55,5.2-4.46c-0.04-3.22-2.94-4.6-5.94-4.6
							h-1.73v-2.33h1.73c2.26,0,5.13-1.17,5.13-3.89c0-1.84-1.17-3.47-4.03-3.47c-1.84,0-3.61,0.81-4.6,1.52l-0.81-2.26
							c1.2-0.88,3.54-1.77,6.01-1.77c4.53,0,6.58,2.69,6.58,5.48c0,2.37-1.42,4.39-4.25,5.41v0.07c2.83,0.57,5.13,2.69,5.13,5.91
							c0,3.68-2.87,6.9-8.38,6.9c-2.58,0-4.85-0.81-5.98-1.56L1396.99,876.39z"/>
						<path class="st0" d="M1427.51,859.16c-0.64-0.04-1.45,0-2.33,0.14c-4.88,0.81-7.46,4.39-7.99,8.17h0.11
							c1.1-1.45,3.01-2.65,5.55-2.65c4.07,0,6.93,2.94,6.93,7.43c0,4.21-2.87,8.1-7.64,8.1c-4.92,0-8.14-3.82-8.14-9.8
							c0-4.53,1.63-8.1,3.89-10.36c1.91-1.88,4.46-3.04,7.36-3.4c0.92-0.14,1.7-0.18,2.26-0.18V859.16z M1426.63,872.43
							c0-3.29-1.88-5.27-4.74-5.27c-1.87,0-3.61,1.17-4.46,2.83c-0.21,0.35-0.35,0.81-0.35,1.38c0.07,3.78,1.8,6.58,5.06,6.58
							C1424.83,877.94,1426.63,875.72,1426.63,872.43z"/>
						<path class="st0" d="M1447.82,868.22c0,7.82-2.9,12.13-7.99,12.13c-4.49,0-7.53-4.21-7.6-11.81c0-7.71,3.32-11.96,7.99-11.96
							C1445.06,856.58,1447.82,860.89,1447.82,868.22z M1435.33,868.57c0,5.98,1.84,9.37,4.67,9.37c3.18,0,4.7-3.71,4.7-9.59
							c0-5.66-1.45-9.37-4.67-9.37C1437.31,858.98,1435.33,862.31,1435.33,868.57z"/>
					</g>
					<circle class="st0" cx="1454.41" cy="860.44" r="3.94"/>
				</g>
				<g>
					<g>
						<rect x="282.87" y="798" class="st2" width="7.82" height="1.3"/>
					</g>
					<g>
						<path class="st2" d="M590.98,799.3h-15.01V798h15.01V799.3z M560.95,799.3h-15.01V798h15.01V799.3z M530.92,799.3h-15.02V798
							h15.02V799.3z M500.89,799.3h-15.01V798h15.01V799.3z M470.86,799.3h-15.01V798h15.01V799.3z M440.83,799.3h-15.01V798h15.01
							V799.3z M410.8,799.3h-15.01V798h15.01V799.3z M380.78,799.3h-15.02V798h15.02V799.3z M350.75,799.3h-15.01V798h15.01V799.3z
							 M320.72,799.3H305.7V798h15.01V799.3z"/>
					</g>
					<g>
						<rect x="606" y="798" class="st2" width="7.82" height="1.3"/>
					</g>
					<g>
						<path class="st2" d="M275.01,798.65c3.7,1.37,8.29,3.71,11.13,6.2l-2.24-6.2l2.24-6.19
							C283.3,794.94,278.71,797.28,275.01,798.65z"/>
					</g>
					<g>
						<path class="st2" d="M621.67,798.65c-3.7,1.37-8.29,3.71-11.13,6.2l2.24-6.2l-2.24-6.19
							C613.38,794.94,617.97,797.28,621.67,798.65z"/>
					</g>
				</g>
				<g>
					<g>
						<rect x="690.01" y="798" class="st1" width="7.82" height="1.3"/>
					</g>
					<g>
						<path class="st1" d="M1203.29,799.3h-15.8V798h15.8V799.3z M1171.7,799.3h-15.8V798h15.8V799.3z M1140.11,799.3h-15.8V798
							h15.8V799.3z M1108.51,799.3h-15.8V798h15.8V799.3z M1076.92,799.3h-15.8V798h15.8V799.3z M1045.33,799.3h-15.8V798h15.8
							V799.3z M1013.74,799.3h-15.8V798h15.8V799.3z M982.15,799.3h-15.8V798h15.8V799.3z M950.56,799.3h-15.8V798h15.8V799.3z
							 M918.97,799.3h-15.8V798h15.8V799.3z M887.37,799.3h-15.8V798h15.8V799.3z M855.78,799.3h-15.8V798h15.8V799.3z
							 M824.19,799.3h-15.8V798h15.8V799.3z M792.6,799.3h-15.8V798h15.8V799.3z M761.01,799.3h-15.8V798h15.8V799.3z M729.42,799.3
							h-15.8V798h15.8V799.3z"/>
					</g>
					<g>
						<rect x="1219.09" y="798" class="st1" width="7.82" height="1.3"/>
					</g>
					<g>
						<path class="st1" d="M682.15,798.65c3.7,1.37,8.29,3.71,11.13,6.2l-2.24-6.2l2.24-6.19
							C690.44,794.94,685.85,797.28,682.15,798.65z"/>
					</g>
					<g>
						<path class="st1" d="M1234.76,798.65c-3.7,1.37-8.29,3.71-11.13,6.2l2.24-6.2l-2.24-6.19
							C1226.47,794.94,1231.06,797.28,1234.76,798.65z"/>
					</g>
				</g>
				<g>
					<g>
						<rect x="1339.49" y="798" class="st0" width="7.82" height="1.3"/>
					</g>
					<g>
						<path class="st0" d="M1916.78,799.3h-15.82V798h15.82V799.3z M1885.14,799.3h-15.82V798h15.82V799.3z M1853.51,799.3h-15.82
							V798h15.82V799.3z M1821.87,799.3h-15.82V798h15.82V799.3z M1790.23,799.3h-15.82V798h15.82V799.3z M1758.59,799.3h-15.82V798
							h15.82V799.3z M1726.96,799.3h-15.82V798h15.82V799.3z M1695.32,799.3h-15.82V798h15.82V799.3z M1663.68,799.3h-15.82V798
							h15.82V799.3z M1632.05,799.3h-15.82V798h15.82V799.3z M1600.41,799.3h-15.82V798h15.82V799.3z M1568.77,799.3h-15.82V798
							h15.82V799.3z M1537.13,799.3h-15.82V798h15.82V799.3z M1505.5,799.3h-15.82V798h15.82V799.3z M1473.86,799.3h-15.82V798
							h15.82V799.3z M1442.22,799.3h-15.82V798h15.82V799.3z M1410.58,799.3h-15.82V798h15.82V799.3z M1378.94,799.3h-15.82V798
							h15.82V799.3z"/>
					</g>
					<g>
						<rect x="1932.6" y="798" class="st0" width="7.82" height="1.3"/>
					</g>
					<g>
						<path class="st0" d="M1331.63,798.65c3.7,1.37,8.29,3.71,11.13,6.2l-2.24-6.2l2.24-6.19
							C1339.92,794.94,1335.33,797.28,1331.63,798.65z"/>
					</g>
					<g>
						<path class="st0" d="M1948.28,798.65c-3.7,1.37-8.29,3.71-11.13,6.2l2.24-6.2l-2.24-6.19
							C1939.99,794.94,1944.58,797.28,1948.28,798.65z"/>
					</g>
				</g>
				<g>
					<path class="st0" d="M630.48,793.03h-0.04l-2.43,1.31l-0.37-1.44l3.05-1.63h1.61v13.96h-1.83V793.03z"/>
					<path class="st0" d="M637.39,805.24v-1.16l1.48-1.44c3.57-3.39,5.18-5.2,5.2-7.3c0-1.42-0.69-2.73-2.77-2.73
						c-1.27,0-2.32,0.64-2.96,1.18l-0.6-1.33c0.97-0.82,2.34-1.42,3.95-1.42c3.01,0,4.28,2.06,4.28,4.06c0,2.58-1.87,4.66-4.81,7.5
						l-1.12,1.03v0.04h6.27v1.57H637.39z"/>
					<path class="st0" d="M648.42,805.24v-1.16l1.48-1.44c3.57-3.39,5.18-5.2,5.2-7.3c0-1.42-0.69-2.73-2.77-2.73
						c-1.27,0-2.32,0.64-2.96,1.18l-0.6-1.33c0.97-0.82,2.34-1.42,3.95-1.42c3.01,0,4.28,2.06,4.28,4.06c0,2.58-1.87,4.66-4.81,7.5
						l-1.12,1.03v0.04h6.27v1.57H648.42z"/>
					<path class="st0" d="M659.59,804.12c0-0.79,0.54-1.35,1.29-1.35s1.27,0.56,1.27,1.35c0,0.77-0.49,1.35-1.29,1.35
						C660.1,805.47,659.59,804.89,659.59,804.12z"/>
					<path class="st0" d="M664.34,803.07c0.54,0.34,1.78,0.88,3.09,0.88c2.43,0,3.18-1.55,3.16-2.71c-0.02-1.96-1.78-2.79-3.61-2.79
						h-1.05v-1.42h1.05c1.38,0,3.12-0.71,3.12-2.36c0-1.12-0.71-2.11-2.45-2.11c-1.12,0-2.19,0.49-2.79,0.92l-0.49-1.38
						c0.73-0.54,2.15-1.07,3.65-1.07c2.75,0,4,1.63,4,3.33c0,1.44-0.86,2.66-2.58,3.29v0.04c1.72,0.34,3.12,1.63,3.12,3.59
						c0,2.23-1.74,4.19-5.09,4.19c-1.57,0-2.94-0.49-3.63-0.95L664.34,803.07z"/>
				</g>
				<g>
					<path class="st0" d="M1265.95,793.03h-0.04l-2.43,1.31l-0.37-1.44l3.05-1.63h1.61v13.96h-1.83V793.03z"/>
					<path class="st0" d="M1273.96,803.9c0.41,0.04,0.88,0,1.53-0.06c1.1-0.15,2.13-0.6,2.92-1.35c0.92-0.84,1.59-2.06,1.85-3.72
						h-0.06c-0.77,0.95-1.89,1.5-3.29,1.5c-2.51,0-4.12-1.89-4.12-4.28c0-2.64,1.91-4.96,4.77-4.96s4.62,2.32,4.62,5.89
						c0,3.07-1.03,5.22-2.41,6.55c-1.07,1.05-2.56,1.7-4.06,1.87c-0.69,0.11-1.29,0.13-1.74,0.11V803.9z M1274.65,795.87
						c0,1.74,1.05,2.96,2.69,2.96c1.27,0,2.26-0.62,2.75-1.46c0.11-0.17,0.17-0.39,0.17-0.69c0-2.38-0.88-4.21-2.86-4.21
						C1275.79,792.47,1274.65,793.89,1274.65,795.87z"/>
					<path class="st0" d="M1289.73,805.24v-3.8h-6.49v-1.25l6.23-8.92h2.04v8.68h1.96v1.48h-1.96v3.8H1289.73z M1289.73,799.95
						v-4.66c0-0.73,0.02-1.46,0.06-2.19h-0.06c-0.43,0.82-0.77,1.42-1.16,2.06l-3.42,4.75v0.04H1289.73z"/>
					<path class="st0" d="M1295.06,804.12c0-0.79,0.54-1.35,1.29-1.35s1.27,0.56,1.27,1.35c0,0.77-0.49,1.35-1.29,1.35
						C1295.57,805.47,1295.06,804.89,1295.06,804.12z"/>
					<path class="st0" d="M1300.45,803.9c0.41,0.04,0.88,0,1.53-0.06c1.1-0.15,2.13-0.6,2.92-1.35c0.92-0.84,1.59-2.06,1.85-3.72
						h-0.06c-0.77,0.95-1.89,1.5-3.29,1.5c-2.51,0-4.12-1.89-4.12-4.28c0-2.64,1.91-4.96,4.77-4.96s4.62,2.32,4.62,5.89
						c0,3.07-1.03,5.22-2.41,6.55c-1.07,1.05-2.56,1.7-4.06,1.87c-0.69,0.11-1.29,0.13-1.74,0.11V803.9z M1301.14,795.87
						c0,1.74,1.05,2.96,2.69,2.96c1.27,0,2.26-0.62,2.75-1.46c0.11-0.17,0.17-0.39,0.17-0.69c0-2.38-0.88-4.21-2.86-4.21
						C1302.28,792.47,1301.14,793.89,1301.14,795.87z"/>
				</g>
			</g>
			<g>
				<path class="st1" d="M1932.79,740.54h-8.77l-0.88,5.91c0.53-0.07,1.03-0.14,1.88-0.14c1.77,0,3.54,0.39,4.95,1.24
					c1.8,1.03,3.29,3.01,3.29,5.91c0,4.49-3.57,7.85-8.56,7.85c-2.51,0-4.63-0.71-5.73-1.41l0.78-2.37
					c0.96,0.57,2.83,1.27,4.92,1.27c2.94,0,5.45-1.91,5.45-4.99c-0.04-2.97-2.02-5.09-6.61-5.09c-1.31,0-2.33,0.14-3.18,0.25
					l1.49-11.04h11V740.54z"/>
				<path class="st1" d="M1939.02,758.72c0.67,0.07,1.45,0,2.51-0.11c1.8-0.25,3.5-0.99,4.81-2.23c1.52-1.38,2.62-3.4,3.04-6.12
					h-0.11c-1.27,1.56-3.11,2.48-5.41,2.48c-4.14,0-6.79-3.11-6.79-7.04c0-4.35,3.15-8.17,7.85-8.17c4.7,0,7.6,3.82,7.6,9.69
					c0,5.06-1.7,8.59-3.96,10.79c-1.77,1.73-4.21,2.79-6.68,3.08c-1.13,0.18-2.12,0.21-2.87,0.18V758.72z M1940.15,745.5
					c0,2.86,1.73,4.88,4.42,4.88c2.09,0,3.71-1.03,4.53-2.41c0.18-0.28,0.28-0.64,0.28-1.13c0-3.93-1.45-6.93-4.7-6.93
					C1942.02,739.91,1940.15,742.24,1940.15,745.5z"/>
				<path class="st1" d="M1970.64,749.17c0,7.82-2.9,12.13-7.99,12.13c-4.49,0-7.53-4.21-7.6-11.81c0-7.71,3.32-11.96,7.99-11.96
					C1967.88,737.54,1970.64,741.85,1970.64,749.17z M1958.15,749.53c0,5.98,1.84,9.37,4.67,9.37c3.18,0,4.7-3.71,4.7-9.59
					c0-5.66-1.45-9.37-4.67-9.37C1960.13,739.94,1958.15,743.27,1958.15,749.53z"/>
				<path class="st1" d="M1981.99,748.43c0-1.77-0.04-3.22-0.14-4.63h2.72l0.14,2.76h0.11c0.96-1.63,2.55-3.15,5.38-3.15
					c2.33,0,4.1,1.41,4.85,3.43h0.07c0.53-0.96,1.2-1.7,1.91-2.23c1.03-0.78,2.16-1.2,3.78-1.2c2.26,0,5.62,1.49,5.62,7.43v10.08
					h-3.04v-9.69c0-3.29-1.2-5.27-3.71-5.27c-1.77,0-3.15,1.31-3.68,2.83c-0.14,0.42-0.25,0.99-0.25,1.56v10.58h-3.04v-10.26
					c0-2.72-1.2-4.71-3.57-4.71c-1.95,0-3.36,1.56-3.86,3.11c-0.18,0.46-0.25,0.99-0.25,1.52v10.33h-3.04V748.43z"/>
				<path class="st1" d="M2011.49,748.43c0-1.77-0.04-3.22-0.14-4.63h2.72l0.14,2.76h0.11c0.96-1.63,2.55-3.15,5.38-3.15
					c2.33,0,4.1,1.41,4.85,3.43h0.07c0.53-0.96,1.2-1.7,1.91-2.23c1.03-0.78,2.16-1.2,3.78-1.2c2.26,0,5.62,1.49,5.62,7.43v10.08
					h-3.04v-9.69c0-3.29-1.2-5.27-3.71-5.27c-1.77,0-3.15,1.31-3.68,2.83c-0.14,0.42-0.25,0.99-0.25,1.56v10.58h-3.04v-10.26
					c0-2.72-1.2-4.71-3.57-4.71c-1.95,0-3.36,1.56-3.86,3.11c-0.18,0.46-0.25,0.99-0.25,1.52v10.33h-3.04V748.43z"/>
			</g>
			<rect x="271.73" y="778.11" class="st1" width="3.28" height="41.08"/>
			<g>
				<path class="st1" d="M2053.74,503.69v-0.07l-2.16-4l2.37-0.6l2.69,5.02v2.65h-22.99v-3.01H2053.74z"/>
				<path class="st1" d="M2053.74,521.84v-0.07l-2.16-4l2.37-0.6l2.69,5.02v2.65h-22.99v-3.01H2053.74z"/>
				<path class="st1" d="M2054.02,546.95v-8.77l-5.91-0.88c0.07,0.53,0.14,1.03,0.14,1.87c0,1.77-0.39,3.54-1.24,4.95
					c-1.03,1.8-3.01,3.29-5.91,3.29c-4.49,0-7.85-3.57-7.85-8.56c0-2.51,0.71-4.63,1.41-5.73l2.37,0.78
					c-0.57,0.96-1.27,2.83-1.27,4.92c0,2.94,1.91,5.45,4.99,5.45c2.97-0.04,5.09-2.02,5.09-6.61c0-1.31-0.14-2.33-0.25-3.18
					l11.04,1.49v11H2054.02z"/>
				<path class="st1" d="M2035.49,551.62c1.31,0,2.23,0.88,2.23,2.12s-0.92,2.09-2.23,2.09c-1.27,0-2.23-0.81-2.23-2.12
					C2033.26,552.47,2034.21,551.62,2035.49,551.62z"/>
				<path class="st1" d="M2039.48,558.41c2.9,0,4.95,1.73,6.15,4.56l0.11-0.04c1.2-2.55,3.18-3.64,5.16-3.64
					c3.64,0,6.12,3.08,6.12,7.11c0,4.46-2.79,6.69-5.66,6.69c-1.95,0-4.03-0.96-5.38-3.78h-0.11c-1.13,2.86-3.15,4.63-5.94,4.63
					c-4,0-6.68-3.43-6.68-7.82C2033.26,561.31,2036.12,558.41,2039.48,558.41z M2039.63,570.79c2.79,0,4.14-1.95,5.02-5.06
					c-0.78-2.69-2.55-4.14-4.74-4.14c-2.33-0.11-4.38,1.66-4.38,4.6C2035.52,568.99,2037.26,570.79,2039.63,570.79z M2051.12,562.23
					c-2.3,0-3.54,1.73-4.24,4.39c0.67,1.98,2.09,3.5,4.17,3.5c1.84,0,3.75-1.1,3.75-3.89
					C2054.8,563.65,2053.1,562.23,2051.12,562.23z"/>
				<path class="st1" d="M2046.13,585.33c1.77,0,3.22-0.04,4.63-0.14v2.72l-2.76,0.14v0.11c1.63,0.96,3.15,2.55,3.15,5.38
					c0,2.33-1.41,4.1-3.43,4.85v0.07c0.96,0.53,1.7,1.2,2.23,1.91c0.78,1.03,1.2,2.16,1.2,3.79c0,2.26-1.49,5.62-7.43,5.62h-10.08
					v-3.04h9.69c3.29,0,5.27-1.2,5.27-3.71c0-1.77-1.31-3.15-2.83-3.68c-0.42-0.14-0.99-0.25-1.56-0.25h-10.58v-3.04h10.26
					c2.72,0,4.7-1.2,4.7-3.57c0-1.95-1.56-3.36-3.11-3.85c-0.46-0.18-0.99-0.25-1.52-0.25h-10.33v-3.04H2046.13z"/>
				<path class="st1" d="M2046.13,614.83c1.77,0,3.22-0.04,4.63-0.14v2.72l-2.76,0.14v0.11c1.63,0.96,3.15,2.55,3.15,5.38
					c0,2.33-1.41,4.1-3.43,4.85v0.07c0.96,0.53,1.7,1.2,2.23,1.91c0.78,1.03,1.2,2.16,1.2,3.79c0,2.26-1.49,5.62-7.43,5.62h-10.08
					v-3.04h9.69c3.29,0,5.27-1.2,5.27-3.71c0-1.77-1.31-3.15-2.83-3.68c-0.42-0.14-0.99-0.25-1.56-0.25h-10.58v-3.04h10.26
					c2.72,0,4.7-1.2,4.7-3.57c0-1.95-1.56-3.36-3.11-3.85c-0.46-0.18-0.99-0.25-1.52-0.25h-10.33v-3.04H2046.13z"/>
			</g>
			<g>
				<g>
					<g>
						<g>
							<rect x="2013.45" y="395.11" class="st1" width="1.3" height="7.82"/>
						</g>
						<g>
							<path class="st1" d="M2014.73,685.61h-1.3l0.01-15.71h1.3L2014.73,685.61z M2014.75,654.2h-1.3l0.01-15.7h1.3L2014.75,654.2z
								 M2014.76,622.79h-1.3l0.01-15.7h1.3L2014.76,622.79z M2014.78,591.39h-1.3l0.01-15.7l1.3,0L2014.78,591.39z M2014.79,559.99
								h-1.3l0-15.7h1.3L2014.79,559.99z M2014.79,528.58h-1.3l0-15.71h1.3L2014.79,528.58z M2013.48,497.17l0-15.71l1.3,0l0,15.71
								H2013.48z M2013.47,465.76l-0.01-15.71h1.3l0.01,15.71L2013.47,465.76z M2013.46,434.35l-0.01-15.71h1.3l0.01,15.71
								L2013.46,434.35z"/>
						</g>
						<g>
							<rect x="2013.41" y="701.45" class="st1" width="1.3" height="7.82"/>
						</g>
						<g>
							<path class="st1" d="M2014.09,387.25c-1.37,3.7-3.71,8.29-6.19,11.14l6.19-2.24l6.19,2.24
								C2017.81,395.53,2015.47,390.94,2014.09,387.25z"/>
						</g>
						<g>
							<path class="st1" d="M2014.06,717.13c-1.37-3.7-3.71-8.29-6.19-11.14l6.19,2.24l6.2-2.24
								C2017.77,708.84,2015.43,713.43,2014.06,717.13z"/>
						</g>
					</g>
				</g>
				<rect x="2000.48" y="717.13" class="st1" width="27.16" height="3.28"/>
				<rect x="2000.48" y="383.97" class="st1" width="27.16" height="3.28"/>
			</g>
			<rect x="1948.28" y="778.11" class="st1" width="3.28" height="41.08"/>
			<g>
				<path class="st1" d="M1182.53,381.57h-13.18v-2.61h13.18V381.57z M1156.18,381.57H1143v-2.61h13.18V381.57z M1129.82,381.57
					h-13.18v-2.61h13.18V381.57z M1103.46,381.57h-13.18v-2.61h13.18V381.57z M1077.1,381.57h-13.18v-2.61h13.18V381.57z
					 M1050.74,381.57h-13.18v-2.61h13.18V381.57z M1024.38,381.57h-13.18v-2.61h13.18V381.57z M998.02,381.57h-13.18v-2.61h13.18
					V381.57z M971.67,381.57h-13.18v-2.61h13.18V381.57z M945.31,381.57h-13.18v-2.61h13.18V381.57z M918.95,381.57h-13.18v-2.61
					h13.18V381.57z M892.59,381.57h-13.18v-2.61h13.18V381.57z M866.23,381.57h-13.18v-2.61h13.18V381.57z M839.87,381.57h-13.18
					v-2.61h13.18V381.57z"/>
			</g>
		</g>
		<g>
			<path class="st0" d="M1478.6,713.45h-1.3v-15.63h1.3V713.45z M1478.6,682.18h-1.3v-15.63h1.3V682.18z M1478.6,650.92h-1.3v-15.63
				h1.3V650.92z M1478.6,619.65h-1.3v-15.63h1.3V619.65z M1478.6,588.39h-1.3v-15.63h1.3V588.39z M1478.6,557.13h-1.3v-15.63h1.3
				V557.13z M1478.6,525.86h-1.3v-15.63h1.3V525.86z M1478.6,494.6h-1.3v-15.63h1.3V494.6z M1478.6,463.33h-1.3V447.7h1.3V463.33z"
				/>
		</g>
	</g>
	<g>
		<path class="st0" d="M1033.11,716.06l-1.24-0.39l3.54-11.41l1.24,0.39L1033.11,716.06z M1041.28,689.72l-1.24-0.39l4.63-14.93
			l1.24,0.39L1041.28,689.72z M1050.53,659.86l-1.24-0.38l4.63-14.93l1.24,0.38L1050.53,659.86z M1059.79,630l-1.24-0.39l4.63-14.93
			l1.24,0.39L1059.79,630z M1069.05,600.14l-1.24-0.38l4.63-14.93l1.24,0.39L1069.05,600.14z M1078.31,570.27l-1.24-0.39l4.63-14.93
			l1.24,0.39L1078.31,570.27z M1087.57,540.41l-1.24-0.39l4.63-14.93l1.24,0.39L1087.57,540.41z M1096.82,510.55l-1.24-0.39
			l4.63-14.93l1.24,0.39L1096.82,510.55z M1106.08,480.69l-1.24-0.39l4.63-14.93l1.24,0.39L1106.08,480.69z M1115.34,450.82
			l-1.24-0.39l4.63-14.93l1.24,0.39L1115.34,450.82z"/>
	</g>
	<g>
		<path class="st0" d="M1419.8,382.36h-9.6v-1.9h9.6V382.36z M1400.6,382.36h-9.6v-1.9h9.6V382.36z M1381.4,382.36h-9.6v-1.9h9.6
			V382.36z M1362.2,382.36h-9.6v-1.9h9.6V382.36z M1343,382.36h-9.6v-1.9h9.6V382.36z M1323.8,382.36h-9.6v-1.9h9.6V382.36z
			 M1304.6,382.36h-9.6v-1.9h9.6V382.36z M1285.4,382.36h-9.6v-1.9h9.6V382.36z M1266.2,382.36h-9.6v-1.9h9.6V382.36z M1247,382.36
			h-9.6v-1.9h9.6V382.36z"/>
	</g>
</g>
<g>
	<path class="st3" d="M1931.54,690.01l-26.89-2.54l-0.93-0.09c0.59-3.99,1.25-9.74,1.4-16.42c0.02-0.93,0.03-1.89,0.03-2.86v-14.55
		v-16.22v-17.38v-16.25v-17.38v-16.24v-17.4v-16.24v-17.4V502.8v-17.37v-16.27V453.7c0-0.64,0-1.28,0.03-1.92
		c0.08-6.26,0.58-11.92,1.35-17c1.26-8.29,3.23-15.04,5.25-20.29c3.68-9.57,7.55-14.23,7.61-14.31l3.64-4.19l-2.92-2.34l-5.66-4.5
		l-2.36,0.41c-0.06,0.02-4.52,0.75-18.35,1.26c-7.29,0.27-17.17,0.5-30.39,0.53h-31.49h-13.7v7.56v13.9l4.28,0.87
		c0.11,0.02,0.21,0.05,0.32,0.06c9.1,1.86,15.52,3.53,19.97,5.24c3.56,1.39,5.87,2.82,7.3,4.4c1.54,1.72,2.28,4.05,2.65,7.49
		c0.32,3.03,0.35,6.91,0.35,11.99v4.06v17.38v16.25v17.38v16.25v17.37v16.24v17.4v16.24v17.4v16.24v17.38v16.25v17.38v2.01
		c0,12.91-10.91,21.86-29.19,23.92l-4.73,0.53v8.49v16.8l1.11-0.03l30.79-0.75l32.97-0.81l30.8-0.76l30.21-0.73l2.47-17.29
		l0.84-5.89L1931.54,690.01z M1836.78,406.01l7.24-3.99h16.21c4.85,0,9.28-0.03,13.35-0.08l-19.66,10.87
		C1849.78,409.98,1844.18,407.91,1836.78,406.01z M1862.56,425.43l43.42-23.97c-2.53,4.73-5.48,11.54-7.75,20.52l-34.56,19.09
		C1863.66,434.85,1863.58,429.76,1862.56,425.43z M1863.68,458.44l31.37-17.3c-0.35,3.94-0.55,8.13-0.55,12.57v3.97l-30.82,17
		V458.44z M1863.68,492.06l30.82-17v16.25l-30.82,17V492.06z M1863.68,525.69l30.82-17.02v16.24l-30.82,17.02V525.69z
		 M1863.68,559.33l30.82-17.02v16.24l-30.82,17.02V559.33z M1863.68,592.95l30.82-17v16.24l-30.82,17.02V592.95z M1863.68,626.58
		l30.82-17.02v16.25l-30.82,17.02V626.58z M1863.68,668.1v-7.9l30.82-17v16.24l-32.1,17.72
		C1863.23,674.31,1863.68,671.28,1863.68,668.1z M1840.4,706.68l53.74-29.66c-0.61,8.25-1.86,13.86-1.87,13.94l-0.88,3.82
		l-20.2,11.16L1840.4,706.68z M1934.96,704.37l-30.8,0.76l10.84-5.98l21.17,2.01l-0.4,2.77L1934.96,704.37z"/>
	<path class="st3" d="M636.97,688.63c0.08-0.7,0.15-1.46,0.23-2.28c0.37-4.31,0.65-10.11,0.43-17.05l-0.03-0.56l-0.65-15.89
		l-0.71-16.98l-0.67-15.89l-0.71-16.97l-0.65-15.87l-0.72-17l-0.67-15.87l-0.72-17l-0.67-15.87l-0.7-17l-0.67-15.87l-0.71-16.98
		l-0.65-15.65v-0.23c-0.23-6.5,0.06-12.42,0.67-17.76c0.81-7.14,2.21-13.24,3.8-18.34c4.02-12.88,9.25-19.3,9.33-19.39l3.58-4.19
		l-0.7-0.55l-7.88-6.29l-2.4,0.44c-0.2,0.05-2.74,0.49-10.23,0.91c-6.59,0.4-17.01,0.78-33.04,0.85c-2.1,0.02-4.31,0.02-6.61,0.02
		h-16.25l-1.11,3.84c-0.03,0.11-1.48,5.04-3.36,11.23c-2.16,7.06-4.9,15.72-6.82,20.76l-0.21,0.5l-8.63,21.02l-9.24,22.49l-8.64,21
		l-9.24,22.49l-8.63,21l-9.25,22.48l-8.63,21l-9.24,22.49l-8.64,21l-5.37,13.09c-0.91-2.75-1.92-5.63-3-8.46
		c-0.56-1.52-1.16-3.03-1.75-4.49l-3.47-8.87l-5.59-14.31l-5.2-13.36l-5.59-14.31l-5.22-13.36l-5.59-14.31l-5.2-13.36l-5.59-14.31
		l-5.22-13.36l-5.59-14.31l-5.22-13.36l-5.57-14.31l-5.22-13.36l-3.85-9.86c-0.58-1.45-1.16-2.94-1.72-4.46
		c-1.66-4.49-3.24-9.16-4.67-13.65c-1.75-5.51-3.27-10.73-4.46-14.93c-1.6-5.72-2.56-9.54-2.59-9.63l-0.37-1.43l-2.3-2.3l-2.48-2.48
		l-2.6,0.34c-0.11,0.01-7.49,0.96-25.23,1.49c-6.97,0.2-15.55,0.35-25.9,0.35h-43.02v21.5l4.31,0.84
		c6.83,1.32,12.33,2.53,16.73,3.74c8.99,2.47,13.44,4.99,15.55,8.8c2.01,3.62,1.92,8.39,1.63,15.36c-0.02,0.35-0.03,0.7-0.05,1.05
		l-0.67,16.73L316.56,476l-0.72,17.78l-0.65,16.6l-0.7,17.76l-0.67,16.62l-0.7,17.76l-0.65,16.62l-0.72,17.78l-0.65,16.6
		l-0.72,17.79l-0.65,16.59l-0.7,17.78l-0.09,2.13c-0.49,9.06-4.05,21.41-29.19,24.21l-4.73,0.53v8.14v17.18l0.37-0.02l31.15-0.94
		l33.35-1l31.14-0.94l6.79-0.21l0.55-3.84l2.51-17.62l0.26-1.87l-25.4-1.66l-17.62-1.14c0.3-1.69,0.61-3.68,0.91-5.87
		c0.59-4.25,1.11-9.25,1.31-14.44l0.15-3.74l0.65-16.6l0.72-17.78l0.67-16.6l0.72-17.78l0.65-16.62l0.72-17.78l0.67-16.62l0.7-17.78
		l0.67-16.6l0.72-17.78l0.65-16.6l0.61-15.05L353.5,473l5.4,13.26l5.77,14.2l5.39,13.27l5.78,14.18l5.39,13.27l5.78,14.2l5.39,13.27
		l5.78,14.2l5.39,13.26l5.78,14.2l5.39,13.27l5.77,14.2l5.4,13.26l5.77,14.21l5.4,13.26l5.77,14.21l5.4,13.26l1.42,3.48l13.94,5.4
		l7.66,2.97l3.85-9.31l9.3-22.49l8.67-21.03l9.31-22.52l8.69-21.05l9.3-22.52l8.71-21.03l9.3-22.52l8.69-21.03l9.3-22.52l8.69-21.03
		l9.3-22.52l2.8-6.76l0.23,5.1l0.76,16.97l0.7,15.84l0.76,16.97l0.7,15.84l0.76,16.97l0.7,15.86l0.76,16.97l0.72,15.86l0.75,16.97
		l0.72,15.84l0.75,16.95l0.72,15.87l0.27,6.18c0.21,7.12-3.14,12.04-7.88,15.4c-1.73,1.23-3.65,2.27-5.66,3.12
		c-5.25,2.24-11.08,3.32-15.65,3.84l-4.73,0.53v6.88v16.24v2.18l28.89-0.73l93.69-2.34l3.33-23.33L636.97,688.63z M567.55,431.1
		c1.11-2.94,2.47-6.91,3.8-11.09l32.89-18.14c12.19-0.21,20.14-0.62,25.16-1c-0.75,1.37-1.54,2.92-2.34,4.66l-63.37,34.97
		L567.55,431.1z M383.92,438.82l-26.82,14.79l-5.39-13.26l27.44-15.16C380.62,429.69,382.21,434.35,383.92,438.82z M290.37,404.1
		v-2.08h32.37c2.07,0,4.06,0,6-0.02l-15.55,8.58C307.61,408.12,300.17,406.13,290.37,404.1z M325.61,421.11l36.18-19.97h0.02
		c4.6-0.23,7.91-0.49,10.11-0.7c0.56,2.18,1.51,5.65,2.71,9.88l-45.99,25.39C328.46,429.67,327.61,424.94,325.61,421.11z
		 M328.12,453.37l10.56-5.83c-0.2,2.6-0.4,5.46-0.53,8.31l-0.33,8.42l-10.35,5.71L328.12,453.37z M368.96,701.32l-0.44,3.06
		l-8.2,0.24l6.29-3.45L368.96,701.32z M338.41,699.33l-11.44,6.32l-31.17,0.96l31.32-17.29c-0.37,1.89-0.61,3.01-0.62,3.04l-1.4,6.1
		L338.41,699.33z M329.66,667.92c-0.03,0.9-0.08,1.8-0.14,2.69l-11.32,6.24c0.81-2.89,1.22-5.78,1.37-8.54l0.35-8.64l10.3-5.69
		L329.66,667.92z M330.92,636.2l-10.3,5.69l0.67-16.6l10.3-5.69L330.92,636.2z M332.31,601.82l-10.32,5.69l0.65-16.6l10.33-5.71
		L332.31,601.82z M333.68,567.42l-10.32,5.71l0.65-16.62l10.33-5.69L333.68,567.42z M335.06,533.04l-10.33,5.69l0.65-16.6
		l10.35-5.71L335.06,533.04z M336.43,498.66l-10.33,5.71l0.65-16.62l10.35-5.71L336.43,498.66z M362.89,467.83l26.62-14.7
		l5.22,13.36l-26.45,14.6L362.89,467.83z M374.06,495.28l26.24-14.49l5.22,13.36l-26.07,14.38L374.06,495.28z M385.21,522.74
		l25.89-14.28l5.21,13.36l-25.69,14.18L385.21,522.74z M396.38,550.21l25.51-14.08l5.22,13.36l-25.32,13.99L396.38,550.21z
		 M407.57,577.68l25.13-13.88l5.22,13.36l-24.96,13.77L407.57,577.68z M418.73,605.14l24.76-13.67l5.22,13.36l-24.58,13.58
		L418.73,605.14z M429.9,632.59l24.4-13.45l2.98,7.64c0.73,1.75,1.46,3.67,2.22,5.72l-24.2,13.36L429.9,632.59z M441.07,660.06
		l23.29-12.85c0.58,1.92,1.14,3.87,1.67,5.81l2.28,8.25l-21.84,12.05L441.07,660.06z M469.48,694.26l-11.84,6.53l-5.4-13.26
		l25.93-14.31L469.48,694.26z M487.47,650.7l-13.16,7.26l8.63-21l13.23-7.31L487.47,650.7z M505.48,607.13l-13.29,7.34l8.63-21
		l13.35-7.37L505.48,607.13z M523.46,563.57l-13.41,7.4l8.64-21l13.45-7.43L523.46,563.57z M541.45,520.03l-13.51,7.46l8.63-21
		l13.58-7.49L541.45,520.03z M545.82,483.99l8.63-21.02l13.7-7.55l-8.71,21.05L545.82,483.99z M587.1,444.97l33.21-18.34
		c-1.03,5.2-1.83,11.02-2.18,17.46l-30.32,16.73L587.1,444.97z M588.57,477.78l29.68-16.38l0.67,15.87l-29.65,16.36L588.57,477.78z
		 M590.03,510.59l29.6-16.33l0.65,15.87l-29.56,16.31L590.03,510.59z M591.49,543.42l29.51-16.28l0.67,15.87l-29.46,16.27
		L591.49,543.42z M592.96,576.25l29.43-16.24l0.67,15.87l-29.39,16.21L592.96,576.25z M594.42,609.06l29.34-16.18l0.67,15.86
		l-29.3,16.18L594.42,609.06z M595.89,641.88l29.25-16.15l0.67,15.89l-29.22,16.12L595.89,641.88z M563.19,706.94v-5.01
		c19.27-3.35,31.34-13.04,33.56-26.89l29.77-16.44l0.47,11.08c0.06,1.7,0.08,3.33,0.08,4.87l-58.44,32.25L563.19,706.94z
		 M665.84,704.35l-64.21,1.61l24-13.24l-1.14,5.72l41.79,2.85L665.84,704.35z"/>
	<path class="st3" d="M1132.49,404.61l-3.77-13.24h-1.67h-31.5h-29.45h-18.34v10.12v11l3.85,1.11c0.81,0.23,1.6,0.47,2.36,0.72
		c7.44,2.37,12.6,5.25,15.65,8.74c0.76,0.87,1.39,1.75,1.87,2.68c1.63,3.04,2.15,6.85,1.57,11.69c-0.36,3.04-1.17,6.51-2.42,10.44
		l-3.18,10.03l-6.24,19.68l-6.68,21.08l-6.24,19.69l-6.68,21.06l-6.24,19.69l-6.68,21.06l-6.24,19.68l-6.7,21.09l-3.84,12.11
		c-0.9-3-1.78-5.87-2.63-8.54c-0.4-1.2-0.78-2.36-1.14-3.45l-4.03-11.09l-4.92-13.51l-5.25-14.49l-4.93-13.53l-5.25-14.47
		l-4.92-13.55l-5.27-14.47l-4.92-13.53l-5.27-14.47l-4.92-13.55l-5.27-14.47l-4.92-13.53l-5.25-14.47l-1.37-3.76
		c-1.22-3.21-1.93-6.79-2.24-10.5c-0.49-6.03,0.12-12.4,1.45-18.19c0.88-3.88,2.09-7.49,3.49-10.55l1.54-3.36l-3.29-3.29l-3-3
		l-2.51,0.24c-0.12,0.02-8.86,0.87-23.56,1.42c-6.91,0.26-15.16,0.44-24.44,0.44h-5.81h-28.25v15.6v5.52l3.85,1.11
		c0.08,0.03,3.26,0.96,7.41,3.39c3.76,2.21,8.31,5.63,12.1,10.7c1.83,2.45,3.47,5.28,4.76,8.54l1.55,4.22l5.34,14.44l0.49,1.31
		l-5.65,17.79l-6.68,21.05l-6.25,19.71l-6.68,21.08l-6.25,19.69l-6.7,21.08l-6.24,19.68l-6.7,21.08l-5.07,16
		c-1.16-3.96-2.36-7.78-3.58-11.22c-0.24-0.7-0.5-1.4-0.75-2.07l-4.61-12.36l-5.02-13.47l-5.37-14.41l-5.02-13.48l-5.39-14.41
		l-5.02-13.48l-5.37-14.4l-5.02-13.47l-5.39-14.43l-5.02-13.47l-5.37-14.41l-5.02-13.48L763,440.37l-0.84-2.22
		c-1.42-3.73-2.16-7.93-2.36-12.27c-0.29-6.22,0.55-12.74,2.05-18.51c0.82-3.09,1.83-5.95,2.98-8.46l1.55-3.36l-3.71-3.7l-2.59-2.59
		l-2.51,0.24c-0.12,0.02-9.34,0.91-24.79,1.46c-6.65,0.23-14.47,0.4-23.21,0.4h-34.06l0.01,21.11l3.82,1.11
		c0.08,0.03,2.97,0.9,6.83,3.1c3.76,2.15,8.42,5.52,12.33,10.58c1.99,2.57,3.79,5.57,5.17,9.07l1.02,2.57l5.62,14.28l5.27,13.36
		l5.62,14.28l5.25,13.35l5.63,14.28l5.25,13.35l5.63,14.28l5.25,13.35l5.62,14.28l5.27,13.35l5.62,14.28l5.25,13.35l5.63,14.29
		l5.25,13.33l5.63,14.29l5.25,13.35l5.62,14.26l5.27,13.36l5.62,14.28l4.76,12.08l1.76,0.55l20.26,6.22l3.87,1.19l1.28-4.03
		l6.67-21.08l6.21-19.66l6.67-21.05l6.22-19.69l6.65-21.05l6.22-19.68l6.67-21.06l6.21-19.68l6.67-21.06l6.23-19.68l3.9-12.33
		l3.24,8.39l5.19,13.39l5.55,14.32l5.17,13.38l5.55,14.32l5.19,13.39l5.54,14.31l5.19,13.39l5.54,14.32l5.19,13.38l5.55,14.34
		l5.17,13.38l5.54,14.32l5.19,13.38l5.56,14.32l3.77,9.76l25.89,7.97l13.1-41.34l6.68-21.06l6.26-19.71l6.68-21.06l6.24-19.68
		l6.68-21.09l6.24-19.68l6.68-21.06l6.26-19.71l6.67-21.05l6.25-19.71l6.68-21.06l0.08-0.24c2.74-8.14,5.57-14.96,8.33-20.64
		c10.33-21.29,19.63-26.71,19.69-26.74l3.88-1.99L1132.49,404.61z M1058.41,404.56v-2.54h17.84l-10.18,5.62
		C1063.76,406.51,1061.21,405.49,1058.41,404.56z M1080.87,420.71c-0.53-0.99-1.13-1.95-1.8-2.86l28.67-15.83h11.6
		c-3.47,3.04-8.46,8.42-13.93,17.53l-21.58,11.9C1083.58,427.45,1082.59,423.91,1080.87,420.71z M943.78,475.12l-28.2,15.57
		l-5.19-13.39l28.48-15.71L943.78,475.12z M865.7,404.79v-2.77h23.41c1.48,0,2.92,0,4.35-0.02l-16.66,9.19
		C872.55,408.02,868.52,405.99,865.7,404.79z M893.13,432.43c-1.48-3.73-3.3-7.02-5.33-9.91l39.07-21.57
		c2.09-0.12,3.9-0.24,5.43-0.35c-1.52,4.64-2.69,9.92-3.27,15.4l-34.87,19.24L893.13,432.43z M899.49,449.69l29.91-16.5
		c0.5,3,1.25,5.9,2.3,8.67l1.9,5.25l-35.14,19.4l3.35-10.58L899.49,449.69z M891.76,487.58l12.16-6.71l-6.22,19.69l-12.18,6.71
		L891.76,487.58z M686.17,404.79v-2.77h23.41c1.08,0,2.15,0,3.2-0.02l-16,8.83C692.72,407.86,688.88,405.95,686.17,404.79z
		 M713.6,432.43c-1.55-3.93-3.5-7.37-5.66-10.36l38.11-21.03c2.65-0.15,4.9-0.29,6.74-0.43c-1.35,4.09-2.42,8.68-3.04,13.47
		l-35.63,19.65L713.6,432.43z M719.73,448l29.89-16.5c0.47,3.61,1.31,7.11,2.56,10.41l1.37,3.68l-28.57,15.77L719.73,448z
		 M730.61,475.64l28.32-15.63l5.02,13.47l-28.09,15.51L730.61,475.64z M741.5,503.26l27.84-15.37l5.02,13.47l-27.61,15.25
		L741.5,503.26z M752.38,530.88l27.36-15.1l5.02,13.47l-27.14,14.98L752.38,530.88z M763.24,558.5l26.89-14.84l5.04,13.47
		l-26.66,14.72L763.24,558.5z M774.13,586.13l26.42-14.58l5.02,13.47l-26.19,14.46L774.13,586.13z M785.01,613.77l25.95-14.32
		l5.02,13.47l-25.72,14.18L785.01,613.77z M795.89,641.37l25.42-14.02c1.41,4.25,2.85,9.02,4.22,13.91l-24.38,13.45L795.89,641.37z
		 M806.76,669l22.84-12.6l3.73,14.2l-21.31,11.76L806.76,669z M833.28,704.23l-5.54,3.07l-6.71-2.07l-3.39-8.6l21.87-12.07
		L833.28,704.23z M846.16,663.52l-12.39,6.83l6.25-19.71l12.37-6.82L846.16,663.52z M859.05,622.78l-12.34,6.8l6.24-19.69
		l12.33-6.79L859.05,622.78z M871.93,582.03l-12.28,6.77l6.24-19.68l12.27-6.77L871.93,582.03z M884.82,541.29l-12.24,6.76
		l6.24-19.69l12.21-6.74L884.82,541.29z M921.13,505.01l27.91-15.4l4.92,13.53l-27.65,15.25L921.13,505.01z M931.86,532.72
		l27.36-15.1l4.92,13.51l-27.11,14.96L931.86,532.72z M942.59,560.42l26.8-14.79l4.93,13.53l-26.54,14.64L942.59,560.42z
		 M953.32,588.12l26.25-14.49l4.92,13.53l-25.98,14.35L953.32,588.12z M964.05,615.84l25.7-14.18l4.92,13.51l-25.43,14.05
		L964.05,615.84z M974.79,643.53l24.97-13.77c1.35,4.31,2.8,9.13,4.17,13.93l-23.97,13.23L974.79,643.53z M1009.55,708.58
		l-10.87-3.35l-2.44-6.29l19.83-10.94L1009.55,708.58z M1022.76,666.94l-32.05,17.68l-5.19-13.39l22.48-12.4l3.14,11.9l5.24-16.53
		l12.63-6.97L1022.76,666.94z M1035.68,626.17l-12.63,6.97l6.24-19.68l12.63-6.97L1035.68,626.17z M1048.62,585.4l-12.65,6.97
		l6.25-19.68l12.63-6.97L1048.62,585.4z M1061.54,544.66l-12.65,6.97l6.25-19.69l12.63-6.99L1061.54,544.66z M1074.46,503.9
		l-12.63,6.97l6.24-19.69l12.63-6.99L1074.46,503.9z M1090.89,452.11l-3.5,11.02l-12.63,6.97l6.03-19.01
		c0.08-0.23,0.14-0.46,0.2-0.67l13.12-7.23C1093.02,445.99,1091.95,448.96,1090.89,452.11z"/>
	<path class="st3" d="M1438.33,656.32l-7.93-11.87l-0.34-0.52l-1.87,1.73l-2.72,2.51c-0.24,0.24-17.94,16.38-48.31,25.64
		c-12.28,3.76-26.65,6.39-42.77,6.39h-0.32c-8.72-0.02-17.17-0.79-25.28-2.28c-7.34-1.34-14.4-3.26-21.16-5.71
		c-5.65-2.05-11.08-4.47-16.28-7.26c-5.14-2.74-10.08-5.83-14.73-9.25c-4.11-3.01-8.04-6.27-11.73-9.77
		c-3.8-3.58-7.37-7.41-10.7-11.48c-3.01-3.67-5.84-7.53-8.45-11.58c-2.74-4.23-5.25-8.64-7.5-13.26c-2.1-4.23-3.97-8.61-5.63-13.13
		c-1.77-4.79-3.29-9.76-4.55-14.85c-1.19-4.78-2.15-9.68-2.86-14.69c-0.79-5.39-1.31-10.9-1.51-16.54c-0.11-2.21-0.15-4.44-0.15-6.7
		c0-3.24,0.09-6.45,0.26-9.6c0.34-6.36,1.02-12.54,2.04-18.52c1.07-6.45,2.53-12.66,4.34-18.63c2.4-7.93,5.43-15.42,9.06-22.39
		v-0.02c5.11-9.94,11.41-18.83,18.73-26.57c15.04-15.9,34.4-26.82,56.81-31.35c7.67-1.55,15.72-2.36,24.06-2.36
		c2.65,0,5.71,0.08,9.06,0.32h0.01c7.12,0.49,15.52,1.67,23.88,4.22c5.63,1.7,11.23,4.03,16.41,7.18
		c4.61,2.78,8.89,6.22,12.54,10.47c3.01,3.45,5.59,7.44,7.61,12.04c1.96,4.44,3.39,9.44,4.16,15.08c0.43,3.1,0.65,6.41,0.65,9.92
		v5.33h1.17h24.55l3-15.2l3.59-18.23l3.85-19.5v-0.02l3.61-18.22v-0.02l2.07-10.52l-5.84-0.56c-1.99-0.2-4.13-0.43-6.38-0.7
		c-6.56-0.78-14.06-1.86-21.89-2.98c-0.56-0.08-1.13-0.17-1.69-0.24c-7.91-1.14-16.47-2.36-25.28-3.45
		c-8.14-1-16.51-1.92-24.81-2.54c-7.56-0.58-15.05-0.93-22.25-0.93c-2.62,0-5.24,0.05-7.82,0.15c-13.3,0.47-26.22,2.18-38.61,5.05
		h-0.02c-31.49,7.29-59.52,22.08-81.48,43.42c-1.17,1.13-2.31,2.28-3.42,3.44l-0.01,0.01c-8.34,8.6-15.61,18.08-21.79,28.28
		c-4.63,7.61-8.61,15.63-11.96,23.97v0.02c-2.59,6.44-4.78,13.06-6.59,19.86c-1.7,6.39-3.04,12.95-4.03,19.63
		c-0.85,5.63-1.43,11.37-1.73,17.18v0.02c-0.21,3.52-0.3,7.05-0.3,10.62c0,2.3,0.05,4.58,0.12,6.85v0.02
		c0.18,5.3,0.58,10.47,1.19,15.58c0.64,5.42,1.52,10.73,2.65,15.92c1.02,4.84,2.27,9.57,3.71,14.2v0.02
		c1.52,4.93,3.29,9.76,5.28,14.44c1.84,4.4,3.88,8.69,6.13,12.86c2.4,4.47,5.04,8.83,7.88,13.04c2.66,3.96,5.54,7.79,8.6,11.49
		c3.3,4,6.82,7.87,10.58,11.57c1.99,1.96,4.05,3.9,6.18,5.78c1.64,1.46,3.32,2.89,5.02,4.28c4.32,3.53,8.84,6.85,13.51,9.92
		c4.6,3.03,9.34,5.81,14.25,8.37c5.57,2.94,11.34,5.55,17.24,7.87c6.01,2.34,12.18,4.37,18.46,6.06c7.53,2.02,15.25,3.58,23.12,4.63
		c8.31,1.13,16.79,1.69,25.37,1.69c0.35,0,0.7,0,1.03-0.02c14.9-0.06,28.28-1.87,40.21-4.81c33.5-8.19,55.69-25.19,68.15-37.61
		c7.93-7.88,11.92-13.93,12.4-14.66l1.9-2.94L1438.33,656.32z M1410.13,468.18h-6.48c-0.21-3.45-0.64-6.8-1.28-10.03l10.93-6.04
		L1410.13,468.18z M1417.14,432.61l-19.53,10.78c-2.02-4.37-4.52-8.42-7.5-12.11l30.64-16.89L1417.14,432.61z M1399.36,403.42
		c2.62,0.38,5.19,0.75,7.72,1.11l-28.52,15.74c-0.85-0.64-1.74-1.26-2.65-1.86c-3.8-2.51-7.79-4.63-11.86-6.38l19.62-10.82
		C1389.12,401.94,1394.39,402.7,1399.36,403.42z M1331.41,396.42c8.54,0.17,17.46,0.81,26.36,1.69l-14.09,7.78
		c-9.01-1.74-17.64-2.27-24.84-2.27h-0.47l13.03-7.2H1331.41z M1295.52,398.84l-28.41,15.69l-0.03,0.02
		c-5.52,2.51-10.84,5.43-15.89,8.77l-0.02,0.02l-55.32,30.51C1219.82,425.12,1254.43,405.47,1295.52,398.84z M1177.62,481.28
		l37.65-20.77c-4.37,7.02-8.14,14.53-11.28,22.46l-35.4,19.53c2.5-7.37,5.52-14.44,9.02-21.2V481.28z M1163.09,522.94l34.33-18.95
		c-1.39,5.86-2.47,11.87-3.21,18.02l-33.71,18.6C1161.06,534.58,1161.93,528.69,1163.09,522.94z M1159.74,558.41l33.18-18.31
		c-0.02,1.2-0.03,2.4-0.03,3.61c0,4.2,0.14,8.34,0.44,12.42l-32.83,18.11C1160.01,569.11,1159.75,563.83,1159.74,558.41z
		 M1162.78,590.36l32.48-17.91c0.82,4.96,1.87,9.8,3.14,14.52l-32.14,17.75C1164.88,600.07,1163.72,595.29,1162.78,590.36z
		 M1171.36,619.26l31.75-17.53c1.7,4.5,3.59,8.87,5.71,13.1l-31.4,17.32C1175.2,628.01,1173.18,623.72,1171.36,619.26z
		 M1185.32,645.18l30.96-17.08c2.57,4.05,5.36,7.93,8.31,11.64l-30.56,16.88C1190.95,652.99,1188.04,649.18,1185.32,645.18z
		 M1204.85,668.04l30.16-16.65c3.56,3.56,7.34,6.91,11.29,10.01l-29.88,16.5C1212.41,674.83,1208.55,671.54,1204.85,668.04z
		 M1230.54,687.49l29.75-16.42c4.87,2.94,9.94,5.56,15.22,7.85l-29.95,16.53C1240.41,693.07,1235.39,690.41,1230.54,687.49z
		 M1263.93,702.68l30.8-16.98c7.03,1.92,14.32,3.32,21.85,4.17l-32.69,18.05C1277.14,706.57,1270.46,704.82,1263.93,702.68z
		 M1318.37,711.31c-2.91,0-5.81-0.08-8.72-0.23l37.56-20.73c41.58-3.32,69.98-22.02,80.75-30.38l1,1.51l-87.39,48.23
		C1334.32,710.74,1326.59,711.31,1318.37,711.31z"/>
	<path class="st3" d="M1793.01,403.72l-4.41-12.36h-2.63h-31.5h-29.45h-31.49h-5.42v2.98v17.38v2.98l4.81,0.47
		c5.78,0.58,10.56,1.28,14.5,2.13c8.78,1.92,13.48,4.61,15.98,8.58c2.33,3.67,2.77,8.45,2.85,14.67c0.03,1.48,0.03,3.01,0.03,4.66
		v12.71v16.24v17.38v16.25v17.38v16.24v17.4v16.24v17.4v7.32c0,3.12-0.12,6.16-0.4,9.13c-0.55,6.88-1.78,13.33-3.56,19.34
		c-2.37,7.99-5.72,15.23-9.89,21.7c-16.09,25.05-44.07,38.63-72.52,40.03c-1.63,0.08-3.27,0.12-4.9,0.12
		c-6.83,0-13.86-0.69-20.84-2.18c-6.7-1.4-13.35-3.55-19.69-6.5c-4.95-2.3-9.73-5.08-14.2-8.4c-4.25-3.12-8.23-6.73-11.87-10.84
		c-3.09-3.49-5.94-7.34-8.48-11.57c-2.53-4.2-4.75-8.77-6.62-13.74c-1.64-4.35-3.03-9.01-4.09-13.99
		c-1.08-5.04-1.86-10.41-2.27-16.12c-0.26-3.32-0.38-6.76-0.38-10.3v-5.74v-17.38v-16.24v-17.4v-16.24v-17.4v-16.24v-17.38v-16.25
		v-2.51c0-5.57,0.33-10.68,0.9-15.36c0.85-7.15,2.27-13.27,3.85-18.37c4.11-13.29,9.42-19.69,9.5-19.79l3.64-4.19l-0.49-0.4
		l-8.1-6.45l-2.36,0.41c-0.05,0.02-2.54,0.41-9.54,0.84h-0.01c-6.54,0.4-17.03,0.81-33.18,0.93c-2.85,0.02-5.89,0.03-9.1,0.03
		h-42.08v21.46l4.26,0.87c1.63,0.33,3.18,0.65,4.64,0.97c10.04,2.19,16.25,4.17,19.97,6.36c1.28,0.76,2.25,1.54,2.98,2.36
		c1.96,2.19,2.65,5.39,2.89,10.65c0.11,2.45,0.12,5.37,0.12,8.83v8.49v16.24v17.38v16.24v17.38v16.25v17.38v16.25v17.38v14.38
		c0,0.62,0,1.23,0.02,1.84c0.05,5.81,0.38,11.43,0.99,16.85c0.58,5.14,1.38,10.11,2.46,14.88c1.14,5.2,2.59,10.2,4.34,14.99
		c1.64,4.55,3.56,8.9,5.74,13.07c2.36,4.55,5.04,8.87,8.04,12.95c2.85,3.9,5.98,7.58,9.41,11.05c3.14,3.21,6.53,6.24,10.17,9.09
		c0.69,0.53,1.37,1.07,2.07,1.57c4.41,3.3,8.99,6.18,13.67,8.69c5.71,3.1,11.57,5.65,17.46,7.73c6.57,2.36,13.16,4.12,19.6,5.45
		c8.95,1.84,17.62,2.82,25.58,3.26c3.73,0.2,7.29,0.29,10.65,0.29c6.93,0,13.73-0.4,20.36-1.16c28.98-3.35,54.96-13.86,74.6-30.42
		c7.66-6.44,14.25-13.7,19.77-21.66c4.95-7.11,9.01-14.79,12.19-22.98c2.56-6.57,4.55-13.47,5.94-20.67
		c1.11-5.65,1.86-11.48,2.22-17.47c0.2-3.03,0.29-6.12,0.29-9.24v-8.29v-16.24v-17.38V540.2v-17.38v-16.25v-17.38v-16.24v-17.38
		v-4.2c0-4.76,0.53-9.02,1.43-12.83c5.66-23.68,26.18-29.81,27.17-30.1l5.54-1.52L1793.01,403.72z M1699.81,405.28l5.9-3.26h29.43
		l-14.96,8.26C1715.09,408.11,1708.45,406.43,1699.81,405.28z M1732.83,420.68l33.83-18.66h10.38c-6.76,3.77-15.9,10.71-21.79,22.54
		l-18.63,10.29C1736.2,429.41,1735.19,424.7,1732.83,420.68z M1470.24,404.15v-2.13h21.17l-9.21,5.08
		C1478.7,406.07,1474.73,405.11,1470.24,404.15z M1499.4,416.3c-0.26-0.29-0.53-0.58-0.82-0.85l24.69-13.62h0.01
		c11.75-0.23,19.53-0.62,24.47-0.99c-0.81,1.49-1.67,3.2-2.56,5.13l-40.67,22.45C1503.89,423.65,1502.46,419.74,1499.4,416.3z
		 M1505.11,445.49l33.38-18.43c-1.07,5.2-1.89,11.03-2.28,17.52l-31.09,17.15V445.49z M1505.11,479.11l30.8-17v16.24l-30.8,17
		V479.11z M1505.11,512.73l30.8-17v16.25l-30.8,17V512.73z M1505.11,546.36l30.8-17v16.25l-30.8,17V546.36z M1505.11,579.99l30.8-17
		v16.24l-30.8,17V579.99z M1505.64,613.32l30.27-16.71c0,5.48,0.3,10.73,0.85,15.77l-29.07,16.06
		C1506.77,623.67,1506.07,618.65,1505.64,613.32z M1511.76,643.57l27.82-15.36c1.2,4.87,2.68,9.47,4.43,13.82l-26.6,14.67
		C1515.29,652.64,1513.4,648.25,1511.76,643.57z M1525.56,669.59l25.17-13.9c2.51,4.2,5.28,8.08,8.29,11.66l-23.73,13.1
		C1531.85,677.2,1528.58,673.58,1525.56,669.59z M1548.26,690.7l22.04-12.16c4.11,3.41,8.49,6.41,13.07,9.02L1563,698.8
		C1558,696.53,1553.03,693.85,1548.26,690.7z M1582.06,705.66l18.75-10.35c6.8,2.27,13.85,3.82,20.99,4.67l-18.08,9.97
		C1597.08,709.11,1589.7,707.76,1582.06,705.66z M1706.92,686.62l-25.42,14.03c-15.11,6.15-31.64,9.57-48.34,10.44l22.1-12.19
		c21.99-4.08,42.74-14.79,57.82-31.91l22.63-12.49C1728.41,667.52,1718.51,678.2,1706.92,686.62z M1744.95,632.01l-15.58,8.6
		c2.44-6.01,4.35-12.46,5.63-19.36l13.5-7.44C1747.76,620.22,1746.56,626.28,1744.95,632.01z M1749.36,595.96l-12.46,6.86
		c0.01-1,0.03-2.02,0.03-3.04v-13.2l12.43-6.86V595.96z M1749.36,562.32l-12.43,6.86v-16.24l12.43-6.86V562.32z M1749.36,528.69
		l-12.43,6.86v-16.24l12.43-6.86V528.69z M1749.36,495.06l-12.43,6.86v-16.24l12.43-6.86V495.06z M1749.36,451.36v10.08l-12.43,6.86
		v-16.24l12.72-7.02C1749.45,447.07,1749.36,449.17,1749.36,451.36z"/>
</g>
</svg>
