<?xml version="1.0" encoding="utf-8"?>
<!-- Generator: Adobe Illustrator 25.2.3, SVG Export Plug-In . SVG Version: 6.00 Build 0)  -->
<svg version="1.1" id="Layer_1" xmlns="http://www.w3.org/2000/svg" xmlns:xlink="http://www.w3.org/1999/xlink" x="0px" y="0px"
	 viewBox="0 0 1080 1080" style="enable-background:new 0 0 1080 1080;" xml:space="preserve">
<style type="text/css">
	.st0{fill:#F4C995;}
	.st1{fill:#FFFFFF;}
</style>
<rect class="st0" width="1085" height="1085"/>
<g>
	<path class="st1" d="M222.67,639.95h7.8l-11.02,20.58v12.35h-6.88v-12.35l-11.39-20.58h8.11l6.84,14.34L222.67,639.95z"/>
	<path class="st1" d="M265.93,669.96c-2.49,2.56-6.08,3.84-10.79,3.84c-4.71,0-8.3-1.28-10.79-3.84c-3.34-3.14-5-7.67-5-13.58
		c0-6.03,1.67-10.56,5-13.58c2.49-2.56,6.08-3.84,10.79-3.84c4.71,0,8.3,1.28,10.79,3.84c3.32,3.02,4.98,7.55,4.98,13.58
		C270.91,662.29,269.25,666.82,265.93,669.96z M261.63,664.95c1.6-2.01,2.4-4.87,2.4-8.58c0-3.69-0.8-6.55-2.4-8.57
		c-1.6-2.02-3.77-3.03-6.49-3.03s-4.9,1-6.52,3.02c-1.62,2.01-2.44,4.87-2.44,8.58c0,3.71,0.81,6.57,2.44,8.58
		c1.62,2.01,3.8,3.02,6.52,3.02S260.03,666.96,261.63,664.95z"/>
	<path class="st1" d="M282.34,639.95h6.99v20.23c0,2.26,0.27,3.91,0.8,4.96c0.83,1.85,2.64,2.77,5.43,2.77
		c2.78,0,4.58-0.92,5.41-2.77c0.53-1.04,0.8-2.69,0.8-4.96v-20.23h6.99v20.24c0,3.5-0.54,6.23-1.63,8.18
		c-2.02,3.58-5.88,5.36-11.58,5.36c-5.7,0-9.56-1.79-11.6-5.36c-1.09-1.95-1.63-4.68-1.63-8.18V639.95z"/>
	<path class="st1" d="M342.67,640.8c1.21,0.52,2.24,1.29,3.08,2.3c0.7,0.83,1.25,1.76,1.66,2.77s0.61,2.17,0.61,3.46
		c0,1.56-0.4,3.1-1.18,4.61c-0.79,1.51-2.09,2.58-3.91,3.21c1.52,0.61,2.6,1.48,3.23,2.6s0.95,2.84,0.95,5.15v2.21
		c0,1.5,0.06,2.53,0.18,3.06c0.18,0.85,0.6,1.47,1.27,1.88v0.83h-7.6c-0.21-0.73-0.36-1.32-0.45-1.76
		c-0.18-0.92-0.28-1.87-0.29-2.84l-0.04-3.06c-0.03-2.1-0.39-3.5-1.09-4.2c-0.7-0.7-2-1.05-3.92-1.05h-6.72v12.91h-6.73v-32.93
		h15.75C339.72,640,341.46,640.28,342.67,640.8z M328.45,645.67v8.85h7.41c1.47,0,2.57-0.18,3.31-0.54c1.3-0.63,1.95-1.86,1.95-3.71
		c0-2-0.63-3.34-1.89-4.02c-0.71-0.39-1.77-0.58-3.18-0.58H328.45z"/>
	<path class="st1" d="M401.79,658.63c-1.93,1.61-4.68,2.41-8.26,2.41h-6.86v11.84h-6.84v-32.93h14.14c3.26,0,5.86,0.85,7.8,2.55
		c1.94,1.7,2.91,4.33,2.91,7.89C404.68,654.27,403.71,657.02,401.79,658.63z M396.53,646.77c-0.87-0.73-2.09-1.09-3.66-1.09h-6.2
		v9.7h6.2c1.57,0,2.79-0.39,3.66-1.18c0.87-0.79,1.31-2.04,1.31-3.75S397.4,647.5,396.53,646.77z"/>
	<path class="st1" d="M440.73,645.78H423.3v6.99h16v5.72h-16v8.47h18.23v5.92h-24.96v-32.93h24.15V645.78z"/>
	<path class="st1" d="M474.17,640.8c1.21,0.52,2.24,1.29,3.08,2.3c0.7,0.83,1.25,1.76,1.66,2.77s0.61,2.17,0.61,3.46
		c0,1.56-0.4,3.1-1.18,4.61c-0.79,1.51-2.09,2.58-3.91,3.21c1.52,0.61,2.6,1.48,3.23,2.6s0.95,2.84,0.95,5.15v2.21
		c0,1.5,0.06,2.53,0.18,3.06c0.18,0.85,0.6,1.47,1.27,1.88v0.83h-7.6c-0.21-0.73-0.36-1.32-0.45-1.76
		c-0.18-0.92-0.28-1.87-0.29-2.84l-0.04-3.06c-0.03-2.1-0.39-3.5-1.09-4.2c-0.7-0.7-2-1.05-3.92-1.05h-6.72v12.91h-6.73v-32.93
		h15.75C471.23,640,472.96,640.28,474.17,640.8z M459.95,645.67v8.85h7.41c1.47,0,2.57-0.18,3.31-0.54c1.3-0.63,1.95-1.86,1.95-3.71
		c0-2-0.63-3.34-1.89-4.02c-0.71-0.39-1.77-0.58-3.18-0.58H459.95z"/>
	<path class="st1" d="M497.25,662.72c0.21,1.5,0.63,2.63,1.25,3.37c1.14,1.36,3.09,2.03,5.86,2.03c1.66,0,3-0.18,4.04-0.54
		c1.96-0.69,2.94-1.96,2.94-3.82c0-1.09-0.48-1.93-1.44-2.52c-0.96-0.58-2.49-1.09-4.57-1.54l-3.57-0.78
		c-3.5-0.77-5.91-1.62-7.22-2.53c-2.22-1.52-3.33-3.89-3.33-7.13c0-2.95,1.09-5.4,3.26-7.35s5.36-2.93,9.57-2.93
		c3.51,0,6.51,0.92,8.99,2.76c2.48,1.84,3.78,4.51,3.9,8.01h-6.61c-0.12-1.98-1.01-3.39-2.66-4.22c-1.1-0.55-2.47-0.83-4.1-0.83
		c-1.82,0-3.27,0.36-4.35,1.07s-1.63,1.71-1.63,2.99c0,1.18,0.53,2.06,1.6,2.64c0.69,0.39,2.15,0.84,4.38,1.36l5.78,1.36
		c2.53,0.6,4.43,1.39,5.7,2.39c1.96,1.55,2.94,3.79,2.94,6.72c0,3.01-1.16,5.51-3.49,7.5s-5.61,2.98-9.86,2.98
		c-4.34,0-7.75-0.98-10.23-2.94c-2.48-1.96-3.73-4.65-3.73-8.08H497.25z"/>
	<path class="st1" d="M554.35,669.96c-2.49,2.56-6.08,3.84-10.79,3.84s-8.3-1.28-10.79-3.84c-3.34-3.14-5-7.67-5-13.58
		c0-6.03,1.67-10.56,5-13.58c2.49-2.56,6.08-3.84,10.79-3.84s8.3,1.28,10.79,3.84c3.32,3.02,4.98,7.55,4.98,13.58
		C559.33,662.29,557.67,666.82,554.35,669.96z M550.05,664.95c1.6-2.01,2.4-4.87,2.4-8.58c0-3.69-0.8-6.55-2.4-8.57
		c-1.6-2.02-3.76-3.03-6.49-3.03s-4.9,1-6.52,3.02c-1.62,2.01-2.44,4.87-2.44,8.58c0,3.71,0.81,6.57,2.44,8.58
		c1.62,2.01,3.8,3.02,6.52,3.02S548.45,666.96,550.05,664.95z"/>
	<path class="st1" d="M570.65,639.95h7.21l13.07,22.96v-22.96h6.41v32.93h-6.88l-13.41-23.37v23.37h-6.41V639.95z"/>
	<path class="st1" d="M619.4,639.95h7.79l11.65,32.93h-7.46l-2.17-6.77h-12.13l-2.23,6.77h-7.2L619.4,639.95z M618.94,660.44h8.43
		l-4.16-12.96L618.94,660.44z"/>
	<path class="st1" d="M649.2,639.95h6.88v27.01h16.44v5.92H649.2V639.95z"/>
	<path class="st1" d="M706.38,662.72c0.21,1.5,0.63,2.63,1.25,3.37c1.14,1.36,3.09,2.03,5.86,2.03c1.66,0,3-0.18,4.04-0.54
		c1.96-0.69,2.94-1.96,2.94-3.82c0-1.09-0.48-1.93-1.44-2.52c-0.96-0.58-2.49-1.09-4.57-1.54l-3.57-0.78
		c-3.5-0.77-5.91-1.62-7.22-2.53c-2.22-1.52-3.33-3.89-3.33-7.13c0-2.95,1.08-5.4,3.26-7.35c2.17-1.95,5.36-2.93,9.57-2.93
		c3.51,0,6.51,0.92,8.99,2.76c2.48,1.84,3.78,4.51,3.9,8.01h-6.61c-0.12-1.98-1.01-3.39-2.66-4.22c-1.1-0.55-2.47-0.83-4.1-0.83
		c-1.82,0-3.27,0.36-4.35,1.07c-1.08,0.71-1.63,1.71-1.63,2.99c0,1.18,0.54,2.06,1.6,2.64c0.69,0.39,2.15,0.84,4.38,1.36l5.78,1.36
		c2.53,0.6,4.43,1.39,5.7,2.39c1.96,1.55,2.95,3.79,2.95,6.72c0,3.01-1.16,5.51-3.49,7.5s-5.61,2.98-9.86,2.98
		c-4.34,0-7.75-0.98-10.23-2.94s-3.73-4.65-3.73-8.08H706.38z"/>
	<path class="st1" d="M762.04,639.95v5.83h-9.85v27.1h-6.93v-27.1h-9.9v-5.83H762.04z"/>
	<path class="st1" d="M796.79,669.96c-2.49,2.56-6.08,3.84-10.79,3.84s-8.3-1.28-10.79-3.84c-3.34-3.14-5-7.67-5-13.58
		c0-6.03,1.67-10.56,5-13.58c2.49-2.56,6.08-3.84,10.79-3.84s8.3,1.28,10.79,3.84c3.32,3.02,4.98,7.55,4.98,13.58
		C801.78,662.29,800.12,666.82,796.79,669.96z M792.49,664.95c1.6-2.01,2.4-4.87,2.4-8.58c0-3.69-0.8-6.55-2.4-8.57
		c-1.6-2.02-3.76-3.03-6.49-3.03s-4.9,1-6.52,3.02c-1.62,2.01-2.43,4.87-2.43,8.58c0,3.71,0.81,6.57,2.43,8.58
		c1.62,2.01,3.8,3.02,6.52,3.02S790.89,666.96,792.49,664.95z"/>
	<path class="st1" d="M834.31,640.8c1.21,0.52,2.24,1.29,3.08,2.3c0.7,0.83,1.25,1.76,1.66,2.77c0.41,1.01,0.61,2.17,0.61,3.46
		c0,1.56-0.4,3.1-1.18,4.61c-0.79,1.51-2.09,2.58-3.91,3.21c1.52,0.61,2.6,1.48,3.23,2.6s0.95,2.84,0.95,5.15v2.21
		c0,1.5,0.06,2.53,0.18,3.06c0.18,0.85,0.61,1.47,1.27,1.88v0.83h-7.6c-0.21-0.73-0.36-1.32-0.45-1.76
		c-0.18-0.92-0.28-1.87-0.29-2.84l-0.04-3.06c-0.03-2.1-0.39-3.5-1.09-4.2c-0.7-0.7-2-1.05-3.92-1.05h-6.72v12.91h-6.73v-32.93
		h15.75C831.37,640,833.1,640.28,834.31,640.8z M820.09,645.67v8.85h7.41c1.47,0,2.57-0.18,3.31-0.54c1.3-0.63,1.95-1.86,1.95-3.71
		c0-2-0.63-3.34-1.89-4.02c-0.71-0.39-1.77-0.58-3.18-0.58H820.09z"/>
	<path class="st1" d="M869.54,639.95h7.8l-11.01,20.58v12.35h-6.88v-12.35l-11.39-20.58h8.11L863,654.3L869.54,639.95z"/>
</g>
<g>
	<path class="st1" d="M540.22,557.58c0-0.82,0-1.65,0-2.47c0-31.06,0.02-62.13-0.02-93.19c0-1.78,0.24-3.28,1.71-4.46
		c0.87-0.7,1.39-1.76,1.51-2.84c0.82-6.92,5.57-10.91,10.89-14.28c7.31-4.63,15.11-8.36,23.17-11.56
		c8.52-3.38,17.25-6.05,26.19-8.04c6.72-1.49,13.61-1.9,20.44-2.57c12.43-1.21,24.49-3.79,36.2-8.17c3.62-1.35,6.21-2.01,6.21-2.01
		s1.22,1.95,2.68,6.12c8.21,23.43,16.3,46.91,24.43,70.37c1.15,3.33,3.51,11.8,3.51,11.8s-30.27,11.04-45.61,12.58
		c-9.67,0.97-19.38,1.56-28.96,3.27c-12.87,2.3-25.17,6.41-37.24,11.33c-10.27,4.19-20.41,8.64-29.63,14.88
		c-4.67,3.16-9.05,6.65-12.03,11.62C542.25,552.38,540.44,557.61,540.22,557.58z"/>
	<path class="st1" d="M535.62,556.52c-1.19-3.14-3.21-7.72-5.37-10.25c-3.55-4.15-7.89-7.24-12.44-10.11
		c-12.09-7.6-25.33-12.67-38.68-17.45c-7.12-2.55-14.38-4.57-21.78-6.11c-7.4-1.54-14.89-2.32-22.42-2.86
		c-10.47-0.74-20.82-2.11-30.98-4.92c-7.46-2.06-14.74-4.58-21.97-7.26c-1.59-0.59-3.19-0.73-3.19-0.73s0.62-2.1,1.14-3.61
		c9.33-27.5,18.66-54.99,27.99-82.49c0.53-1.55,1.41-3.43,1.41-3.43s1.29,0.82,2.87,1.42c9.42,3.6,18.95,6.83,29.01,8.12
		c7.31,0.93,14.65,1.68,21.98,2.48c13.4,1.46,25.97,5.83,38.35,10.89c7.87,3.21,15.44,7.01,22.38,11.94
		c4.04,2.87,7.24,6.48,8.27,11.6c0.37,1.83,1.11,3.5,2.72,4.67c1.23,0.89,0.84,2.29,0.84,3.51c0.02,29.98,0.03,59.96,0.01,89.93
		C535.74,552.81,535.62,553.05,535.62,556.52z"/>
	<g>
		<path class="st1" d="M705.28,528.76c0,0-21.83,4.34-32.01,5.52c-8.96,1.04-17.95,1.05-26.88,0.49
			c-11.53-0.73-22.95-0.36-34.33,1.44c-12.6,1.99-24.86,5.37-36.94,9.41c-1.31,0.5-5.48,1.89-5.48,1.89s7.98-1.4,7.98-1.4
			c9.23-1.64,18.52-2.85,27.87-3.62c15.04-1.24,30-0.66,44.79,2.41c13.64,2.83,27.39,3.8,41.26,3.08c4.85-0.25,16.04-1.8,16.04-1.8
			L705.28,528.76z"/>
		<path class="st1" d="M700.11,503.77c0,0-1.7,0.52-2.61,0.87c-4.61,1.79-9.25,3.55-13.96,5.06c-10.48,3.36-21.12,6.12-32.11,7.12
			c-12.01,1.09-24.08,1.65-35.86,4.58c-14.22,3.54-39,13.6-40.38,14.3c-3.47,1.39-9.72,4.16-9.72,4.16s10.57-2.96,11.33-3.18
			c14.92-4.29,29.96-7.99,45.48-9.5c7.54-0.74,15.06-0.85,22.61-0.47c5.11,0.26,10.23,0.69,15.33,0.55
			c5.52-0.15,11.03-0.78,16.53-1.38c8.93-0.98,17.73-2.71,26.41-5c0.68-0.18,1.81-0.45,1.81-0.45L700.11,503.77z"/>
		<path class="st1" d="M708.08,554.68c0,0-14.43,0.61-20.85,1.16c-11.51,0.98-22.82-0.54-33.97-2.69
			c-17.51-3.37-35.02-4.67-52.73-2.47c-5.98,0.74-12,1.13-17.91,2.43c-0.87,0.01-7.58,1.52-9.52,2.03c1.8-0.02,6.53-0.45,6.53-0.45
			c0.66-0.02,1.33-0.05,1.99-0.07c9.57,0,28.96,0.52,28.96,0.52c1.33,0.18,2.41-0.06,3.74,0.01c10.77,0.55,21.28,2.63,31.57,5.73
			c12.43,3.75,24.73,7.95,37.77,9.24c7.76,0.77,25.34,1.19,25.34,1.19L708.08,554.68z"/>
	</g>
	<g>
		<path class="st1" d="M371.39,529.45c0,0,21.83,4.34,32.01,5.52c8.96,1.04,17.95,1.05,26.88,0.49c11.53-0.73,22.95-0.36,34.33,1.44
			c12.6,1.99,24.86,5.37,36.94,9.41c1.31,0.5,5.48,1.89,5.48,1.89s-7.98-1.4-7.98-1.4c-9.23-1.64-18.52-2.85-27.87-3.62
			c-15.04-1.24-30-0.66-44.79,2.41c-13.64,2.83-27.39,3.8-41.26,3.08c-4.85-0.25-16.04-1.8-16.04-1.8L371.39,529.45z"/>
		<path class="st1" d="M376.56,504.47c0,0,1.7,0.52,2.61,0.87c4.61,1.79,9.25,3.55,13.96,5.06c10.48,3.36,21.12,6.12,32.11,7.12
			c12.01,1.09,24.08,1.65,35.86,4.58c14.22,3.54,39,13.6,40.38,14.3c3.47,1.39,9.72,4.16,9.72,4.16s-10.57-2.96-11.33-3.18
			c-14.92-4.29-29.96-7.99-45.48-9.5c-7.54-0.74-15.06-0.85-22.61-0.47c-5.11,0.26-10.23,0.69-15.33,0.55
			c-5.52-0.15-11.03-0.78-16.53-1.38c-8.93-0.98-17.73-2.71-26.41-5c-0.68-0.18-1.81-0.45-1.81-0.45L376.56,504.47z"/>
		<path class="st1" d="M368.59,555.37c0,0,14.43,0.61,20.85,1.16c11.51,0.98,22.82-0.54,33.97-2.69
			c17.51-3.37,35.02-4.67,52.73-2.47c5.98,0.74,12,1.13,17.91,2.43c0.87,0.01,7.58,1.52,9.52,2.03c-1.8-0.02-6.53-0.45-6.53-0.45
			c-0.66-0.02-1.33-0.05-1.99-0.07c-9.57,0-28.96,0.52-28.96,0.52c-1.33,0.18-2.41-0.06-3.74,0.01
			c-10.77,0.55-21.28,2.63-31.57,5.73c-12.43,3.75-24.73,7.95-37.77,9.24c-7.76,0.77-25.34,1.19-25.34,1.19L368.59,555.37z"/>
	</g>
</g>
</svg>
