<?xml version="1.0" encoding="utf-8"?>
<!-- Generator: Adobe Illustrator 25.2.3, SVG Export Plug-In . SVG Version: 6.00 Build 0)  -->
<svg version="1.1" id="Layer_1" xmlns="http://www.w3.org/2000/svg" xmlns:xlink="http://www.w3.org/1999/xlink" x="0px" y="0px"
     viewBox="0 0 500 175" xml:space="preserve">
<style type="text/css">
    .st0{fill:#F4C995;}
    .st1{fill:#FFFFFF;}
</style>
<g>
    <path class="st1" d="M250,150c0-0.82,0-1.65,0-2.47c0-31.06,0.02-62.13-0.02-93.19c0-1.78,0.24-3.28,1.71-4.46
        c0.87-0.7,1.39-1.76,1.51-2.84c0.82-6.92,5.57-10.91,10.89-14.28c7.31-4.63,15.11-8.36,23.17-11.56
        c8.52-3.38,17.25-6.05,26.19-8.04c6.72-1.49,13.61-1.9,20.44-2.57c12.43-1.21,24.49-3.79,36.2-8.17c3.62-1.35,6.21-2.01,6.21-2.01
        s1.22,1.95,2.68,6.12c8.21,23.43,16.3,46.91,24.43,70.37c1.15,3.33,3.51,11.8,3.51,11.8s-30.27,11.04-45.61,12.58
        c-9.67,0.97-19.38,1.56-28.96,3.27c-12.87,2.3-25.17,6.41-37.24,11.33c-10.27,4.19-20.41,8.64-29.63,14.88
        c-4.67,3.16-9.05,6.65-12.03,11.62C252.25,144.38,250.44,149.61,250,149.58z"/>
    <path class="st1" d="M245.62,148.52c-1.19-3.14-3.21-7.72-5.37-10.25c-3.55-4.15-7.89-7.24-12.44-10.11
        c-12.09-7.6-25.33-12.67-38.68-17.45c-7.12-2.55-14.38-4.57-21.78-6.11c-7.4-1.54-14.89-2.32-22.42-2.86
        c-10.47-0.74-20.82-2.11-30.98-4.92c-7.46-2.06-14.74-4.58-21.97-7.26c-1.59-0.59-3.19-0.73-3.19-0.73s0.62-2.1,1.14-3.61
        c9.33-27.5,18.66-54.99,27.99-82.49c0.53-1.55,1.41-3.43,1.41-3.43s1.29,0.82,2.87,1.42c9.42,3.6,18.95,6.83,29.01,8.12
        c7.31,0.93,14.65,1.68,21.98,2.48c13.4,1.46,25.97,5.83,38.35,10.89c7.87,3.21,15.44,7.01,22.38,11.94
        c4.04,2.87,7.24,6.48,8.27,11.6c0.37,1.83,1.11,3.5,2.72,4.67c1.23,0.89,0.84,2.29,0.84,3.51c0.02,29.98,0.03,59.96,0.01,89.93
        C245.74,144.81,245.62,145.05,245.62,148.52z"/>
    <g>
        <path class="st1" d="M415.28,120.76c0,0-21.83,4.34-32.01,5.52c-8.96,1.04-17.95,1.05-26.88,0.49
            c-11.53-0.73-22.95-0.36-34.33,1.44c-12.6,1.99-24.86,5.37-36.94,9.41c-1.31,0.5-5.48,1.89-5.48,1.89s7.98-1.4,7.98-1.4
            c9.23-1.64,18.52-2.85,27.87-3.62c15.04-1.24,30-0.66,44.79,2.41c13.64,2.83,27.39,3.8,41.26,3.08c4.85-0.25,16.04-1.8,16.04-1.8
            L415.28,120.76z"/>
        <path class="st1" d="M410.11,95.77c0,0-1.7,0.52-2.61,0.87c-4.61,1.79-9.25,3.55-13.96,5.06c-10.48,3.36-21.12,6.12-32.11,7.12
            c-12.01,1.09-24.08,1.65-35.86,4.58c-14.22,3.54-39,13.6-40.38,14.3c-3.47,1.39-9.72,4.16-9.72,4.16s10.57-2.96,11.33-3.18
            c14.92-4.29,29.96-7.99,45.48-9.5c7.54-0.74,15.06-0.85,22.61-0.47c5.11,0.26,10.23,0.69,15.33,0.55
            c5.52-0.15,11.03-0.78,16.53-1.38c8.93-0.98,17.73-2.71,26.41-5c0.68-0.18,1.81-0.45,1.81-0.45L410.11,95.77z"/>
        <path class="st1" d="M418.08,146.68c0,0-14.43,0.61-20.85,1.16c-11.51,0.98-22.82-0.54-33.97-2.69
            c-17.51-3.37-35.02-4.67-52.73-2.47c-5.98,0.74-12,1.13-17.91,2.43c-0.87,0.01-7.58,1.52-9.52,2.03c1.8-0.02,6.53-0.45,6.53-0.45
            c0.66-0.02,1.33-0.05,1.99-0.07c9.57,0,28.96,0.52,28.96,0.52c1.33,0.18,2.41-0.06,3.74,0.01c10.77,0.55,21.28,2.63,31.57,5.73
            c12.43,3.75,24.73,7.95,37.77,9.24c7.76,0.77,25.34,1.19,25.34,1.19L418.08,146.68z"/>
    </g>
    <g>
        <path class="st1" d="M81.39,121.45c0,0,21.83,4.34,32.01,5.52c8.96,1.04,17.95,1.05,26.88,0.49c11.53-0.73,22.95-0.36,34.33,1.44
            c12.6,1.99,24.86,5.37,36.94,9.41c1.31,0.5,5.48,1.89,5.48,1.89s-7.98-1.4-7.98-1.4c-9.23-1.64-18.52-2.85-27.87-3.62
            c-15.04-1.24-30-0.66-44.79,2.41c-13.64,2.83-27.39,3.8-41.26,3.08c-4.85-0.25-16.04-1.8-16.04-1.8L81.39,121.45z"/>
        <path class="st1" d="M86.56,96.47c0,0,1.7,0.52,2.61,0.87c4.61,1.79,9.25,3.55,13.96,5.06c10.48,3.36,21.12,6.12,32.11,7.12
            c12.01,1.09,24.08,1.65,35.86,4.58c14.22,3.54,39,13.6,40.38,14.3c3.47,1.39,9.72,4.16,9.72,4.16s-10.57-2.96-11.33-3.18
            c-14.92-4.29-29.96-7.99-45.48-9.5c-7.54-0.74-15.06-0.85-22.61-0.47c-5.11,0.26-10.23,0.69-15.33,0.55
            c-5.52-0.15-11.03-0.78-16.53-1.38c-8.93-0.98-17.73-2.71-26.41-5c-0.68-0.18-1.81-0.45-1.81-0.45L86.56,96.47z"/>
        <path class="st1" d="M78.59,147.37c0,0,14.43,0.61,20.85,1.16c11.51,0.98,22.82-0.54,33.97-2.69
            c17.51-3.37,35.02-4.67,52.73-2.47c5.98,0.74,12,1.13,17.91,2.43c0.87,0.01,7.58,1.52,9.52,2.03c-1.8-0.02-6.53-0.45-6.53-0.45
            c-0.66-0.02-1.33-0.05-1.99-0.07c-9.57,0-28.96,0.52-28.96,0.52c-1.33,0.18-2.41-0.06-3.74,0.01
            c-10.77,0.55-21.28,2.63-31.57,5.73c-12.43,3.75-24.73,7.95-37.77,9.24c-7.76,0.77-25.34,1.19-25.34,1.19L78.59,147.37z"/>
    </g>
</g>
</svg>

