<?xml version="1.0" encoding="utf-8"?>
<!-- Generator: Adobe Illustrator 25.0.1, SVG Export Plug-In . SVG Version: 6.00 Build 0)  -->
<svg version="1.0" id="katman_1" xmlns="http://www.w3.org/2000/svg" xmlns:xlink="http://www.w3.org/1999/xlink" x="0px" y="0px"
     viewBox="143.5 212.7 512.5 174.6" preserveAspectRatio="xMinYMin meet" style="enable-background:new 0 0 800 600;" xml:space="preserve">
<style type="text/css">
    .st0{fill:#FFFFFF;}
</style>
<path d="M656,212.7H143.5v174.6H656V212.7z"/>
<path class="st0" d="M184.7,254.1h10.6l19.1,24v-24H225v40.6h-11l-18.8-24.2v24.2h-10.6V254.1z M261,282.9c2.2-2.2,3.3-5.1,3.3-8.7
    c0-3.3-1.1-6-3.4-8.3c-2.2-2.2-5.1-3.3-8.4-3.3c-3.4,0-6.2,1.2-8.4,3.4c-2.2,2.2-3.3,5.1-3.3,8.5c0,3.4,1.1,6.2,3.3,8.5
    c2.1,2.2,5,3.3,8.4,3.3C255.9,286.3,258.8,285.2,261,282.9z M236.4,290c-4.3-4.1-6.3-9.3-6.3-15.6c0-6.4,2.2-11.6,6.6-15.7
    c4.3-4,9.6-6,15.9-6c6.3,0,11.7,2.1,16,6.2c4.3,4.1,6.4,9.2,6.4,15.1c0,6.5-2.2,11.8-6.6,16.1c-4.3,4.1-9.6,6.1-16,6.1
    C246,296.2,240.6,294.1,236.4,290 M294.7,272.4c3.7,0,5.5-1.7,5.5-5.1c0-3.4-1.8-5.1-5.4-5.1h-3.3v10.2H294.7z M280.9,254.1h16.2
    c4.1,0,7.3,1.1,9.9,3.3c2.7,2.3,4.1,5.5,4.1,9.4c0,5.6-2.3,9.3-7,11.1l10.9,16.8h-12.7l-8.6-14.3h-2.1v14.3h-10.6V254.1z
    M324.9,264.7h-8.6v-10.6h27.9v10.6h-8.6v30h-10.6C324.9,294.7,324.9,264.7,324.9,264.7z M350.9,254.1h10.6v14.3h14.9v-14.3h10.6
    v40.6h-10.6V279h-14.9v15.7h-10.6V254.1z M408.9,272.4c3.7,0,5.5-1.7,5.5-5.1c0-3.4-1.8-5.1-5.4-5.1h-3.3v10.2H408.9L408.9,272.4z
    M395.1,254.1h16.2c4.1,0,7.3,1.1,9.9,3.3c2.7,2.3,4,5.5,4,9.4c0,5.6-2.3,9.3-7,11.1l10.9,16.8h-12.7l-8.6-14.3h-2.1v14.3h-10.6
    C395.1,294.7,395.1,254.1,395.1,254.1z M461.7,282.9c2.2-2.2,3.3-5.1,3.3-8.7c0-3.3-1.1-6-3.4-8.3c-2.2-2.2-5.1-3.3-8.4-3.3
    c-3.4,0-6.2,1.2-8.4,3.4c-2.2,2.2-3.3,5.1-3.3,8.5c0,3.4,1.1,6.2,3.3,8.5c2.1,2.2,5,3.3,8.4,3.3
    C456.6,286.3,459.4,285.2,461.7,282.9z M437.1,290c-4.3-4.1-6.3-9.3-6.3-15.6c0-6.4,2.2-11.6,6.6-15.7c4.3-4,9.6-6,15.9-6
    c6.3,0,11.7,2.1,16,6.2c4.3,4.1,6.4,9.2,6.4,15.1c0,6.5-2.2,11.8-6.6,16.1c-4.3,4.1-9.6,6.1-16,6.1
    C446.6,296.2,441.3,294.1,437.1,290 M496.5,272.8c4.2,0,6.3-1.8,6.3-5.5c0-3.5-2-5.2-6.2-5.2H493v10.6H496.5z M482.4,254.1h18.2
    c3.9,0,7.1,1.3,9.4,3.9c2.3,2.4,3.4,5.7,3.4,9.7c0,3.8-1.1,6.9-3.4,9.2c-2.2,2.4-5.3,3.6-9.1,3.6H493v14.1h-10.6L482.4,254.1
    L482.4,254.1z M236,341.1c-3.9-4.1-6-9.3-6-15.5c0-6.1,2-11.2,6-15.4c4.1-4.3,9.2-6.4,15.2-6.4c8.2,0,14.3,3.4,18.4,10.2l-8.5,4.7
    c-0.2-0.5-0.6-1.1-1.3-1.8c-2.3-2.5-5.2-3.8-8.7-3.8c-3.5,0-6.1,1.4-7.9,4.1c-1.5,2.3-2.2,5.2-2.2,9c0,3.8,0.9,6.7,2.7,8.8
    c1.9,2.4,4.7,3.6,8.4,3.6c2.1,0,4.1-0.7,5.9-2c1.9-1.4,3-3.1,3.2-5.2h-9.4v-8.5h20.5v2.2c0,6.9-1.7,12.3-5.2,16.2
    c-3.6,4.1-8.8,6.1-15.7,6.1C245.1,347.3,240,345.3,236,341.1L236,341.1z M292.4,323.6c3.7,0,5.5-1.7,5.5-5.1c0-3.4-1.8-5.1-5.4-5.1
    h-3.3v10.2H292.4L292.4,323.6z M278.6,305.3h16.2c4,0,7.3,1.1,9.9,3.3c2.7,2.3,4.1,5.5,4.1,9.4c0,5.6-2.3,9.3-7,11.1l10.9,16.8
    h-12.7l-8.6-14.3h-2.1v14.3h-10.6C278.6,345.9,278.6,305.3,278.6,305.3z M321.7,343.8c-3.6-2.7-5.5-6.4-5.5-11.1v-27.4h10.7v25.2
    c0,4.9,2.4,7.3,7.4,7.3c2.2,0,4.1-0.6,5.3-1.7c1.3-1.2,2-2.9,2-5v-25.7h10.6v26.3c0,5.1-1.8,9.1-5.3,12c-3.2,2.5-7.6,3.8-12.9,3.8
    C329.1,347.3,325,346.2,321.7,343.8z M383.9,326.3l13.5-21H408v40.6h-10.6v-23.8h0l-10.6,16.6h-5.6l-10.7-16.6h0v23.8h-10.7v-40.6
    h10.7L383.9,326.3L383.9,326.3z M440.9,326.3l13.5-21H465v40.6h-10.6v-23.8h0l-10.6,16.6h-5.6l-10.7-16.6h0l0,23.8h-10.6v-40.6h10.7
    L440.9,326.3L440.9,326.3z M495.8,330.2l-4.3-12.4l-4.4,12.4H495.8z M485.6,305.3h12.2l15.1,40.6h-11.5l-2.8-7.5h-14.1l-2.7,7.5
    h-11.4L485.6,305.3L485.6,305.3z M518.7,305.3h10.7l18.8,24v-24.1h10.6v40.6h-10.7l-18.8-24.2v24.2h-10.6V305.3z M518.7,254.1v10.6
    h85.5v81.1h10.6v-91.7H518.7z"/>
</svg>
