<?xml version="1.0" encoding="utf-8"?>
<!-- Generator: Adobe Illustrator 28.0.0, SVG Export Plug-In . SVG Version: 6.00 Build 0)  -->
<svg version="1.1" id="Layer_1" xmlns="http://www.w3.org/2000/svg" xmlns:xlink="http://www.w3.org/1999/xlink" x="0px" y="0px"
	 viewBox="0 0 1024 768" style="enable-background:new 0 0 1024 768;" xml:space="preserve">
<style type="text/css">
	.st0{fill:none;}
	.st1{fill:none;stroke:#1C1B19;stroke-width:2;stroke-miterlimit:10;}
	.st2{fill:url(#SVGID_1_);}
	.st3{fill:#FFFFFF;}
	.st4{fill:#02040F;}
	.st5{fill:#71809E;}
	.st6{fill:#6C7B9B;}
	.st7{fill:#2A4B79;}
	.st8{fill:#B2B2B2;}
	.st9{fill:none;stroke:#FFFFFF;stroke-width:2;stroke-miterlimit:10;}
	.st10{fill:none;stroke:#9B9B9B;stroke-miterlimit:10;}
</style>
<pattern  x="12" y="884" width="50.8" height="28.7" patternUnits="userSpaceOnUse" id="New_Pattern_4" viewBox="17.7 -58.3 50.8 28.7" style="overflow:visible;">
	<g>
		<rect x="17.7" y="-58.3" class="st0" width="50.8" height="28.7"/>
		<polygon class="st1" points="76.8,-44 60.3,-44 52,-29.7 60.3,-15.3 76.8,-15.3 85.1,-29.7 		"/>
		<polygon class="st1" points="51.4,-29.7 34.8,-29.7 26.6,-15.3 34.8,-1 51.4,-1 59.7,-15.3 		"/>
		<polygon class="st1" points="26,-44 9.4,-44 1.2,-29.7 9.4,-15.3 26,-15.3 34.3,-29.7 		"/>
		<polygon class="st1" points="76.8,-72.7 60.3,-72.7 52,-58.3 60.3,-44 76.8,-44 85.1,-58.3 		"/>
		<polygon class="st1" points="51.4,-58.3 34.8,-58.3 26.6,-44 34.8,-29.7 51.4,-29.7 59.7,-44 		"/>
		<polygon class="st1" points="26,-72.7 9.4,-72.7 1.2,-58.3 9.4,-44 26,-44 34.3,-58.3 		"/>
		<polygon class="st1" points="51.4,-87 34.8,-87 26.6,-72.7 34.8,-58.3 51.4,-58.3 59.7,-72.7 		"/>
	</g>
</pattern>
<rect x="0" width="1024" height="768"/>
<pattern  id="SVGID_1_" xlink:href="#New_Pattern_4" patternTransform="matrix(1 0 0 1 16.1755 -0.3023)">
</pattern>
<rect x="0" class="st2" width="1024" height="768"/>
<rect x="0" width="1024" height="65.1"/>
<g>
	<rect x="6.9" y="63.1" class="st3" width="1010.2" height="2"/>
</g>
<rect x="7" y="8.1" class="st4" width="59.9" height="41"/>
<path class="st3" d="M15.2,49h43.5c-0.5-1.8-1.5-3-4-2.8c-0.3,0-0.6-0.3-0.6-0.6c0.3-3.1-1.3-4-4.1-3.5c-0.4,0.1-0.9-0.2-1-0.6
	c-1-2.8-4-3-5.2,0c-0.2,0.6-1,0.7-1.5,0.2c-1.4-1.7-3.2-2.6-5.4-2.8c-2.6-0.1-4.2,1-5.2,2.8c-0.3,0.5-0.9,0.4-1.1-0.1
	c-0.3-0.7-0.6-1.3-1.1-1.8c-1.3-1.4-3.7-1.1-4.6,0.7c-0.1,0.2-0.2,0.3-0.2,0.5c-0.2,0.7-1,1.1-1.7,0.9c-0.8-0.2-1.7-0.2-2.5,0.4
	c-1,0.6-1.4,1.4-1.4,2.4c0,0.7-0.3,1.3-1,1.6C17,46.8,16,47.8,15.2,49z"/>
<path class="st5" d="M7,49h2.9v-1c0-0.9,0.5-1.7,1.3-2.2c0.5-0.3,1.1-0.5,1.7-0.6c0.5-0.1,0.9-0.6,0.9-1.1v0c0-0.6-0.5-1.2-1.2-1.2
	h-0.4l1.5-1.5c0.2-0.2,0.4-0.6,0.4-0.9l0,0c0-0.9-0.9-1.6-1.8-1.3c-1,0.4-1.9,0.8-2.8,1.3C8,41.5,7,43.2,7,45L7,49z"/>
<path class="st5" d="M67,49h-2.9v-1c0-0.9-0.5-1.7-1.3-2.2c-0.5-0.3-1.1-0.5-1.7-0.6c-0.5-0.1-0.9-0.6-0.9-1.1v0
	c0-0.6,0.5-1.2,1.2-1.2h0.4l-1.5-1.5c-0.2-0.2-0.4-0.6-0.4-0.9l0,0c0-0.9,0.9-1.6,1.8-1.3c1,0.4,1.9,0.8,2.8,1.3
	C66,41.5,67,43.2,67,45L67,49z"/>
<g>
	<path class="st6" d="M62.9,38.1c-0.5,0-0.9-0.4-1-0.9C61,28.4,55.8,22,46,17.5c-0.5-0.2-0.7-0.8-0.5-1.3c0.2-0.5,0.8-0.7,1.3-0.5
		c10.3,4.7,16.1,11.9,17,21.4c0.1,0.5-0.3,1-0.9,1.1C62.9,38.1,62.9,38.1,62.9,38.1z"/>
</g>
<g>
	<g>
		<path class="st6" d="M11.3,38.1c0,0-0.1,0-0.1,0c-0.5-0.1-1-0.5-0.9-1.1c0.9-9.4,6.7-16.6,17-21.4c0.5-0.2,1.1,0,1.3,0.5
			c0.2,0.5,0,1.1-0.5,1.3c-9.8,4.5-15,10.9-15.9,19.7C12.3,37.7,11.8,38.1,11.3,38.1z"/>
	</g>
</g>
<path class="st3" d="M25.9,30.2L25.9,30.2c-1.1,0-2.1-0.9-2.1-2.1v0h-0.7v0c0,1.1-0.9,2.1-2.1,2.1h0v0.7h0c1.1,0,2.1,0.9,2.1,2.1v0
	h0.7v0c0-1.1,0.9-2.1,2.1-2.1h0V30.2z"/>
<path class="st3" d="M53.5,30.2L53.5,30.2c-1.1,0-2.1-0.9-2.1-2.1v0h-0.7v0c0,1.1-0.9,2.1-2.1,2.1h0v0.7h0c1.1,0,2.1,0.9,2.1,2.1v0
	h0.7v0c0-1.1,0.9-2.1,2.1-2.1l0,0V30.2z"/>
<path class="st3" d="M57.1,36.1L57.1,36.1c-0.6,0-1.1-0.5-1.1-1.1v0h-0.4v0c0,0.6-0.5,1.1-1.1,1.1h0v0.4h0c0.6,0,1.1,0.5,1.1,1.1v0
	h0.4v0c0-0.6,0.5-1.1,1.1-1.1l0,0V36.1z"/>
<path class="st3" d="M19.5,36.4L19.5,36.4c-0.6,0-1.1-0.5-1.1-1.1v0h-0.4v0c0,0.6-0.5,1.1-1.1,1.1h0v0.4h0c0.6,0,1.1,0.5,1.1,1.1v0
	h0.4v0c0-0.6,0.5-1.1,1.1-1.1h0V36.4z"/>
<path class="st3" d="M48.3,24L48.3,24c-0.6,0-1.1-0.5-1.1-1.1v0h-0.4v0c0,0.6-0.5,1.1-1.1,1.1h0v0.4h0c0.6,0,1.1,0.5,1.1,1.1v0h0.4
	v0c0-0.6,0.5-1.1,1.1-1.1l0,0V24z"/>
<path class="st3" d="M27.9,24.1L27.9,24.1c-0.4,0-0.8-0.4-0.8-0.8v0h-0.3v0c0,0.4-0.4,0.8-0.8,0.8h0v0.3h0c0.4,0,0.8,0.4,0.8,0.8v0
	h0.3v0c0-0.4,0.4-0.8,0.8-0.8l0,0V24.1z"/>
<path class="st3" d="M35,16h4c0.5-2.3-0.2-4.7-2-7C35.5,11,34.6,13.2,35,16z"/>
<rect x="34.9" y="18" class="st3" width="4.2" height="17.1"/>
<rect x="32.1" y="16" class="st3" width="2" height="10.1"/>
<rect x="40" y="16" class="st3" width="2" height="10.1"/>
<path class="st3" d="M34,27.1v10l-2.1,0c-0.1-1.5-1-2.4-2.4-2.9c-0.4-0.1-0.6-0.5-0.4-0.9C30.1,30.6,31.9,28.7,34,27.1z"/>
<path class="st3" d="M40,27.1v10l2.1,0c0.1-1.5,1-2.4,2.4-2.9c0.4-0.1,0.6-0.5,0.4-0.9C43.9,30.6,42.1,28.7,40,27.1z"/>
<path class="st7" d="M968,49.1h-98.3c-4.5,0-8.2-3.7-8.2-8.2V23.8c0-4.5,3.7-8.2,8.2-8.2H968c4.5,0,8.2,3.7,8.2,8.2v17.1
	C976.1,45.4,972.5,49.1,968,49.1z"/>
<g>
	<path class="st3" d="M84.1,38.3c0-1.3-0.6-2-2.1-2.6l-1.2-0.5c-3.3-1.5-5.1-3.2-5.1-6.2c0-3.3,2.6-5.3,6.9-5.3c2,0,3.9,0.5,5.3,1.4
		l-0.2,3.8H85l-0.6-4.1l2.3,0.7v1.3c-1.5-1-2.5-1.6-3.9-1.6c-1.4,0-2.6,1-2.6,2.3c0,1.4,0.8,2,2.3,2.8l1.3,0.6
		c3.4,1.6,4.8,3.1,4.8,5.8c0,3.2-2.4,5.5-7.2,5.5c-2,0-4.4-0.4-6-1.4l0.2-4.1h2.7l0.7,4.4l-2.2-0.6v-1.3c1.7,0.9,2.9,1.3,4.6,1.3
		C83.2,40.7,84.1,39.6,84.1,38.3z"/>
	<path class="st3" d="M91.6,34.5c0-1.5,0-2-0.1-3.1L90,31.2v-1.1l5.7-1.8l0.5,0.2l0.2,2.1l0.1,0.5v8.5l-0.1,0.4v1.8
		c0,1.7,0,3.6,0.1,6.2h-4.9c0.1-2.5,0.1-4.5,0.1-6.2V34.5z M97.9,46.5v1.4h-7.7v-1.4l2.5-0.5h3.1L97.9,46.5z M97.9,30.8
		c-1.5,0-2.7,1.7-3.3,2.4l-0.2-0.4c1.5-3,3.3-4.5,5.9-4.5c3,0,5.3,2.3,5.3,6.9c0,4.4-2.8,7-5.8,7c-2.6,0-4-1.5-5.1-4.3l0.2-0.5
		c1,1.4,1.7,2.3,3.1,2.3c1.5,0,2.5-1.4,2.5-4.5S99.4,30.8,97.9,30.8z"/>
	<path class="st3" d="M112.4,34.2c1.1-0.3,3.1-0.8,4.3-1.1v1.2c-1.3,0.3-2.7,0.7-3.5,1.1c-0.9,0.4-1.9,1.3-1.9,2.7
		c0,1.3,0.7,2,1.5,2c0.4,0,0.8-0.2,1.5-0.7l1.2-0.9l0.3,0.3l-1.2,1.3c-1.2,1.3-2.1,2.2-4.1,2.2c-2.1,0-3.5-1.3-3.5-3.5
		C107,36.8,108.1,35.4,112.4,34.2z M114.2,39.7v-6.9c0-2.3-0.4-3.1-2.1-3.1c-0.7,0-1.3,0.1-2.5,0.4l2-1.1l-0.1,1.8
		c0,2-1,2.8-2.1,2.8c-1,0-1.7-0.5-2-1.4c0.1-2.3,2.3-3.9,6.4-3.9c3.6,0,5,1.5,5,5.2v6.1c0,0.4,0.2,0.6,0.5,0.6
		c0.2,0,0.4-0.1,0.8-0.6l0.8,0.4c-0.6,1.6-1.7,2.2-3.5,2.2C115.5,42.2,114.5,41.3,114.2,39.7z"/>
	<path class="st3" d="M126.8,34.7c0,3,1.4,4.7,3.6,4.7c1.2,0,2.1-0.6,2.9-1.4l1,1c-1.1,2.2-3.1,3.2-5.7,3.2c-3.7,0-6.9-2.3-6.9-6.9
		c0-4.5,3.3-7,7.6-7c3,0,5,1.8,5.1,4c-0.3,1-0.9,1.5-2,1.5c-1.1,0-2.1-0.7-2.2-2.9l-0.1-1.8l2.1,1.1c-0.8-0.4-1.5-0.6-2.4-0.6
		C128.5,29.7,126.8,31,126.8,34.7z"/>
	<path class="st3" d="M148.7,34.1c0,0.6,0,1-0.1,1.4h-10.7v-1.5h4.7c1.3,0,1.6-0.5,1.6-1.8c0-1.8-0.7-2.6-1.6-2.6
		c-1,0-1.8,1.2-1.8,5.1c0,3.3,1.6,4.7,3.5,4.7c1.4,0,2.4-0.6,3.2-1.3l1,1c-1.1,2.2-3.1,3.2-5.8,3.2c-4,0-6.9-2.6-6.9-7
		c0-4.6,3.6-7,7.1-7C146.8,28.3,148.7,30.8,148.7,34.1z"/>
	<path class="st3" d="M155.4,34.7c0,3,1.4,4.7,3.6,4.7c1.2,0,2.1-0.6,2.9-1.4l1,1c-1.1,2.2-3.1,3.2-5.7,3.2c-3.7,0-6.9-2.3-6.9-6.9
		c0-4.5,3.3-7,7.6-7c3,0,5,1.8,5.1,4c-0.3,1-0.9,1.5-2,1.5c-1.1,0-2.1-0.7-2.2-2.9l-0.1-1.8l2.1,1.1c-0.8-0.4-1.5-0.6-2.4-0.6
		C157.1,29.7,155.4,31,155.4,34.7z"/>
	<path class="st3" d="M166.1,36.1v-1.7c0-1.5,0-2-0.1-3l-1.5-0.2v-1.1l5.7-1.8l0.5,0.3l0.2,3.3v4.3c0,1.7,0,4.5,0.1,5.7h-5
		C166.1,40.6,166.1,37.8,166.1,36.1z M164.7,40.5l2.5-0.5h3.4l2.5,0.5v1.3h-8.4V40.5z M168.7,32.6h2.1l-0.3,0.9
		c0.4-3.5,2.3-5.2,3.9-5.2c1.3,0,2.2,0.7,2.4,2.2c-0.1,1.4-0.9,2.3-2,2.3c-0.9,0-1.5-0.4-2.2-1.4l-0.8-1.1l1,0.5
		c-0.8,0.7-1.8,2.1-2.1,3.6l-2.2-0.2V32.6z"/>
	<path class="st3" d="M182.7,34.2c1.1-0.3,3.1-0.8,4.3-1.1v1.2c-1.3,0.3-2.7,0.7-3.5,1.1c-0.9,0.4-1.9,1.3-1.9,2.7
		c0,1.3,0.7,2,1.5,2c0.4,0,0.8-0.2,1.5-0.7l1.2-0.9l0.3,0.3l-1.2,1.3c-1.2,1.3-2.1,2.2-4.1,2.2c-2.1,0-3.5-1.3-3.5-3.5
		C177.3,36.8,178.4,35.4,182.7,34.2z M184.5,39.7v-6.9c0-2.3-0.4-3.1-2.1-3.1c-0.7,0-1.3,0.1-2.5,0.4l2-1.1l-0.1,1.8
		c0,2-1,2.8-2.1,2.8c-1,0-1.7-0.5-2-1.4c0.1-2.3,2.3-3.9,6.4-3.9c3.6,0,5,1.5,5,5.2v6.1c0,0.4,0.2,0.6,0.5,0.6
		c0.2,0,0.4-0.1,0.8-0.6l0.8,0.4c-0.6,1.6-1.7,2.2-3.5,2.2C185.8,42.2,184.8,41.3,184.5,39.7z"/>
	<path class="st3" d="M193.5,30.7h-1.6V29l3.2-0.4l-1.6,0.9c0.3-3.1,1.3-4.6,2.4-5.6c1.5-1.3,3.1-1.8,4.7-1.8c1.6,0,3,0.5,3.4,2.1
		c0,1.1-0.7,1.9-2,1.9c-1,0-1.8-0.6-2.5-2.2l-0.5-0.9l2.7-0.6l0.2,0.8c-0.2-0.2-0.6-0.4-0.9-0.4c-1,0-1.7,0.8-2,1.3
		c-0.8,1.3-0.9,3.2-0.7,6.1v6c0,1.9,0,3.8,0.1,5.7h-5c0.1-1.9,0.1-3.8,0.1-5.7V30.7z M200.3,40.5v1.3h-8.2v-1.3l2.6-0.5h3.3
		L200.3,40.5z M200.9,28.7v2h-5v-2H200.9z M202.1,35.5v-4.8h-1.7v-2h3.2l-1.2,1l1.9-4.8h2.5l0,4.9V38c0,1.2,0.6,1.8,1.3,1.8
		c0.5,0,0.9-0.2,1.4-0.6l0.7,0.6c-0.7,1.5-2,2.3-4.1,2.3c-2.6,0-4.1-1.1-4.1-3.9C202,37.3,202.1,36.6,202.1,35.5z M204.5,28.7h5v2
		h-5V28.7z"/>
	<path class="st3" d="M217.2,25.7v-1.5h4.5v1.9h-0.5L217.2,25.7z M221.7,39.9v1.9h-4.5v-1.5l4-0.4H221.7z M219.1,32.5
		c0-2.8,0-5.6-0.1-8.4h5.2c-0.1,2.7-0.1,5.5-0.1,8.4v0.9c0,2.8,0,5.6,0.1,8.4h-5.2c0.1-2.7,0.1-5.5,0.1-8.4V32.5z M228,24.2l2.1,1.6
		h-8.5v-1.6h9.4l0.2,4.6h-2.4L228,24.2z M227.6,33.5h-5.9v-1.7h5.9V33.5z M231.8,37.2l-0.2,4.6h-9.9v-1.5h9l-2.1,1.5l0.8-4.6H231.8z
		 M226.7,32.4l0.4-2.5h1.6v5.7h-1.6l-0.4-2.7V32.4z"/>
	<path class="st3" d="M234.7,41.8c0.1-1.2,0.1-4,0.1-5.7v-1.6c0-1.5,0-2-0.1-3.1l-1.5-0.2v-1.1l5.7-1.8l0.5,0.3l0.2,3v4.6
		c0,1.7,0,4.5,0.1,5.7H234.7z M240.7,40.5v1.3h-7.3v-1.3l2.4-0.5h2.4L240.7,40.5z M247.7,32.8v3.3c0,1.7,0,4.5,0.1,5.7h-5
		c0.1-1.2,0.1-3.9,0.1-5.7v-3c0-1.5-0.4-2.1-1.3-2.1c-0.9,0-2.2,0.8-3.2,2h-1v-1.9h1.9l-1,0.8c2-3,3.4-3.7,5.4-3.7
		C246,28.3,247.7,29.8,247.7,32.8z M246.3,39.9l2.6,0.5v1.3h-7.3v-1.3l2.3-0.5H246.3z"/>
	<path class="st3" d="M260.3,44.3c0-0.7-0.5-1.4-1.8-1.4h-2.8c-1.4,0-2.5-0.1-3.3-0.5v-0.2c-1.4-0.5-1.9-1.4-1.9-2.3
		c0-1.5,1.1-2.8,2.7-4.1l0.7,0.5c-0.3,0.5-0.5,0.9-0.5,1.5c0,0.6,0.4,1,1.6,1h3.1c4.4,0,5.9,1.7,5.9,4.1c0,2.9-2.9,5.1-8.2,5.1
		c-4.6,0-5.8-1.5-5.8-3.1c0-1.3,1-2.4,2.9-3l0.4,0.3c-0.5,0.8-0.6,1.1-0.6,1.9c0,1.6,1.1,2.2,3.6,2.2
		C259,46.2,260.3,45.4,260.3,44.3z M256.4,28.3c4.1,0,5.8,1.9,5.8,4.4c0,2.3-1.7,4.3-5.8,4.3c-4.1,0-5.8-1.9-5.8-4.3
		C250.6,30.2,252.3,28.3,256.4,28.3z M254.8,32.6c0,1.9,0.4,3,1.6,3c1.2,0,1.7-1.1,1.7-3c0-1.9-0.6-3-1.6-3
		C255.4,29.6,254.8,30.7,254.8,32.6z M263.9,28.2l0.4,0.3v2.2h-3.8v-0.9L263.9,28.2z"/>
	<path class="st3" d="M267,41.8c0.1-1.2,0.1-4,0.1-5.7v-1.3c0-1.5,0-2.3-0.1-3.4l-1.5-0.2v-1.1l6-1.8l0.5,0.3l-0.1,4v3.6
		c0,1.7,0,4.5,0.1,5.7H267z M273.1,40.5v1.3h-7.4v-1.3l2.4-0.5h2.4L273.1,40.5z M267,24.3c0-1.3,1.1-2.3,2.4-2.3
		c1.3,0,2.4,0.9,2.4,2.3c0,1.3-1.1,2.3-2.4,2.3C268,26.5,267,25.6,267,24.3z"/>
	<path class="st3" d="M275.9,41.8c0.1-1.2,0.1-4,0.1-5.7v-1.6c0-1.5,0-2-0.1-3.1l-1.5-0.2v-1.1l5.7-1.8l0.5,0.3l0.2,3v4.6
		c0,1.7,0,4.5,0.1,5.7H275.9z M281.9,40.5v1.3h-7.3v-1.3l2.4-0.5h2.4L281.9,40.5z M288.9,32.8v3.3c0,1.7,0,4.5,0.1,5.7h-5
		c0.1-1.2,0.1-3.9,0.1-5.7v-3c0-1.5-0.4-2.1-1.3-2.1c-0.9,0-2.2,0.8-3.2,2h-1v-1.9h1.9l-1,0.8c2-3,3.4-3.7,5.4-3.7
		C287.2,28.3,288.9,29.8,288.9,32.8z M287.5,39.9l2.6,0.5v1.3h-7.3v-1.3l2.3-0.5H287.5z"/>
	<path class="st3" d="M304.5,34.1c0,0.6,0,1-0.1,1.4h-10.7v-1.5h4.7c1.3,0,1.6-0.5,1.6-1.8c0-1.8-0.7-2.6-1.6-2.6
		c-1,0-1.8,1.2-1.8,5.1c0,3.3,1.6,4.7,3.5,4.7c1.4,0,2.4-0.6,3.2-1.3l1,1c-1.1,2.2-3.1,3.2-5.8,3.2c-4,0-6.9-2.6-6.9-7
		c0-4.6,3.6-7,7.1-7C302.5,28.3,304.5,30.8,304.5,34.1z"/>
	<path class="st3" d="M319,34.1c0,0.6,0,1-0.1,1.4h-10.7v-1.5h4.7c1.3,0,1.6-0.5,1.6-1.8c0-1.8-0.7-2.6-1.6-2.6
		c-1,0-1.8,1.2-1.8,5.1c0,3.3,1.6,4.7,3.5,4.7c1.4,0,2.4-0.6,3.2-1.3l1,1c-1.1,2.2-3.1,3.2-5.8,3.2c-4,0-6.9-2.6-6.9-7
		c0-4.6,3.6-7,7.1-7C317,28.3,319,30.8,319,34.1z"/>
	<path class="st3" d="M322,36.1v-1.7c0-1.5,0-2-0.1-3l-1.5-0.2v-1.1l5.7-1.8l0.5,0.3l0.2,3.3v4.3c0,1.7,0,4.5,0.1,5.7h-5
		C322,40.6,322,37.8,322,36.1z M320.6,40.5l2.5-0.5h3.4l2.5,0.5v1.3h-8.4V40.5z M324.6,32.6h2.1l-0.3,0.9c0.4-3.5,2.3-5.2,3.9-5.2
		c1.3,0,2.2,0.7,2.4,2.2c-0.1,1.4-0.9,2.3-2,2.3c-0.9,0-1.5-0.4-2.2-1.4l-0.8-1.1l1,0.5c-0.8,0.7-1.8,2.1-2.1,3.6l-2.2-0.2V32.6z"/>
	<path class="st3" d="M335.2,41.8c0.1-1.2,0.1-4,0.1-5.7v-1.3c0-1.5,0-2.3-0.1-3.4l-1.5-0.2v-1.1l6-1.8l0.5,0.3l-0.1,4v3.6
		c0,1.7,0,4.5,0.1,5.7H335.2z M341.3,40.5v1.3H334v-1.3l2.4-0.5h2.4L341.3,40.5z M335.2,24.3c0-1.3,1.1-2.3,2.4-2.3
		c1.3,0,2.4,0.9,2.4,2.3c0,1.3-1.1,2.3-2.4,2.3C336.3,26.5,335.2,25.6,335.2,24.3z"/>
	<path class="st3" d="M344.1,41.8c0.1-1.2,0.1-4,0.1-5.7v-1.6c0-1.5,0-2-0.1-3.1l-1.5-0.2v-1.1l5.7-1.8l0.5,0.3l0.2,3v4.6
		c0,1.7,0,4.5,0.1,5.7H344.1z M350.2,40.5v1.3h-7.3v-1.3l2.4-0.5h2.4L350.2,40.5z M357.1,32.8v3.3c0,1.7,0,4.5,0.1,5.7h-5
		c0.1-1.2,0.1-3.9,0.1-5.7v-3c0-1.5-0.4-2.1-1.3-2.1c-0.9,0-2.2,0.8-3.2,2h-1v-1.9h1.9l-1,0.8c2-3,3.4-3.7,5.4-3.7
		C355.5,28.3,357.1,29.8,357.1,32.8z M355.8,39.9l2.6,0.5v1.3H351v-1.3l2.3-0.5H355.8z"/>
	<path class="st3" d="M369.8,44.3c0-0.7-0.5-1.4-1.8-1.4h-2.8c-1.4,0-2.5-0.1-3.3-0.5v-0.2c-1.4-0.5-1.9-1.4-1.9-2.3
		c0-1.5,1.1-2.8,2.7-4.1l0.7,0.5c-0.3,0.5-0.5,0.9-0.5,1.5c0,0.6,0.4,1,1.6,1h3.1c4.4,0,5.9,1.7,5.9,4.1c0,2.9-2.9,5.1-8.2,5.1
		c-4.6,0-5.8-1.5-5.8-3.1c0-1.3,1-2.4,2.9-3l0.4,0.3c-0.5,0.8-0.6,1.1-0.6,1.9c0,1.6,1.1,2.2,3.6,2.2
		C368.5,46.2,369.8,45.4,369.8,44.3z M365.9,28.3c4.1,0,5.8,1.9,5.8,4.4c0,2.3-1.7,4.3-5.8,4.3c-4.1,0-5.8-1.9-5.8-4.3
		C360.1,30.2,361.8,28.3,365.9,28.3z M364.3,32.6c0,1.9,0.4,3,1.6,3c1.2,0,1.7-1.1,1.7-3c0-1.9-0.6-3-1.6-3
		C364.9,29.6,364.3,30.7,364.3,32.6z M373.4,28.2l0.4,0.3v2.2H370v-0.9L373.4,28.2z"/>
</g>
<g>
	<g>
		<path class="st3" d="M655.6,28.6l1.6-1.2l-0.5,3.8h-1.8l0.1-3.8h11.9l0,3.8h-1.8l-0.5-3.8l1.6,1.2H655.6z M661.3,39l3.1,0.3v1.1
			h-7.1v-1.1l3-0.3H661.3z M659,33.6c0-2.1,0-4.1-0.1-6.2h3.8c-0.1,2-0.1,4.1-0.1,6.2v0.7c0,2.1,0,4.2,0.1,6.2h-3.8
			c0.1-2,0.1-4.1,0.1-6.2V33.6z"/>
		<path class="st3" d="M678.1,38.6v1l-1.4,0.3l0.7-3.2h1.6l-0.1,3.1c-1,0.6-2.4,1-4.2,1c-3.8,0-7-2.1-7-6.9c0-4.9,3.4-6.9,7.2-6.9
			c1.6,0,2.8,0.4,3.9,1l0.1,3.2h-1.6l-0.7-3.2l1.4,0.3v1.1c-0.9-0.8-1.6-1.2-2.5-1.2c-2,0-3.8,1.7-3.8,5.8c0,4.1,1.8,5.7,3.7,5.7
			C676.3,39.7,677.2,39.3,678.1,38.6z"/>
		<path class="st3" d="M679.8,39.3l2.1-0.3h0.3l1.8,0.3v1.1h-4.2V39.3z M685.4,27.4h2.3l4.5,13.1h-3.8L685.1,30l0.8-1.2l-3.8,11.7
			h-1.2L685.4,27.4z M683.3,35.6h5.4l0.5,1.2H683L683.3,35.6z M686.5,39.4l2.2-0.3h1.6l2.6,0.3v1.1h-6.3V39.4z"/>
		<path class="st3" d="M693.9,39.8l0.1-2.5h1.7l0.4,2.8l-1.2-0.4v-0.9c0.9,0.5,1.6,0.8,2.5,0.8c1.1,0,1.7-0.3,1.7-1.1
			c0-0.6-0.3-1-1.6-1.3l-1.1-0.3c-1.6-0.4-2.4-1.5-2.4-3.1c0-1.9,1.5-3.4,4.4-3.4c1.2,0,2.2,0.3,3.3,0.8l-0.2,2.2h-1.8l-0.6-2.6
			l1.2,0.5v0.8c-0.7-0.4-1.1-0.6-2-0.6c-0.8,0-1.4,0.4-1.4,1.1c0,0.5,0.2,0.9,1.6,1.3l1.1,0.3c1.9,0.5,2.6,1.6,2.6,3.1
			c0,2.3-1.8,3.4-4.7,3.4C696.2,40.8,695,40.5,693.9,39.8z"/>
	</g>
</g>
<g>
	<g>
		<path class="st3" d="M731,27.7v-1.1h3.2V28h-0.3L731,27.7z M734.2,38.5v1.4H731v-1.1l2.9-0.3H734.2z M732.6,32.9
			c0-2.1,0-4.1-0.1-6.2h3.3c-0.1,2-0.1,4.1-0.1,6.2v0.7c0,2.2,0,4.2,0.1,6.3h-3.3c0.1-2,0.1-4.1,0.1-6.3V32.9z M734.2,38.7h2.4
			c2.4,0,3.8-2,3.8-5.5c0-3.5-1.4-5.4-3.8-5.4h-2.4v-1.1h2.8c4.2,0,6.8,2.5,6.8,6.5c0,4.2-2.8,6.6-7.2,6.6h-2.4V38.7z"/>
		<path class="st3" d="M754.2,34.1c0,0.4,0,0.8-0.1,1.1h-7.8v-1h3.8c1,0,1.2-0.4,1.2-1.2c0-1.3-0.7-2-1.4-2c-0.9,0-1.7,0.9-1.7,3.8
			c0,2.4,1.2,3.6,2.8,3.6c1.1,0,1.8-0.5,2.5-1.1l0.7,0.6c-0.8,1.6-2.2,2.3-4.2,2.3c-2.9,0-4.9-1.9-4.9-5.1c0-3.3,2.5-5.1,5.1-5.1
			C752.7,29.9,754.2,31.7,754.2,34.1z"/>
		<path class="st3" d="M756.3,34.5c0-1.1,0-1.5-0.1-2.3L755,32v-0.8l3.8-1.3l0.3,0.2l0.1,1.6l0.1,0.3v6.3l-0.1,0.2v1.5
			c0,1.3,0,2.7,0.1,4.5h-3.1c0-1.7,0.1-3.2,0.1-4.5V34.5z M760.7,43.5v0.9h-5.6v-0.9l1.9-0.4h1.8L760.7,43.5z M760.8,31.6
			c-1,0-1.9,1-2.7,1.8L758,33c1.1-2.1,2.5-3.1,4.2-3.1c2.2,0,3.9,1.8,3.9,5.1c0,3.2-2,5.2-4.3,5.2c-1.7,0-2.8-1-3.7-3.1l0.2-0.4
			c0.8,1.1,1.5,1.8,2.5,1.8c1.2,0,2.1-1.1,2.1-3.5C762.8,32.6,762,31.6,760.8,31.6z"/>
		<path class="st3" d="M771,34.3c0.8-0.2,2.2-0.6,3.2-0.8v0.8c-0.9,0.2-2,0.5-2.6,0.8c-1,0.4-1.5,1.1-1.5,2c0,1,0.5,1.5,1.2,1.5
			c0.4,0,0.7-0.2,1.4-0.7l0.8-0.6l0.2,0.3l-0.8,0.9c-1,1-1.6,1.7-3,1.7c-1.5,0-2.6-0.9-2.6-2.6C767.1,36.2,767.9,35.2,771,34.3z
			 M772.6,38.2v-5c0-1.8-0.4-2.3-1.6-2.3c-0.5,0-1,0.1-1.9,0.3l1.3-0.8l-0.2,1.4c-0.1,1.3-0.7,1.8-1.4,1.8c-0.7,0-1.2-0.3-1.3-1
			c0.1-1.7,1.7-2.8,4.5-2.8c2.5,0,3.5,1.1,3.5,3.7v4.5c0,0.4,0.2,0.6,0.5,0.6c0.2,0,0.4-0.1,0.6-0.4l0.5,0.4
			c-0.5,1.1-1.2,1.5-2.3,1.5C773.5,40.1,772.7,39.4,772.6,38.2z"/>
		<path class="st3" d="M778.7,35.6v-1.2c0-1.1,0-1.5-0.1-2.3l-1.3-0.2v-0.8l3.8-1.3l0.3,0.2l0.2,2.5v3.1c0,1.2,0,3.3,0.1,4.2h-3.2
			C778.7,38.9,778.7,36.9,778.7,35.6z M777.5,38.9l1.9-0.4h2l1.9,0.4v0.9h-5.8V38.9z M780.3,33h1.5l-0.3,0.5
			c0.4-2.4,1.8-3.6,2.9-3.6c0.8,0,1.5,0.5,1.7,1.4c0,1-0.6,1.6-1.4,1.6c-0.6,0-1.1-0.3-1.5-0.9l-0.6-0.7l0.8,0.2
			c-0.8,0.5-1.5,1.6-1.8,2.8l-1.4-0.1V33z"/>
		<path class="st3" d="M791.9,38.6c0.4,0,0.7-0.2,1.1-0.5l0.5,0.5c-0.5,1-1.5,1.5-2.9,1.5c-1.8,0-2.8-0.8-2.8-2.7c0-0.7,0-1.2,0-2
			v-3.9h-1.3v-1.2l2.4-0.3l-1.1,0.8l1.2-3.5h2l-0.1,3.6v6.2C790.9,38.1,791.3,38.6,791.9,38.6z M793,30.2v1.3h-3.7v-1.3H793z"/>
		<path class="st3" d="M795,39.8c0-0.9,0.1-3,0.1-4.2v-1.1c0-1.1,0-1.5-0.1-2.3l-1.3-0.2v-0.8l3.8-1.3l0.3,0.2l0.2,2.2v3.3
			c0,1.2,0,3.3,0.1,4.2H795z M799.1,38.9v0.9h-5.2v-0.9l1.9-0.4h1.4L799.1,38.9z M804.1,33.4v2.3c0,1.3,0,3.3,0.1,4.2H801
			c0-0.9,0.1-2.9,0.1-4.2v-1.9c0-1.4-0.3-2-1.2-2c-0.9,0-1.8,0.7-2.4,1.5h-0.7V32h1.2l-0.6,0.5c1.2-1.7,2.4-2.6,3.9-2.6
			C803.1,29.9,804.1,31,804.1,33.4z M803.2,38.5l1.9,0.4v0.9H800v-0.9l1.8-0.4H803.2z M810,33.4v2.2c0,1.3,0,3.3,0.1,4.2h-3.1
			c0-0.9,0.1-2.9,0.1-4.2v-1.9c0-1.5-0.3-1.9-1.2-1.9c-0.9,0-1.7,0.5-2.5,1.5h-0.7V32h1.4l-0.8,0.6c1.4-2,2.5-2.6,3.9-2.6
			C809.1,29.9,810,31,810,33.4z M809.2,38.5l1.9,0.4v0.9H806v-0.9l1.7-0.4H809.2z"/>
		<path class="st3" d="M821.2,34.1c0,0.4,0,0.8-0.1,1.1h-7.8v-1h3.8c1,0,1.2-0.4,1.2-1.2c0-1.3-0.7-2-1.4-2c-0.9,0-1.7,0.9-1.7,3.8
			c0,2.4,1.2,3.6,2.8,3.6c1.1,0,1.8-0.5,2.5-1.1l0.7,0.6c-0.8,1.6-2.2,2.3-4.2,2.3c-2.9,0-4.9-1.9-4.9-5.1c0-3.3,2.5-5.1,5.1-5.1
			C819.7,29.9,821.2,31.7,821.2,34.1z"/>
		<path class="st3" d="M823.4,39.8c0-0.9,0.1-3,0.1-4.2v-1.1c0-1.1,0-1.5-0.1-2.3l-1.3-0.2v-0.8l3.8-1.3l0.3,0.2l0.2,2.2v3.3
			c0,1.2,0,3.3,0.1,4.2H823.4z M827.6,38.9v0.9h-5.2v-0.9l1.9-0.4h1.4L827.6,38.9z M832.6,33.4v2.3c0,1.3,0,3.3,0.1,4.2h-3.2
			c0-0.9,0.1-2.9,0.1-4.2v-2.1c0-1.3-0.3-1.8-1.2-1.8c-0.7,0-1.7,0.5-2.5,1.5h-0.7V32h1.3l-0.8,0.5c1.4-2,2.5-2.6,4-2.6
			C831.4,29.9,832.6,31,832.6,33.4z M831.7,38.5l2,0.4v0.9h-5.2v-0.9l1.8-0.4H831.7z"/>
		<path class="st3" d="M839.5,38.6c0.4,0,0.7-0.2,1.1-0.5l0.5,0.5c-0.5,1-1.5,1.5-2.9,1.5c-1.8,0-2.8-0.8-2.8-2.7c0-0.7,0-1.2,0-2
			v-3.9h-1.3v-1.2l2.4-0.3l-1.1,0.8l1.2-3.5h2l-0.1,3.6v6.2C838.5,38.1,838.9,38.6,839.5,38.6z M840.6,30.2v1.3H837v-1.3H840.6z"/>
		<path class="st3" d="M841.7,39.2l0-2.4h1.6l0.5,2.7l-1.1-0.4v-0.8c0.9,0.5,1.6,0.8,2.5,0.8c1.2,0,1.8-0.4,1.8-1.2
			c0-0.6-0.4-1.1-1.7-1.5l-1.1-0.3c-1.5-0.5-2.4-1.5-2.4-3c0-1.8,1.5-3.2,4.1-3.2c1.2,0,2.1,0.3,3.1,0.8l-0.1,2.2h-1.6l-0.6-2.4
			l1.1,0.5v0.7c-0.7-0.5-1.2-0.7-2-0.7c-0.9,0-1.5,0.4-1.5,1.1c0,0.6,0.3,1,1.7,1.4l0.9,0.3c1.9,0.6,2.7,1.6,2.7,3.1
			c0,2.1-1.7,3.3-4.5,3.3C843.9,40.1,842.8,39.8,841.7,39.2z"/>
	</g>
</g>
<g>
	<g>
		<path class="st3" d="M880.4,37.7v1l-1.3,0.3l0.7-3.1h1.5l-0.1,3.1c-1.1,0.6-2.5,1-4.2,1c-3.9,0-6.9-2.3-6.9-6.9
			c0-4.7,3.3-6.9,7.1-6.9c1.5,0,2.7,0.3,3.9,1l0.1,3.1h-1.5l-0.7-3.1l1.3,0.3v1.1c-1-0.9-1.8-1.2-2.7-1.2c-2.2,0-4.1,1.8-4.1,5.8
			c0,4.1,1.8,5.8,4,5.8C878.5,38.9,879.5,38.5,880.4,37.7z"/>
		<path class="st3" d="M882.6,34.8c0-3.1,2.2-5.1,5-5.1c2.8,0,5,2,5,5.1c0,3.1-2,5.2-5,5.2C884.6,39.9,882.6,37.9,882.6,34.8z
			 M889.4,34.8c0-2.8-0.6-4.1-1.8-4.1c-1.2,0-1.8,1.3-1.8,4.1c0,2.8,0.6,4.1,1.8,4.1C888.8,38.9,889.4,37.7,889.4,34.8z"/>
		<path class="st3" d="M895.1,39.6c0-0.9,0.1-3,0.1-4.2v-1.1c0-1.1,0-1.5-0.1-2.3l-1.3-0.2V31l3.8-1.3l0.3,0.2l0.2,2.2v3.3
			c0,1.2,0,3.3,0.1,4.2H895.1z M899.2,38.7v0.9H894v-0.9l1.9-0.4h1.4L899.2,38.7z M904.2,33.2v2.3c0,1.3,0,3.3,0.1,4.2h-3.2
			c0-0.9,0.1-2.9,0.1-4.2v-2.1c0-1.3-0.3-1.8-1.2-1.8c-0.7,0-1.7,0.5-2.5,1.5h-0.7v-1.3h1.3l-0.8,0.5c1.4-2,2.5-2.6,4-2.6
			C903.1,29.7,904.2,30.8,904.2,33.2z M903.3,38.3l2,0.4v0.9h-5.2v-0.9l1.8-0.4H903.3z"/>
		<path class="st3" d="M911.4,38.4c0.4,0,0.7-0.2,1.1-0.5l0.5,0.5c-0.5,1-1.5,1.5-2.9,1.5c-1.8,0-2.8-0.8-2.8-2.7c0-0.7,0-1.2,0-2
			v-3.9H906v-1.2l2.4-0.3l-1.1,0.8l1.2-3.5h2l-0.1,3.6V37C910.4,37.9,910.8,38.4,911.4,38.4z M912.5,30v1.3h-3.7V30H912.5z"/>
		<path class="st3" d="M917.5,34.1c0.8-0.2,2.2-0.6,3.2-0.8v0.8c-0.9,0.2-2,0.5-2.6,0.8c-1,0.4-1.5,1.1-1.5,2c0,1,0.5,1.5,1.2,1.5
			c0.4,0,0.7-0.2,1.4-0.7l0.8-0.6l0.2,0.3l-0.8,0.9c-1,1-1.6,1.7-3,1.7c-1.5,0-2.6-0.9-2.6-2.6C913.7,36,914.4,35,917.5,34.1z
			 M919.1,38v-5c0-1.8-0.4-2.3-1.6-2.3c-0.5,0-1,0.1-1.9,0.3l1.3-0.8l-0.2,1.4c-0.1,1.3-0.7,1.8-1.4,1.8c-0.7,0-1.2-0.3-1.3-1
			c0.1-1.7,1.7-2.8,4.5-2.8c2.5,0,3.5,1.1,3.5,3.7v4.5c0,0.4,0.2,0.6,0.5,0.6c0.2,0,0.4-0.1,0.6-0.4l0.5,0.4
			c-0.5,1.1-1.2,1.5-2.3,1.5C920,39.9,919.2,39.2,919.1,38z"/>
		<path class="st3" d="M927.6,34.5c0,2.3,1.1,3.6,2.8,3.6c1,0,1.7-0.5,2.3-1.2l0.7,0.6c-0.8,1.6-2.2,2.4-4.1,2.4
			c-2.7,0-4.9-1.8-4.9-5.1c0-3.3,2.4-5.2,5.3-5.2c2.1,0,3.6,1.3,3.7,2.9c-0.2,0.7-0.6,1-1.3,1c-0.8,0-1.4-0.5-1.5-1.8l-0.2-1.5
			l1.4,0.8c-0.6-0.3-1.2-0.4-1.8-0.4C928.8,30.7,927.6,31.8,927.6,34.5z"/>
		<path class="st3" d="M939.6,38.4c0.4,0,0.7-0.2,1.1-0.5l0.5,0.5c-0.5,1-1.5,1.5-2.9,1.5c-1.8,0-2.8-0.8-2.8-2.7c0-0.7,0-1.2,0-2
			v-3.9h-1.3v-1.2l2.4-0.3l-1.1,0.8l1.2-3.5h2l-0.1,3.6V37C938.6,37.9,939,38.4,939.6,38.4z M940.7,30v1.3h-3.7V30H940.7z"/>
		<path class="st3" d="M946.3,27.5v-1.1h6.4v1.1l-2.9,0.3h-0.6L946.3,27.5z M953.9,38.2c1.8,0,2.9-1.2,2.9-4.3v-7.5h1.3V34
			c0,4.2-2,6-5.2,6c-3,0-5.1-1.5-5.1-5.3v-2.2c0-2,0-4-0.1-6h3.3c-0.1,2-0.1,4-0.1,6V34C951,37.1,952,38.2,953.9,38.2z M957.1,27.7
			l-2.1-0.2v-1.1h4.8v1.1l-2.1,0.2H957.1z"/>
		<path class="st3" d="M960.3,39l0-2.4h1.6l0.5,2.7l-1.1-0.4v-0.8c0.9,0.5,1.6,0.8,2.5,0.8c1.2,0,1.8-0.4,1.8-1.2
			c0-0.6-0.4-1.1-1.7-1.5l-1.1-0.3c-1.5-0.5-2.4-1.5-2.4-3c0-1.8,1.5-3.2,4.1-3.2c1.2,0,2.1,0.3,3.1,0.8l-0.1,2.2H966l-0.6-2.4
			l1.1,0.5v0.7c-0.7-0.5-1.2-0.7-2-0.7c-0.9,0-1.5,0.4-1.5,1.1c0,0.6,0.3,1,1.7,1.4l0.9,0.3c1.9,0.6,2.7,1.6,2.7,3.1
			c0,2.1-1.7,3.3-4.5,3.3C962.5,39.9,961.4,39.6,960.3,39z"/>
	</g>
</g>
<g>
	<g>
		<path class="st3" d="M87.7,193.3v1.8l-2.3,0.5l1.1-5.4H89l-0.1,5.3c-2,1.1-4.5,1.8-7.3,1.8c-6.9,0-12.1-4.3-12.1-12.3
			c0-8,5.6-12.3,12.3-12.3c2.4,0,4.7,0.5,6.9,1.7l0.1,5.4h-2.5l-1.1-5.5l2.3,0.5v2c-1.8-1.6-3.3-2.2-5-2.2c-4.1,0-7.5,3.2-7.5,10.3
			c0,7.1,3.3,10.3,7.3,10.3C84,195.4,85.9,194.7,87.7,193.3z"/>
		<path class="st3" d="M91.3,188.2c0-5.5,3.9-8.9,8.7-8.9c4.7,0,8.7,3.4,8.7,8.9c0,5.6-3.7,9-8.7,9
			C94.9,197.2,91.3,193.8,91.3,188.2z M103.5,188.3c0-4.9-1.2-7.2-3.5-7.2c-2.3,0-3.5,2.3-3.5,7.2c0,4.9,1.2,7.2,3.5,7.2
			C102.2,195.5,103.5,193.2,103.5,188.3z"/>
		<path class="st3" d="M113,196.7c0.1-1.6,0.1-5.2,0.1-7.4v-1.9c0-1.9,0-2.8-0.1-4.2l-2.3-0.3v-1.3l6.3-2.3l0.6,0.4l0.4,4v5.7
			c0,2.2,0,5.8,0.1,7.4H113z M119.8,195.2v1.5h-8.9v-1.5l3.4-0.7h2.1L119.8,195.2z M128.5,185.5v3.9c0,2.3,0,5.8,0.1,7.4h-5
			c0.1-1.6,0.1-5.1,0.1-7.4v-3.5c0-2.6-0.6-3.4-2.3-3.4c-1.4,0-3,0.9-4.6,2.5h-1.1v-2.1h2.2l-1.4,0.9c2.2-3.2,4.5-4.5,7-4.5
			C126.7,179.3,128.5,181.3,128.5,185.5z M127.1,194.5l3.5,0.7v1.5h-8.9v-1.5l3.4-0.7H127.1z"/>
		<path class="st3" d="M140.7,194.7c0.7,0,1.3-0.3,2.1-0.8l0.8,0.9c-0.9,1.6-2.5,2.5-4.8,2.5c-3,0-4.7-1.4-4.7-4.6c0-1.1,0-2,0-3.4
			v-7.2h-2.5v-1.9l4.2-0.5l-1.8,1.3l1.9-6h3.1l-0.1,6.3v11C138.8,193.9,139.6,194.7,140.7,194.7z M142.9,179.8v2.2h-6.4v-2.2H142.9z
			"/>
		<path class="st3" d="M151.2,187.1c1.5-0.5,3.9-1.1,5.6-1.5v1.4c-1.6,0.4-3.6,1-4.6,1.4c-2.1,0.8-2.9,2.1-2.9,3.5
			c0,1.8,1,2.6,2.3,2.6c0.8,0,1.4-0.3,2.9-1.4l1.2-0.9l0.4,0.6l-1.3,1.4c-1.8,1.9-2.9,3-5.4,3c-2.7,0-4.6-1.6-4.6-4.5
			C144.7,190.4,146,188.7,151.2,187.1z M154.3,193.8v-8.6c0-3.2-0.7-4.1-3-4.1c-0.8,0-1.8,0.1-3.3,0.5l2.1-1.3l-0.4,2.6
			c-0.2,2-1.1,2.8-2.4,2.8c-1.2,0-1.9-0.6-2.1-1.7c0.3-2.9,3.1-4.7,7.7-4.7c4.3,0,6,1.8,6,6.5v7.8c0,1,0.3,1.4,0.9,1.4
			c0.4,0,0.8-0.2,1.2-0.8l0.9,0.7c-0.8,1.8-2,2.4-3.9,2.4C155.8,197.2,154.5,195.9,154.3,193.8z"/>
		<path class="st3" d="M168.1,187.8c0,4.2,2.1,6.5,5.1,6.5c1.8,0,3.2-0.8,4.2-2.2l1.1,0.9c-1.2,2.9-3.7,4.3-7,4.3
			c-4.8,0-8.5-3.2-8.5-8.9c0-5.7,4.1-9,9.1-9c3.5,0,6.2,2.2,6.5,5c-0.3,1.2-1,1.7-2.1,1.7c-1.3,0-2.3-0.8-2.5-2.8l-0.5-2.7l2.3,1.4
			c-1.1-0.5-2.1-0.8-3.2-0.8C170.3,181,168.1,183.1,168.1,187.8z"/>
		<path class="st3" d="M189,194.7c0.7,0,1.3-0.3,2.1-0.8l0.8,0.9c-0.9,1.6-2.5,2.5-4.8,2.5c-3,0-4.7-1.4-4.7-4.6c0-1.1,0-2,0-3.4
			v-7.2h-2.5v-1.9l4.2-0.5l-1.8,1.3l1.9-6h3.1l-0.1,6.3v11C187.2,193.9,187.9,194.7,189,194.7z M191.2,179.8v2.2h-6.4v-2.2H191.2z"
			/>
		<path class="st3" d="M200.7,175.2v-1.8h11v1.8l-5,0.5h-0.9L200.7,175.2z M213.8,194.4c3.4,0,5.4-2.2,5.4-7.8v-13.1h2.1v13.4
			c0,7.4-3.5,10.5-9,10.5c-5.2,0-8.9-2.7-8.9-9.4v-3.8c0-3.5,0-7.1-0.1-10.7h5.3c-0.1,3.5-0.1,7.1-0.1,10.7v2.7
			C208.5,192.4,210.4,194.4,213.8,194.4z M219.6,175.6l-3.8-0.4v-1.8h8.4v1.8l-3.7,0.4H219.6z"/>
		<path class="st3" d="M225.1,195.7l0-4.2h2.6l0.8,4.6l-1.9-0.7V194c1.4,0.9,2.7,1.4,4.4,1.4c2.2,0,3.4-0.8,3.4-2.3
			c0-1.2-0.8-2-3.1-2.7l-1.8-0.6c-2.7-0.8-4.3-2.5-4.3-5.1c0-3,2.5-5.5,7-5.5c2,0,3.7,0.5,5.4,1.4l-0.2,3.8h-2.5l-0.9-4.1l1.8,0.8
			v1.2c-1.2-0.8-2.1-1.2-3.6-1.2c-1.8,0-2.8,0.8-2.8,2.1c0,1.2,0.6,1.8,3,2.6l1.5,0.5c3.4,1.1,4.7,2.9,4.7,5.4
			c0,3.4-2.8,5.6-7.6,5.6C228.8,197.2,226.9,196.7,225.1,195.7z"/>
	</g>
</g>
<g>
	<g>
		<path class="st3" d="M70.8,269.2v-1.3h4.1v1.7h-0.4L70.8,269.2z M74.9,283.6v1.7h-4.1V284l3.7-0.4H74.9z M72.9,276.1
			c0-2.7,0-5.5-0.1-8.2h4c-0.1,2.7-0.1,5.4-0.1,8.2v0.9c0,2.9,0,5.6,0.1,8.3h-4c0.1-2.7,0.1-5.4,0.1-8.3V276.1z M74.9,283.9h3.2
			c3.3,0,5.3-2.6,5.3-7.3c0-4.7-2-7.3-5.2-7.3h-3.3v-1.4h3.7c5.4,0,8.8,3.2,8.8,8.7c0,5.6-3.8,8.7-9.3,8.7h-3.2V283.9z"/>
		<path class="st3" d="M101.1,277.7c0,0.6-0.1,1-0.2,1.4H90.9v-1.3h5.3c1.3,0,1.6-0.5,1.6-1.6c0-1.7-1-2.7-2.1-2.7
			c-1.3,0-2.5,1.3-2.5,5.1c0,3.2,1.6,4.8,3.8,4.8c1.5,0,2.5-0.6,3.3-1.5l0.8,0.7c-1,2-2.9,3.1-5.4,3.1c-3.7,0-6.3-2.5-6.3-6.7
			c0-4.3,3.2-6.8,6.6-6.8C99.1,272.2,101.1,274.5,101.1,277.7z"/>
		<path class="st3" d="M104.3,278.3c0-1.4,0-2.1-0.1-3.1l-1.8-0.2v-1l4.7-1.7l0.4,0.2l0.2,2.1l0.1,0.3v8.3l-0.1,0.3v2.1
			c0,1.7,0,3.6,0.1,5.8h-3.7c0.1-2.2,0.1-4.1,0.1-5.8V278.3z M109.8,290.2v1.2h-7.2v-1.2l2.7-0.5h2L109.8,290.2z M110.1,274.3
			c-1.3,0-2.5,1.2-3.7,2.3l-0.2-0.4c1.5-2.7,3.3-3.9,5.4-3.9c2.8,0,5.1,2.4,5.1,6.7c0,4.2-2.6,6.8-5.6,6.8c-2.1,0-3.6-1.2-4.8-3.9
			l0.2-0.5c1.2,1.5,2.1,2.4,3.4,2.4c1.7,0,3-1.5,3-4.7C113,275.8,111.8,274.3,110.1,274.3z"/>
		<path class="st3" d="M123.4,278.1c1.1-0.3,2.9-0.8,4.2-1.1v1.1c-1.2,0.3-2.7,0.7-3.5,1.1c-1.5,0.6-2.2,1.5-2.2,2.6
			c0,1.3,0.8,1.9,1.7,1.9c0.6,0,1.1-0.2,2.1-1l0.9-0.7l0.3,0.4l-1,1.1c-1.4,1.4-2.2,2.2-4,2.2c-2,0-3.5-1.2-3.5-3.3
			C118.5,280.6,119.4,279.3,123.4,278.1z M125.7,283.1v-6.4c0-2.4-0.5-3.1-2.2-3.1c-0.6,0-1.3,0.1-2.4,0.4l1.6-1l-0.3,2
			c-0.1,1.5-0.8,2.1-1.8,2.1c-0.9,0-1.4-0.4-1.6-1.2c0.2-2.1,2.3-3.5,5.8-3.5c3.2,0,4.5,1.4,4.5,4.8v5.8c0,0.7,0.3,1,0.7,1
			c0.3,0,0.6-0.2,0.9-0.6l0.6,0.5c-0.6,1.3-1.5,1.8-2.9,1.8C126.8,285.6,125.8,284.7,125.7,283.1z"/>
		<path class="st3" d="M133.8,279.8v-1.5c0-1.4,0-2.1-0.1-3.1l-1.8-0.2v-1l4.7-1.7l0.4,0.3l0.3,3.3v4c0,1.6,0,4.3,0.1,5.5h-3.7
			C133.7,284.1,133.8,281.4,133.8,279.8z M132.1,284.2l2.6-0.5h2.1l2.6,0.5v1.1h-7.4V284.2z M135.7,276.3h1.8l-0.4,0.6
			c0.6-3,2.3-4.6,3.9-4.6c1,0,1.9,0.6,2.2,1.6c0,1.3-0.7,2.1-1.8,2.1c-0.7,0-1.3-0.3-1.9-1.1l-0.8-0.9l1.1,0.2
			c-1.1,0.7-2.1,2.1-2.5,3.8l-1.7-0.1V276.3z"/>
		<path class="st3" d="M150.6,283.8c0.5,0,1-0.2,1.5-0.6l0.6,0.7c-0.7,1.2-1.9,1.9-3.6,1.9c-2.2,0-3.5-1-3.5-3.5c0-0.8,0-1.5,0-2.5
			v-5.4h-1.8v-1.4l3.2-0.4l-1.4,1l1.4-4.5h2.4l-0.1,4.7v8.2C149.2,283.2,149.8,283.8,150.6,283.8z M152.2,272.6v1.7h-4.8v-1.7H152.2
			z"/>
		<path class="st3" d="M155,285.3c0.1-1.2,0.1-3.9,0.1-5.5v-1.4c0-1.4,0-2.1-0.1-3.1l-1.8-0.2v-1l4.7-1.7l0.4,0.3l0.3,3v4.3
			c0,1.6,0,4.3,0.1,5.5H155z M160.2,284.2v1.1h-6.7v-1.1l2.6-0.5h1.6L160.2,284.2z M166.5,276.9v2.9c0,1.7,0,4.3,0.1,5.5h-3.7
			c0.1-1.2,0.1-3.8,0.1-5.5v-2.4c0-2-0.4-2.7-1.7-2.7c-1.2,0-2.3,0.8-3.3,1.9h-0.9v-1.5h1.6l-0.9,0.7c1.5-2.2,3.2-3.4,5.1-3.4
			C165.3,272.2,166.5,273.7,166.5,276.9z M165.5,283.6l2.5,0.5v1.1h-6.6v-1.1l2.5-0.5H165.5z M174.4,276.9v2.9c0,1.7,0,4.3,0.1,5.5
			h-3.7c0.1-1.2,0.1-3.8,0.1-5.5v-2.5c0-2.1-0.5-2.7-1.7-2.7c-1.1,0-2.2,0.7-3.4,1.9h-0.8V275h1.7l-1.1,0.6c1.7-2.5,3.3-3.4,5.1-3.4
			C173.2,272.2,174.4,273.7,174.4,276.9z M173.4,283.6l2.5,0.5v1.1h-6.6v-1.1l2.4-0.5H173.4z"/>
		<path class="st3" d="M189.2,277.7c0,0.6-0.1,1-0.2,1.4h-10.1v-1.3h5.3c1.3,0,1.6-0.5,1.6-1.6c0-1.7-1-2.7-2.1-2.7
			c-1.3,0-2.5,1.3-2.5,5.1c0,3.2,1.6,4.8,3.8,4.8c1.5,0,2.5-0.6,3.3-1.5l0.8,0.7c-1,2-2.9,3.1-5.4,3.1c-3.7,0-6.3-2.5-6.3-6.7
			c0-4.3,3.2-6.8,6.6-6.8C187.2,272.2,189.2,274.5,189.2,277.7z"/>
		<path class="st3" d="M192.5,285.3c0.1-1.2,0.1-3.9,0.1-5.5v-1.4c0-1.4,0-2.1-0.1-3.1l-1.8-0.2v-1l4.7-1.7l0.4,0.3l0.3,3v4.3
			c0,1.6,0,4.3,0.1,5.5H192.5z M197.7,284.2v1.1H191v-1.1l2.6-0.5h1.6L197.7,284.2z M204.2,276.9v2.9c0,1.7,0,4.3,0.1,5.5h-3.7
			c0.1-1.2,0.1-3.8,0.1-5.5v-2.6c0-1.9-0.5-2.6-1.7-2.6c-1,0-2.3,0.6-3.4,1.9h-0.8v-1.5h1.7l-1,0.7c1.7-2.4,3.3-3.4,5.2-3.4
			C202.8,272.2,204.2,273.7,204.2,276.9z M203.1,283.6l2.6,0.5v1.1H199v-1.1l2.5-0.5H203.1z"/>
		<path class="st3" d="M213.3,283.8c0.5,0,1-0.2,1.5-0.6l0.6,0.7c-0.7,1.2-1.9,1.9-3.6,1.9c-2.2,0-3.5-1-3.5-3.5c0-0.8,0-1.5,0-2.5
			v-5.4h-1.8v-1.4l3.2-0.4l-1.4,1l1.4-4.5h2.4l-0.1,4.7v8.2C211.9,283.2,212.5,283.8,213.3,283.8z M214.9,272.6v1.7h-4.8v-1.7H214.9
			z"/>
		<path class="st3" d="M221.8,284l3-0.4h0.7l2.6,0.4v1.3h-6.3V284z M221.9,267.9h3.7l0,1.7h-0.4l-3.3-0.4V267.9z M224.3,267.9h1.4
			l0.2,8.8v8.7h-1.6V267.9z M224.4,267.9h3.9l5.2,13.7h-0.9l4.9-13.7h1.6l-6.3,17.4h-1.8L224.4,267.9z M235.8,284l3.3-0.4h1l3.7,0.4
			v1.3h-8V284z M237.9,277.5l0.1-9.6h3.8c-0.1,2.7-0.1,5.4-0.1,8.2v1.1c0,2.7,0,5.5,0.1,8.2h-4C237.9,282.6,237.8,279.9,237.9,277.5
			z M239.7,267.9h4v1.3l-3.6,0.4h-0.4V267.9z"/>
		<path class="st3" d="M250,278.1c1.1-0.3,2.9-0.8,4.2-1.1v1.1c-1.2,0.3-2.7,0.7-3.5,1.1c-1.5,0.6-2.2,1.5-2.2,2.6
			c0,1.3,0.8,1.9,1.7,1.9c0.6,0,1.1-0.2,2.1-1l0.9-0.7l0.3,0.4l-1,1.1c-1.4,1.4-2.2,2.2-4,2.2c-2,0-3.5-1.2-3.5-3.3
			C245.2,280.6,246.1,279.3,250,278.1z M252.3,283.1v-6.4c0-2.4-0.5-3.1-2.2-3.1c-0.6,0-1.3,0.1-2.4,0.4l1.6-1l-0.3,2
			c-0.1,1.5-0.8,2.1-1.8,2.1c-0.9,0-1.4-0.4-1.6-1.2c0.2-2.1,2.3-3.5,5.8-3.5c3.2,0,4.5,1.4,4.5,4.8v5.8c0,0.7,0.3,1,0.7,1
			c0.3,0,0.6-0.2,0.9-0.6l0.6,0.5c-0.6,1.3-1.5,1.8-2.9,1.8C253.5,285.6,252.5,284.7,252.3,283.1z"/>
		<path class="st3" d="M260.4,285.3c0.1-1.2,0.1-3.9,0.1-5.5v-1.4c0-1.4,0-2.1-0.1-3.1l-1.8-0.2v-1l4.7-1.7l0.4,0.3l0.3,3v4.3
			c0,1.6,0,4.3,0.1,5.5H260.4z M265.5,284.2v1.1h-6.7v-1.1l2.6-0.5h1.6L265.5,284.2z M272,276.9v2.9c0,1.7,0,4.3,0.1,5.5h-3.7
			c0.1-1.2,0.1-3.8,0.1-5.5v-2.6c0-1.9-0.5-2.6-1.7-2.6c-1,0-2.3,0.6-3.4,1.9h-0.8v-1.5h1.7l-1,0.7c1.7-2.4,3.3-3.4,5.2-3.4
			C270.6,272.2,272,273.7,272,276.9z M270.9,283.6l2.6,0.5v1.1h-6.7v-1.1l2.5-0.5H270.9z"/>
		<path class="st3" d="M279.8,278.1c1.1-0.3,2.9-0.8,4.2-1.1v1.1c-1.2,0.3-2.7,0.7-3.5,1.1c-1.5,0.6-2.2,1.5-2.2,2.6
			c0,1.3,0.8,1.9,1.7,1.9c0.6,0,1.1-0.2,2.1-1l0.9-0.7l0.3,0.4l-1,1.1c-1.4,1.4-2.2,2.2-4,2.2c-2,0-3.5-1.2-3.5-3.3
			C274.9,280.6,275.9,279.3,279.8,278.1z M282.1,283.1v-6.4c0-2.4-0.5-3.1-2.2-3.1c-0.6,0-1.3,0.1-2.4,0.4l1.6-1l-0.3,2
			c-0.1,1.5-0.8,2.1-1.8,2.1c-0.9,0-1.4-0.4-1.6-1.2c0.2-2.1,2.3-3.5,5.8-3.5c3.2,0,4.5,1.4,4.5,4.8v5.8c0,0.7,0.3,1,0.7,1
			c0.3,0,0.6-0.2,0.9-0.6l0.6,0.5c-0.6,1.3-1.5,1.8-2.9,1.8C283.2,285.6,282.3,284.7,282.1,283.1z"/>
		<path class="st3" d="M298.2,287.7c0-0.9-0.6-1.7-2.1-1.7h-2.9c-0.9,0-1.8-0.1-2.4-0.3v-0.1c-1.3-0.4-1.9-1.2-1.9-2.2
			c0-1.2,0.9-2.4,2.5-3.8l0.7,0.4c-0.5,0.6-0.7,1.1-0.7,1.8c0,0.6,0.4,1.1,1.5,1.1h3.2c3.7,0,5.1,1.5,5.1,3.7c0,2.6-2.5,4.8-7.4,4.8
			c-4.2,0-5.6-1.4-5.6-3.1c0-1.3,0.9-2.3,3.1-3.1l0.3,0.2c-0.7,0.9-1,1.4-1,2.3c0,1.6,1.2,2.3,3.5,2.3
			C296.8,289.9,298.2,288.9,298.2,287.7z M294.1,272.2c3.4,0,5.3,1.7,5.3,4.3c0,2.5-1.9,4.2-5.3,4.2c-3.5,0-5.3-1.7-5.3-4.2
			C288.8,274,290.6,272.2,294.1,272.2z M292,276.5c0,1.9,0.7,3.1,2,3.1c1.4,0,2.1-1.2,2.1-3.1c0-1.9-0.7-3-2-3
			C292.8,273.4,292,274.6,292,276.5z M300.9,272.2l0.4,0.3v1.9h-3.8v-0.8L300.9,272.2z"/>
		<path class="st3" d="M314,277.7c0,0.6-0.1,1-0.2,1.4h-10.1v-1.3h5.3c1.3,0,1.6-0.5,1.6-1.6c0-1.7-1-2.7-2.1-2.7
			c-1.3,0-2.5,1.3-2.5,5.1c0,3.2,1.6,4.8,3.8,4.8c1.5,0,2.5-0.6,3.3-1.5l0.8,0.7c-1,2-2.9,3.1-5.4,3.1c-3.7,0-6.3-2.5-6.3-6.7
			c0-4.3,3.2-6.8,6.6-6.8C312,272.2,314,274.5,314,277.7z"/>
		<path class="st3" d="M317.4,279.8v-1.5c0-1.4,0-2.1-0.1-3.1l-1.8-0.2v-1l4.7-1.7l0.4,0.3l0.3,3.3v4c0,1.6,0,4.3,0.1,5.5h-3.7
			C317.4,284.1,317.4,281.4,317.4,279.8z M315.8,284.2l2.6-0.5h2.1l2.6,0.5v1.1h-7.4V284.2z M319.3,276.3h1.8l-0.4,0.6
			c0.6-3,2.3-4.6,3.9-4.6c1,0,1.9,0.6,2.2,1.6c0,1.3-0.7,2.1-1.8,2.1c-0.7,0-1.3-0.3-1.9-1.1l-0.8-0.9l1.1,0.2
			c-1.1,0.7-2.1,2.1-2.5,3.8l-1.7-0.1V276.3z"/>
	</g>
</g>
<g>
	<g>
		<path class="st3" d="M97.7,328.5c0-1.3-0.7-1.9-2.3-2.6l-1-0.4c-2.7-1.2-4.3-2.6-4.3-5.2c0-2.8,2.3-4.5,5.7-4.5
			c1.7,0,3.2,0.5,4.3,1.2l-0.2,3.3h-2l-0.6-3.6l1.8,0.7v1.2c-1.2-1-2.1-1.4-3.4-1.4c-1.5,0-2.7,0.9-2.7,2.3c0,1.3,0.8,2,2.3,2.7
			l1.1,0.5c3.1,1.3,4.3,2.7,4.3,5c0,2.8-2.2,4.7-6,4.7c-1.8,0-3.7-0.4-5-1.2l0.1-3.5h2l0.6,3.8l-1.8-0.6v-1.1c1.5,0.9,2.4,1.3,4,1.3
			C96.6,330.9,97.7,329.9,97.7,328.5z"/>
		<path class="st3" d="M105.7,325.8c0,2.8,1.4,4.4,3.5,4.4c1.2,0,2.2-0.6,2.9-1.5l0.8,0.6c-0.8,1.9-2.5,2.9-4.7,2.9
			c-3.2,0-5.7-2.1-5.7-6c0-3.8,2.8-6.1,6.1-6.1c2.4,0,4.2,1.5,4.4,3.3c-0.2,0.8-0.7,1.1-1.4,1.1c-0.9,0-1.5-0.5-1.7-1.9l-0.3-1.8
			l1.5,1c-0.8-0.4-1.4-0.5-2.2-0.5C107.2,321.3,105.7,322.6,105.7,325.8z"/>
		<path class="st3" d="M114.2,326.1c0-3.7,2.6-6,5.9-6c3.2,0,5.9,2.3,5.9,6s-2.5,6.1-5.9,6.1C116.7,332.2,114.2,329.9,114.2,326.1z
			 M122.5,326.2c0-3.3-0.8-4.9-2.4-4.9c-1.6,0-2.4,1.6-2.4,4.9c0,3.3,0.8,4.8,2.4,4.8C121.6,331,122.5,329.5,122.5,326.2z"/>
		<path class="st3" d="M133,330.5c0.5,0,0.9-0.2,1.4-0.6l0.6,0.6c-0.6,1.1-1.7,1.7-3.3,1.7c-2,0-3.2-0.9-3.2-3.1c0-0.8,0-1.3,0-2.3
			V322h-1.7v-1.3l2.8-0.4l-1.2,0.9l1.3-4.1h2.1l-0.1,4.2v7.4C131.8,330,132.3,330.5,133,330.5z M134.5,320.4v1.5h-4.3v-1.5H134.5z"
			/>
		<path class="st3" d="M141.3,330.5c0.5,0,0.9-0.2,1.4-0.6l0.6,0.6c-0.6,1.1-1.7,1.7-3.3,1.7c-2,0-3.2-0.9-3.2-3.1
			c0-0.8,0-1.3,0-2.3V322h-1.7v-1.3l2.8-0.4l-1.2,0.9l1.3-4.1h2.1l-0.1,4.2v7.4C140,330,140.6,330.5,141.3,330.5z M142.8,320.4v1.5
			h-4.3v-1.5H142.8z"/>
		<path class="st3" d="M149.5,317.5l1.5-1.3l-0.7,4.4h-1.8l0.1-4.4h13.7l0.1,4.4h-1.8l-0.7-4.4l1.5,1.3H149.5z M156,330.3l3.5,0.4
			v1.2h-7.8v-1.2l3.5-0.4H156z M153.8,323.5c0-2.4,0-4.9-0.1-7.4h3.6c-0.1,2.4-0.1,4.9-0.1,7.4v1c0,2.5,0,4.9,0.1,7.4h-3.6
			c0.1-2.4,0.1-4.9,0.1-7.4V323.5z"/>
		<path class="st3" d="M164.4,326.9v-1.3c0-1.3,0-1.9-0.1-2.8l-1.6-0.2v-0.9l4.3-1.5l0.4,0.2l0.2,2.9v3.6c0,1.5,0,3.9,0.1,5h-3.4
			C164.3,330.8,164.4,328.3,164.4,326.9z M162.9,330.8l2.4-0.5h1.9l2.4,0.5v1h-6.7V330.8z M166.1,323.7h1.7l-0.4,0.5
			c0.5-2.7,2.1-4.1,3.5-4.1c0.9,0,1.7,0.5,2,1.5c0,1.2-0.6,1.9-1.6,1.9c-0.7,0-1.2-0.3-1.7-0.9l-0.7-0.8l1,0.2
			c-1,0.7-1.9,1.9-2.3,3.4l-1.5-0.1V323.7z"/>
		<path class="st3" d="M177.6,325.4c1-0.3,2.6-0.7,3.8-1v1c-1.1,0.3-2.4,0.6-3.1,1c-1.4,0.6-1.9,1.4-1.9,2.4c0,1.2,0.7,1.7,1.6,1.7
			c0.6,0,1-0.2,1.9-0.9l0.8-0.6l0.3,0.4l-0.9,1c-1.2,1.3-2,2-3.6,2c-1.8,0-3.1-1.1-3.1-3C173.2,327.6,174.1,326.4,177.6,325.4z
			 M179.7,329.8v-5.8c0-2.2-0.5-2.8-2-2.8c-0.6,0-1.2,0.1-2.2,0.4l1.4-0.9l-0.3,1.8c-0.1,1.3-0.8,1.9-1.6,1.9
			c-0.8,0-1.3-0.4-1.4-1.1c0.2-1.9,2.1-3.2,5.2-3.2c2.9,0,4.1,1.2,4.1,4.4v5.2c0,0.6,0.2,0.9,0.6,0.9c0.3,0,0.5-0.2,0.8-0.5l0.6,0.4
			c-0.6,1.2-1.4,1.6-2.6,1.6C180.7,332.2,179.9,331.3,179.7,329.8z"/>
		<path class="st3" d="M187,331.9c0-1.1,0.1-3.5,0.1-5v-1.3c0-1.3,0-1.9-0.1-2.8l-1.6-0.2v-0.9l4.3-1.5l0.4,0.2l0.2,2.7v3.9
			c0,1.5,0,3.9,0.1,5H187z M191.6,330.8v1h-6v-1l2.3-0.5h1.4L191.6,330.8z M197.3,324.3v2.6c0,1.5,0,3.9,0.1,5h-3.3
			c0-1.1,0.1-3.5,0.1-5v-2.2c0-1.8-0.4-2.5-1.6-2.5c-1.1,0-2.1,0.7-3,1.7h-0.8v-1.4h1.4l-0.8,0.6c1.3-1.9,2.8-3,4.6-3
			C196.2,320.1,197.3,321.4,197.3,324.3z M196.4,330.4l2.2,0.5v1h-5.9v-1l2.2-0.5H196.4z M204.4,324.3v2.6c0,1.5,0,3.9,0.1,5h-3.3
			c0-1.1,0.1-3.5,0.1-5v-2.2c0-1.9-0.4-2.4-1.5-2.4c-1,0-2,0.6-3,1.7h-0.8v-1.4h1.6l-1,0.6c1.6-2.3,3-3,4.6-3
			C203.3,320.1,204.4,321.4,204.4,324.3z M203.5,330.4l2.3,0.5v1h-5.9v-1l2.2-0.5H203.5z"/>
		<path class="st3" d="M217.8,325c0,0.5,0,0.9-0.1,1.3h-9.1v-1.2h4.8c1.1,0,1.4-0.5,1.4-1.4c0-1.5-0.9-2.4-1.9-2.4
			c-1.1,0-2.3,1.1-2.3,4.6c0,2.9,1.5,4.3,3.4,4.3c1.4,0,2.3-0.6,3-1.4l0.7,0.7c-0.9,1.8-2.6,2.8-4.9,2.8c-3.4,0-5.7-2.2-5.7-6
			c0-3.9,2.9-6.1,5.9-6.1C216,320.1,217.8,322.1,217.8,325z"/>
		<path class="st3" d="M220.8,326.9v-1.3c0-1.3,0-1.9-0.1-2.8l-1.6-0.2v-0.9l4.3-1.5l0.4,0.2l0.2,2.9v3.6c0,1.5,0,3.9,0.1,5h-3.4
			C220.8,330.8,220.8,328.3,220.8,326.9z M219.4,330.8l2.4-0.5h1.9l2.4,0.5v1h-6.7V330.8z M222.6,323.7h1.7l-0.4,0.5
			c0.5-2.7,2.1-4.1,3.5-4.1c0.9,0,1.7,0.5,2,1.5c0,1.2-0.6,1.9-1.6,1.9c-0.7,0-1.2-0.3-1.7-0.9l-0.7-0.8l1,0.2
			c-1,0.7-1.9,1.9-2.3,3.4l-1.5-0.1V323.7z"/>
	</g>
</g>
<g>
	<g>
		<path class="st3" d="M95.4,371.1c1,0,1.7-0.3,2.4-1.1l0.5,0.3c-0.8,1.4-2.1,2.3-4,2.3c-2.7,0-4.7-1.7-4.7-4.6c0-3.2,2.4-5,5.5-5
			c3.6,0,5.6,2.4,5.6,6.3c0,4.8-3.4,8.5-9.4,9.6l-0.2-1.1c4.7-1.6,6.4-3.9,6.4-8.6c0-3.8-0.9-5-2.3-5c-1.2,0-2.2,1.1-2.2,3.5
			C92.8,370,93.9,371.1,95.4,371.1z"/>
		<path class="st3" d="M104,369.7c1.2-0.5,2.3-0.6,3.6-0.6c3.5,0,5.7,1.6,5.7,4.7c0,3.2-2.6,5-6.1,5c-2.9,0-4.6-1.4-4.8-3.8
			c0.2-0.7,0.8-1,1.4-1c0.9,0,1.4,0.5,1.6,1.9l0.3,2l-0.8-0.8c0.7,0.3,1.1,0.4,1.8,0.4c1.9,0,3.1-1.3,3.1-3.4c0-2.3-1.2-3.5-3.1-3.5
			c-0.7,0-1.5,0.1-2.2,0.3l-0.7-0.4l0.5-7.2h8.4v2.6h-7.9l0.9-1.8l-0.4,5.9H104V369.7z"/>
		<path class="st3" d="M125.1,377.4v1h-9.3v-1l3.2-0.7h3.1L125.1,377.4z M121.9,363.1l0.3,0.2l-0.1,3.4v6.7c0,1.6,0,3.3,0.1,5h-3.4
			c0-1.7,0.1-3.3,0.1-5v-8l-2.6,0.2v-1.3L121.9,363.1z"/>
		<path class="st3" d="M127.6,371.5h6v2h-6V371.5z"/>
		<path class="st3" d="M135,374.9V373l7-9.7h2.2v15.2h-2.9v-13.2h0.8l-5.6,8l-0.3-0.6h10.3v2.3H135z"/>
		<path class="st3" d="M155.6,374.1c0-2.3-0.8-3.5-2.3-3.5c-0.9,0-1.9,0.4-2.6,1.4l-0.5-0.3c0.9-1.8,2.5-2.7,4.2-2.7
			c2.8,0,4.4,1.8,4.4,4.6c0,3.4-2.4,5.1-5.3,5.1c-3.5,0-5.7-2.4-5.7-6.6c0-4.8,3.9-8.6,9.9-9.2l0.1,1.1c-4.6,1.1-6.8,3.7-6.8,7.7
			c0,4.2,1,5.9,2.4,5.9C154.8,377.6,155.6,376.6,155.6,374.1z"/>
		<path class="st3" d="M164.6,370c1.9,0,3.1-1,3.1-3c0-1.8-0.9-2.7-2.6-2.7c-0.5,0-1.1,0.1-1.8,0.3l1.3-0.8l-0.4,2
			c-0.2,1.2-0.8,1.6-1.7,1.6c-0.6,0-1-0.3-1.3-0.8c0.1-2.4,2.2-3.5,4.6-3.5c3.3,0,5,1.6,5,3.8c0,1.8-1.4,3.5-4.4,3.9v-0.4
			c3.5,0.3,4.8,1.8,4.8,4.1c0,2.5-2.2,4.4-5.7,4.4c-3,0-4.8-1.3-5-3.8c0.3-0.7,0.8-1,1.4-1c0.9,0,1.4,0.5,1.6,2l0.4,2.1l-1.1-0.9
			c0.7,0.3,1.2,0.4,1.8,0.4c2.2,0,3.3-1.1,3.3-3.3c0-2-1.1-3.1-3.2-3.1h-0.9V370H164.6z"/>
		<path class="st3" d="M173.1,371.5h6v2h-6V371.5z"/>
		<path class="st3" d="M188.5,374.1c0-2.3-0.8-3.5-2.3-3.5c-0.9,0-1.9,0.4-2.6,1.4l-0.5-0.3c0.9-1.8,2.5-2.7,4.2-2.7
			c2.8,0,4.4,1.8,4.4,4.6c0,3.4-2.4,5.1-5.3,5.1c-3.5,0-5.7-2.4-5.7-6.6c0-4.8,3.9-8.6,9.9-9.2l0.1,1.1c-4.6,1.1-6.8,3.7-6.8,7.7
			c0,4.2,1,5.9,2.4,5.9C187.7,377.6,188.5,376.6,188.5,374.1z"/>
		<path class="st3" d="M197.7,371l0.8,0.4c-1.5,1.2-2.2,2.1-2.2,3.6c0,1.5,1,2.7,2.5,2.7c1.5,0,2.3-1.1,2.3-2.4
			c0-1.4-0.8-2.3-3.6-3.5c-2.4-1.1-3.6-2.6-3.6-4.5c0-2.6,2.2-4.2,5-4.2c3,0,4.6,1.6,4.6,3.5c0,1.3-0.9,2.7-3.8,3.9l-0.7-0.4
			c1.5-1.4,1.9-2.3,1.9-3.6c0-1.3-0.8-2.3-2-2.3c-1.1,0-2.2,0.8-2.2,2.1c0,1.2,0.6,2.2,3.4,3.5c2.6,1.2,4,2.6,4,4.8
			c0,2.6-2.1,4.2-5.5,4.2c-3.2,0-5-1.4-5-3.7C193.6,373.3,195.1,372,197.7,371z"/>
		<path class="st3" d="M210.1,370c1.9,0,3.1-1,3.1-3c0-1.8-0.9-2.7-2.6-2.7c-0.5,0-1.1,0.1-1.8,0.3l1.3-0.8l-0.4,2
			c-0.2,1.2-0.8,1.6-1.7,1.6c-0.6,0-1-0.3-1.3-0.8c0.1-2.4,2.2-3.5,4.6-3.5c3.3,0,5,1.6,5,3.8c0,1.8-1.4,3.5-4.4,3.9v-0.4
			c3.5,0.3,4.8,1.8,4.8,4.1c0,2.5-2.2,4.4-5.7,4.4c-3,0-4.8-1.3-5-3.8c0.3-0.7,0.8-1,1.4-1c0.9,0,1.4,0.5,1.6,2l0.4,2.1l-1.1-0.9
			c0.7,0.3,1.2,0.4,1.8,0.4c2.2,0,3.3-1.1,3.3-3.3c0-2-1.1-3.1-3.2-3.1h-0.9V370H210.1z"/>
		<path class="st3" d="M220.2,369.7c1.2-0.5,2.3-0.6,3.6-0.6c3.5,0,5.7,1.6,5.7,4.7c0,3.2-2.6,5-6.1,5c-2.9,0-4.6-1.4-4.8-3.8
			c0.2-0.7,0.8-1,1.4-1c0.9,0,1.4,0.5,1.6,1.9l0.3,2l-0.8-0.8c0.7,0.3,1.1,0.4,1.8,0.4c1.9,0,3.1-1.3,3.1-3.4c0-2.3-1.2-3.5-3.1-3.5
			c-0.7,0-1.5,0.1-2.2,0.3l-0.7-0.4l0.5-7.2h8.4v2.6H221l0.9-1.8l-0.4,5.9h-1.3V369.7z"/>
	</g>
</g>
<g>
	<g>
		<path class="st3" d="M69.3,477.9v-1.1h7.6v1.1l-3.5,0.4h-0.6L69.3,477.9z M73.4,493.4l3.5,0.4v1.1h-7.6v-1.1l3.5-0.4H73.4z
			 M71.8,485.2c0-2.8,0-5.6-0.1-8.4h2.7c-0.1,2.7-0.1,5.5-0.1,8.4v0.8c0,3.3,0,6.1,0.1,8.9h-2.7c0.1-2.7,0.1-5.5,0.1-8.4V485.2z
			 M73.1,486.2V485h11.3v1.3H73.1z M80.6,477.9v-1.1h7.6v1.1l-3.5,0.4h-0.6L80.6,477.9z M84.6,493.4l3.5,0.4v1.1h-7.6v-1.1l3.5-0.4
			H84.6z M83.1,485.2c0-2.8,0-5.6-0.1-8.4h2.7c-0.1,2.7-0.1,5.5-0.1,8.4v1.3c0,2.8,0,5.6,0.1,8.4H83c0.1-2.7,0.1-5.5,0.1-8.9V485.2z
			"/>
		<path class="st3" d="M93.6,490.1c0,2.4,0.7,3.2,2.1,3.2c1.4,0,2.8-0.7,4.1-2h0.6v1.4H99l0.9-0.4c-1.5,2.1-3.4,3-5.1,3
			c-2.2,0-3.5-1.3-3.5-4.9l0.1-7.1l0.6,0.5l-2.5-0.5v-1l4-0.4l0.3,0.3l-0.1,3.8V490.1z M99.9,495.1l-0.4-3.2l0.1-8.7l0.6,0.5
			l-2.5-0.5v-0.9l3.9-0.4l0.3,0.3l-0.1,3.8v8.1l-0.7-0.7l2.5,0.5v1L99.9,495.1z"/>
		<path class="st3" d="M107.6,494.9c0.1-1.2,0.1-4,0.1-5.7v-1.3c0-1.5,0-2.3-0.1-3.4l-2.1-0.2v-1l3.8-1.6l0.4,0.3l0.3,3.1v4.1
			c0,1.7,0,4.4,0.1,5.7H107.6z M111.9,493.9v1h-6.3v-1l2.9-0.5h0.6L111.9,493.9z M118,486.7v2.5c0,1.7,0,4.4,0.1,5.7h-2.4
			c0.1-1.2,0.1-3.9,0.1-5.7v-2.3c0-2.5-0.6-3.3-2.2-3.3c-1.3,0-2.4,0.6-3.8,1.9h-0.6v-1.2h1.4l-1.1,0.5c1.3-1.7,3.3-3.1,5.2-3.1
			C116.9,481.7,118,483.1,118,486.7z M117.3,493.4l2.7,0.5v1h-6.2v-1l2.9-0.5H117.3z M126.1,486.4v2.8c0,1.7,0,4.4,0.1,5.7h-2.4
			c0.1-1.2,0.1-3.9,0.1-5.7v-2.3c0-2.5-0.7-3.2-2.2-3.2c-1.2,0-2.3,0.5-3.8,1.9h-0.7v-1h1.5l-1.2,0.2c1.4-2,3.4-3.1,5.3-3.1
			C124.8,481.7,126.1,483.1,126.1,486.4z M125.3,493.4l2.7,0.5v1h-6.2v-1l2.9-0.5H125.3z"/>
		<path class="st3" d="M134.5,487.8c1.1-0.4,2.8-0.9,4.2-1.1v1c-1.2,0.2-2.8,0.8-3.6,1.1c-2.4,0.9-2.7,1.9-2.7,2.7
			c0,1.4,0.9,2,2.2,2c0.9,0,1.5-0.3,3.1-1.5l0.6-0.4l0.4,0.6l-0.8,0.8c-1.6,1.6-2.5,2.4-4.2,2.4c-2,0-3.6-1.1-3.6-3.4
			C130,490.3,130.9,489.1,134.5,487.8z M137.5,492.4v-6.2c0-2.6-0.7-3.3-2.5-3.3c-0.6,0-1.4,0.1-2.4,0.5l1.1-0.8l-0.7,2.3
			c-0.2,0.8-0.7,1.3-1.4,1.3c-0.7,0-1.2-0.4-1.2-1.1c0.5-2.1,2.5-3.3,5.3-3.3c2.8,0,4.2,1.3,4.2,4.7v5.7c0,1.2,0.4,1.6,1,1.6
			c0.4,0,0.7-0.2,1-0.6l0.5,0.6c-0.6,1-1.4,1.4-2.3,1.4C138.5,495.1,137.6,494.1,137.5,492.4z"/>
		<path class="st3" d="M145.4,494.9c0.1-1.2,0.1-4,0.1-5.7v-1.3c0-1.5,0-2.3-0.1-3.4l-2.1-0.2v-1l3.8-1.6l0.4,0.3l0.3,3.1v4.1
			c0,1.7,0,4.4,0.1,5.7H145.4z M149.7,493.9v1h-6.3v-1l2.9-0.5h0.6L149.7,493.9z M156,486.7v2.5c0,1.7,0,4.4,0.1,5.7h-2.4
			c0.1-1.2,0.1-3.9,0.1-5.7v-2.3c0-2.5-0.6-3.3-2.2-3.3c-1.3,0-2.4,0.5-4,1.9H147v-1.2h1.4l-1.2,0.5c1.3-1.8,3.4-3.1,5.3-3.1
			C154.9,481.7,156,483.1,156,486.7z M155.2,493.4l2.7,0.5v1h-6.3v-1l2.9-0.5H155.2z"/>
		<path class="st3" d="M166.2,477.9v-1.1h3.8v1.5h-0.3L166.2,477.9z M170.3,493.4l3.5,0.4v1.1h-7.6v-1.1l3.5-0.4H170.3z
			 M168.7,485.2c0-2.8,0-5.6-0.1-8.4h2.7c-0.1,2.8-0.1,5.5-0.1,8.6v0.8c0,3,0,5.8,0.1,8.6h-2.7c0.1-2.7,0.1-5.5,0.1-8.4V485.2z
			 M170,485.3h3.4c2.9,0,4.3-1.6,4.3-3.7c0-2.3-1.2-3.5-4-3.5H170v-1.3h3.7c4.1,0,6.6,1.7,6.6,4.7c0,2.3-1.8,4.4-5.4,4.7l0.1-0.2
			c2.1,0.2,3.3,1.1,4,3.6l1.3,4.5l-0.9-0.6l2.8,0.3v1.1c-0.5,0.2-1.2,0.3-2,0.3c-1.7,0-2.5-0.4-2.8-1.7l-1.1-4.3
			c-0.5-2.2-1.5-2.6-3.7-2.6H170V485.3z"/>
		<path class="st3" d="M194.7,486.9c0,0.6-0.1,1.2-0.2,1.5h-10v-1.1h6.3c1.3,0,1.6-0.6,1.6-1.4c0-1.5-1.3-2.9-2.9-2.9
			c-1.7,0-3.6,1.4-3.6,5.3c0,3.4,1.7,5.2,4.4,5.2c1.7,0,2.8-0.8,3.7-1.9l0.6,0.5c-1,1.9-2.7,3.1-5.2,3.1c-3.6,0-6-2.5-6-6.6
			c0-4.1,2.8-6.9,6.2-6.9C192.5,481.7,194.7,483.6,194.7,486.9z"/>
		<path class="st3" d="M197.4,494.2l-0.1-3h1.5l0.7,3.2l-1.3-0.6v-0.9c1,0.7,2,1.1,3.3,1.1c2,0,3-0.8,3-2c0-1.1-0.8-1.7-2.5-2.3
			l-1.3-0.5c-2-0.7-3.3-1.8-3.3-3.6c0-2,1.7-3.8,4.7-3.8c1.5,0,2.6,0.4,3.8,1.1l-0.1,2.7h-1.4l-0.6-2.8l1,0.4v0.7
			c-0.9-0.7-1.8-1-2.8-1c-1.6,0-2.5,0.7-2.5,1.8c0,1.2,0.7,1.6,2.5,2.3l0.8,0.3c2.7,1,3.7,2.3,3.7,3.9c0,2-1.8,3.9-5.3,3.9
			C199.9,495.2,198.7,494.9,197.4,494.2z"/>
		<path class="st3" d="M209,488.5c0-4.5,3-6.8,6.2-6.8c3.1,0,6.2,2.3,6.2,6.8s-3.1,6.7-6.2,6.7C212,495.2,209,493,209,488.5z
			 M218.8,488.5c0-3.6-1.3-5.6-3.6-5.6c-2.3,0-3.6,2-3.6,5.6s1.3,5.5,3.6,5.5C217.4,494,218.8,492.1,218.8,488.5z"/>
		<path class="st3" d="M227.1,490.1c0,2.4,0.7,3.2,2.1,3.2c1.4,0,2.8-0.7,4.1-2h0.6v1.4h-1.4l0.9-0.4c-1.5,2.1-3.4,3-5.1,3
			c-2.2,0-3.5-1.3-3.5-4.9l0.1-7.1l0.6,0.5l-2.5-0.5v-1l4-0.4l0.3,0.3l-0.1,3.8V490.1z M233.3,495.1l-0.4-3.2l0.1-8.7l0.6,0.5
			l-2.5-0.5v-0.9l3.9-0.4l0.3,0.3l-0.1,3.8v8.1l-0.7-0.7l2.5,0.5v1L233.3,495.1z"/>
		<path class="st3" d="M241.1,489.2v-1.3c0-1.5,0-2.3-0.1-3.4l-2.1-0.2v-1l3.8-1.6l0.4,0.3l0.3,3.4v3.8c0,1.7,0,4.4,0.1,5.7H241
			C241.1,493.6,241.1,490.9,241.1,489.2z M239.1,493.9l2.9-0.5h0.7l2.9,0.5v1h-6.6V493.9z M242.3,485.6h1.6l-0.7,0.2
			c0.8-2.6,2.5-4.1,4.1-4.1c0.8,0,1.6,0.4,1.9,1c0,1.3-0.5,2-1.6,2c-0.6,0-1.1-0.3-1.6-0.7l-0.7-0.6l1.3-0.2
			c-1.6,0.9-2.6,2.2-3.2,4.3l-1.1,0V485.6z"/>
		<path class="st3" d="M252.6,488.2c0,3.4,1.8,5.2,4.3,5.2c1.5,0,2.9-0.7,3.7-2.1l0.7,0.4c-0.7,2.2-2.5,3.5-5,3.5
			c-3.7,0-6.1-2.6-6.1-6.7c0-4.2,3-6.8,6.2-6.8c2.4,0,4.4,1.5,4.8,3.5c-0.1,0.7-0.6,1-1.2,1c-0.9,0-1.3-0.5-1.5-1.3l-0.6-2.3l1.3,1
			c-0.9-0.5-1.8-0.7-2.6-0.7C254.3,482.9,252.6,484.8,252.6,488.2z"/>
		<path class="st3" d="M274.7,486.9c0,0.6-0.1,1.2-0.2,1.5h-10v-1.1h6.3c1.3,0,1.6-0.6,1.6-1.4c0-1.5-1.3-2.9-2.9-2.9
			c-1.7,0-3.6,1.4-3.6,5.3c0,3.4,1.7,5.2,4.4,5.2c1.7,0,2.8-0.8,3.7-1.9l0.6,0.5c-1,1.9-2.7,3.1-5.2,3.1c-3.6,0-6-2.5-6-6.6
			c0-4.1,2.8-6.9,6.2-6.9C272.5,481.7,274.7,483.6,274.7,486.9z"/>
		<path class="st3" d="M277.4,494.2l-0.1-3h1.5l0.7,3.2l-1.3-0.6v-0.9c1,0.7,2,1.1,3.3,1.1c2,0,3-0.8,3-2c0-1.1-0.8-1.7-2.5-2.3
			l-1.3-0.5c-2-0.7-3.3-1.8-3.3-3.6c0-2,1.7-3.8,4.7-3.8c1.5,0,2.6,0.4,3.8,1.1l-0.1,2.7h-1.4l-0.6-2.8l1,0.4v0.7
			c-0.9-0.7-1.8-1-2.8-1c-1.6,0-2.5,0.7-2.5,1.8c0,1.2,0.7,1.6,2.5,2.3l0.8,0.3c2.7,1,3.7,2.3,3.7,3.9c0,2-1.8,3.9-5.3,3.9
			C279.9,495.2,278.7,494.9,277.4,494.2z"/>
	</g>
</g>
<g>
	<g>
		<path class="st3" d="M95.3,538.3c0-1.6-1-2.4-3.1-3.2l-1-0.4c-2.6-1-4.4-2.5-4.4-5.1c0-2.9,2.5-4.7,5.7-4.7c1.7,0,3.1,0.5,4.2,1.3
			l-0.2,3.3H95l-0.7-3.8l1.6,0.8v1.3c-1.2-1.2-2.2-1.6-3.5-1.6c-1.9,0-3.4,1-3.4,2.9c0,1.6,1,2.5,2.9,3.2l1,0.4
			c3.3,1.3,4.6,2.8,4.6,5.2c0,3-2.5,4.8-6,4.8c-1.9,0-3.8-0.6-5-1.3l0.2-3.6h1.6l0.7,3.9l-1.7-0.7v-1.2c1.6,1.1,2.4,1.6,4.2,1.6
			C93.8,541.3,95.3,540.2,95.3,538.3z"/>
		<path class="st3" d="M103.8,535.5c1.1-0.4,2.7-0.8,3.9-1.1v0.9c-1.1,0.2-2.6,0.7-3.4,1c-2.2,0.9-2.5,1.8-2.5,2.6
			c0,1.3,0.9,1.9,2,1.9c0.9,0,1.4-0.3,2.9-1.4l0.5-0.4l0.4,0.5l-0.8,0.8c-1.5,1.5-2.4,2.2-3.9,2.2c-1.9,0-3.4-1.1-3.4-3.2
			C99.6,537.9,100.4,536.8,103.8,535.5z M106.7,539.9v-5.8c0-2.5-0.7-3.1-2.4-3.1c-0.6,0-1.3,0.1-2.3,0.5l1.1-0.8l-0.6,2.2
			c-0.2,0.8-0.6,1.2-1.3,1.2c-0.7,0-1.1-0.4-1.2-1c0.5-1.9,2.3-3.1,5-3.1c2.6,0,3.9,1.2,3.9,4.4v5.4c0,1.1,0.3,1.5,0.9,1.5
			c0.4,0,0.7-0.2,1-0.6l0.5,0.6c-0.6,1-1.3,1.3-2.2,1.3C107.6,542.5,106.7,541.5,106.7,539.9z"/>
		<path class="st3" d="M114.2,542.2c0.1-1.1,0.1-3.8,0.1-5.3v-1.2c0-1.4,0-2.2-0.1-3.2l-2-0.2v-0.9l3.5-1.5l0.4,0.3l0.3,2.9v3.9
			c0,1.6,0,4.2,0.1,5.3H114.2z M118.2,541.3v0.9h-5.9v-0.9l2.8-0.5h0.6L118.2,541.3z M124,534.5v2.4c0,1.6,0,4.2,0.1,5.3h-2.3
			c0.1-1.1,0.1-3.7,0.1-5.3v-2.1c0-2.3-0.6-3.1-2.1-3.1c-1.2,0-2.2,0.5-3.6,1.8h-0.6v-1.2h1.3l-1.1,0.5c1.2-1.6,3.1-2.9,4.9-2.9
			C122.9,529.8,124,531.2,124,534.5z M123.3,540.8l2.5,0.5v0.9h-5.9v-0.9l2.8-0.5H123.3z M131.6,534.3v2.6c0,1.6,0,4.2,0.1,5.3h-2.3
			c0.1-1.1,0.1-3.7,0.1-5.3v-2.2c0-2.4-0.6-3-2.1-3c-1.1,0-2.2,0.5-3.6,1.8h-0.6v-0.9h1.4l-1.2,0.2c1.3-1.9,3.2-2.9,5-2.9
			C130.4,529.8,131.6,531.1,131.6,534.3z M130.9,540.8l2.5,0.5v0.9h-5.9v-0.9l2.8-0.5H130.9z"/>
		<path class="st3" d="M141.2,526.3v-1h7.2v1l-3.3,0.4h-0.5L141.2,526.3z M145,540.8l3.3,0.4v1h-7.2v-1l3.3-0.4H145z M143.6,533.1
			c0-2.6,0-5.3-0.1-7.9h2.5c-0.1,2.6-0.1,5.2-0.1,7.9v0.8c0,3.1,0,5.7,0.1,8.4h-2.5c0.1-2.6,0.1-5.2,0.1-7.9V533.1z M144.8,534.1
			v-1.2h10.6v1.2H144.8z M151.8,526.3v-1h7.2v1l-3.3,0.4h-0.5L151.8,526.3z M155.6,540.8l3.3,0.4v1h-7.2v-1l3.3-0.4H155.6z
			 M154.2,533.1c0-2.6,0-5.3-0.1-7.9h2.5c-0.1,2.6-0.1,5.2-0.1,7.9v1.2c0,2.6,0,5.3,0.1,7.9h-2.5c0.1-2.6,0.1-5.2,0.1-8.4V533.1z"/>
		<path class="st3" d="M164.9,535.5c1.1-0.4,2.7-0.8,3.9-1.1v0.9c-1.1,0.2-2.6,0.7-3.4,1c-2.2,0.9-2.5,1.8-2.5,2.6
			c0,1.3,0.9,1.9,2,1.9c0.9,0,1.4-0.3,2.9-1.4l0.5-0.4l0.4,0.5l-0.8,0.8c-1.5,1.5-2.4,2.2-3.9,2.2c-1.9,0-3.4-1.1-3.4-3.2
			C160.7,537.9,161.5,536.8,164.9,535.5z M167.8,539.9v-5.8c0-2.5-0.7-3.1-2.4-3.1c-0.6,0-1.3,0.1-2.3,0.5l1.1-0.8l-0.6,2.2
			c-0.2,0.8-0.6,1.2-1.3,1.2c-0.7,0-1.1-0.4-1.2-1c0.5-1.9,2.3-3.1,5-3.1c2.6,0,3.9,1.2,3.9,4.4v5.4c0,1.1,0.3,1.5,0.9,1.5
			c0.4,0,0.7-0.2,1-0.6l0.5,0.6c-0.6,1-1.3,1.3-2.2,1.3C168.7,542.5,167.8,541.5,167.8,539.9z"/>
		<path class="st3" d="M175.3,536.9v-1.2c0-1.4,0-2.2-0.1-3.2l-2-0.2v-0.9l3.5-1.5l0.4,0.3l0.3,3.2v3.6c0,1.6,0,4.2,0.1,5.3h-2.3
			C175.3,541.1,175.3,538.5,175.3,536.9z M173.4,541.3l2.8-0.5h0.6l2.8,0.5v0.9h-6.2V541.3z M176.4,533.5h1.5l-0.6,0.2
			c0.8-2.4,2.4-3.8,3.8-3.8c0.8,0,1.5,0.4,1.8,0.9c0,1.2-0.5,1.9-1.5,1.9c-0.6,0-1.1-0.2-1.5-0.6l-0.7-0.6l1.2-0.2
			c-1.5,0.8-2.4,2.1-3,4l-1,0V533.5z"/>
		<path class="st3" d="M189.5,541.2c0.6,0,1.1-0.2,1.7-0.7l0.6,0.7c-0.6,0.8-1.7,1.3-3,1.3c-1.8,0-2.9-0.9-2.9-2.9
			c0-0.6,0-1.2,0-2.2v-6h-2.1v-1.1l3.1-0.4l-1,0.8l0.8-4.1h1.5l-0.2,4.4v8.2C188,540.7,188.6,541.2,189.5,541.2z M191.5,530.2v1.3
			H187v-1.3H191.5z"/>
		<path class="st3" d="M192.6,541.3l2.7-0.5l-0.9,1.4c0.1-1.1,0.1-3.8,0.1-5.3v-11.1l-2.1-0.3v-0.9l3.9-1.1l0.4,0.2l-0.1,3.6v4.8
			l0.1,0.3v7.8l-0.3,2.3l-3.8-0.3V541.3z M203,536.3c0-3.3-1.3-5-3.2-5c-0.9,0-2.2,0.5-4,2.3l-0.2-0.5c1.5-2.3,3.1-3.2,4.9-3.2
			c2.7,0,4.8,2.3,4.8,6.2c0,3.9-2.3,6.5-5.2,6.5c-1.6,0-3.1-0.7-4.5-3.4l0.2-0.4c1.3,1.7,2.6,2.3,3.8,2.3
			C201.5,541.1,203,539.6,203,536.3z"/>
		<path class="st3" d="M211.8,535.5c1.1-0.4,2.7-0.8,3.9-1.1v0.9c-1.1,0.2-2.6,0.7-3.4,1c-2.2,0.9-2.5,1.8-2.5,2.6
			c0,1.3,0.9,1.9,2,1.9c0.9,0,1.4-0.3,2.9-1.4l0.5-0.4l0.4,0.5l-0.8,0.8c-1.5,1.5-2.4,2.2-3.9,2.2c-1.9,0-3.4-1.1-3.4-3.2
			C207.6,537.9,208.4,536.8,211.8,535.5z M214.7,539.9v-5.8c0-2.5-0.7-3.1-2.4-3.1c-0.6,0-1.3,0.1-2.3,0.5l1.1-0.8l-0.6,2.2
			c-0.2,0.8-0.6,1.2-1.3,1.2c-0.7,0-1.1-0.4-1.2-1c0.5-1.9,2.3-3.1,5-3.1c2.6,0,3.9,1.2,3.9,4.4v5.4c0,1.1,0.3,1.5,0.9,1.5
			c0.4,0,0.7-0.2,1-0.6l0.5,0.6c-0.6,1-1.3,1.3-2.2,1.3C215.6,542.5,214.7,541.5,214.7,539.9z"/>
		<path class="st3" d="M222.1,542.2c0.1-1.1,0.1-3.8,0.1-5.3v-1.2c0-1.4,0-2.2-0.1-3.2l-2-0.2v-0.9l3.5-1.5l0.4,0.3l0.3,2.9v3.9
			c0,1.6,0,4.2,0.1,5.3H222.1z M226.1,541.3v0.9h-5.9v-0.9l2.8-0.5h0.6L226.1,541.3z M232,534.5v2.4c0,1.6,0,4.2,0.1,5.3h-2.3
			c0.1-1.1,0.1-3.7,0.1-5.3v-2.2c0-2.3-0.6-3.1-2.1-3.1c-1.2,0-2.3,0.5-3.7,1.8h-0.6v-1.2h1.3l-1.1,0.5c1.2-1.7,3.2-2.9,5-2.9
			C231,529.8,232,531.2,232,534.5z M231.3,540.8l2.5,0.5v0.9H228v-0.9l2.8-0.5H231.3z"/>
		<path class="st3" d="M241.6,541.1c1.3,0,2.2-0.6,3.3-2.1l0.2,0.7c-1,1.8-2.2,2.8-4.2,2.8c-3.1,0-5.2-2.5-5.2-6.3
			c0-3.9,2.3-6.5,5.4-6.5c1.5,0,2.7,0.6,4,2.6l-0.3,0.7c-1.4-1.4-2.4-1.8-3.4-1.8c-1.9,0-3.5,1.5-3.5,5
			C238,539.6,239.5,541.1,241.6,541.1z M248.6,541.3v0.9l-3.9,0.3l-0.3-2.6v-7.5l0.1-0.3v-6.3l-2.2-0.3v-0.9l4-1.1l0.4,0.2l-0.1,3.6
			v15l-0.5-1.3L248.6,541.3z"/>
	</g>
</g>
<g>
	<g>
		<path class="st3" d="M91.9,580c1.5,0,2.5-0.5,3.5-1.8l0.4,0.2c-0.9,2.1-2.5,3.1-4.6,3.1c-2.7,0-4.9-1.9-4.9-5
			c0-3.2,2.2-5.3,5.4-5.3c3.3,0,5.3,2.6,5.3,6.6c0,4.8-2.7,9.1-9.2,10.6l-0.3-1c5.4-1.8,7.2-4.6,7.2-9.3c0-4.1-1.2-5.9-3.1-5.9
			c-1.6,0-3,1.3-3,3.9C88.5,578.9,90,580,91.9,580z"/>
		<path class="st3" d="M100.7,578.4c1.2-0.5,2.3-0.7,3.5-0.7c3.3,0,5.6,1.8,5.6,5.2c0,3.3-2.4,5.4-5.9,5.4c-2.6,0-4.2-1.2-4.8-3.6
			c0.2-0.6,0.7-0.9,1.3-0.9c0.8,0,1.1,0.4,1.5,1.7l0.5,1.9l-1-0.8c0.9,0.4,1.6,0.5,2.3,0.5c2.5,0,3.8-1.6,3.8-4c0-2.5-1.5-3.9-4-3.9
			c-0.7,0-1.5,0.1-2.3,0.3l-0.7-0.2l0.5-7.7h8.3v2.1h-7.8l0.7-1.2l-0.4,6.3h-1.1V578.4z"/>
		<path class="st3" d="M122.2,587.1v0.9h-9.4v-0.9l3.6-0.6h2.1L122.2,587.1z M118.3,571.4l0.4,0.3l-0.1,3.6v7.4c0,1.8,0,3.6,0.1,5.3
			h-2.3c0.1-1.8,0.1-3.6,0.1-5.3v-9.1l-3.3,0.3v-1L118.3,571.4z"/>
		<path class="st3" d="M124.6,580.8h5.9v1.7h-5.9V580.8z"/>
		<path class="st3" d="M140.9,583.3c0-2.7-1.2-3.8-2.9-3.8c-1.2,0-2.5,0.4-3.5,1.5l-0.4-0.4c1.1-1.7,2.8-2.7,4.5-2.7
			c2.8,0,4.6,1.9,4.6,4.9c0,3.6-2.2,5.5-5.2,5.5c-3.4,0-5.5-2.6-5.5-7.2c0-5,3.4-9.1,9.7-9.8l0.2,0.8c-5.4,1.3-7.6,4-7.6,8.7
			c0,4.4,1.3,6.4,3.3,6.4C139.8,587.2,140.9,585.9,140.9,583.3z"/>
		<path class="st3" d="M149.3,579.7l1.1,0.4c-2,1.2-3,2.1-3,4c0,1.8,1.3,3.1,3.2,3.1c1.8,0,3-1.3,3-3c0-1.5-0.9-2.4-3.9-3.8
			c-2.7-1.3-3.8-2.9-3.8-4.8c0-2.6,2.1-4.2,4.7-4.2c2.7,0,4.4,1.6,4.4,3.9c0,1.3-0.8,2.9-3.7,4.4l-0.9-0.4c2-1.4,2.7-2.4,2.7-4
			c0-1.5-0.9-2.8-2.5-2.8c-1.4,0-2.7,1-2.7,2.5c0,1.4,0.7,2.7,3.6,4c2.8,1.3,4.2,2.6,4.2,5c0,2.6-2.3,4.3-5.2,4.3
			c-3.1,0-5.2-1.4-5.2-4.1C145.3,582.3,146.7,581,149.3,579.7z"/>
		<path class="st3" d="M162.2,578.7c2.3,0,3.6-1.2,3.6-3.4c0-1.9-1.1-2.9-3.1-2.9c-0.5,0-1.3,0.1-2.1,0.4l1.1-0.7l-0.5,1.8
			c-0.3,1.1-0.6,1.6-1.5,1.6c-0.6,0-1-0.2-1.3-0.9c0.5-2.2,2.4-3.3,4.7-3.3c3,0,4.9,1.6,4.9,4c0,2.1-1.6,3.8-4.3,4.4v-0.4
			c3.3,0.3,4.8,1.9,4.8,4.3c0,2.8-2.3,4.9-5.7,4.9c-2.5,0-4.4-1.1-4.9-3.6c0.3-0.6,0.7-0.8,1.3-0.8c0.8,0,1.1,0.6,1.5,1.8l0.5,2
			l-1-0.9c0.9,0.4,1.7,0.4,2.3,0.4c2.5,0,3.8-1.4,3.8-3.6c0-2.2-1.3-3.5-3.9-3.5h-1.2v-1.3H162.2z"/>
		<path class="st3" d="M170.6,580.8h5.9v1.7h-5.9V580.8z"/>
		<path class="st3" d="M187.9,572.9l0.4,0.8h-9.6v-2.1h10.5v1.3l-6,15.1h-2.1l-0.3-0.3L187.9,572.9z"/>
		<path class="st3" d="M196.5,580c1.5,0,2.5-0.5,3.5-1.8l0.4,0.2c-0.9,2.1-2.5,3.1-4.6,3.1c-2.7,0-4.9-1.9-4.9-5
			c0-3.2,2.2-5.3,5.4-5.3c3.3,0,5.3,2.6,5.3,6.6c0,4.8-2.7,9.1-9.2,10.6l-0.3-1c5.4-1.8,7.2-4.6,7.2-9.3c0-4.1-1.2-5.9-3.1-5.9
			c-1.6,0-3,1.3-3,3.9C193.1,578.9,194.6,580,196.5,580z"/>
		<path class="st3" d="M203.4,583.1v-1.3l7.6-10.4h1.5V588h-2.1v-14.9h0.7l-6.4,8.8l0-0.4h10.5v1.6H203.4z"/>
		<path class="st3" d="M220.7,579.7l1.1,0.4c-2,1.2-3,2.1-3,4c0,1.8,1.3,3.1,3.2,3.1c1.8,0,3-1.3,3-3c0-1.5-0.9-2.4-3.9-3.8
			c-2.7-1.3-3.8-2.9-3.8-4.8c0-2.6,2.1-4.2,4.7-4.2c2.7,0,4.4,1.6,4.4,3.9c0,1.3-0.8,2.9-3.7,4.4l-0.9-0.4c2-1.4,2.7-2.4,2.7-4
			c0-1.5-0.9-2.8-2.5-2.8c-1.4,0-2.7,1-2.7,2.5c0,1.4,0.7,2.7,3.6,4c2.8,1.3,4.2,2.6,4.2,5c0,2.6-2.3,4.3-5.2,4.3
			c-3.1,0-5.2-1.4-5.2-4.1C216.6,582.3,218,581,220.7,579.7z"/>
	</g>
</g>
<g>
	<g>
		<path class="st3" d="M89.8,424.1l-0.1-2.7h1.3l0.6,2.9l-1.2-0.6V423c0.9,0.7,1.8,1,3,1c1.8,0,2.7-0.7,2.7-1.8c0-1-0.7-1.6-2.2-2.1
			l-1.1-0.4c-1.8-0.6-2.9-1.6-2.9-3.3c0-1.8,1.5-3.4,4.2-3.4c1.3,0,2.3,0.4,3.4,1l-0.1,2.5h-1.3l-0.5-2.5l0.9,0.4v0.6
			c-0.8-0.6-1.6-0.9-2.5-0.9c-1.5,0-2.3,0.6-2.3,1.7c0,1.1,0.6,1.5,2.2,2.1l0.8,0.3c2.4,0.9,3.3,2,3.3,3.6c0,1.8-1.6,3.5-4.7,3.5
			C92.1,425.1,91,424.7,89.8,424.1z"/>
		<path class="st3" d="M102.3,418.8c0,3,1.6,4.7,3.9,4.7c1.4,0,2.6-0.7,3.4-1.9l0.6,0.3c-0.7,2-2.2,3.1-4.5,3.1
			c-3.3,0-5.4-2.3-5.4-6c0-3.8,2.7-6.1,5.6-6.1c2.2,0,4,1.3,4.3,3.2c-0.1,0.6-0.5,0.9-1.1,0.9c-0.8,0-1.2-0.5-1.3-1.2l-0.6-2.1
			l1.2,0.9c-0.8-0.4-1.6-0.6-2.3-0.6C103.8,414,102.3,415.7,102.3,418.8z"/>
		<path class="st3" d="M112.1,419c0-4,2.7-6.1,5.6-6.1c2.8,0,5.6,2.1,5.6,6.1c0,4-2.8,6-5.6,6C114.8,425.1,112.1,423,112.1,419z
			 M120.9,419c0-3.3-1.2-5-3.3-5c-2.1,0-3.3,1.8-3.3,5s1.2,4.9,3.3,4.9C119.7,424,120.9,422.3,120.9,419z"/>
		<path class="st3" d="M129.7,423.8c0.5,0,1-0.2,1.6-0.7l0.6,0.7c-0.6,0.8-1.6,1.3-2.9,1.3c-1.7,0-2.8-0.9-2.8-2.8
			c0-0.6,0-1.1,0-2.1v-5.7h-2v-1.1l3-0.4l-1,0.8l0.8-3.9h1.5l-0.2,4.3v7.8C128.3,423.3,128.9,423.8,129.7,423.8z M131.6,413.2v1.3
			h-4.3v-1.3H131.6z"/>
		<path class="st3" d="M137.8,423.8c0.5,0,1-0.2,1.6-0.7l0.6,0.7c-0.6,0.8-1.6,1.3-2.9,1.3c-1.7,0-2.8-0.9-2.8-2.8
			c0-0.6,0-1.1,0-2.1v-5.7h-2v-1.1l3-0.4l-1,0.8l0.8-3.9h1.5l-0.2,4.3v7.8C136.4,423.3,137,423.8,137.8,423.8z M139.7,413.2v1.3
			h-4.3v-1.3H139.7z"/>
		<path class="st3" d="M141.9,423.3c0-1,0.8-1.8,1.7-1.8c1,0,1.7,0.8,1.7,1.8c0,0.9-0.8,1.7-1.7,1.7
			C142.7,425.1,141.9,424.3,141.9,423.3z"/>
		<path class="st3" d="M152,423.8c0.5,0,1-0.2,1.6-0.7l0.6,0.7c-0.6,0.8-1.6,1.3-2.9,1.3c-1.7,0-2.8-0.9-2.8-2.8c0-0.6,0-1.1,0-2.1
			v-5.7h-2v-1.1l3-0.4l-1,0.8l0.8-3.9h1.5l-0.2,4.3v7.8C150.6,423.3,151.2,423.8,152,423.8z M153.9,413.2v1.3h-4.3v-1.3H153.9z"/>
		<path class="st3" d="M157,419.7v-1.2c0-1.3,0-2.1-0.1-3l-1.9-0.2v-0.9l3.4-1.5l0.4,0.2l0.3,3v3.5c0,1.5,0,4,0.1,5.1H157
			C157,423.7,157,421.2,157,419.7z M155.2,423.9l2.6-0.5h0.6l2.6,0.5v0.9h-5.9V423.9z M158.1,416.4h1.4l-0.6,0.2
			c0.8-2.3,2.2-3.7,3.7-3.7c0.7,0,1.5,0.4,1.7,0.9c0,1.1-0.5,1.8-1.4,1.8c-0.6,0-1-0.2-1.5-0.6l-0.7-0.6l1.2-0.2
			c-1.5,0.8-2.3,2-2.9,3.8l-1,0V416.4z"/>
		<path class="st3" d="M169.3,418.4c1-0.4,2.6-0.8,3.8-1v0.9c-1.1,0.2-2.5,0.7-3.2,1c-2.1,0.8-2.4,1.7-2.4,2.5
			c0,1.3,0.8,1.8,1.9,1.8c0.8,0,1.3-0.3,2.8-1.4l0.5-0.4l0.3,0.5l-0.7,0.7c-1.4,1.4-2.3,2.1-3.8,2.1c-1.8,0-3.2-1-3.2-3
			C165.3,420.6,166.1,419.5,169.3,418.4z M172.1,422.5V417c0-2.4-0.7-3-2.3-3c-0.6,0-1.3,0.1-2.2,0.4l1-0.8l-0.6,2.1
			c-0.2,0.8-0.6,1.2-1.3,1.2c-0.7,0-1.1-0.4-1.1-1c0.4-1.9,2.2-3,4.7-3c2.5,0,3.7,1.2,3.7,4.2v5.2c0,1.1,0.3,1.4,0.9,1.4
			c0.4,0,0.7-0.2,0.9-0.5l0.5,0.5c-0.6,0.9-1.2,1.3-2.1,1.3C173,425,172.1,424,172.1,422.5z"/>
		<path class="st3" d="M179.2,424.7c0-1.1,0.1-3.6,0.1-5.1v-1.2c0-1.3,0-2.1-0.1-3l-1.9-0.2v-0.9l3.4-1.5l0.4,0.2l0.3,2.8v3.7
			c0,1.5,0,4,0.1,5.1H179.2z M183.1,423.9v0.9h-5.6v-0.9l2.6-0.5h0.6L183.1,423.9z M188.6,417.4v2.3c0,1.6,0,4,0.1,5.1h-2.2
			c0-1.1,0.1-3.5,0.1-5.1v-2.1c0-2.2-0.6-2.9-2-2.9c-1.2,0-2.1,0.5-3.5,1.7h-0.5v-1.1h1.3l-1,0.5c1.2-1.6,3-2.7,4.7-2.7
			C187.6,412.9,188.6,414.2,188.6,417.4z M187.9,423.4l2.4,0.5v0.9h-5.6v-0.9l2.6-0.5H187.9z M195.9,417.1v2.5c0,1.6,0,4,0.1,5.1
			h-2.2c0-1.1,0.1-3.5,0.1-5.1v-2.1c0-2.3-0.6-2.9-2-2.9c-1.1,0-2.1,0.5-3.4,1.7h-0.6v-0.9h1.3l-1.1,0.2c1.3-1.8,3.1-2.7,4.8-2.7
			C194.7,412.9,195.9,414.1,195.9,417.1z M195.2,423.4l2.4,0.5v0.9H192v-0.9l2.6-0.5H195.2z"/>
		<path class="st3" d="M209.5,417.6c0,0.6-0.1,1-0.2,1.4h-9v-1h5.7c1.2,0,1.4-0.6,1.4-1.3c0-1.4-1.1-2.6-2.6-2.6
			c-1.5,0-3.3,1.3-3.3,4.8c0,3.1,1.5,4.7,3.9,4.7c1.5,0,2.5-0.7,3.4-1.7l0.6,0.5c-0.9,1.7-2.4,2.8-4.7,2.8c-3.3,0-5.4-2.3-5.4-6
			c0-3.7,2.6-6.2,5.6-6.2C207.5,412.9,209.5,414.6,209.5,417.6z"/>
		<path class="st3" d="M213.5,419.7v-1.2c0-1.3,0-2.1-0.1-3l-1.9-0.2v-0.9l3.4-1.5l0.4,0.2l0.3,3v3.5c0,1.5,0,4,0.1,5.1h-2.2
			C213.5,423.7,213.5,421.2,213.5,419.7z M211.7,423.9l2.6-0.5h0.6l2.6,0.5v0.9h-5.9V423.9z M214.5,416.4h1.4l-0.6,0.2
			c0.8-2.3,2.2-3.7,3.7-3.7c0.7,0,1.5,0.4,1.7,0.9c0,1.1-0.5,1.8-1.4,1.8c-0.6,0-1-0.2-1.5-0.6l-0.7-0.6l1.2-0.2
			c-1.5,0.8-2.3,2-2.9,3.8l-1,0V416.4z"/>
		<path class="st3" d="M222.9,419.6c0,5.3,3.6,7.9,7.8,7.9c1.5,0,2.7-0.2,3.8-0.8l0.3,0.7c-1.4,0.7-3.1,1.1-4.6,1.1
			c-4.9,0-8.8-2.9-8.8-8.7c0-6,4.6-10.7,10.7-10.7c4.9,0,7.9,3.2,7.9,7.9c0,4.7-3.1,6.8-5.3,6.8c-1.5,0-2.4-1-2.5-2.2l-0.1-0.4
			l1.4-7.2l1.3-0.6l0.5,0.4l-1.4,6.9c-0.2,1.2,0.3,1.9,1.3,1.9c1.7,0,3.5-1.7,3.5-5.9c0-4.2-2.8-6.6-6.6-6.6
			C226.6,410.1,222.9,414.6,222.9,419.6z M233,420.2l0.1,0.4c-1.3,1.7-2.7,3.2-4.3,3.2c-1.3,0-2.6-0.9-2.6-3.2c0-2.1,0.9-3.9,2-5.2
			c1.1-1.3,2.3-2,3.6-2c0.9,0,1.6,0.4,2.5,1.5l-0.7,1.1c-0.6-1.1-1.2-1.5-1.9-1.5c-0.7,0-1.7,0.4-2.4,1.5c-0.7,1-1.3,2.3-1.3,4
			c0,1.5,0.5,2.3,1.7,2.3C230.4,422.3,231.3,421.8,233,420.2z"/>
		<path class="st3" d="M244,418.8c0,3,1.6,4.7,3.9,4.7c1.4,0,2.6-0.7,3.4-1.9l0.6,0.3c-0.7,2-2.2,3.1-4.5,3.1c-3.3,0-5.4-2.3-5.4-6
			c0-3.8,2.7-6.1,5.6-6.1c2.2,0,4,1.3,4.3,3.2c-0.1,0.6-0.5,0.9-1.1,0.9c-0.8,0-1.2-0.5-1.3-1.2l-0.6-2.1l1.2,0.9
			c-0.8-0.4-1.6-0.6-2.3-0.6C245.5,414,244,415.7,244,418.8z"/>
		<path class="st3" d="M253.8,419c0-4,2.7-6.1,5.6-6.1c2.8,0,5.6,2.1,5.6,6.1c0,4-2.8,6-5.6,6C256.5,425.1,253.8,423,253.8,419z
			 M262.6,419c0-3.3-1.2-5-3.3-5c-2.1,0-3.3,1.8-3.3,5s1.2,4.9,3.3,4.9C261.4,424,262.6,422.3,262.6,419z"/>
		<path class="st3" d="M268.7,424.7c0-1.1,0.1-3.6,0.1-5.1v-1.2c0-1.3,0-2.1-0.1-3l-1.9-0.2v-0.9l3.4-1.5l0.4,0.2l0.3,2.8v3.7
			c0,1.5,0,4,0.1,5.1H268.7z M272.6,423.9v0.9H267v-0.9l2.6-0.5h0.6L272.6,423.9z M278.1,417.4v2.3c0,1.6,0,4,0.1,5.1H276
			c0-1.1,0.1-3.5,0.1-5.1v-2.1c0-2.2-0.6-2.9-2-2.9c-1.2,0-2.1,0.5-3.5,1.7h-0.5v-1.1h1.3l-1,0.5c1.2-1.6,3-2.7,4.7-2.7
			C277.1,412.9,278.1,414.2,278.1,417.4z M277.5,423.4l2.4,0.5v0.9h-5.6v-0.9l2.6-0.5H277.5z M285.4,417.1v2.5c0,1.6,0,4,0.1,5.1
			h-2.2c0-1.1,0.1-3.5,0.1-5.1v-2.1c0-2.3-0.6-2.9-2-2.9c-1.1,0-2.1,0.5-3.4,1.7h-0.6v-0.9h1.3l-1.1,0.2c1.3-1.8,3.1-2.7,4.8-2.7
			C284.3,412.9,285.4,414.1,285.4,417.1z M284.7,423.4l2.4,0.5v0.9h-5.6v-0.9l2.6-0.5H284.7z"/>
		<path class="st3" d="M294.6,429.7v0.9h-6.2v-0.9l2.7-0.5h0.6L294.6,429.7z M290.3,418.5c0-1.3,0-2.1-0.1-3l-1.9-0.2v-0.9l3.4-1.5
			l0.4,0.2l0.2,2.1l0.1,0.1v7.6l-0.1,0.2v2.4c0,1.7,0,3.4,0.1,5.2h-2.1c0-1.7,0.1-3.4,0.1-5.1V418.5z M295.3,414.3
			c-0.9,0-2.1,0.5-3.8,2.2l-0.2-0.4c1.4-2.2,3-3.1,4.7-3.1c2.6,0,4.6,2.3,4.6,6c0,3.7-2.2,6.1-5,6.1c-1.5,0-3-0.7-4.3-3.2l0.2-0.4
			c1.2,1.6,2.4,2.2,3.6,2.2c1.8,0,3.3-1.4,3.3-4.5C298.4,416,297.1,414.3,295.3,414.3z"/>
		<path class="st3" d="M306.7,418.4c1-0.4,2.6-0.8,3.8-1v0.9c-1.1,0.2-2.5,0.7-3.2,1c-2.1,0.8-2.4,1.7-2.4,2.5
			c0,1.3,0.8,1.8,1.9,1.8c0.8,0,1.3-0.3,2.8-1.4l0.5-0.4l0.3,0.5l-0.7,0.7c-1.4,1.4-2.3,2.1-3.8,2.1c-1.8,0-3.2-1-3.2-3
			C302.7,420.6,303.5,419.5,306.7,418.4z M309.5,422.5V417c0-2.4-0.7-3-2.3-3c-0.6,0-1.3,0.1-2.2,0.4l1-0.8l-0.6,2.1
			c-0.2,0.8-0.6,1.2-1.3,1.2c-0.7,0-1.1-0.4-1.1-1c0.4-1.9,2.2-3,4.7-3c2.5,0,3.7,1.2,3.7,4.2v5.2c0,1.1,0.3,1.4,0.9,1.4
			c0.4,0,0.7-0.2,0.9-0.5l0.5,0.5c-0.6,0.9-1.2,1.3-2.1,1.3C310.4,425,309.5,424,309.5,422.5z"/>
		<path class="st3" d="M316.6,424.7c0-1.1,0.1-3.6,0.1-5.1v-1.2c0-1.3,0-2.1-0.1-3l-1.9-0.2v-0.9l3.4-1.5l0.4,0.2l0.3,2.8v3.7
			c0,1.5,0,4,0.1,5.1H316.6z M320.5,423.9v0.9h-5.6v-0.9l2.6-0.5h0.6L320.5,423.9z M326.1,417.4v2.3c0,1.6,0,4,0.1,5.1H324
			c0-1.1,0.1-3.5,0.1-5.1v-2.1c0-2.2-0.6-2.9-2-2.9c-1.2,0-2.2,0.5-3.6,1.7H318v-1.1h1.3l-1,0.5c1.2-1.6,3.1-2.7,4.8-2.7
			C325.1,412.9,326.1,414.2,326.1,417.4z M325.4,423.4l2.4,0.5v0.9h-5.6v-0.9l2.6-0.5H325.4z"/>
		<path class="st3" d="M327.8,429.2c0.2-0.7,0.9-1.1,1.6-1.1c0.6,0,1.1,0.2,1.8,0.9l0.8,0.8l-0.9,0.5l-0.7-0.5
			c1.6-0.8,2.6-2.4,3.2-4.1l0.8-2.2l3.7-10.2h1.3l-4.4,11.4c-1.6,4.3-3,6.1-5,6.1C328.9,430.8,327.8,430.1,327.8,429.2z
			 M330.3,414.5l-2.4-0.4v-0.9h5.8v0.9l-2.9,0.3H330.3z M333.9,426l-5.1-12.8h2.4l3.8,10.3L333.9,426z M338,414.5l-2.5-0.4v-0.9h4.7
			v0.9l-1.7,0.4H338z"/>
		<path class="st3" d="M340,423.3c0-1,0.8-1.8,1.7-1.8c1,0,1.7,0.8,1.7,1.8c0,0.9-0.8,1.7-1.7,1.7C340.7,425.1,340,424.3,340,423.3z
			"/>
		<path class="st3" d="M347.7,418.8c0,3,1.6,4.7,3.9,4.7c1.4,0,2.6-0.7,3.4-1.9l0.6,0.3c-0.7,2-2.2,3.1-4.5,3.1
			c-3.3,0-5.4-2.3-5.4-6c0-3.8,2.7-6.1,5.6-6.1c2.2,0,4,1.3,4.3,3.2c-0.1,0.6-0.5,0.9-1.1,0.9c-0.8,0-1.2-0.5-1.3-1.2l-0.6-2.1
			l1.2,0.9c-0.8-0.4-1.6-0.6-2.3-0.6C349.3,414,347.7,415.7,347.7,418.8z"/>
		<path class="st3" d="M357.5,419c0-4,2.7-6.1,5.6-6.1c2.8,0,5.6,2.1,5.6,6.1c0,4-2.8,6-5.6,6C360.2,425.1,357.5,423,357.5,419z
			 M366.4,419c0-3.3-1.2-5-3.3-5c-2.1,0-3.3,1.8-3.3,5s1.2,4.9,3.3,4.9C365.2,424,366.4,422.3,366.4,419z"/>
		<path class="st3" d="M372.5,424.7c0-1.1,0.1-3.6,0.1-5.1v-1.2c0-1.3,0-2.1-0.1-3l-1.9-0.2v-0.9l3.4-1.5l0.4,0.2l0.3,2.8v3.7
			c0,1.5,0,4,0.1,5.1H372.5z M376.4,423.9v0.9h-5.6v-0.9l2.6-0.5h0.6L376.4,423.9z M381.9,417.4v2.3c0,1.6,0,4,0.1,5.1h-2.2
			c0-1.1,0.1-3.5,0.1-5.1v-2.1c0-2.2-0.6-2.9-2-2.9c-1.2,0-2.1,0.5-3.5,1.7h-0.5v-1.1h1.3l-1,0.5c1.2-1.6,3-2.7,4.7-2.7
			C380.9,412.9,381.9,414.2,381.9,417.4z M381.2,423.4l2.4,0.5v0.9H378v-0.9l2.6-0.5H381.2z M389.2,417.1v2.5c0,1.6,0,4,0.1,5.1H387
			c0-1.1,0.1-3.5,0.1-5.1v-2.1c0-2.3-0.6-2.9-2-2.9c-1.1,0-2.1,0.5-3.4,1.7h-0.6v-0.9h1.3l-1.1,0.2c1.3-1.8,3.1-2.7,4.8-2.7
			C388,412.9,389.2,414.1,389.2,417.1z M388.5,423.4l2.4,0.5v0.9h-5.6v-0.9l2.6-0.5H388.5z"/>
		<path class="st3" d="M88.6,427.2V426h303v1.2H88.6z"/>
	</g>
</g>
<g>
	<g>
		<path class="st3" d="M87.5,632.3l-0.1-2.7h1.3l0.6,2.9l-1.2-0.6v-0.8c0.9,0.7,1.8,1,3,1c1.8,0,2.7-0.7,2.7-1.8
			c0-1-0.7-1.6-2.2-2.1l-1.1-0.4c-1.8-0.6-2.9-1.6-2.9-3.3c0-1.8,1.5-3.4,4.2-3.4c1.3,0,2.3,0.4,3.4,1l-0.1,2.5h-1.3l-0.5-2.5
			l0.9,0.4v0.6c-0.8-0.6-1.6-0.9-2.5-0.9c-1.5,0-2.3,0.6-2.3,1.7c0,1.1,0.6,1.5,2.2,2.1l0.8,0.3c2.4,0.9,3.3,2,3.3,3.6
			c0,1.8-1.6,3.5-4.7,3.5C89.7,633.3,88.7,632.9,87.5,632.3z"/>
		<path class="st3" d="M101.9,626.6c1-0.4,2.6-0.8,3.8-1v0.9c-1.1,0.2-2.5,0.7-3.2,1c-2.1,0.8-2.4,1.7-2.4,2.5
			c0,1.3,0.8,1.8,1.9,1.8c0.8,0,1.3-0.3,2.8-1.4l0.5-0.4l0.3,0.5l-0.7,0.7c-1.4,1.4-2.3,2.1-3.8,2.1c-1.8,0-3.2-1-3.2-3
			C97.9,628.8,98.6,627.7,101.9,626.6z M104.6,630.7v-5.6c0-2.4-0.7-3-2.3-3c-0.6,0-1.3,0.1-2.2,0.4l1-0.8l-0.6,2.1
			c-0.2,0.8-0.6,1.2-1.3,1.2c-0.7,0-1.1-0.4-1.1-1c0.4-1.9,2.2-3,4.7-3c2.5,0,3.7,1.2,3.7,4.2v5.2c0,1.1,0.3,1.4,0.9,1.4
			c0.4,0,0.7-0.2,0.9-0.5l0.5,0.5c-0.6,0.9-1.2,1.3-2.1,1.3C105.5,633.2,104.6,632.2,104.6,630.7z"/>
		<path class="st3" d="M111.7,632.9c0-1.1,0.1-3.6,0.1-5.1v-1.2c0-1.3,0-2.1-0.1-3l-1.9-0.2v-0.9l3.4-1.5l0.4,0.2l0.3,2.8v3.7
			c0,1.5,0,4,0.1,5.1H111.7z M115.6,632.1v0.9H110v-0.9l2.6-0.5h0.6L115.6,632.1z M121.1,625.6v2.3c0,1.6,0,4,0.1,5.1H119
			c0-1.1,0.1-3.5,0.1-5.1v-2.1c0-2.2-0.6-2.9-2-2.9c-1.2,0-2.1,0.5-3.5,1.7h-0.5v-1.1h1.3l-1,0.5c1.2-1.6,3-2.7,4.7-2.7
			C120.1,621.1,121.1,622.4,121.1,625.6z M120.5,631.6l2.4,0.5v0.9h-5.6v-0.9l2.6-0.5H120.5z M128.4,625.3v2.5c0,1.6,0,4,0.1,5.1
			h-2.2c0-1.1,0.1-3.5,0.1-5.1v-2.1c0-2.3-0.6-2.9-2-2.9c-1.1,0-2.1,0.5-3.4,1.7h-0.6v-0.9h1.3l-1.1,0.2c1.3-1.8,3.1-2.7,4.8-2.7
			C127.3,621.1,128.4,622.3,128.4,625.3z M127.7,631.6l2.4,0.5v0.9h-5.6v-0.9l2.6-0.5H127.7z"/>
		<path class="st3" d="M132.8,631.5c0-1,0.8-1.8,1.7-1.8c1,0,1.7,0.8,1.7,1.8c0,0.9-0.8,1.7-1.7,1.7
			C133.5,633.3,132.8,632.5,132.8,631.5z"/>
		<path class="st3" d="M140.7,617.2l-2-0.2v-0.9l3.7-1.1l0.3,0.2l-0.1,3.4v5.1l0.1,0.3v3.8c0,1.5,0,4,0.1,5.1h-2.2
			c0-1.1,0.1-3.6,0.1-5.1V617.2z M144.5,632.1v0.9h-5.6v-0.9l2.6-0.5h0.6L144.5,632.1z M150.2,625.6v2.3c0,1.6,0,4,0.1,5.1h-2.2
			c0-1.1,0.1-3.5,0.1-5.1v-2.1c0-2.2-0.6-2.9-2-2.9c-1.2,0-2.2,0.5-3.6,1.7h-0.5v-1.1h1.3l-1.1,0.5c1.2-1.6,3.1-2.7,4.8-2.7
			C149.2,621.1,150.2,622.4,150.2,625.6z M149.6,631.6l2.4,0.5v0.9h-5.6v-0.9l2.6-0.5H149.6z"/>
		<path class="st3" d="M157.8,626.6c1-0.4,2.6-0.8,3.8-1v0.9c-1.1,0.2-2.5,0.7-3.2,1c-2.1,0.8-2.4,1.7-2.4,2.5
			c0,1.3,0.8,1.8,1.9,1.8c0.8,0,1.3-0.3,2.8-1.4l0.5-0.4l0.3,0.5l-0.7,0.7c-1.4,1.4-2.3,2.1-3.8,2.1c-1.8,0-3.2-1-3.2-3
			C153.8,628.8,154.5,627.7,157.8,626.6z M160.6,630.7v-5.6c0-2.4-0.7-3-2.3-3c-0.6,0-1.3,0.1-2.2,0.4l1-0.8l-0.6,2.1
			c-0.2,0.8-0.6,1.2-1.3,1.2c-0.7,0-1.1-0.4-1.1-1c0.4-1.9,2.2-3,4.7-3c2.5,0,3.7,1.2,3.7,4.2v5.2c0,1.1,0.3,1.4,0.9,1.4
			c0.4,0,0.7-0.2,0.9-0.5l0.5,0.5c-0.6,0.9-1.2,1.3-2.1,1.3C161.5,633.2,160.6,632.2,160.6,630.7z"/>
		<path class="st3" d="M167.8,627.8v-1.2c0-1.3,0-2.1-0.1-3l-1.9-0.2v-0.9l3.4-1.5l0.4,0.2l0.3,3v3.5c0,1.5,0,4,0.1,5.1h-2.2
			C167.7,631.8,167.8,629.3,167.8,627.8z M166,632.1l2.6-0.5h0.6l2.6,0.5v0.9H166V632.1z M168.8,624.6h1.4l-0.6,0.2
			c0.8-2.3,2.2-3.7,3.7-3.7c0.7,0,1.5,0.4,1.7,0.9c0,1.1-0.5,1.8-1.4,1.8c-0.6,0-1-0.2-1.5-0.6l-0.7-0.6l1.2-0.2
			c-1.5,0.8-2.3,2-2.9,3.8l-1,0V624.6z"/>
		<path class="st3" d="M181.3,632c0.5,0,1-0.2,1.6-0.7l0.6,0.7c-0.6,0.8-1.6,1.3-2.9,1.3c-1.7,0-2.8-0.9-2.8-2.8c0-0.6,0-1.1,0-2.1
			v-5.7h-2v-1.1l3-0.4l-1,0.8l0.8-3.9h1.5l-0.2,4.3v7.8C179.9,631.5,180.5,632,181.3,632z M183.2,621.4v1.3h-4.3v-1.3H183.2z"/>
		<path class="st3" d="M184.3,632.1l2.6-0.5l-0.8,1.4c0-1.1,0.1-3.6,0.1-5.1v-10.7l-2-0.2v-0.9l3.7-1.1l0.3,0.2l-0.1,3.4v4.6
			l0.1,0.3v7.5l-0.3,2.2l-3.6-0.2V632.1z M194.3,627.3c0-3.1-1.3-4.8-3.1-4.8c-0.9,0-2.1,0.4-3.8,2.2l-0.2-0.4
			c1.4-2.2,3-3.1,4.7-3.1c2.6,0,4.6,2.2,4.6,6c0,3.7-2.2,6.2-5,6.2c-1.5,0-3-0.7-4.3-3.2l0.2-0.4c1.2,1.6,2.5,2.2,3.7,2.2
			C192.8,631.9,194.3,630.4,194.3,627.3z"/>
		<path class="st3" d="M202.7,626.6c1-0.4,2.6-0.8,3.8-1v0.9c-1.1,0.2-2.5,0.7-3.2,1c-2.1,0.8-2.4,1.7-2.4,2.5
			c0,1.3,0.8,1.8,1.9,1.8c0.8,0,1.3-0.3,2.8-1.4l0.5-0.4l0.3,0.5l-0.7,0.7c-1.4,1.4-2.3,2.1-3.8,2.1c-1.8,0-3.2-1-3.2-3
			C198.6,628.8,199.4,627.7,202.7,626.6z M205.4,630.7v-5.6c0-2.4-0.7-3-2.3-3c-0.6,0-1.3,0.1-2.2,0.4l1-0.8l-0.6,2.1
			c-0.2,0.8-0.6,1.2-1.3,1.2c-0.7,0-1.1-0.4-1.1-1c0.4-1.9,2.2-3,4.7-3c2.5,0,3.7,1.2,3.7,4.2v5.2c0,1.1,0.3,1.4,0.9,1.4
			c0.4,0,0.7-0.2,0.9-0.5l0.5,0.5c-0.6,0.9-1.2,1.3-2.1,1.3C206.3,633.2,205.4,632.2,205.4,630.7z"/>
		<path class="st3" d="M212.5,632.9c0-1.1,0.1-3.6,0.1-5.1v-1.2c0-1.3,0-2.1-0.1-3l-1.9-0.2v-0.9l3.4-1.5l0.4,0.2l0.3,2.8v3.7
			c0,1.5,0,4,0.1,5.1H212.5z M216.4,632.1v0.9h-5.6v-0.9l2.6-0.5h0.6L216.4,632.1z M222,625.6v2.3c0,1.6,0,4,0.1,5.1h-2.2
			c0-1.1,0.1-3.5,0.1-5.1v-2.1c0-2.2-0.6-2.9-2-2.9c-1.2,0-2.2,0.5-3.6,1.7h-0.5v-1.1h1.3l-1,0.5c1.2-1.6,3.1-2.7,4.8-2.7
			C221,621.1,222,622.4,222,625.6z M221.3,631.6l2.4,0.5v0.9h-5.6v-0.9l2.6-0.5H221.3z"/>
		<path class="st3" d="M231.1,631.9c1.2,0,2.1-0.6,3.2-2l0.2,0.6c-0.9,1.7-2.1,2.7-4,2.7c-2.9,0-4.9-2.4-4.9-6
			c0-3.7,2.2-6.2,5.2-6.2c1.4,0,2.6,0.6,3.9,2.5l-0.2,0.6c-1.4-1.3-2.3-1.7-3.3-1.7c-1.8,0-3.4,1.5-3.4,4.7
			C227.7,630.4,229.2,631.9,231.1,631.9z M237.8,632.1v0.9l-3.8,0.2l-0.2-2.5v-7.2l0.1-0.3v-6.1l-2.1-0.2v-0.9l3.8-1.1l0.3,0.2
			l-0.1,3.4v14.3l-0.5-1.3L237.8,632.1z"/>
		<path class="st3" d="M240.6,627.8c0,5.3,3.6,7.9,7.8,7.9c1.5,0,2.7-0.2,3.8-0.8l0.3,0.7c-1.4,0.7-3.1,1.1-4.6,1.1
			c-4.9,0-8.8-2.9-8.8-8.7c0-6,4.6-10.7,10.7-10.7c4.9,0,7.9,3.2,7.9,7.9c0,4.7-3.1,6.8-5.3,6.8c-1.5,0-2.4-1-2.5-2.2l-0.1-0.4
			l1.4-7.2l1.3-0.6l0.5,0.4l-1.4,6.9c-0.2,1.2,0.3,1.9,1.3,1.9c1.7,0,3.5-1.7,3.5-5.9c0-4.2-2.8-6.6-6.6-6.6
			C244.3,618.3,240.6,622.8,240.6,627.8z M250.6,628.3l0.1,0.4c-1.3,1.7-2.7,3.2-4.3,3.2c-1.3,0-2.6-0.9-2.6-3.2
			c0-2.1,0.9-3.9,2-5.2c1.1-1.3,2.3-2,3.6-2c0.9,0,1.6,0.4,2.5,1.5l-0.7,1.1c-0.6-1.1-1.2-1.5-1.9-1.5c-0.7,0-1.7,0.4-2.4,1.5
			c-0.7,1-1.3,2.3-1.3,4c0,1.5,0.5,2.3,1.7,2.3C248.1,630.5,248.9,630,250.6,628.3z"/>
		<path class="st3" d="M261.6,627c0,3,1.6,4.7,3.9,4.7c1.4,0,2.6-0.7,3.4-1.9l0.6,0.3c-0.7,2-2.2,3.1-4.5,3.1c-3.3,0-5.4-2.3-5.4-6
			c0-3.8,2.7-6.1,5.6-6.1c2.2,0,4,1.3,4.3,3.2c-0.1,0.6-0.5,0.9-1.1,0.9c-0.8,0-1.2-0.5-1.3-1.2l-0.6-2.1l1.2,0.9
			c-0.8-0.4-1.6-0.6-2.3-0.6C263.1,622.2,261.6,623.9,261.6,627z"/>
		<path class="st3" d="M271.4,627.2c0-4,2.7-6.1,5.6-6.1c2.8,0,5.6,2.1,5.6,6.1c0,4-2.8,6-5.6,6
			C274.1,633.3,271.4,631.2,271.4,627.2z M280.3,627.2c0-3.3-1.2-5-3.3-5c-2.1,0-3.3,1.8-3.3,5s1.2,4.9,3.3,4.9
			C279.1,632.2,280.3,630.5,280.3,627.2z"/>
		<path class="st3" d="M286.4,632.9c0-1.1,0.1-3.6,0.1-5.1v-1.2c0-1.3,0-2.1-0.1-3l-1.9-0.2v-0.9l3.4-1.5l0.4,0.2l0.3,2.8v3.7
			c0,1.5,0,4,0.1,5.1H286.4z M290.2,632.1v0.9h-5.6v-0.9l2.6-0.5h0.6L290.2,632.1z M295.8,625.6v2.3c0,1.6,0,4,0.1,5.1h-2.2
			c0-1.1,0.1-3.5,0.1-5.1v-2.1c0-2.2-0.6-2.9-2-2.9c-1.2,0-2.1,0.5-3.5,1.7h-0.5v-1.1h1.3l-1,0.5c1.2-1.6,3-2.7,4.7-2.7
			C294.8,621.1,295.8,622.4,295.8,625.6z M295.1,631.6l2.4,0.5v0.9h-5.6v-0.9l2.6-0.5H295.1z M303.1,625.3v2.5c0,1.6,0,4,0.1,5.1
			h-2.2c0-1.1,0.1-3.5,0.1-5.1v-2.1c0-2.3-0.6-2.9-2-2.9c-1.1,0-2.1,0.5-3.4,1.7h-0.6v-0.9h1.3l-1.1,0.2c1.3-1.8,3.1-2.7,4.8-2.7
			C301.9,621.1,303.1,622.3,303.1,625.3z M302.4,631.6l2.4,0.5v0.9h-5.6v-0.9l2.6-0.5H302.4z"/>
		<path class="st3" d="M312.2,637.9v0.9H306v-0.9l2.7-0.5h0.6L312.2,637.9z M308,626.7c0-1.3,0-2.1-0.1-3l-1.9-0.2v-0.9l3.4-1.5
			l0.4,0.2l0.2,2.1l0.1,0.1v7.6l-0.1,0.2v2.4c0,1.7,0,3.4,0.1,5.2h-2.1c0-1.7,0.1-3.4,0.1-5.1V626.7z M313,622.5
			c-0.9,0-2.1,0.5-3.8,2.2l-0.2-0.4c1.4-2.2,3-3.1,4.7-3.1c2.6,0,4.6,2.3,4.6,6c0,3.7-2.2,6.1-5,6.1c-1.5,0-3-0.7-4.3-3.2l0.2-0.4
			c1.2,1.6,2.4,2.2,3.6,2.2c1.8,0,3.3-1.4,3.3-4.5C316,624.2,314.7,622.5,313,622.5z"/>
		<path class="st3" d="M324.4,626.6c1-0.4,2.6-0.8,3.8-1v0.9c-1.1,0.2-2.5,0.7-3.2,1c-2.1,0.8-2.4,1.7-2.4,2.5
			c0,1.3,0.8,1.8,1.9,1.8c0.8,0,1.3-0.3,2.8-1.4l0.5-0.4l0.3,0.5l-0.7,0.7c-1.4,1.4-2.3,2.1-3.8,2.1c-1.8,0-3.2-1-3.2-3
			C320.4,628.8,321.1,627.7,324.4,626.6z M327.1,630.7v-5.6c0-2.4-0.7-3-2.3-3c-0.6,0-1.3,0.1-2.2,0.4l1-0.8l-0.6,2.1
			c-0.2,0.8-0.6,1.2-1.3,1.2c-0.7,0-1.1-0.4-1.1-1c0.4-1.9,2.2-3,4.7-3c2.5,0,3.7,1.2,3.7,4.2v5.2c0,1.1,0.3,1.4,0.9,1.4
			c0.4,0,0.7-0.2,0.9-0.5l0.5,0.5c-0.6,0.9-1.2,1.3-2.1,1.3C328,633.2,327.1,632.2,327.1,630.7z"/>
		<path class="st3" d="M334.3,632.9c0-1.1,0.1-3.6,0.1-5.1v-1.2c0-1.3,0-2.1-0.1-3l-1.9-0.2v-0.9l3.4-1.5l0.4,0.2l0.3,2.8v3.7
			c0,1.5,0,4,0.1,5.1H334.3z M338.1,632.1v0.9h-5.6v-0.9l2.6-0.5h0.6L338.1,632.1z M343.7,625.6v2.3c0,1.6,0,4,0.1,5.1h-2.2
			c0-1.1,0.1-3.5,0.1-5.1v-2.1c0-2.2-0.6-2.9-2-2.9c-1.2,0-2.2,0.5-3.6,1.7h-0.5v-1.1h1.3l-1,0.5c1.2-1.6,3.1-2.7,4.8-2.7
			C342.7,621.1,343.7,622.4,343.7,625.6z M343.1,631.6l2.4,0.5v0.9h-5.6v-0.9l2.6-0.5H343.1z"/>
		<path class="st3" d="M345.5,637.4c0.2-0.7,0.9-1.1,1.6-1.1c0.6,0,1.1,0.2,1.8,0.9l0.8,0.8l-0.9,0.5L348,638
			c1.6-0.8,2.6-2.4,3.2-4.1l0.8-2.2l3.7-10.2h1.3l-4.4,11.4c-1.6,4.3-3,6.1-5,6.1C346.5,639,345.5,638.3,345.5,637.4z M347.9,622.7
			l-2.4-0.4v-0.9h5.8v0.9l-2.9,0.3H347.9z M351.6,634.2l-5.1-12.8h2.4l3.8,10.3L351.6,634.2z M355.7,622.7l-2.5-0.4v-0.9h4.7v0.9
			l-1.7,0.4H355.7z"/>
		<path class="st3" d="M357.6,631.5c0-1,0.8-1.8,1.7-1.8c1,0,1.7,0.8,1.7,1.8c0,0.9-0.8,1.7-1.7,1.7
			C358.4,633.3,357.6,632.5,357.6,631.5z"/>
		<path class="st3" d="M365.4,627c0,3,1.6,4.7,3.9,4.7c1.4,0,2.6-0.7,3.4-1.9l0.6,0.3c-0.7,2-2.2,3.1-4.5,3.1c-3.3,0-5.4-2.3-5.4-6
			c0-3.8,2.7-6.1,5.6-6.1c2.2,0,4,1.3,4.3,3.2c-0.1,0.6-0.5,0.9-1.1,0.9c-0.8,0-1.2-0.5-1.3-1.2l-0.6-2.1l1.2,0.9
			c-0.8-0.4-1.6-0.6-2.3-0.6C366.9,622.2,365.4,623.9,365.4,627z"/>
		<path class="st3" d="M375.2,627.2c0-4,2.7-6.1,5.6-6.1c2.8,0,5.6,2.1,5.6,6.1c0,4-2.8,6-5.6,6
			C377.9,633.3,375.2,631.2,375.2,627.2z M384,627.2c0-3.3-1.2-5-3.3-5c-2.1,0-3.3,1.8-3.3,5s1.2,4.9,3.3,4.9
			C382.8,632.2,384,630.5,384,627.2z"/>
		<path class="st3" d="M390.1,632.9c0-1.1,0.1-3.6,0.1-5.1v-1.2c0-1.3,0-2.1-0.1-3l-1.9-0.2v-0.9l3.4-1.5l0.4,0.2l0.3,2.8v3.7
			c0,1.5,0,4,0.1,5.1H390.1z M394,632.1v0.9h-5.6v-0.9l2.6-0.5h0.6L394,632.1z M399.5,625.6v2.3c0,1.6,0,4,0.1,5.1h-2.2
			c0-1.1,0.1-3.5,0.1-5.1v-2.1c0-2.2-0.6-2.9-2-2.9c-1.2,0-2.1,0.5-3.5,1.7h-0.5v-1.1h1.3l-1,0.5c1.2-1.6,3-2.7,4.7-2.7
			C398.5,621.1,399.5,622.4,399.5,625.6z M398.9,631.6l2.4,0.5v0.9h-5.6v-0.9l2.6-0.5H398.9z M406.8,625.3v2.5c0,1.6,0,4,0.1,5.1
			h-2.2c0-1.1,0.1-3.5,0.1-5.1v-2.1c0-2.3-0.6-2.9-2-2.9c-1.1,0-2.1,0.5-3.4,1.7h-0.6v-0.9h1.3l-1.1,0.2c1.3-1.8,3.1-2.7,4.8-2.7
			C405.7,621.1,406.8,622.3,406.8,625.3z M406.1,631.6l2.4,0.5v0.9h-5.6v-0.9l2.6-0.5H406.1z"/>
		<path class="st3" d="M86.2,635.4v-1.2h323v1.2H86.2z"/>
	</g>
</g>
<g>
	<g>
		<path class="st8" d="M551.5,205v-0.6h2v0.8h-0.1L551.5,205z M553.6,213.1l1.8,0.2v0.6h-4v-0.6l1.8-0.2H553.6z M552.8,208.8
			c0-1.4,0-2.9,0-4.4h1.4c0,1.4,0,2.9,0,4.4v0.5c0,1.6,0,3.1,0,4.5h-1.4c0-1.4,0-2.9,0-4.4V208.8z M557.3,204.4l0.7,0.7h-4.5v-0.7h5
			l0.1,2.5h-0.8L557.3,204.4z M556.7,209.4h-3.3v-0.7h3.3V209.4z M556.3,208.9l0.2-1.5h0.6v3.5h-0.6l-0.2-1.6V208.9z"/>
		<path class="st8" d="M561.2,211.4c0,1.2,0.4,1.7,1.1,1.7c0.7,0,1.4-0.4,2.1-1.1h0.3v0.7H564l0.5-0.2c-0.8,1.1-1.8,1.6-2.7,1.6
			c-1.1,0-1.8-0.7-1.8-2.5l0-3.7l0.3,0.3l-1.3-0.3v-0.5l2.1-0.2l0.1,0.1l-0.1,2V211.4z M564.5,214l-0.2-1.6l0-4.5l0.3,0.3l-1.3-0.3
			v-0.5l2-0.2l0.1,0.1l0,2v4.2l-0.4-0.4l1.3,0.3v0.5L564.5,214z"/>
		<path class="st8" d="M569.4,203.5l0.2,0.1l-0.1,2v5.3c0,1,0,2,0,3h-1.3c0-1,0-2,0-3v-6.2l-1.2-0.1v-0.5L569.4,203.5z M570.7,213.3
			v0.5h-3.5v-0.5l1.6-0.3h0.3L570.7,213.3z"/>
		<path class="st8" d="M573.6,203.5l0.2,0.1l-0.1,2v5.3c0,1,0,2,0,3h-1.3c0-1,0-2,0-3v-6.2l-1.2-0.1v-0.5L573.6,203.5z M574.9,213.3
			v0.5h-3.5v-0.5l1.6-0.3h0.3L574.9,213.3z"/>
		<path class="st8" d="M579.1,213.3l1.5-0.2h0.3l1.6,0.2v0.6h-3.4V213.3z M580,204.9l0.9,0.3l-1.7-0.2v-0.6h2.2l5.8,8v1.5h-0.5
			L580,204.9z M580.3,204.4l0.7,0.6v8.8h-0.7V204.4z M584.9,204.4h3.4v0.6l-1.4,0.2h-0.3l-1.7-0.2V204.4z M586.4,204.4h0.7v9.5
			l-0.7-0.7V204.4z"/>
		<path class="st8" d="M591.7,210.2c0.6-0.2,1.5-0.5,2.2-0.6v0.5c-0.6,0.1-1.5,0.4-1.9,0.6c-1.2,0.5-1.4,1-1.4,1.4
			c0,0.7,0.5,1,1.1,1c0.5,0,0.8-0.2,1.6-0.8l0.3-0.2l0.2,0.3l-0.4,0.4c-0.8,0.8-1.3,1.2-2.2,1.2c-1,0-1.9-0.6-1.9-1.8
			C589.4,211.5,589.8,210.8,591.7,210.2z M593.3,212.6v-3.2c0-1.4-0.4-1.7-1.3-1.7c-0.3,0-0.7,0-1.3,0.2l0.6-0.4l-0.4,1.2
			c-0.1,0.4-0.3,0.7-0.7,0.7c-0.4,0-0.6-0.2-0.7-0.6c0.3-1.1,1.3-1.7,2.7-1.7c1.5,0,2.2,0.7,2.2,2.4v3c0,0.6,0.2,0.8,0.5,0.8
			c0.2,0,0.4-0.1,0.5-0.3l0.3,0.3c-0.3,0.5-0.7,0.7-1.2,0.7C593.8,214,593.3,213.4,593.3,212.6z"/>
		<path class="st8" d="M597.4,213.9c0-0.6,0-2.1,0-3v-0.7c0-0.8,0-1.2,0-1.8l-1.1-0.1v-0.5l2-0.8l0.2,0.1l0.2,1.6v2.1
			c0,0.9,0,2.3,0,3H597.4z M599.6,213.3v0.5h-3.3v-0.5l1.5-0.3h0.3L599.6,213.3z M602.8,209.6v1.3c0,0.9,0,2.3,0,3h-1.3
			c0-0.6,0-2.1,0-3v-1.2c0-1.3-0.3-1.7-1.2-1.7c-0.7,0-1.2,0.3-2,1h-0.3v-0.6h0.7l-0.6,0.3c0.7-0.9,1.7-1.6,2.7-1.6
			C602.3,207,602.8,207.7,602.8,209.6z M602.5,213.1l1.4,0.3v0.5h-3.3v-0.5l1.5-0.3H602.5z M607.1,209.4v1.5c0,0.9,0,2.3,0,3h-1.3
			c0-0.6,0-2.1,0-3v-1.2c0-1.3-0.4-1.7-1.2-1.7c-0.6,0-1.2,0.3-2,1h-0.3v-0.5h0.8l-0.6,0.1c0.7-1.1,1.8-1.6,2.8-1.6
			C606.4,207,607.1,207.7,607.1,209.4z M606.7,213.1l1.4,0.3v0.5h-3.3v-0.5l1.5-0.3H606.7z"/>
		<path class="st8" d="M615,209.7c0,0.3,0,0.6-0.1,0.8h-5.2v-0.6h3.3c0.7,0,0.8-0.3,0.8-0.7c0-0.8-0.7-1.5-1.5-1.5
			c-0.9,0-1.9,0.8-1.9,2.8c0,1.8,0.9,2.7,2.3,2.7c0.9,0,1.5-0.4,2-1l0.3,0.3c-0.5,1-1.4,1.6-2.7,1.6c-1.9,0-3.1-1.3-3.1-3.5
			c0-2.2,1.5-3.6,3.2-3.6C613.8,207,615,208,615,209.7z"/>
	</g>
</g>
<g>
	<g>
		<path class="st8" d="M551.5,282.5V282h2v0.8h-0.1L551.5,282.5z M553.5,290.6v0.8h-2v-0.6l1.8-0.2H553.5z M552.8,286.3
			c0-1.4,0-2.9,0-4.4h1.4c0,1.4,0,2.9,0,4.4v0.5c0,1.6,0,3.1,0,4.5h-1.4c0-1.4,0-2.9,0-4.4V286.3z M557.3,282l0.7,0.7h-4.5V282h5
			l0.1,2.5h-0.8L557.3,282z M556.6,286.9h-3.2v-0.7h3.2V286.9z M558.9,288.9l-0.1,2.5h-5.3v-0.7h4.8l-0.7,0.7l0.4-2.5H558.9z
			 M556.2,286.4l0.2-1.5h0.6v3.3h-0.6l-0.2-1.6V286.4z"/>
		<path class="st8" d="M560.9,291.4c0-0.6,0-2.1,0-3v-0.7c0-0.8,0-1.2,0-1.8l-1.1-0.1v-0.5l2-0.8l0.2,0.1l0.2,1.6v2.1
			c0,0.9,0,2.3,0,3H560.9z M563.2,290.9v0.5h-3.3v-0.5l1.5-0.3h0.3L563.2,290.9z M566.4,287.1v1.3c0,0.9,0,2.3,0,3h-1.3
			c0-0.6,0-2.1,0-3v-1.2c0-1.3-0.3-1.7-1.2-1.7c-0.7,0-1.2,0.3-2,1h-0.3v-0.6h0.7l-0.6,0.3c0.7-0.9,1.7-1.6,2.7-1.6
			C565.8,284.5,566.4,285.3,566.4,287.1z M566,290.6l1.4,0.3v0.5h-3.3v-0.5l1.5-0.3H566z M570.6,287v1.5c0,0.9,0,2.3,0,3h-1.3
			c0-0.6,0-2.1,0-3v-1.2c0-1.3-0.4-1.7-1.2-1.7c-0.6,0-1.2,0.3-2,1h-0.3V286h0.8l-0.6,0.1c0.7-1.1,1.8-1.6,2.8-1.6
			C569.9,284.5,570.6,285.2,570.6,287z M570.2,290.6l1.4,0.3v0.5h-3.3v-0.5l1.5-0.3H570.2z"/>
		<path class="st8" d="M575,287.7c0.6-0.2,1.5-0.5,2.2-0.6v0.5c-0.6,0.1-1.5,0.4-1.9,0.6c-1.2,0.5-1.4,1-1.4,1.4c0,0.7,0.5,1,1.1,1
			c0.5,0,0.8-0.2,1.6-0.8l0.3-0.2l0.2,0.3l-0.4,0.4c-0.8,0.8-1.3,1.2-2.2,1.2c-1,0-1.9-0.6-1.9-1.8C572.6,289,573.1,288.4,575,287.7
			z M576.6,290.1v-3.2c0-1.4-0.4-1.7-1.3-1.7c-0.3,0-0.7,0-1.3,0.2l0.6-0.4l-0.4,1.2c-0.1,0.4-0.3,0.7-0.7,0.7
			c-0.4,0-0.6-0.2-0.7-0.6c0.3-1.1,1.3-1.7,2.7-1.7c1.5,0,2.2,0.7,2.2,2.4v3c0,0.6,0.2,0.8,0.5,0.8c0.2,0,0.4-0.1,0.5-0.3l0.3,0.3
			c-0.3,0.5-0.7,0.7-1.2,0.7C577.1,291.5,576.6,291,576.6,290.1z"/>
		<path class="st8" d="M580.7,291.4c0-0.6,0-2.1,0-3v-0.7c0-0.8,0-1.2,0-1.8l-1.1-0.1v-0.5l2.2-0.8l0.2,0.1l0,1.9v1.9
			c0,0.9,0,2.3,0,3H580.7z M582.9,290.9v0.5h-3.3v-0.5l1.5-0.3h0.3L582.9,290.9z M580.4,282.1c0-0.5,0.4-0.9,0.9-0.9
			c0.5,0,0.9,0.4,0.9,0.9c0,0.5-0.4,0.9-0.9,0.9C580.8,283,580.4,282.6,580.4,282.1z"/>
		<path class="st8" d="M585.9,281l0.2,0.1l-0.1,2v5.3c0,1,0,2,0,3h-1.3c0-1,0-2,0-3v-6.2l-1.2-0.1v-0.5L585.9,281z M587.2,290.9v0.5
			h-3.5v-0.5l1.6-0.3h0.3L587.2,290.9z"/>
	</g>
</g>
<g>
	<g>
		<path class="st8" d="M551.5,359.1v-0.6h2v0.8h-0.1L551.5,359.1z M553.6,367.1l1.8,0.2v0.6h-4v-0.6l1.8-0.2H553.6z M552.8,362.9
			c0-1.4,0-2.9,0-4.4h1.4c0,1.4,0,2.9,0,4.4v0.9c0,1.4,0,2.7,0,4.2h-1.4c0-1.4,0-2.9,0-4.4V362.9z M554.9,364.2h-1.4v-0.7h1.6
			c1.7,0,2.4-0.9,2.4-2.2c0-1.4-0.8-2.1-2.4-2.1h-1.5v-0.7h1.8c2.4,0,3.6,1.2,3.6,2.8C558.8,362.9,557.7,364.2,554.9,364.2z"/>
		<path class="st8" d="M560.6,358.8l-1.2-0.1v-0.5l2.2-0.6l0.2,0.1l-0.1,2v3l0,0.2v2.2c0,0.9,0,2.3,0,3h-1.3c0-0.6,0-2.1,0-3V358.8z
			 M562.8,367.4v0.5h-3.3v-0.5l1.5-0.3h0.3L562.8,367.4z M566.1,363.6v1.3c0,0.9,0,2.3,0,3h-1.3c0-0.6,0-2.1,0-3v-1.2
			c0-1.3-0.3-1.7-1.2-1.7c-0.7,0-1.3,0.3-2.1,1h-0.3v-0.7h0.7l-0.6,0.3c0.7-0.9,1.8-1.6,2.8-1.6
			C565.5,361.1,566.1,361.8,566.1,363.6z M565.7,367.1l1.4,0.3v0.5h-3.3v-0.5l1.5-0.3H565.7z"/>
		<path class="st8" d="M568.2,364.6c0-2.3,1.6-3.5,3.2-3.5c1.6,0,3.2,1.2,3.2,3.5s-1.6,3.5-3.2,3.5
			C569.8,368.1,568.2,366.9,568.2,364.6z M573.3,364.6c0-1.9-0.7-2.9-1.9-2.9c-1.2,0-1.9,1-1.9,2.9c0,1.9,0.7,2.9,1.9,2.9
			C572.6,367.5,573.3,366.5,573.3,364.6z"/>
		<path class="st8" d="M576.9,367.9c0-0.6,0-2.1,0-3v-0.7c0-0.8,0-1.2,0-1.8l-1.1-0.1v-0.5l2-0.8l0.2,0.1l0.2,1.6v2.1
			c0,0.9,0,2.3,0,3H576.9z M579.1,367.4v0.5h-3.3v-0.5l1.5-0.3h0.3L579.1,367.4z M582.4,363.6v1.3c0,0.9,0,2.3,0,3h-1.3
			c0-0.6,0-2.1,0-3v-1.2c0-1.3-0.3-1.7-1.2-1.7c-0.7,0-1.3,0.3-2.1,1h-0.3v-0.6h0.7l-0.6,0.3c0.7-0.9,1.8-1.6,2.8-1.6
			C581.8,361.1,582.4,361.8,582.4,363.6z M582,367.1l1.4,0.3v0.5h-3.3v-0.5l1.5-0.3H582z"/>
		<path class="st8" d="M590.3,363.8c0,0.3,0,0.6-0.1,0.8H585v-0.6h3.3c0.7,0,0.8-0.3,0.8-0.7c0-0.8-0.7-1.5-1.5-1.5
			c-0.9,0-1.9,0.8-1.9,2.8c0,1.8,0.9,2.7,2.3,2.7c0.9,0,1.5-0.4,2-1l0.3,0.3c-0.5,1-1.4,1.6-2.7,1.6c-1.9,0-3.1-1.3-3.1-3.5
			c0-2.2,1.5-3.6,3.2-3.6C589.2,361.1,590.3,362.1,590.3,363.8z"/>
		<path class="st8" d="M594.8,367.3l1.5-0.2h0.3l1.6,0.2v0.6h-3.4V367.3z M595.7,358.9l0.9,0.3l-1.7-0.2v-0.6h2.2l5.8,8v1.5h-0.5
			L595.7,358.9z M596,358.5l0.7,0.6v8.8H596V358.5z M600.6,358.5h3.4v0.6l-1.4,0.2h-0.3l-1.7-0.2V358.5z M602.1,358.5h0.7v9.5
			l-0.7-0.7V358.5z"/>
		<path class="st8" d="M606.8,365.4c0,1.2,0.4,1.7,1.1,1.7c0.7,0,1.4-0.4,2.1-1.1h0.3v0.7h-0.7l0.5-0.2c-0.8,1.1-1.8,1.6-2.7,1.6
			c-1.1,0-1.8-0.7-1.8-2.5l0-3.7l0.3,0.3l-1.3-0.3v-0.5l2.1-0.2l0.1,0.1l-0.1,2V365.4z M610.1,368l-0.2-1.6l0-4.5l0.3,0.3l-1.3-0.3
			v-0.5l2-0.2l0.1,0.1l0,2v4.2l-0.4-0.4l1.3,0.3v0.5L610.1,368z"/>
		<path class="st8" d="M614.1,367.9c0-0.6,0-2.1,0-3v-0.7c0-0.8,0-1.2,0-1.8l-1.1-0.1v-0.5l2-0.8l0.2,0.1l0.2,1.6v2.1
			c0,0.9,0,2.3,0,3H614.1z M616.3,367.4v0.5h-3.3v-0.5l1.5-0.3h0.3L616.3,367.4z M619.5,363.6v1.3c0,0.9,0,2.3,0,3h-1.3
			c0-0.6,0-2.1,0-3v-1.2c0-1.3-0.3-1.7-1.2-1.7c-0.7,0-1.2,0.3-2,1h-0.3v-0.6h0.7l-0.6,0.3c0.7-0.9,1.7-1.6,2.7-1.6
			C619,361.1,619.5,361.8,619.5,363.6z M619.1,367.1l1.4,0.3v0.5h-3.3v-0.5l1.5-0.3H619.1z M623.8,363.5v1.5c0,0.9,0,2.3,0,3h-1.3
			c0-0.6,0-2.1,0-3v-1.2c0-1.3-0.4-1.7-1.2-1.7c-0.6,0-1.2,0.3-2,1h-0.3v-0.5h0.8l-0.6,0.1c0.7-1.1,1.8-1.6,2.8-1.6
			C623.1,361.1,623.8,361.8,623.8,363.5z M623.4,367.1l1.4,0.3v0.5h-3.3v-0.5l1.5-0.3H623.4z"/>
		<path class="st8" d="M625.6,367.4l1.5-0.3l-0.5,0.8c0-0.6,0-2.1,0-3v-6.2l-1.2-0.1v-0.5l2.2-0.6l0.2,0.1l-0.1,2v2.7l0,0.2v4.3
			l-0.2,1.3l-2.1-0.1V367.4z M631.4,364.6c0-1.8-0.7-2.8-1.8-2.8c-0.5,0-1.2,0.3-2.2,1.3l-0.1-0.3c0.8-1.3,1.7-1.8,2.7-1.8
			c1.5,0,2.7,1.3,2.7,3.5c0,2.2-1.2,3.6-2.9,3.6c-0.9,0-1.7-0.4-2.5-1.9l0.1-0.2c0.7,0.9,1.5,1.3,2.1,1.3
			C630.5,367.3,631.4,366.4,631.4,364.6z"/>
		<path class="st8" d="M639.8,363.8c0,0.3,0,0.6-0.1,0.8h-5.2v-0.6h3.3c0.7,0,0.8-0.3,0.8-0.7c0-0.8-0.7-1.5-1.5-1.5
			c-0.9,0-1.9,0.8-1.9,2.8c0,1.8,0.9,2.7,2.3,2.7c0.9,0,1.5-0.4,2-1l0.3,0.3c-0.5,1-1.4,1.6-2.7,1.6c-1.9,0-3.1-1.3-3.1-3.5
			c0-2.2,1.5-3.6,3.2-3.6C638.6,361.1,639.8,362.1,639.8,363.8z"/>
		<path class="st8" d="M642.1,365v-0.7c0-0.8,0-1.2,0-1.8l-1.1-0.1v-0.5l2-0.8l0.2,0.1l0.2,1.8v2c0,0.9,0,2.3,0,3H642
			C642.1,367.3,642.1,365.8,642.1,365z M641.1,367.4l1.5-0.3h0.3l1.5,0.3v0.5h-3.4V367.4z M642.7,363.1h0.8l-0.3,0.1
			c0.4-1.3,1.3-2.1,2.1-2.1c0.4,0,0.8,0.2,1,0.5c0,0.7-0.3,1-0.8,1c-0.3,0-0.6-0.1-0.9-0.4l-0.4-0.3l0.7-0.1
			c-0.9,0.4-1.4,1.2-1.7,2.2l-0.6,0V363.1z"/>
	</g>
</g>
<g>
	<g>
		<path class="st8" d="M556.3,434.5c0-0.9-0.5-1.3-1.7-1.8l-0.5-0.2c-1.4-0.6-2.4-1.4-2.4-2.8c0-1.6,1.4-2.6,3.2-2.6
			c0.9,0,1.7,0.3,2.3,0.7l-0.1,1.8h-0.9l-0.4-2.1l0.9,0.5v0.7c-0.7-0.7-1.2-0.9-2-0.9c-1.1,0-1.9,0.5-1.9,1.6c0,0.9,0.6,1.4,1.6,1.8
			l0.6,0.2c1.9,0.7,2.6,1.5,2.6,2.9c0,1.7-1.4,2.7-3.3,2.7c-1.1,0-2.1-0.3-2.7-0.7l0.1-2h0.9l0.4,2.2l-0.9-0.4v-0.7
			c0.9,0.6,1.4,0.9,2.3,0.9C555.4,436.2,556.3,435.6,556.3,434.5z"/>
		<path class="st8" d="M560.4,434.2c0,1.2,0.4,1.7,1.1,1.7c0.7,0,1.4-0.4,2.1-1.1h0.3v0.7h-0.7l0.5-0.2c-0.8,1.1-1.8,1.6-2.7,1.6
			c-1.1,0-1.8-0.7-1.8-2.5l0-3.7l0.3,0.3l-1.3-0.3v-0.5l2.1-0.2l0.1,0.1l-0.1,2V434.2z M563.7,436.8l-0.2-1.6l0-4.5l0.3,0.3
			l-1.3-0.3v-0.5l2-0.2l0.1,0.1l0,2v4.2l-0.4-0.4l1.3,0.3v0.5L563.7,436.8z"/>
		<path class="st8" d="M566.5,436.2l1.5-0.3l-0.5,0.8c0-0.6,0-2.1,0-3v-6.2l-1.2-0.1v-0.5l2.2-0.6l0.2,0.1l-0.1,2v2.7l0,0.2v4.3
			l-0.2,1.3l-2.1-0.1V436.2z M572.3,433.4c0-1.8-0.7-2.8-1.8-2.8c-0.5,0-1.2,0.3-2.2,1.3l-0.1-0.3c0.8-1.3,1.7-1.8,2.7-1.8
			c1.5,0,2.7,1.3,2.7,3.5c0,2.2-1.2,3.6-2.9,3.6c-0.9,0-1.7-0.4-2.5-1.9l0.1-0.2c0.7,0.9,1.5,1.3,2.1,1.3
			C571.5,436.1,572.3,435.2,572.3,433.4z"/>
		<path class="st8" d="M575.8,433.1c0-0.8,0-1.2,0-1.8l-1.1-0.1v-0.5l2.1-0.8l0.2,0.1l0,1.9v3.4c0,2.3-0.1,3.3-0.8,4.1
			c-0.5,0.5-1,0.8-1.8,0.8c-0.9,0-1.2-0.4-1.3-0.8c0.1-0.4,0.4-0.6,0.8-0.6c0.4,0,0.7,0.1,1.1,0.4l0.6,0.5l-1.8,0.2l0-0.6
			c0.1,0.2,0.5,0.3,0.8,0.3c0.4,0,0.7-0.1,0.9-0.6c0.2-0.6,0.3-1.7,0.3-3.8V433.1z M575.4,427.3c0-0.5,0.4-0.9,0.9-0.9
			c0.5,0,0.9,0.4,0.9,0.9c0,0.5-0.4,0.9-0.9,0.9C575.8,428.2,575.4,427.9,575.4,427.3z"/>
		<path class="st8" d="M584.6,432.5c0,0.3,0,0.6-0.1,0.8h-5.2v-0.6h3.3c0.7,0,0.8-0.3,0.8-0.7c0-0.8-0.7-1.5-1.5-1.5
			c-0.9,0-1.9,0.8-1.9,2.8c0,1.8,0.9,2.7,2.3,2.7c0.9,0,1.5-0.4,2-1l0.3,0.3c-0.5,1-1.4,1.6-2.7,1.6c-1.9,0-3.1-1.3-3.1-3.5
			c0-2.2,1.5-3.6,3.2-3.6C583.5,429.8,584.6,430.8,584.6,432.5z"/>
		<path class="st8" d="M587.1,433.2c0,1.8,0.9,2.7,2.2,2.7c0.8,0,1.5-0.4,1.9-1.1l0.3,0.2c-0.4,1.2-1.3,1.8-2.6,1.8
			c-1.9,0-3.2-1.3-3.2-3.5c0-2.2,1.6-3.5,3.3-3.5c1.3,0,2.3,0.8,2.5,1.8c-0.1,0.4-0.3,0.5-0.7,0.5c-0.5,0-0.7-0.3-0.8-0.7l-0.3-1.2
			l0.7,0.5c-0.5-0.3-0.9-0.3-1.3-0.3C588,430.4,587.1,431.4,587.1,433.2z"/>
		<path class="st8" d="M595.4,436.1c0.3,0,0.6-0.1,0.9-0.4l0.3,0.4c-0.4,0.5-0.9,0.7-1.7,0.7c-1,0-1.6-0.5-1.6-1.6
			c0-0.3,0-0.6,0-1.2v-3.3h-1.2v-0.6l1.7-0.2l-0.6,0.5l0.4-2.3h0.9l-0.1,2.5v4.5C594.6,435.8,594.9,436.1,595.4,436.1z M596.6,430
			v0.7H594V430H596.6z"/>
	</g>
</g>
<g>
	<g>
		<path class="st8" d="M551.4,499l1.5-0.2h0.3l1.4,0.2v0.6h-3.2V499z M551.4,490.2h1.9l0,0.8h-0.2l-1.7-0.2V490.2z M552.7,490.2h0.6
			l0.1,4.2v5.2h-0.7V490.2z M552.7,490.2h1.3l3.4,8.3h-0.5l3.2-8.3h0.8l-3.6,9.4h-0.7L552.7,490.2z M559.1,499l1.7-0.2h0.3l1.8,0.2
			v0.6h-3.8V499z M560.3,495.2l0-5.1h1.3c0,1.4,0,2.9,0,4.4v0.7c0,1.5,0,2.9,0,4.4h-1.4C560.3,498.2,560.3,496.7,560.3,495.2z
			 M560.9,490.2h2v0.6l-1.8,0.2h-0.1V490.2z"/>
		<path class="st8" d="M569.7,495.4c0,0.3,0,0.6-0.1,0.8h-5.2v-0.6h3.3c0.7,0,0.8-0.3,0.8-0.7c0-0.8-0.7-1.5-1.5-1.5
			c-0.9,0-1.9,0.8-1.9,2.8c0,1.8,0.9,2.7,2.3,2.7c0.9,0,1.5-0.4,2-1l0.3,0.3c-0.5,1-1.4,1.6-2.7,1.6c-1.9,0-3.1-1.3-3.1-3.5
			c0-2.2,1.5-3.6,3.2-3.6C568.6,492.7,569.7,493.7,569.7,495.4z"/>
		<path class="st8" d="M571.1,499.2l-0.1-1.5h0.8l0.4,1.7l-0.7-0.3v-0.5c0.5,0.4,1,0.6,1.7,0.6c1.1,0,1.6-0.4,1.6-1.1
			c0-0.6-0.4-0.9-1.3-1.2l-0.7-0.2c-1-0.4-1.7-0.9-1.7-1.9c0-1,0.9-2,2.4-2c0.8,0,1.4,0.2,2,0.6l-0.1,1.4h-0.7l-0.3-1.4l0.5,0.2v0.4
			c-0.5-0.4-0.9-0.5-1.4-0.5c-0.9,0-1.3,0.4-1.3,1c0,0.6,0.3,0.9,1.3,1.2l0.4,0.2c1.4,0.5,1.9,1.2,1.9,2.1c0,1.1-0.9,2-2.7,2
			C572.4,499.8,571.8,499.6,571.1,499.2z"/>
		<path class="st8" d="M577.2,499.2l-0.1-1.5h0.8l0.4,1.7l-0.7-0.3v-0.5c0.5,0.4,1,0.6,1.7,0.6c1.1,0,1.6-0.4,1.6-1.1
			c0-0.6-0.4-0.9-1.3-1.2l-0.7-0.2c-1-0.4-1.7-0.9-1.7-1.9c0-1,0.9-2,2.4-2c0.8,0,1.4,0.2,2,0.6l-0.1,1.4h-0.7l-0.3-1.4l0.5,0.2v0.4
			c-0.5-0.4-0.9-0.5-1.4-0.5c-0.9,0-1.3,0.4-1.3,1c0,0.6,0.3,0.9,1.3,1.2l0.4,0.2c1.4,0.5,1.9,1.2,1.9,2.1c0,1.1-0.9,2-2.7,2
			C578.6,499.8,577.9,499.6,577.2,499.2z"/>
		<path class="st8" d="M585.6,495.9c0.6-0.2,1.5-0.5,2.2-0.6v0.5c-0.6,0.1-1.5,0.4-1.9,0.6c-1.2,0.5-1.4,1-1.4,1.4
			c0,0.7,0.5,1,1.1,1c0.5,0,0.8-0.2,1.6-0.8l0.3-0.2l0.2,0.3l-0.4,0.4c-0.8,0.8-1.3,1.2-2.2,1.2c-1,0-1.9-0.6-1.9-1.8
			C583.3,497.2,583.7,496.6,585.6,495.9z M587.2,498.3v-3.2c0-1.4-0.4-1.7-1.3-1.7c-0.3,0-0.7,0-1.3,0.2l0.6-0.4l-0.4,1.2
			c-0.1,0.4-0.3,0.7-0.7,0.7c-0.4,0-0.6-0.2-0.7-0.6c0.3-1.1,1.3-1.7,2.7-1.7c1.5,0,2.2,0.7,2.2,2.4v3c0,0.6,0.2,0.8,0.5,0.8
			c0.2,0,0.4-0.1,0.5-0.3l0.3,0.3c-0.3,0.5-0.7,0.7-1.2,0.7C587.7,499.7,587.2,499.2,587.2,498.3z"/>
		<path class="st8" d="M595.5,500.9c0-0.6-0.4-1.1-1.4-1.1h-1.6c-0.3,0-0.5,0-0.7-0.1v0c-0.7-0.2-1.1-0.5-1.1-1.1
			c0-0.5,0.3-1,1.3-1.9l0.3,0.2c-0.4,0.4-0.6,0.7-0.6,1.2c0,0.4,0.2,0.6,0.8,0.6h1.8c1.5,0,2.3,0.7,2.3,1.8c0,1.2-1.2,2.4-3.5,2.4
			c-2,0-2.9-0.7-2.9-1.7c0-0.7,0.4-1.2,1.8-1.8l0.1,0.1c-0.5,0.5-0.8,1-0.8,1.5c0,0.9,0.7,1.3,1.8,1.3
			C594.7,502.3,595.5,501.7,595.5,500.9z M593,492.7c1.5,0,2.5,0.8,2.5,2.3c0,1.5-1.1,2.3-2.5,2.3c-1.5,0-2.5-0.8-2.5-2.3
			C590.5,493.5,591.6,492.7,593,492.7z M591.6,495c0,1,0.5,1.7,1.4,1.7c0.9,0,1.4-0.7,1.4-1.8c0-1-0.5-1.7-1.4-1.7
			C592.2,493.3,591.6,494,591.6,495z M596.4,492.7l0.2,0.1v0.9h-2.1v-0.4L596.4,492.7z"/>
		<path class="st8" d="M603.3,495.4c0,0.3,0,0.6-0.1,0.8H598v-0.6h3.3c0.7,0,0.8-0.3,0.8-0.7c0-0.8-0.7-1.5-1.5-1.5
			c-0.9,0-1.9,0.8-1.9,2.8c0,1.8,0.9,2.7,2.3,2.7c0.9,0,1.5-0.4,2-1l0.3,0.3c-0.5,1-1.4,1.6-2.7,1.6c-1.9,0-3.1-1.3-3.1-3.5
			c0-2.2,1.5-3.6,3.2-3.6C602.1,492.7,603.3,493.7,603.3,495.4z"/>
	</g>
</g>
<line class="st9" x1="65.9" y1="228.9" x2="242.7" y2="228.9"/>
<line class="st10" x1="543.1" y1="227.8" x2="924" y2="227.8"/>
<line class="st10" x1="543.1" y1="306.1" x2="924" y2="306.1"/>
<line class="st10" x1="543.1" y1="384" x2="924" y2="384"/>
<line class="st10" x1="543.1" y1="452.2" x2="924" y2="452.2"/>
<rect x="544.8" y="513.7" class="st10" width="376.6" height="99.5"/>
<rect x="479" y="157" class="st10" width="508.2" height="495.5"/>
</svg>
