<svg xmlns:dc="http://purl.org/dc/elements/1.1/" xmlns:cc="http://creativecommons.org/ns#" xmlns:rdf="http://www.w3.org/1999/02/22-rdf-syntax-ns#" xmlns:svg="http://www.w3.org/2000/svg" xmlns="http://www.w3.org/2000/svg" xmlns:sodipodi="http://sodipodi.sourceforge.net/DTD/sodipodi-0.dtd" xmlns:inkscape="http://www.inkscape.org/namespaces/inkscape" version="1.1" x="0px" y="0px" viewBox="0 0 100 125">
  <g transform="translate(0,-952.36218)">
    <path style="font-size:medium;font-style:normal;font-variant:normal;font-weight:normal;font-stretch:normal;text-indent:0;text-align:start;text-decoration:none;line-height:normal;letter-spacing:normal;word-spacing:normal;text-transform:none;direction:ltr;block-progression:tb;writing-mode:lr-tb;text-anchor:start;baseline-shift:baseline;opacity:1;color:#000000;fill:#000000;fill-opacity:1;stroke:none;stroke-width:2;marker:none;visibility:visible;display:inline;overflow:visible;enable-background:accumulate;font-family:Sans;-inkscape-font-specification:Sans" d="M 32.65625 29 A 1.0001 1.0001 0 0 0 31.84375 30 L 31.84375 33.375 L 27.25 33.375 A 1.0001 1.0001 0 0 0 27.0625 33.375 A 1.0001 1.0001 0 0 0 26.25 34.375 L 26.25 38.375 L 21.53125 38.375 A 1.0001 1.0001 0 0 0 21.3125 38.375 A 1.0001 1.0001 0 0 0 20.53125 39.375 L 20.53125 60.625 A 1.0001 1.0001 0 0 0 21.53125 61.625 L 26.25 61.625 L 26.25 65.625 A 1.0001 1.0001 0 0 0 27.25 66.625 L 31.84375 66.625 L 31.84375 70 A 1.0001 1.0001 0 0 0 32.84375 71 L 67.15625 71 A 1.0001 1.0001 0 0 0 68.15625 70 L 68.15625 66.625 L 72.75 66.625 A 1.0001 1.0001 0 0 0 73.75 65.625 L 73.75 61.625 L 78.46875 61.625 A 1.0001 1.0001 0 0 0 79.46875 60.625 L 79.46875 39.375 A 1.0001 1.0001 0 0 0 78.46875 38.375 L 73.75 38.375 L 73.75 34.375 A 1.0001 1.0001 0 0 0 72.75 33.375 L 68.15625 33.375 L 68.15625 30 A 1.0001 1.0001 0 0 0 67.15625 29 L 32.84375 29 A 1.0001 1.0001 0 0 0 32.65625 29 z M 33.84375 31 L 66.15625 31 L 66.15625 51.40625 L 60.09375 46.6875 A 1.0001 1.0001 0 0 0 59 46.625 L 51.59375 50.875 A 1.0001 1.0001 0 0 0 51.53125 50.90625 L 43.84375 44.8125 A 1.0001 1.0001 0 0 0 43 44.625 A 1.0001 1.0001 0 0 0 42.75 44.71875 L 33.84375 49.53125 L 33.84375 31 z M 52.46875 34.875 C 49.633989 34.875 47.3125 37.19652 47.3125 40.03125 C 47.3125 42.86604 49.633974 45.1875 52.46875 45.1875 C 55.303525 45.1875 57.625 42.86604 57.625 40.03125 C 57.625 37.19652 55.303511 34.875 52.46875 34.875 z M 28.25 35.375 L 31.84375 35.375 L 31.84375 64.625 L 28.25 64.625 L 28.25 35.375 z M 68.15625 35.375 L 71.75 35.375 L 71.75 64.625 L 68.15625 64.625 L 68.15625 35.375 z M 52.46875 36.875 C 54.222641 36.875 55.625 38.27742 55.625 40.03125 C 55.625 41.78518 54.222627 43.1875 52.46875 43.1875 C 50.714872 43.1875 49.3125 41.78518 49.3125 40.03125 C 49.3125 38.27742 50.714857 36.875 52.46875 36.875 z M 22.53125 40.375 L 26.25 40.375 L 26.25 59.625 L 22.53125 59.625 L 22.53125 40.375 z M 73.75 40.375 L 77.46875 40.375 L 77.46875 59.625 L 73.75 59.625 L 73.75 40.375 z M 10.21875 44.34375 A 1.0001 1.0001 0 0 0 9.65625 44.65625 L 5.28125 49.3125 A 1.0001 1.0001 0 0 0 5.28125 50.6875 L 9.65625 55.3125 A 1.0001 1.0001 0 1 0 11.09375 53.9375 L 8.3125 51 L 17.125 51 A 1.0001 1.0001 0 1 0 17.125 49 L 8.3125 49 L 11.09375 46.03125 A 1.0001 1.0001 0 0 0 10.21875 44.34375 z M 89.4375 44.34375 A 1.0001 1.0001 0 0 0 88.90625 46.03125 L 91.6875 49 L 82.875 49 A 1.0001 1.0001 0 0 0 82.6875 49 A 1.0043849 1.0043849 0 0 0 82.875 51 L 91.6875 51 L 88.90625 53.9375 A 1.0001 1.0001 0 1 0 90.34375 55.3125 L 94.71875 50.6875 A 1.0001 1.0001 0 0 0 94.71875 49.3125 L 90.34375 44.65625 A 1.0001 1.0001 0 0 0 89.4375 44.34375 z M 43.125 46.8125 L 54.5 55.75 A 1.0001 1.0001 0 1 0 55.71875 54.1875 L 53.21875 52.21875 L 59.40625 48.6875 L 66.09375 53.90625 A 1.0004491 1.0004491 0 0 0 66.15625 53.9375 L 66.15625 69 L 33.84375 69 L 33.84375 51.84375 L 43.125 46.8125 z " transform="translate(0,952.36218)"/>
  </g>
</svg>

